<svg width="137" height="55" viewBox="0 0 137 55" fill="none" xmlns="http://www.w3.org/2000/svg">
<rect y="0.414062" width="137" height="54" rx="8" fill="#EE7B1D"/>
<path d="M21.742 29.3461C21.274 29.3461 20.878 29.3341 20.554 29.3101C20.242 29.2741 19.828 29.2201 19.312 29.1481L19.294 31.0381C19.282 31.3621 19.276 31.8241 19.276 32.4241C19.276 32.7361 19.186 32.9821 19.006 33.1621C18.838 33.3301 18.646 33.4141 18.43 33.4141C18.034 33.4141 17.74 33.3661 17.548 33.2701C17.356 33.1621 17.26 32.9761 17.26 32.7121C17.26 32.3641 17.29 31.8721 17.35 31.2361C17.482 29.8681 17.548 28.4641 17.548 27.0241C17.548 25.6801 17.506 24.4141 17.422 23.2261C17.434 23.0581 17.518 22.8661 17.674 22.6501C17.842 22.4341 18.052 22.3141 18.304 22.2901C18.58 22.2901 19.018 22.2421 19.618 22.1461C20.242 22.0501 20.716 22.0021 21.04 22.0021C22.024 22.0021 22.786 22.0981 23.326 22.2901C23.878 22.4821 24.43 22.8001 24.982 23.2441C25.582 24.1801 25.882 24.8401 25.882 25.2241C25.882 26.0281 25.72 26.7421 25.396 27.3661C25.072 27.9901 24.598 28.4761 23.974 28.8241C23.35 29.1721 22.606 29.3461 21.742 29.3461ZM21.328 23.5321C20.944 23.5321 20.608 23.5561 20.32 23.6041C20.044 23.6401 19.708 23.7061 19.312 23.8021C19.36 24.9061 19.384 25.7101 19.384 26.2141C19.384 26.7301 19.366 27.1621 19.33 27.5101C19.846 27.6181 20.254 27.6901 20.554 27.7261C20.854 27.7501 21.19 27.7621 21.562 27.7621C22.45 27.7621 23.074 27.5341 23.434 27.0781C23.806 26.6101 23.992 26.0701 23.992 25.4581C23.992 25.2781 23.938 25.0561 23.83 24.7921C23.722 24.5281 23.626 24.3541 23.542 24.2701C23.218 23.9821 22.9 23.7901 22.588 23.6941C22.288 23.5861 21.868 23.5321 21.328 23.5321ZM29.9012 32.6941C29.9012 32.8981 29.8232 33.0781 29.6672 33.2341C29.5112 33.3901 29.3192 33.4681 29.0912 33.4681C28.7312 33.4681 28.4672 33.4021 28.2992 33.2701C28.1312 33.1261 28.0472 32.8681 28.0472 32.4961C28.0472 32.0521 28.0352 31.4701 28.0112 30.7501C27.9872 30.1501 27.9752 29.6461 27.9752 29.2381C27.9752 29.0461 27.9872 28.7941 28.0112 28.4821C28.0352 28.1941 28.0472 27.9781 28.0472 27.8341C28.0112 27.6061 27.9212 27.4201 27.7772 27.2761C27.6332 27.1201 27.4472 27.0421 27.2192 27.0421C27.1112 27.0421 27.0212 26.9941 26.9492 26.8981C26.8772 26.7901 26.8412 26.6821 26.8412 26.5741C26.8412 26.2981 26.9492 26.0881 27.1652 25.9441C27.3932 25.8001 27.6632 25.7281 27.9752 25.7281C28.6232 25.7281 29.0732 26.1121 29.3252 26.8801C29.6372 26.5201 29.9912 26.2321 30.3872 26.0161C30.7952 25.7881 31.1852 25.6741 31.5572 25.6741C32.0012 25.6741 32.4032 25.7941 32.7632 26.0341C33.1352 26.2741 33.3212 26.5981 33.3212 27.0061C33.3212 27.2341 33.2192 27.4681 33.0152 27.7081C32.8232 27.9481 32.6252 28.0681 32.4212 28.0681C32.3132 28.0681 32.2172 28.0441 32.1332 27.9961C32.0612 27.9361 31.9712 27.8521 31.8632 27.7441C31.7432 27.6241 31.6412 27.5401 31.5572 27.4921C31.4732 27.4321 31.3772 27.4021 31.2692 27.4021C31.0772 27.4021 30.8972 27.4321 30.7292 27.4921C30.5612 27.5521 30.4472 27.6241 30.3872 27.7081C30.1952 28.0081 30.0512 28.2781 29.9552 28.5181C29.8712 28.7581 29.8292 29.0161 29.8292 29.2921C29.8292 29.4961 29.8232 29.6581 29.8112 29.7781L29.7932 30.8041C29.7932 30.9601 29.7992 31.1341 29.8112 31.3261C29.8232 31.5181 29.8352 31.6621 29.8472 31.7581C29.8832 32.0821 29.9012 32.3941 29.9012 32.6941ZM34.0495 27.3481C33.9535 27.3481 33.8635 27.3121 33.7795 27.2401C33.7075 27.1561 33.6715 27.0601 33.6715 26.9521C33.6715 26.6761 33.7915 26.4181 34.0315 26.1781C34.1035 26.1421 34.2475 26.0821 34.4635 25.9981C34.6795 25.9141 34.8715 25.8721 35.0395 25.8721C35.4955 25.8721 35.8675 25.9981 36.1555 26.2501C36.4435 26.4901 36.5875 26.8381 36.5875 27.2941C36.5875 27.4261 36.5635 27.7081 36.5155 28.1401C36.4675 28.6441 36.4435 29.0341 36.4435 29.3101C36.4435 30.1501 36.5575 30.8281 36.7855 31.3441C36.8695 31.5121 37.0015 31.6441 37.1815 31.7401C37.3615 31.8361 37.5235 31.8841 37.6675 31.8841C38.0155 31.8841 38.2975 31.8241 38.5135 31.7041C38.7295 31.5841 38.9635 31.3921 39.2155 31.1281C39.4675 30.8641 39.6295 30.5641 39.7015 30.2281C39.7855 29.8921 39.8455 29.4301 39.8815 28.8421C39.9055 28.4581 39.9295 28.1761 39.9535 27.9961C40.0135 27.4201 40.0435 26.9281 40.0435 26.5201C40.0435 26.2561 40.1155 26.0401 40.2595 25.8721C40.4035 25.6921 40.6015 25.6021 40.8535 25.6021C40.9975 25.6021 41.1595 25.6501 41.3395 25.7461C41.5315 25.8301 41.6575 25.9321 41.7175 26.0521C41.7895 26.1721 41.8255 26.3701 41.8255 26.6461C41.8255 26.7901 41.8075 26.9281 41.7715 27.0601C41.6875 27.3601 41.6455 27.7201 41.6455 28.1401L41.6635 29.0761C41.6635 29.9281 41.7235 30.5581 41.8435 30.9661C41.9035 31.1581 41.9875 31.3561 42.0955 31.5601C42.2035 31.7521 42.3055 31.9141 42.4015 32.0461C42.6415 32.3101 42.7975 32.4961 42.8695 32.6041C42.9415 32.7001 42.9775 32.7961 42.9775 32.8921C42.9775 33.0361 42.9055 33.1741 42.7615 33.3061C42.6295 33.4261 42.4855 33.4861 42.3295 33.4861C41.8855 33.4861 41.5015 33.3361 41.1775 33.0361C40.8535 32.7361 40.6135 32.3461 40.4575 31.8661C40.0495 32.3341 39.6715 32.7121 39.3235 33.0001C39.0835 33.1681 38.7895 33.2941 38.4415 33.3781C38.0935 33.4501 37.7455 33.4861 37.3975 33.4861C36.9295 33.4861 36.4555 33.2941 35.9755 32.9101C35.4955 32.5261 35.1715 32.0821 35.0035 31.5781C34.9915 31.5541 34.9555 31.4581 34.8955 31.2901C34.8475 31.1221 34.8235 30.8701 34.8235 30.5341C34.8235 30.0901 34.8475 29.5321 34.8955 28.8601C34.9315 28.4281 34.9495 28.0321 34.9495 27.6721C34.9495 27.5641 34.9075 27.4741 34.8235 27.4021C34.7515 27.3301 34.6675 27.2941 34.5715 27.2941C34.4995 27.2941 34.4155 27.3061 34.3195 27.3301C34.2355 27.3421 34.1455 27.3481 34.0495 27.3481ZM44.1607 29.2921C44.1607 28.5601 44.3227 27.9541 44.6467 27.4741C44.9707 26.9821 45.4207 26.5201 45.9967 26.0881C46.1647 25.9681 46.4467 25.8661 46.8427 25.7821C47.2387 25.6861 47.5867 25.6381 47.8867 25.6381C48.2467 25.6381 48.6247 25.7161 49.0207 25.8721C49.4287 26.0161 49.7587 26.1841 50.0107 26.3761C50.4547 26.7001 50.7607 27.0781 50.9287 27.5101C51.0967 27.9301 51.1807 28.4341 51.1807 29.0221C51.1807 29.2741 51.0367 29.5201 50.7487 29.7601C50.4727 29.9881 50.1727 30.1021 49.8487 30.1021L49.1647 30.0841C48.8167 30.0841 48.3187 30.0961 47.6707 30.1201L47.2927 30.1381C47.0287 30.1621 46.8307 30.1741 46.6987 30.1741C46.5067 30.1741 46.2427 30.1501 45.9067 30.1021C45.9547 30.6661 46.1647 31.1101 46.5367 31.4341C46.9087 31.7461 47.3107 31.9021 47.7427 31.9021C48.4987 31.9021 49.0267 31.7521 49.3267 31.4521C49.5787 31.2721 49.7467 31.1581 49.8307 31.1101C49.9147 31.0621 50.0467 31.0381 50.2267 31.0381C50.4187 31.0381 50.5867 31.1281 50.7307 31.3081C50.8747 31.4881 50.9467 31.6681 50.9467 31.8481C50.9467 32.0521 50.8207 32.2621 50.5687 32.4781C50.3287 32.6821 49.9987 32.8981 49.5787 33.1261C49.3507 33.2221 49.0387 33.3061 48.6427 33.3781C48.2467 33.4501 47.9167 33.4861 47.6527 33.4861C47.2327 33.4861 46.7647 33.3661 46.2487 33.1261C45.7327 32.8741 45.3487 32.5981 45.0967 32.2981C44.8447 31.9981 44.6227 31.5721 44.4307 31.0201C44.2507 30.4681 44.1607 29.8921 44.1607 29.2921ZM47.7427 28.8061C48.5947 28.8061 49.2187 28.7761 49.6147 28.7161C49.5907 28.3681 49.4827 28.0861 49.2907 27.8701C49.0987 27.6421 48.8347 27.4501 48.4987 27.2941C48.3907 27.2461 48.2947 27.2101 48.2107 27.1861C48.1267 27.1621 48.0307 27.1501 47.9227 27.1501C47.3707 27.1501 46.9027 27.3001 46.5187 27.6001C46.1467 27.9001 45.9247 28.2841 45.8527 28.7521C46.4527 28.7881 47.0827 28.8061 47.7427 28.8061ZM53.3157 30.1741C53.3157 29.5021 53.3217 28.9921 53.3337 28.6441L53.3517 26.9341C53.3517 26.2381 53.3337 25.4761 53.2977 24.6481C53.2857 24.3961 53.2437 24.0481 53.1717 23.6041C53.0757 22.9321 53.0277 22.4281 53.0277 22.0921C53.0277 21.5401 53.3037 21.2641 53.8557 21.2641C54.2037 21.2641 54.4497 21.3601 54.5937 21.5521C54.7497 21.7321 54.8577 22.0201 54.9177 22.4161C55.0377 23.2441 55.0977 24.2161 55.0977 25.3321C55.0977 25.6681 55.0857 26.1721 55.0617 26.8441C55.2897 26.4841 55.5837 26.2021 55.9437 25.9981C56.3157 25.7941 56.6817 25.6921 57.0417 25.6921C58.0857 25.6921 58.9857 26.1241 59.7417 26.9881C59.9457 27.2881 60.1257 27.6481 60.2817 28.0681C60.4497 28.4761 60.5337 28.8301 60.5337 29.1301C60.5337 29.6581 60.4737 30.1441 60.3537 30.5881C60.2457 31.0321 60.0477 31.4641 59.7597 31.8841C59.4717 32.3041 59.1057 32.6461 58.6617 32.9101C58.2297 33.1741 57.7257 33.3061 57.1497 33.3061C56.6457 33.3061 56.1897 33.2041 55.7817 33.0001C55.3857 32.7961 55.0677 32.5261 54.8277 32.1901C54.7677 32.4901 54.6357 32.7901 54.4317 33.0901C54.2277 33.3781 53.9937 33.5221 53.7297 33.5221C53.5137 33.5221 53.3337 33.4681 53.1897 33.3601C53.0457 33.2401 52.9737 33.0661 52.9737 32.8381C52.9737 32.6701 53.0097 32.4601 53.0817 32.2081C53.1537 31.8601 53.2077 31.5421 53.2437 31.2541C53.2917 30.9541 53.3157 30.5941 53.3157 30.1741ZM56.6997 31.8121C57.2877 31.8121 57.7797 31.6081 58.1757 31.2001C58.5717 30.7801 58.7697 30.2161 58.7697 29.5081C58.7697 28.8601 58.5957 28.3021 58.2477 27.8341C58.1277 27.6781 57.9537 27.5521 57.7257 27.4561C57.5097 27.3601 57.2937 27.3121 57.0777 27.3121C56.5737 27.3121 56.1477 27.4621 55.7997 27.7621C55.4517 28.0501 55.2537 28.4521 55.2057 28.9681C55.1577 29.6641 55.1337 30.2641 55.1337 30.7681C55.2777 31.0441 55.4937 31.2901 55.7817 31.5061C56.0817 31.7101 56.3877 31.8121 56.6997 31.8121ZM70.4073 32.5501C70.4073 32.8141 70.2633 33.0361 69.9753 33.2161C69.6873 33.3961 69.4233 33.4861 69.1833 33.4861C68.7393 33.4861 68.3793 33.4321 68.1033 33.3241C67.8393 33.2041 67.5873 32.9881 67.3473 32.6761C67.0473 32.9521 66.6273 33.1621 66.0873 33.3061C65.5473 33.4381 65.0493 33.5041 64.5933 33.5041C63.8493 33.5041 63.2313 33.3061 62.7393 32.9101C62.2593 32.5021 62.0193 31.9081 62.0193 31.1281C62.0193 30.7921 62.1213 30.4561 62.3253 30.1201C62.5293 29.7721 62.7813 29.4961 63.0813 29.2921C63.4053 29.0761 63.7713 28.9321 64.1793 28.8601C64.5873 28.7761 65.0613 28.7341 65.6013 28.7341C65.8533 28.7341 66.1533 28.7821 66.5013 28.8781C66.8493 28.9741 67.1253 29.0761 67.3293 29.1841V28.8961C67.3293 28.2481 67.1673 27.8041 66.8433 27.5641C66.5313 27.3121 66.0273 27.1861 65.3313 27.1861C65.1153 27.1861 64.9173 27.2221 64.7373 27.2941C64.5693 27.3541 64.3713 27.4441 64.1433 27.5641C63.9273 27.6841 63.7233 27.7441 63.5312 27.7441C63.3633 27.7441 63.2013 27.6781 63.0453 27.5461C62.8893 27.4021 62.8113 27.2521 62.8113 27.0961C62.8113 26.5921 63.1233 26.2261 63.7473 25.9981C64.3833 25.7581 65.0313 25.6381 65.6913 25.6381C66.0273 25.6381 66.4113 25.7101 66.8433 25.8541C67.2753 25.9861 67.6413 26.1721 67.9413 26.4121C68.3013 26.7121 68.5773 27.0721 68.7693 27.4921C68.9733 27.9121 69.0753 28.3681 69.0753 28.8601C69.0753 29.0161 69.0633 29.2501 69.0393 29.5621C69.0153 29.8981 69.0033 30.1861 69.0033 30.4261L68.9853 30.9121C68.9613 31.1761 68.9493 31.3861 68.9493 31.5421C68.9493 31.6861 68.9973 31.8121 69.0933 31.9201C69.2013 32.0161 69.3273 32.0641 69.4713 32.0641L69.9753 32.0461C70.1073 32.0461 70.2093 32.1001 70.2812 32.2081C70.3653 32.3041 70.4073 32.4181 70.4073 32.5501ZM64.5933 32.0821C65.1093 32.0821 65.5413 32.0281 65.8893 31.9201C66.2373 31.8121 66.6573 31.6141 67.1493 31.3261C67.1973 31.1221 67.2273 30.8521 67.2393 30.5161C66.5793 30.2041 66.0333 30.0481 65.6013 30.0481C65.1933 30.0481 64.8633 30.0661 64.6113 30.1021C64.3593 30.1261 64.1313 30.2281 63.9272 30.4081C63.7233 30.5881 63.6213 30.8761 63.6213 31.2721C63.6213 31.5001 63.7293 31.6921 63.9453 31.8481C64.1733 32.0041 64.3893 32.0821 64.5933 32.0821ZM77.6282 30.6241C77.6282 31.0801 77.6942 31.4341 77.8262 31.6861C77.9702 31.9261 78.1502 32.0461 78.3662 32.0461C78.4862 32.0461 78.6002 32.0401 78.7082 32.0281C78.8162 32.0041 78.9242 31.9921 79.0322 31.9921C79.1522 31.9921 79.2542 32.0521 79.3382 32.1721C79.4342 32.2921 79.4822 32.4241 79.4822 32.5681C79.4822 32.8561 79.3442 33.0841 79.0682 33.2521C78.8042 33.4081 78.4442 33.4861 77.9882 33.4861C77.6642 33.4861 77.3342 33.3901 76.9982 33.1981C76.6742 32.9941 76.4042 32.6821 76.1882 32.2621C75.9722 31.8301 75.8642 31.2961 75.8642 30.6601C75.8642 29.2921 75.8882 28.1341 75.9362 27.1861C75.9962 26.0581 76.0262 24.6361 76.0262 22.9201C76.0262 22.3801 76.0562 22.0021 76.1162 21.7861C76.1882 21.6181 76.3022 21.4921 76.4582 21.4081C76.6262 21.3121 76.8002 21.2641 76.9802 21.2641C77.1602 21.2641 77.3162 21.2941 77.4482 21.3541C77.5922 21.4141 77.6882 21.5101 77.7362 21.6421C77.7842 21.7861 77.8142 21.9301 77.8262 22.0741C77.8502 22.2061 77.8622 22.3981 77.8622 22.6501C77.8622 23.1421 77.8442 23.6161 77.8082 24.0721C77.7842 24.6241 77.7722 25.0261 77.7722 25.2781C77.6762 27.3901 77.6282 29.1721 77.6282 30.6241ZM88.8999 32.5501C88.8999 32.8141 88.7559 33.0361 88.4679 33.2161C88.1919 33.3961 87.9339 33.4861 87.6939 33.4861C87.2379 33.4861 86.8719 33.4321 86.5959 33.3241C86.3319 33.2041 86.0859 32.9881 85.8579 32.6761C85.5459 32.9521 85.1199 33.1621 84.5799 33.3061C84.0399 33.4381 83.5419 33.5041 83.0859 33.5041C82.3419 33.5041 81.7299 33.3061 81.2499 32.9101C80.7699 32.5021 80.5299 31.9081 80.5299 31.1281C80.5299 30.7921 80.6199 30.4861 80.7999 30.2101C80.9799 29.9221 81.2259 29.6701 81.5379 29.4541C81.8859 29.2261 82.2819 29.0521 82.7259 28.9321C83.1699 28.8001 83.6319 28.7341 84.1119 28.7341C84.3639 28.7341 84.6639 28.7821 85.0119 28.8781C85.3599 28.9741 85.6299 29.0761 85.8219 29.1841V28.8961C85.8219 28.2481 85.6659 27.8041 85.3539 27.5641C85.0419 27.3121 84.5379 27.1861 83.8419 27.1861C83.6379 27.1861 83.4339 27.2281 83.2299 27.3121C83.0379 27.3961 82.8159 27.5101 82.5639 27.6541C82.2279 27.8341 81.9099 27.9241 81.6099 27.9241C81.5019 27.9241 81.3999 27.8521 81.3039 27.7081C81.2079 27.5521 81.1599 27.4141 81.1599 27.2941C81.1599 26.9461 81.3219 26.6461 81.6459 26.3941C81.9819 26.1421 82.3779 25.9561 82.8339 25.8361C83.2899 25.7041 83.6979 25.6381 84.0579 25.6381C84.4179 25.6381 84.8319 25.7101 85.2999 25.8541C85.7679 25.9861 86.1519 26.1721 86.4519 26.4121C86.8119 26.7241 87.0879 27.0901 87.2799 27.5101C87.4839 27.9181 87.5859 28.3681 87.5859 28.8601C87.5859 29.0161 87.5739 29.2501 87.5499 29.5621C87.5259 29.8981 87.5139 30.1861 87.5139 30.4261C87.5139 30.5341 87.5019 30.6961 87.4779 30.9121C87.4539 31.1761 87.4419 31.3861 87.4419 31.5421C87.4419 31.6861 87.4959 31.8121 87.6039 31.9201C87.7119 32.0161 87.8379 32.0641 87.9819 32.0641L88.4859 32.0461C88.6179 32.0461 88.7199 32.0941 88.7919 32.1901C88.8639 32.2861 88.8999 32.4061 88.8999 32.5501ZM83.1039 32.0821C83.6199 32.0821 84.0519 32.0281 84.3999 31.9201C84.7479 31.8121 85.1679 31.6141 85.6599 31.3261C85.7079 31.1221 85.7379 30.8521 85.7499 30.5161C85.0899 30.2041 84.5439 30.0481 84.1119 30.0481C83.6199 30.0481 83.1819 30.1381 82.7979 30.3181C82.4139 30.4981 82.2219 30.8161 82.2219 31.2721C82.2219 31.5001 82.3179 31.6921 82.5099 31.8481C82.7019 32.0041 82.8999 32.0821 83.1039 32.0821ZM100.98 33.4861C100.572 33.4861 100.26 33.4261 100.044 33.3061C99.8275 33.1741 99.5935 32.9341 99.3415 32.5861C99.0295 32.8621 98.5615 33.0841 97.9375 33.2521C97.3255 33.4201 96.7975 33.5041 96.3535 33.5041C95.6215 33.5041 95.0275 33.3061 94.5715 32.9101C94.1275 32.5021 93.9055 31.9081 93.9055 31.1281C93.9055 30.7921 93.9955 30.4861 94.1755 30.2101C94.3675 29.9221 94.6135 29.6701 94.9135 29.4541C95.2495 29.2261 95.6455 29.0461 96.1015 28.9141C96.5695 28.7821 96.9955 28.7161 97.3795 28.7161C98.0275 28.7161 98.6035 28.7761 99.1075 28.8961V28.8781C99.1075 28.2301 98.9455 27.7861 98.6215 27.5461C98.3095 27.2941 97.8055 27.1681 97.1095 27.1681C96.6655 27.1681 96.2815 27.3661 95.9575 27.7621C95.8375 27.9181 95.5855 27.9961 95.2015 27.9961C95.0095 27.9961 94.8655 27.9181 94.7695 27.7621C94.6855 27.5941 94.6435 27.4261 94.6435 27.2581C94.6435 26.9101 94.7875 26.6101 95.0755 26.3581C95.3755 26.1061 95.7355 25.9201 96.1555 25.8001C96.5755 25.6681 96.9655 25.6021 97.3255 25.6021C97.6735 25.6021 98.0875 25.6741 98.5675 25.8181C99.0475 25.9621 99.4375 26.1541 99.7375 26.3941C100.098 26.7061 100.374 27.0721 100.566 27.4921C100.77 27.9001 100.872 28.3501 100.872 28.8421C100.872 28.9981 100.86 29.2321 100.836 29.5441C100.812 29.9041 100.8 30.1981 100.8 30.4261C100.8 30.5341 100.788 30.6721 100.764 30.8401C100.74 31.0561 100.728 31.2361 100.728 31.3801C100.728 31.5361 100.776 31.6861 100.872 31.8301C100.968 31.9741 101.1 32.0941 101.268 32.1901C101.424 32.2741 101.526 32.3641 101.574 32.4601C101.622 32.5561 101.646 32.6641 101.646 32.7841C101.646 32.9041 101.568 33.0541 101.412 33.2341C101.268 33.4021 101.124 33.4861 100.98 33.4861ZM97.3795 30.0481C96.9115 30.0481 96.4975 30.1381 96.1375 30.3181C95.7775 30.4981 95.5975 30.8161 95.5975 31.2721C95.5975 31.5001 95.6755 31.6921 95.8315 31.8481C95.9995 32.0041 96.1795 32.0821 96.3715 32.0821C96.8875 32.0821 97.3195 32.0281 97.6675 31.9201C98.0155 31.8121 98.4355 31.6141 98.9275 31.3261C98.9875 31.1341 99.0235 30.8641 99.0355 30.5161C99.0355 30.3841 99.0415 30.2821 99.0535 30.2101C98.4055 30.1021 97.8475 30.0481 97.3795 30.0481ZM103.413 27.1501C103.305 27.1501 103.203 27.1621 103.107 27.1861C103.011 27.1981 102.915 27.2041 102.819 27.2041C102.687 27.2041 102.561 27.1441 102.441 27.0241C102.333 26.9041 102.279 26.7961 102.279 26.7001C102.279 26.3881 102.435 26.1481 102.747 25.9801C103.059 25.8001 103.377 25.7101 103.701 25.7101C103.977 25.7101 104.259 25.8061 104.547 25.9981C104.847 26.1781 105.069 26.4121 105.213 26.7001C105.525 26.3281 105.909 26.0581 106.365 25.8901C106.821 25.7221 107.295 25.6381 107.787 25.6381C108.339 25.6381 108.849 25.8121 109.317 26.1601C109.797 26.5081 110.175 26.9521 110.451 27.4921C110.727 28.0201 110.865 28.5481 110.865 29.0761C110.865 29.5921 110.811 30.0541 110.703 30.4621C110.595 30.8581 110.403 31.2601 110.127 31.6681C109.815 32.1001 109.395 32.4541 108.867 32.7301C108.351 33.0061 107.733 33.1441 107.013 33.1441C106.821 33.1441 106.587 33.0961 106.311 33.0001C106.035 32.8921 105.807 32.7781 105.627 32.6581C105.543 33.4741 105.501 34.1821 105.501 34.7821C105.501 35.1421 105.519 35.4841 105.555 35.8081C105.579 36.1921 105.591 36.4681 105.591 36.6361C105.591 36.9001 105.501 37.0921 105.321 37.2121C105.141 37.3441 104.943 37.4101 104.727 37.4101C104.295 37.4101 104.007 37.2901 103.863 37.0501C103.731 36.8221 103.665 36.4921 103.665 36.0601C103.713 35.0281 103.773 34.0741 103.845 33.1981C103.917 32.1181 103.953 30.4501 103.953 28.1941C103.953 27.9781 103.911 27.7501 103.827 27.5101C103.743 27.2701 103.605 27.1501 103.413 27.1501ZM105.699 30.8761C105.759 31.1041 105.927 31.2961 106.203 31.4521C106.491 31.5961 106.749 31.6681 106.977 31.6681C107.661 31.6681 108.171 31.4821 108.507 31.1101C108.759 30.8461 108.921 30.5881 108.993 30.3361C109.077 30.0841 109.119 29.6821 109.119 29.1301C109.119 28.6981 109.035 28.3381 108.867 28.0501C108.699 27.7501 108.495 27.5341 108.255 27.4021C108.015 27.2581 107.787 27.1861 107.571 27.1861C107.079 27.1861 106.677 27.3361 106.365 27.6361C106.065 27.9241 105.873 28.3201 105.789 28.8241C105.729 29.2201 105.699 29.9041 105.699 30.8761ZM112.328 27.2761C112.208 27.1081 112.124 26.9641 112.076 26.8441C112.028 26.7241 112.004 26.5741 112.004 26.3941C112.004 26.2021 112.082 26.0401 112.238 25.9081C112.406 25.7761 112.616 25.7101 112.868 25.7101C113.12 25.7101 113.372 25.8061 113.624 25.9981C113.876 26.1781 114.08 26.4121 114.236 26.7001C114.488 26.3401 114.83 26.0821 115.262 25.9261C115.694 25.7701 116.162 25.6921 116.666 25.6921C117.218 25.6921 117.728 25.8601 118.196 26.1961C118.676 26.5321 119.054 26.9641 119.33 27.4921C119.606 28.0201 119.744 28.5481 119.744 29.0761C119.744 29.5921 119.69 30.0541 119.582 30.4621C119.474 30.8581 119.282 31.2601 119.006 31.6681C118.694 32.1001 118.274 32.4541 117.746 32.7301C117.23 33.0061 116.612 33.1441 115.892 33.1441C115.7 33.1441 115.466 33.0961 115.19 33.0001C114.914 32.8921 114.686 32.7781 114.506 32.6581C114.422 33.4741 114.38 34.1821 114.38 34.7821C114.38 35.1421 114.398 35.4841 114.434 35.8081C114.458 36.1921 114.47 36.4681 114.47 36.6361C114.47 36.9001 114.38 37.0921 114.2 37.2121C114.02 37.3441 113.822 37.4101 113.606 37.4101C113.174 37.4101 112.886 37.2901 112.742 37.0501C112.61 36.8221 112.544 36.4921 112.544 36.0601C112.592 35.0281 112.652 34.0741 112.724 33.1981C112.808 31.9381 112.85 30.3901 112.85 28.5541C112.85 28.4101 112.79 28.2001 112.67 27.9241C112.562 27.6481 112.448 27.4321 112.328 27.2761ZM114.578 30.8761C114.638 31.1041 114.806 31.2961 115.082 31.4521C115.37 31.5961 115.628 31.6681 115.856 31.6681C116.54 31.6681 117.05 31.4821 117.386 31.1101C117.638 30.8461 117.8 30.5881 117.872 30.3361C117.956 30.0841 117.998 29.6821 117.998 29.1301C117.998 28.6981 117.914 28.3381 117.746 28.0501C117.578 27.7501 117.374 27.5341 117.134 27.4021C116.894 27.2581 116.666 27.1861 116.45 27.1861C115.958 27.1861 115.556 27.3361 115.244 27.6361C114.944 27.9241 114.752 28.3201 114.668 28.8241C114.608 29.2201 114.578 29.9041 114.578 30.8761Z" fill="#FFF8DC"/>
</svg>
