<svg width="596" height="184" viewBox="0 0 596 184" fill="none" xmlns="http://www.w3.org/2000/svg">
<rect width="469" height="184" transform="translate(58.9688)" fill="#DCF283"/>
<rect x="121.969" y="21" width="343" height="65" rx="8" fill="#24C2AF"/>
<path d="M233.363 51.304C232.905 50.9733 232.51 50.7333 232.179 50.584C231.849 50.424 231.465 50.344 231.027 50.344C230.153 50.344 229.401 50.568 228.771 51.016C228.291 51.368 227.934 51.8267 227.699 52.392C227.465 52.9573 227.347 53.592 227.347 54.296C227.347 54.968 227.502 55.56 227.811 56.072C228.121 56.5733 228.521 56.9573 229.011 57.224C229.502 57.4907 230.014 57.624 230.547 57.624C231.081 57.624 231.539 57.544 231.923 57.384C232.318 57.2133 232.633 56.9947 232.867 56.728C233.23 56.2693 233.411 55.6613 233.411 54.904C233.411 54.7973 233.326 54.7227 233.155 54.68C232.985 54.6373 232.739 54.616 232.419 54.616L231.267 54.632C230.958 54.632 230.713 54.5733 230.531 54.456C230.35 54.3387 230.259 54.1893 230.259 54.008C230.259 53.752 230.345 53.5653 230.515 53.448C230.686 53.32 230.915 53.256 231.203 53.256C231.545 53.256 232.003 53.2773 232.579 53.32C233.155 53.3627 233.571 53.384 233.827 53.384C234.201 53.384 234.499 53.5013 234.723 53.736C234.958 53.9707 235.075 54.312 235.075 54.76C235.075 55.176 234.985 55.6613 234.803 56.216C234.622 56.7707 234.366 57.2667 234.035 57.704C233.715 58.1307 233.241 58.456 232.611 58.68C231.993 58.8933 231.305 59 230.547 59C229.918 59 229.31 58.8987 228.723 58.696C228.137 58.4933 227.646 58.2107 227.251 57.848C226.761 57.3893 226.371 56.8453 226.083 56.216C225.806 55.576 225.667 54.9413 225.667 54.312C225.667 53.3947 225.881 52.504 226.307 51.64C226.745 50.7653 227.331 50.088 228.067 49.608C228.387 49.3947 228.835 49.2187 229.411 49.08C229.987 48.9413 230.515 48.872 230.995 48.872C231.742 48.872 232.398 48.9893 232.963 49.224C233.529 49.448 233.961 49.7733 234.259 50.2C234.387 50.392 234.451 50.5627 234.451 50.712C234.451 50.8827 234.377 51.0427 234.227 51.192C234.078 51.3413 233.929 51.416 233.779 51.416C233.715 51.416 233.641 51.4053 233.555 51.384C233.47 51.3627 233.406 51.336 233.363 51.304ZM236.634 55.608C236.634 55.2027 236.709 54.7973 236.858 54.392C237.007 53.976 237.205 53.5973 237.45 53.256C237.695 52.9147 238.085 52.6373 238.618 52.424C239.151 52.2 239.626 52.088 240.042 52.088C240.469 52.088 240.901 52.1467 241.338 52.264C241.786 52.3813 242.095 52.5627 242.266 52.808C242.661 53.3627 242.858 53.9067 242.858 54.44C242.858 54.728 242.794 54.9733 242.666 55.176C242.549 55.3787 242.378 55.5973 242.154 55.832C241.973 56.024 241.685 56.152 241.29 56.216C240.906 56.28 240.522 56.312 240.138 56.312C239.893 56.312 239.594 56.2907 239.242 56.248C238.89 56.1947 238.549 56.1307 238.218 56.056C238.239 56.2693 238.293 56.4773 238.378 56.68C238.463 56.8827 238.565 57.0373 238.682 57.144C238.895 57.3467 239.114 57.4747 239.338 57.528C239.573 57.5813 239.871 57.608 240.234 57.608C240.618 57.608 240.975 57.544 241.306 57.416C241.573 57.32 241.791 57.272 241.962 57.272C242.165 57.272 242.319 57.336 242.426 57.464C242.533 57.5813 242.586 57.736 242.586 57.928C242.586 58.1947 242.431 58.4133 242.122 58.584C241.813 58.7547 241.455 58.8827 241.05 58.968C240.655 59.0427 240.335 59.08 240.09 59.08C239.589 59.08 239.103 58.9893 238.634 58.808C238.165 58.6267 237.775 58.3707 237.466 58.04C237.21 57.7413 237.007 57.384 236.858 56.968C236.709 56.5413 236.634 56.088 236.634 55.608ZM240.122 53.448C239.887 53.448 239.653 53.496 239.418 53.592C239.183 53.6773 238.991 53.8 238.842 53.96C238.65 54.1627 238.517 54.328 238.442 54.456C238.378 54.5733 238.335 54.7387 238.314 54.952C238.581 55.0373 239.135 55.08 239.978 55.08C240.437 55.08 240.789 55.0107 241.034 54.872C241.29 54.7333 241.418 54.552 241.418 54.328C241.418 54.104 241.279 53.9013 241.002 53.72C240.725 53.5387 240.431 53.448 240.122 53.448ZM244.387 53.464C244.238 53.4427 244.115 53.3787 244.019 53.272C243.934 53.1653 243.891 53.0373 243.891 52.888C243.891 52.8133 243.907 52.7333 243.939 52.648C243.982 52.5627 244.04 52.488 244.115 52.424C244.254 52.2853 244.627 52.216 245.235 52.216C245.32 51.8 245.363 51.3787 245.363 50.952C245.363 50.792 245.358 50.6533 245.347 50.536C245.336 50.4187 245.331 50.328 245.331 50.264C245.331 50.0293 245.416 49.8533 245.587 49.736C245.768 49.6187 245.971 49.56 246.195 49.56C246.472 49.56 246.659 49.6293 246.755 49.768C246.862 49.9067 246.915 50.1627 246.915 50.536C246.915 51.0907 246.867 51.6347 246.771 52.168C246.942 52.168 247.176 52.1573 247.475 52.136C247.88 52.1147 248.174 52.104 248.355 52.104C248.536 52.104 248.691 52.152 248.819 52.248C248.958 52.3333 249.027 52.456 249.027 52.616C249.027 53.032 248.84 53.2773 248.467 53.352C248.072 53.448 247.459 53.5067 246.627 53.528C246.595 53.944 246.579 54.3973 246.579 54.888C246.579 55.656 246.627 56.2853 246.723 56.776C246.787 57.1173 246.894 57.368 247.043 57.528C247.203 57.6773 247.438 57.752 247.747 57.752C247.928 57.752 248.115 57.704 248.307 57.608C248.435 57.5333 248.552 57.496 248.659 57.496C248.808 57.496 248.915 57.544 248.979 57.64C249.054 57.736 249.091 57.864 249.091 58.024C249.091 58.3227 248.931 58.5733 248.611 58.776C248.291 58.968 247.88 59.064 247.379 59.064C247.07 59.064 246.755 58.9893 246.435 58.84C246.126 58.6907 245.864 58.504 245.651 58.28C245.619 58.248 245.56 58.1253 245.475 57.912C245.39 57.6987 245.315 57.4693 245.251 57.224C245.144 56.7227 245.091 56.0187 245.091 55.112C245.091 54.7173 245.112 54.1893 245.155 53.528L244.387 53.464ZM262.38 57.496C262.54 57.496 262.668 57.5653 262.764 57.704C262.871 57.8427 262.924 57.992 262.924 58.152C262.924 58.4293 262.818 58.6427 262.604 58.792C262.402 58.9307 262.135 59 261.804 59C261.314 59 260.919 58.9147 260.62 58.744C260.322 58.5733 260.055 58.2533 259.82 57.784C259.746 57.6133 259.655 57.336 259.548 56.952C259.452 56.568 259.351 56.264 259.244 56.04C259.148 55.8053 258.983 55.608 258.748 55.448C258.524 55.288 258.215 55.2027 257.82 55.192L257.468 55.208C257.106 55.2293 256.834 55.24 256.652 55.24C256.439 55.24 256.236 55.224 256.044 55.192C256.066 56.6 256.076 57.6773 256.076 58.424C256.076 58.616 255.98 58.776 255.788 58.904C255.607 59.032 255.399 59.096 255.164 59.096C254.887 59.096 254.668 58.9893 254.508 58.776C254.38 58.52 254.316 58.1413 254.316 57.64C254.316 57.4693 254.327 57.224 254.348 56.904L254.364 56.2C254.364 55.5493 254.391 54.8507 254.444 54.104C254.487 53.2507 254.508 52.6267 254.508 52.232C254.508 51.9013 254.476 51.4587 254.412 50.904C254.402 50.7973 254.386 50.6267 254.364 50.392C254.343 50.1467 254.332 49.928 254.332 49.736C254.332 49.5973 254.391 49.4693 254.508 49.352C254.626 49.2347 254.743 49.16 254.86 49.128C255.735 48.9893 256.599 48.92 257.452 48.92C258.839 48.92 259.975 49.1813 260.86 49.704C261.746 50.2267 262.188 51.0267 262.188 52.104C262.188 52.424 262.103 52.76 261.932 53.112C261.772 53.4533 261.57 53.72 261.324 53.912C260.908 54.2747 260.46 54.5093 259.98 54.616C260.002 54.6373 260.119 54.744 260.332 54.936C260.546 55.128 260.69 55.3307 260.764 55.544L260.972 56.184C261.154 56.7067 261.298 57.0693 261.404 57.272C261.511 57.464 261.65 57.56 261.82 57.56C261.98 57.56 262.076 57.5493 262.108 57.528C262.151 57.5067 262.242 57.496 262.38 57.496ZM256.028 53.832C256.348 53.8533 256.572 53.864 256.7 53.864C256.892 53.864 257.159 53.8533 257.5 53.832L258.252 53.816C258.583 53.816 258.924 53.7413 259.276 53.592C259.628 53.4427 259.922 53.2347 260.156 52.968C260.391 52.6907 260.508 52.3813 260.508 52.04C260.508 51.432 260.263 50.9893 259.772 50.712C259.282 50.4347 258.519 50.296 257.484 50.296C257.09 50.296 256.626 50.3493 256.092 50.456C256.114 50.84 256.124 51.1173 256.124 51.288C256.124 51.4907 256.114 51.7947 256.092 52.2L256.076 52.664C256.044 53.112 256.028 53.5013 256.028 53.832ZM269.998 59.064C269.636 59.064 269.358 59.0107 269.166 58.904C268.974 58.7867 268.766 58.5733 268.542 58.264C268.265 58.5093 267.849 58.7067 267.294 58.856C266.75 59.0053 266.281 59.08 265.886 59.08C265.236 59.08 264.708 58.904 264.302 58.552C263.908 58.1893 263.71 57.6613 263.71 56.968C263.71 56.6693 263.79 56.3973 263.95 56.152C264.121 55.896 264.34 55.672 264.606 55.48C264.905 55.2773 265.257 55.1173 265.662 55C266.078 54.8827 266.457 54.824 266.798 54.824C267.374 54.824 267.886 54.8773 268.334 54.984V54.968C268.334 54.392 268.19 53.9973 267.902 53.784C267.625 53.56 267.177 53.448 266.558 53.448C266.164 53.448 265.822 53.624 265.534 53.976C265.428 54.1147 265.204 54.184 264.862 54.184C264.692 54.184 264.564 54.1147 264.478 53.976C264.404 53.8267 264.366 53.6773 264.366 53.528C264.366 53.2187 264.494 52.952 264.75 52.728C265.017 52.504 265.337 52.3387 265.71 52.232C266.084 52.1147 266.43 52.056 266.75 52.056C267.06 52.056 267.428 52.12 267.854 52.248C268.281 52.376 268.628 52.5467 268.894 52.76C269.214 53.0373 269.46 53.3627 269.63 53.736C269.812 54.0987 269.902 54.4987 269.902 54.936C269.902 55.0747 269.892 55.2827 269.87 55.56C269.849 55.88 269.838 56.1413 269.838 56.344C269.838 56.44 269.828 56.5627 269.806 56.712C269.785 56.904 269.774 57.064 269.774 57.192C269.774 57.3307 269.817 57.464 269.902 57.592C269.988 57.72 270.105 57.8267 270.254 57.912C270.393 57.9867 270.484 58.0667 270.526 58.152C270.569 58.2373 270.59 58.3333 270.59 58.44C270.59 58.5467 270.521 58.68 270.382 58.84C270.254 58.9893 270.126 59.064 269.998 59.064ZM266.798 56.008C266.382 56.008 266.014 56.088 265.694 56.248C265.374 56.408 265.214 56.6907 265.214 57.096C265.214 57.2987 265.284 57.4693 265.422 57.608C265.572 57.7467 265.732 57.816 265.902 57.816C266.361 57.816 266.745 57.768 267.054 57.672C267.364 57.576 267.737 57.4 268.174 57.144C268.228 56.9733 268.26 56.7333 268.27 56.424C268.27 56.3067 268.276 56.216 268.286 56.152C267.71 56.056 267.214 56.008 266.798 56.008ZM271.665 53.368C271.58 53.304 271.511 53.24 271.457 53.176C271.404 53.1013 271.377 52.9733 271.377 52.792C271.377 52.5893 271.447 52.4347 271.585 52.328C271.735 52.2107 271.905 52.152 272.097 52.152C272.471 52.152 272.791 52.248 273.057 52.44C273.335 52.632 273.537 52.8987 273.665 53.24C273.9 52.8027 274.199 52.504 274.561 52.344C274.924 52.1733 275.425 52.088 276.065 52.088C276.321 52.088 276.583 52.168 276.849 52.328C277.127 52.4773 277.377 52.664 277.601 52.888C277.783 53.1227 277.937 53.416 278.065 53.768C278.193 54.1093 278.257 54.4187 278.257 54.696C278.257 54.856 278.247 55.1173 278.225 55.48C278.204 55.864 278.193 56.168 278.193 56.392C278.193 57.1387 278.337 57.5973 278.625 57.768C278.668 57.7893 278.748 57.816 278.865 57.848C278.983 57.88 279.068 57.912 279.121 57.944C279.185 57.976 279.217 58.024 279.217 58.088C279.228 58.344 279.132 58.5573 278.929 58.728C278.737 58.888 278.503 58.968 278.225 58.968C277.809 58.968 277.484 58.856 277.249 58.632C277.015 58.408 276.849 58.0667 276.753 57.608C276.7 57.4373 276.673 57.1867 276.673 56.856C276.673 56.6747 276.684 56.3813 276.705 55.976C276.737 55.656 276.753 55.3147 276.753 54.952C276.753 54.5787 276.647 54.2533 276.433 53.976C276.22 53.688 275.927 53.544 275.553 53.544C275.329 53.544 275.095 53.6133 274.849 53.752C274.604 53.88 274.433 54.04 274.337 54.232C274.177 54.5627 274.071 54.8987 274.017 55.24C273.889 55.9013 273.825 56.536 273.825 57.144C273.825 57.2933 273.836 57.5813 273.857 58.008C273.857 58.04 273.857 58.12 273.857 58.248C273.857 58.3653 273.841 58.4773 273.809 58.584C273.788 58.6907 273.745 58.7867 273.681 58.872C273.639 58.9147 273.559 58.9573 273.441 59C273.324 59.0427 273.223 59.064 273.137 59.064C272.988 59.064 272.801 59 272.577 58.872C272.353 58.744 272.22 58.6 272.177 58.44L272.161 58.216C272.161 58.1307 272.172 58.0027 272.193 57.832C272.321 57.0853 272.385 56.4347 272.385 55.88C272.385 55.6347 272.38 55.448 272.369 55.32L272.353 54.584C272.353 54.36 272.289 54.1467 272.161 53.944C272.033 53.7307 271.868 53.5387 271.665 53.368ZM286.709 48.984C286.709 49.0907 286.693 49.224 286.661 49.384C286.65 49.448 286.639 49.5173 286.629 49.592C286.618 49.6667 286.607 49.7573 286.597 49.864C286.501 50.824 286.453 52.0133 286.453 53.432C286.453 54.776 286.511 55.7733 286.629 56.424C286.746 57.0747 286.927 57.464 287.173 57.592L287.477 57.72C287.637 57.7733 287.754 57.832 287.829 57.896C287.914 57.96 287.957 58.0667 287.957 58.216C287.957 58.4293 287.845 58.616 287.621 58.776C287.397 58.9253 287.151 59 286.885 59C286.607 59 286.335 58.888 286.069 58.664C285.802 58.4293 285.583 58.136 285.413 57.784C285.231 58.168 284.911 58.4773 284.453 58.712C283.994 58.936 283.557 59.048 283.141 59.048C282.767 59.048 282.442 59 282.165 58.904C281.887 58.7973 281.599 58.6373 281.301 58.424C280.938 58.168 280.661 57.8427 280.469 57.448C280.287 57.0533 280.197 56.6213 280.197 56.152C280.197 55.6827 280.287 55.1867 280.469 54.664C280.65 54.1307 280.858 53.6933 281.093 53.352C281.37 52.9573 281.738 52.664 282.197 52.472C282.655 52.2693 283.13 52.168 283.621 52.168C283.898 52.168 284.138 52.2213 284.341 52.328C284.543 52.424 284.751 52.5627 284.965 52.744C284.965 52.2107 284.954 51.7627 284.933 51.4C284.922 51.304 284.917 51.192 284.917 51.064C284.917 50.1467 284.991 49.4213 285.141 48.888C285.258 48.44 285.541 48.216 285.989 48.216C286.234 48.216 286.415 48.2693 286.533 48.376C286.65 48.4827 286.709 48.6853 286.709 48.984ZM281.749 56.12C281.749 56.664 281.925 57.08 282.277 57.368C282.437 57.5173 282.57 57.6187 282.677 57.672C282.783 57.7253 282.917 57.752 283.077 57.752C283.386 57.752 283.679 57.6667 283.957 57.496C284.245 57.3147 284.469 57.08 284.629 56.792C284.799 56.504 284.885 56.1947 284.885 55.864L284.869 54.28C284.645 54.024 284.437 53.848 284.245 53.752C284.063 53.6453 283.871 53.592 283.669 53.592C282.986 53.592 282.517 53.8533 282.261 54.376C282.122 54.6213 281.999 54.8987 281.893 55.208C281.797 55.5173 281.749 55.8213 281.749 56.12ZM295.332 53.864C295.417 54.0133 295.486 54.232 295.54 54.52C295.593 54.7973 295.62 55.048 295.62 55.272C295.62 55.5707 295.572 55.944 295.476 56.392C295.38 56.8293 295.3 57.1227 295.236 57.272C294.66 58.4667 293.55 59.064 291.908 59.064C291.385 59.064 290.873 58.8933 290.372 58.552C289.87 58.2 289.513 57.7893 289.3 57.32L289.188 57C289.177 56.9573 289.118 56.7973 289.012 56.52C288.916 56.232 288.868 56.0133 288.868 55.864C288.868 55.4267 288.974 54.92 289.188 54.344C289.401 53.768 289.646 53.3093 289.924 52.968C290.105 52.7227 290.452 52.5147 290.964 52.344C291.476 52.1627 291.929 52.072 292.324 52.072C293.06 52.072 293.652 52.2107 294.1 52.488C294.558 52.7653 294.969 53.224 295.332 53.864ZM293.86 56.44C293.902 56.3653 293.94 56.232 293.972 56.04C294.004 55.848 294.02 55.624 294.02 55.368C294.02 55.0587 293.961 54.7547 293.844 54.456C293.737 54.1573 293.577 53.9013 293.364 53.688C293.353 53.6667 293.316 53.6347 293.252 53.592C293.188 53.5387 293.086 53.4907 292.948 53.448C292.809 53.3947 292.633 53.368 292.42 53.368C292.004 53.368 291.652 53.4907 291.364 53.736C291.076 53.9813 290.857 54.2853 290.708 54.648C290.569 55.0107 290.5 55.368 290.5 55.72C290.5 55.816 290.532 56.0133 290.596 56.312C290.66 56.6107 290.708 56.8027 290.74 56.888C290.825 57.0373 290.99 57.2133 291.236 57.416C291.481 57.608 291.758 57.704 292.068 57.704C292.548 57.704 292.921 57.592 293.188 57.368C293.465 57.144 293.689 56.8347 293.86 56.44ZM307.249 58.44C307.089 58.1413 306.987 57.8107 306.945 57.448C306.902 57.0747 306.881 56.5627 306.881 55.912C306.881 55.2933 306.795 54.7547 306.625 54.296C306.454 53.8373 306.102 53.608 305.569 53.608C305.366 53.608 305.163 53.672 304.961 53.8C304.769 53.9173 304.625 54.0667 304.529 54.248C304.379 54.536 304.278 54.8507 304.225 55.192C304.171 55.5227 304.145 55.9067 304.145 56.344C304.145 56.6213 304.161 56.904 304.193 57.192C304.193 57.2773 304.198 57.416 304.209 57.608C304.23 57.7893 304.241 57.9547 304.241 58.104C304.241 58.744 304.017 59.064 303.569 59.064C302.982 59.064 302.673 58.7547 302.641 58.136C302.641 57.6987 302.646 57.464 302.657 57.432V56.744C302.657 56.36 302.641 55.9867 302.609 55.624C302.577 55.2613 302.539 54.9893 302.497 54.808C302.401 54.456 302.273 54.184 302.113 53.992C301.963 53.8 301.723 53.704 301.393 53.704C300.923 53.704 300.545 53.9067 300.257 54.312C300.054 54.632 299.921 55.0213 299.857 55.48C299.793 56.0667 299.745 56.5307 299.713 56.872C299.691 57.2027 299.681 57.5867 299.681 58.024C299.681 58.3333 299.627 58.584 299.521 58.776C299.425 58.968 299.238 59.064 298.961 59.064C298.758 59.064 298.545 59.0107 298.321 58.904C298.107 58.7867 298.001 58.632 298.001 58.44C298.001 58.2373 298.022 58.0347 298.065 57.832C298.161 57.224 298.209 56.136 298.209 54.568C298.209 54.312 298.145 54.0667 298.017 53.832C297.899 53.5867 297.755 53.464 297.585 53.464C297.542 53.464 297.462 53.4853 297.345 53.528C297.238 53.5707 297.158 53.592 297.105 53.592C296.966 53.592 296.838 53.528 296.721 53.4C296.614 53.272 296.561 53.1653 296.561 53.08C296.561 52.8133 296.689 52.5893 296.945 52.408C297.211 52.216 297.489 52.12 297.777 52.12C298.171 52.12 298.507 52.2427 298.785 52.488C299.062 52.7333 299.275 53.0747 299.425 53.512C299.67 53.0853 300.001 52.744 300.417 52.488C300.833 52.2213 301.297 52.088 301.809 52.088C302.129 52.088 302.385 52.1307 302.577 52.216C302.779 52.2907 302.945 52.4027 303.073 52.552C303.201 52.6907 303.366 52.904 303.569 53.192C303.835 52.8507 304.177 52.584 304.593 52.392C305.019 52.2 305.457 52.104 305.905 52.104C306.438 52.104 306.918 52.3227 307.345 52.76C307.771 53.1867 308.059 53.6827 308.209 54.248C308.283 54.536 308.321 55.0907 308.321 55.912L308.385 56.84C308.438 57.3947 308.619 57.7307 308.929 57.848C309.291 57.9547 309.473 58.0667 309.473 58.184C309.473 58.44 309.409 58.6267 309.281 58.744C309.185 58.808 309.051 58.8773 308.881 58.952C308.71 59.0267 308.577 59.064 308.481 59.064C307.905 59.064 307.494 58.856 307.249 58.44ZM317.496 49.576C317.176 49.576 316.978 49.8427 316.904 50.376C316.829 51.1013 316.792 51.6507 316.792 52.024C317.005 52.0453 317.229 52.056 317.464 52.056C317.613 52.056 317.805 52.0453 318.04 52.024L318.456 52.008C318.669 52.008 318.829 52.0453 318.936 52.12C319.042 52.1947 319.096 52.3173 319.096 52.488C319.096 52.7227 319.016 52.9253 318.856 53.096C318.706 53.256 318.53 53.336 318.328 53.336C317.56 53.336 317.042 53.3733 316.776 53.448C316.776 54.0987 316.808 55.0213 316.872 56.216L316.904 57L316.968 58.248C316.989 58.5573 316.957 58.776 316.872 58.904C316.797 59.0213 316.632 59.08 316.376 59.08C315.906 59.08 315.602 58.7973 315.464 58.232C315.378 57.816 315.309 57.2347 315.256 56.488C315.202 55.7413 315.176 55.0747 315.176 54.488C315.176 54.1787 315.192 53.8267 315.224 53.432C315.202 53.4213 315.144 53.416 315.048 53.416C314.952 53.416 314.882 53.4213 314.84 53.432C314.52 53.4533 314.285 53.464 314.136 53.464C314.04 53.464 313.944 53.4 313.848 53.272C313.752 53.1333 313.704 52.968 313.704 52.776C313.704 52.6693 313.741 52.5733 313.816 52.488C313.89 52.392 313.981 52.3227 314.088 52.28C314.248 52.1947 314.477 52.152 314.776 52.152L315.256 52.168C315.256 50.6533 315.426 49.6027 315.768 49.016C316.088 48.4613 316.616 48.184 317.352 48.184C317.778 48.184 318.168 48.2907 318.52 48.504C318.669 48.6 318.781 48.7173 318.856 48.856C318.941 48.9947 318.984 49.128 318.984 49.256C318.984 49.416 318.92 49.5813 318.792 49.752C318.674 49.9227 318.493 50.008 318.248 50.008C318.152 50.008 318.029 49.9333 317.88 49.784C317.826 49.7307 317.768 49.6827 317.704 49.64C317.64 49.5973 317.57 49.576 317.496 49.576ZM327.511 58.232C327.511 58.4667 327.383 58.664 327.127 58.824C326.881 58.984 326.652 59.064 326.439 59.064C326.033 59.064 325.708 59.016 325.463 58.92C325.228 58.8133 325.009 58.6213 324.807 58.344C324.529 58.5893 324.151 58.776 323.671 58.904C323.191 59.0213 322.748 59.08 322.343 59.08C321.681 59.08 321.137 58.904 320.711 58.552C320.284 58.1893 320.071 57.6613 320.071 56.968C320.071 56.6693 320.151 56.3973 320.311 56.152C320.471 55.896 320.689 55.672 320.967 55.48C321.276 55.2773 321.628 55.1227 322.023 55.016C322.417 54.8987 322.828 54.84 323.255 54.84C323.479 54.84 323.745 54.8827 324.055 54.968C324.364 55.0533 324.604 55.144 324.775 55.24V54.984C324.775 54.408 324.636 54.0133 324.359 53.8C324.081 53.576 323.633 53.464 323.015 53.464C322.833 53.464 322.652 53.5013 322.471 53.576C322.3 53.6507 322.103 53.752 321.879 53.88C321.58 54.04 321.297 54.12 321.031 54.12C320.935 54.12 320.844 54.056 320.759 53.928C320.673 53.7893 320.631 53.6667 320.631 53.56C320.631 53.2507 320.775 52.984 321.063 52.76C321.361 52.536 321.713 52.3707 322.119 52.264C322.524 52.1467 322.887 52.088 323.207 52.088C323.527 52.088 323.895 52.152 324.311 52.28C324.727 52.3973 325.068 52.5627 325.335 52.776C325.655 53.0533 325.9 53.3787 326.071 53.752C326.252 54.1147 326.343 54.5147 326.343 54.952C326.343 55.0907 326.332 55.2987 326.311 55.576C326.289 55.8747 326.279 56.1307 326.279 56.344C326.279 56.44 326.268 56.584 326.247 56.776C326.225 57.0107 326.215 57.1973 326.215 57.336C326.215 57.464 326.263 57.576 326.359 57.672C326.455 57.7573 326.567 57.8 326.695 57.8L327.143 57.784C327.26 57.784 327.351 57.8267 327.415 57.912C327.479 57.9973 327.511 58.104 327.511 58.232ZM322.359 57.816C322.817 57.816 323.201 57.768 323.511 57.672C323.82 57.576 324.193 57.4 324.631 57.144C324.673 56.9627 324.7 56.7227 324.711 56.424C324.124 56.1467 323.639 56.008 323.255 56.008C322.817 56.008 322.428 56.088 322.087 56.248C321.745 56.408 321.575 56.6907 321.575 57.096C321.575 57.2987 321.66 57.4693 321.831 57.608C322.001 57.7467 322.177 57.816 322.359 57.816ZM334.319 53.656C334.319 53.88 334.271 54.0507 334.175 54.168C334.089 54.2853 333.945 54.344 333.743 54.344C333.593 54.344 333.465 54.3067 333.359 54.232C333.263 54.1573 333.135 54.0293 332.975 53.848C332.847 53.7093 332.697 53.5973 332.527 53.512C332.367 53.4267 332.223 53.384 332.095 53.384C331.444 53.384 330.975 53.5227 330.687 53.8C330.505 53.992 330.356 54.248 330.239 54.568C330.121 54.8773 330.063 55.1973 330.063 55.528C330.063 56.008 330.132 56.392 330.271 56.68C330.409 56.968 330.655 57.2133 331.007 57.416C331.135 57.4907 331.316 57.5547 331.551 57.608C331.785 57.6507 331.977 57.672 332.127 57.672C332.329 57.672 332.543 57.6187 332.767 57.512C332.991 57.3947 333.183 57.2453 333.343 57.064C333.545 56.8293 333.791 56.712 334.079 56.712C334.196 56.712 334.329 56.7707 334.479 56.888C334.639 57.0053 334.719 57.144 334.719 57.304C334.719 57.624 334.564 57.9227 334.255 58.2C333.956 58.4667 333.588 58.68 333.151 58.84C332.713 58.9893 332.308 59.064 331.935 59.064C331.305 59.064 330.719 58.92 330.175 58.632C329.641 58.344 329.215 57.9493 328.895 57.448C328.575 56.936 328.415 56.36 328.415 55.72C328.415 55.1653 328.516 54.6267 328.719 54.104C328.932 53.5813 329.215 53.1547 329.567 52.824C329.855 52.5573 330.212 52.36 330.639 52.232C331.065 52.104 331.513 52.04 331.983 52.04C332.313 52.04 332.655 52.104 333.007 52.232C333.359 52.36 333.641 52.5307 333.855 52.744C334.164 53.0533 334.319 53.3573 334.319 53.656ZM335.915 55.336C335.915 54.6853 336.059 54.1467 336.347 53.72C336.635 53.2827 337.035 52.872 337.547 52.488C337.696 52.3813 337.947 52.2907 338.299 52.216C338.651 52.1307 338.96 52.088 339.227 52.088C339.547 52.088 339.883 52.1573 340.235 52.296C340.597 52.424 340.891 52.5733 341.115 52.744C341.509 53.032 341.781 53.368 341.931 53.752C342.08 54.1253 342.155 54.5733 342.155 55.096C342.155 55.32 342.027 55.5387 341.771 55.752C341.525 55.9547 341.259 56.056 340.971 56.056L340.363 56.04C340.053 56.04 339.611 56.0507 339.035 56.072L338.699 56.088C338.464 56.1093 338.288 56.12 338.171 56.12C338 56.12 337.765 56.0987 337.467 56.056C337.509 56.5573 337.696 56.952 338.027 57.24C338.357 57.5173 338.715 57.656 339.099 57.656C339.771 57.656 340.24 57.5227 340.507 57.256C340.731 57.096 340.88 56.9947 340.955 56.952C341.029 56.9093 341.147 56.888 341.307 56.888C341.477 56.888 341.627 56.968 341.755 57.128C341.883 57.288 341.947 57.448 341.947 57.608C341.947 57.7893 341.835 57.976 341.611 58.168C341.397 58.3493 341.104 58.5413 340.731 58.744C340.528 58.8293 340.251 58.904 339.899 58.968C339.547 59.032 339.253 59.064 339.019 59.064C338.645 59.064 338.229 58.9573 337.771 58.744C337.312 58.52 336.971 58.2747 336.747 58.008C336.523 57.7413 336.325 57.3627 336.155 56.872C335.995 56.3813 335.915 55.8693 335.915 55.336ZM339.099 54.904C339.856 54.904 340.411 54.8773 340.763 54.824C340.741 54.5147 340.645 54.264 340.475 54.072C340.304 53.8693 340.069 53.6987 339.771 53.56C339.675 53.5173 339.589 53.4853 339.515 53.464C339.44 53.4427 339.355 53.432 339.259 53.432C338.768 53.432 338.352 53.5653 338.011 53.832C337.68 54.0987 337.483 54.44 337.419 54.856C337.952 54.888 338.512 54.904 339.099 54.904Z" fill="#2F4F4F"/>
<rect x="301.836" y="103" width="163.134" height="65" rx="8" fill="#EE7B1D"/>
<path d="M361.238 131.72C361.238 132.029 361.228 132.44 361.206 132.952L361.19 133.992C361.19 135.005 361.265 135.853 361.414 136.536C361.628 137.496 361.948 138.237 362.374 138.76C362.769 139.219 363.254 139.448 363.83 139.448C364.278 139.448 364.678 139.315 365.03 139.048C365.382 138.771 365.654 138.429 365.846 138.024C366.166 137.363 366.326 136.547 366.326 135.576C366.326 134.989 366.289 134.296 366.214 133.496C366.15 132.6 366.118 131.928 366.118 131.48C366.118 131.245 366.257 131.096 366.534 131.032C366.812 130.957 367.1 130.92 367.398 130.92C367.505 130.92 367.628 130.989 367.766 131.128C367.905 131.267 367.974 131.416 367.974 131.576C367.974 131.896 367.958 132.2 367.926 132.488C367.905 132.808 367.894 133.032 367.894 133.16C367.894 133.565 367.916 134.131 367.958 134.856C367.969 135.037 367.98 135.256 367.99 135.512C368.001 135.768 368.006 136.061 368.006 136.392C368.006 137.117 367.83 137.843 367.478 138.568C367.137 139.283 366.657 139.875 366.038 140.344C365.42 140.803 364.721 141.032 363.942 141.032C362.748 141.032 361.814 140.648 361.142 139.88C360.47 139.101 360.012 138.099 359.766 136.872C359.628 136.168 359.537 135.432 359.494 134.664C359.462 133.896 359.446 132.867 359.446 131.576C359.446 131.405 359.526 131.245 359.686 131.096C359.857 130.947 360.038 130.872 360.23 130.872C360.902 130.872 361.238 131.155 361.238 131.72ZM370.232 135.432C370.136 135.432 370.045 135.443 369.96 135.464C369.874 135.475 369.789 135.48 369.704 135.48C369.586 135.48 369.474 135.427 369.368 135.32C369.272 135.213 369.224 135.117 369.224 135.032C369.224 134.755 369.362 134.541 369.64 134.392C369.917 134.232 370.2 134.152 370.488 134.152C370.733 134.152 370.984 134.237 371.24 134.408C371.506 134.568 371.704 134.776 371.832 135.032C372.109 134.701 372.45 134.461 372.856 134.312C373.261 134.163 373.682 134.088 374.12 134.088C374.61 134.088 375.064 134.243 375.48 134.552C375.906 134.861 376.242 135.256 376.488 135.736C376.733 136.205 376.856 136.675 376.856 137.144C376.856 137.603 376.808 138.013 376.712 138.376C376.616 138.728 376.445 139.085 376.2 139.448C375.922 139.832 375.549 140.147 375.08 140.392C374.621 140.637 374.072 140.76 373.432 140.76C373.261 140.76 373.053 140.717 372.808 140.632C372.562 140.536 372.36 140.435 372.2 140.328C372.125 141.053 372.088 141.683 372.088 142.216C372.088 142.536 372.104 142.84 372.136 143.128C372.157 143.469 372.168 143.715 372.168 143.864C372.168 144.099 372.088 144.269 371.928 144.376C371.768 144.493 371.592 144.552 371.4 144.552C371.016 144.552 370.76 144.445 370.632 144.232C370.514 144.029 370.456 143.736 370.456 143.352C370.498 142.435 370.552 141.587 370.616 140.808C370.68 139.848 370.712 138.365 370.712 136.36C370.712 136.168 370.674 135.965 370.6 135.752C370.525 135.539 370.402 135.432 370.232 135.432ZM372.264 138.744C372.317 138.947 372.466 139.117 372.712 139.256C372.968 139.384 373.197 139.448 373.4 139.448C374.008 139.448 374.461 139.283 374.76 138.952C374.984 138.717 375.128 138.488 375.192 138.264C375.266 138.04 375.304 137.683 375.304 137.192C375.304 136.808 375.229 136.488 375.08 136.232C374.93 135.965 374.749 135.773 374.536 135.656C374.322 135.528 374.12 135.464 373.928 135.464C373.49 135.464 373.133 135.597 372.856 135.864C372.589 136.12 372.418 136.472 372.344 136.92C372.29 137.272 372.264 137.88 372.264 138.744ZM384.956 140.92C384.732 140.92 384.519 140.856 384.316 140.728C384.124 140.589 383.954 140.445 383.804 140.296C383.655 140.136 383.554 140.029 383.5 139.976C383.276 140.296 382.951 140.557 382.524 140.76C382.098 140.963 381.687 141.064 381.292 141.064C380.684 141.064 380.146 140.936 379.676 140.68C379.207 140.424 378.844 140.077 378.588 139.64C378.332 139.192 378.204 138.696 378.204 138.152C378.204 137.64 378.263 137.149 378.38 136.68C378.508 136.2 378.679 135.8 378.892 135.48C379.18 135.075 379.564 134.755 380.044 134.52C380.535 134.285 381.02 134.168 381.5 134.168C381.788 134.168 382.06 134.221 382.316 134.328C382.572 134.435 382.796 134.568 382.988 134.728C382.988 134.024 382.983 133.581 382.972 133.4V133.048C382.972 132.045 383.036 131.315 383.164 130.856C383.282 130.408 383.57 130.184 384.028 130.184C384.274 130.184 384.455 130.237 384.572 130.344C384.69 130.451 384.748 130.653 384.748 130.952C384.748 131.059 384.722 131.352 384.668 131.832C384.551 133.027 384.492 134.221 384.492 135.416C384.492 136.419 384.508 137.165 384.54 137.656C384.583 138.136 384.663 138.52 384.78 138.808C384.908 139.096 385.106 139.352 385.372 139.576C385.532 139.704 385.644 139.811 385.708 139.896C385.783 139.981 385.82 140.093 385.82 140.232C385.82 140.403 385.735 140.563 385.564 140.712C385.394 140.851 385.191 140.92 384.956 140.92ZM381.244 139.768C381.81 139.768 382.226 139.592 382.492 139.24C382.77 138.877 382.908 138.419 382.908 137.864L382.892 136.968C382.882 136.797 382.876 136.568 382.876 136.28C382.482 135.811 382.055 135.576 381.596 135.576C381.287 135.576 380.994 135.656 380.716 135.816C380.45 135.976 380.231 136.211 380.06 136.52C379.879 136.872 379.788 137.405 379.788 138.12C379.788 138.611 379.932 139.011 380.22 139.32C380.508 139.619 380.85 139.768 381.244 139.768ZM394.175 140.232C394.175 140.467 394.047 140.664 393.791 140.824C393.546 140.984 393.316 141.064 393.103 141.064C392.698 141.064 392.372 141.016 392.127 140.92C391.892 140.813 391.674 140.621 391.471 140.344C391.194 140.589 390.815 140.776 390.335 140.904C389.855 141.021 389.412 141.08 389.007 141.08C388.346 141.08 387.802 140.904 387.375 140.552C386.948 140.189 386.735 139.661 386.735 138.968C386.735 138.669 386.815 138.397 386.975 138.152C387.135 137.896 387.354 137.672 387.631 137.48C387.94 137.277 388.292 137.123 388.687 137.016C389.082 136.899 389.492 136.84 389.919 136.84C390.143 136.84 390.41 136.883 390.719 136.968C391.028 137.053 391.268 137.144 391.439 137.24V136.984C391.439 136.408 391.3 136.013 391.023 135.8C390.746 135.576 390.298 135.464 389.679 135.464C389.498 135.464 389.316 135.501 389.135 135.576C388.964 135.651 388.767 135.752 388.543 135.88C388.244 136.04 387.962 136.12 387.695 136.12C387.599 136.12 387.508 136.056 387.423 135.928C387.338 135.789 387.295 135.667 387.295 135.56C387.295 135.251 387.439 134.984 387.727 134.76C388.026 134.536 388.378 134.371 388.783 134.264C389.188 134.147 389.551 134.088 389.871 134.088C390.191 134.088 390.559 134.152 390.975 134.28C391.391 134.397 391.732 134.563 391.999 134.776C392.319 135.053 392.564 135.379 392.735 135.752C392.916 136.115 393.007 136.515 393.007 136.952C393.007 137.091 392.996 137.299 392.975 137.576C392.954 137.875 392.943 138.131 392.943 138.344C392.943 138.44 392.932 138.584 392.911 138.776C392.89 139.011 392.879 139.197 392.879 139.336C392.879 139.464 392.927 139.576 393.023 139.672C393.119 139.757 393.231 139.8 393.359 139.8L393.807 139.784C393.924 139.784 394.015 139.827 394.079 139.912C394.143 139.997 394.175 140.104 394.175 140.232ZM389.023 139.816C389.482 139.816 389.866 139.768 390.175 139.672C390.484 139.576 390.858 139.4 391.295 139.144C391.338 138.963 391.364 138.723 391.375 138.424C390.788 138.147 390.303 138.008 389.919 138.008C389.482 138.008 389.092 138.088 388.751 138.248C388.41 138.408 388.239 138.691 388.239 139.096C388.239 139.299 388.324 139.469 388.495 139.608C388.666 139.747 388.842 139.816 389.023 139.816ZM395.271 135.464C395.121 135.443 394.999 135.379 394.903 135.272C394.817 135.165 394.775 135.037 394.775 134.888C394.775 134.813 394.791 134.733 394.823 134.648C394.865 134.563 394.924 134.488 394.999 134.424C395.137 134.307 395.324 134.195 395.559 134.088C395.804 133.992 395.98 133.875 396.087 133.736C396.193 133.597 396.247 133.336 396.247 132.952C396.247 132.792 396.236 132.653 396.215 132.536C396.204 132.419 396.199 132.328 396.199 132.264C396.199 132.029 396.284 131.853 396.455 131.736C396.625 131.619 396.823 131.56 397.047 131.56C397.324 131.56 397.511 131.629 397.607 131.768C397.713 131.907 397.767 132.163 397.767 132.536C397.767 132.899 397.751 133.213 397.719 133.48C397.687 133.736 397.617 133.965 397.511 134.168C397.66 134.168 397.905 134.157 398.247 134.136C398.716 134.115 399.041 134.104 399.223 134.104C399.404 134.104 399.564 134.152 399.703 134.248C399.841 134.333 399.911 134.456 399.911 134.616C399.911 134.84 399.863 135.005 399.767 135.112C399.671 135.219 399.532 135.288 399.351 135.32C398.913 135.437 398.295 135.507 397.495 135.528C397.473 135.944 397.463 136.397 397.463 136.888C397.463 137.709 397.511 138.339 397.607 138.776C397.671 139.117 397.777 139.368 397.927 139.528C398.087 139.677 398.321 139.752 398.631 139.752C398.791 139.752 398.919 139.731 399.015 139.688C399.121 139.645 399.18 139.619 399.191 139.608C399.319 139.533 399.436 139.496 399.543 139.496C399.692 139.496 399.799 139.544 399.863 139.64C399.937 139.736 399.975 139.864 399.975 140.024C399.975 140.323 399.815 140.573 399.495 140.776C399.175 140.968 398.764 141.064 398.263 141.064C397.697 141.064 397.217 140.899 396.823 140.568C396.439 140.227 396.209 139.779 396.135 139.224C396.028 138.723 395.975 138.019 395.975 137.112C395.975 136.717 395.996 136.189 396.039 135.528L395.271 135.464ZM401.094 137.336C401.094 136.685 401.238 136.147 401.526 135.72C401.814 135.283 402.214 134.872 402.726 134.488C402.876 134.381 403.126 134.291 403.478 134.216C403.83 134.131 404.14 134.088 404.406 134.088C404.726 134.088 405.062 134.157 405.414 134.296C405.777 134.424 406.07 134.573 406.294 134.744C406.689 135.032 406.961 135.368 407.11 135.752C407.26 136.125 407.334 136.573 407.334 137.096C407.334 137.32 407.206 137.539 406.95 137.752C406.705 137.955 406.438 138.056 406.15 138.056L405.542 138.04C405.233 138.04 404.79 138.051 404.214 138.072L403.878 138.088C403.644 138.109 403.468 138.12 403.35 138.12C403.18 138.12 402.945 138.099 402.646 138.056C402.689 138.557 402.876 138.952 403.206 139.24C403.537 139.517 403.894 139.656 404.278 139.656C404.95 139.656 405.42 139.523 405.686 139.256C405.91 139.096 406.06 138.995 406.134 138.952C406.209 138.909 406.326 138.888 406.486 138.888C406.657 138.888 406.806 138.968 406.934 139.128C407.062 139.288 407.126 139.448 407.126 139.608C407.126 139.789 407.014 139.976 406.79 140.168C406.577 140.349 406.284 140.541 405.91 140.744C405.708 140.829 405.43 140.904 405.078 140.968C404.726 141.032 404.433 141.064 404.198 141.064C403.825 141.064 403.409 140.957 402.95 140.744C402.492 140.52 402.15 140.275 401.926 140.008C401.702 139.741 401.505 139.363 401.334 138.872C401.174 138.381 401.094 137.869 401.094 137.336ZM404.278 136.904C405.036 136.904 405.59 136.877 405.942 136.824C405.921 136.515 405.825 136.264 405.654 136.072C405.484 135.869 405.249 135.699 404.95 135.56C404.854 135.517 404.769 135.485 404.694 135.464C404.62 135.443 404.534 135.432 404.438 135.432C403.948 135.432 403.532 135.565 403.19 135.832C402.86 136.099 402.662 136.44 402.598 136.856C403.132 136.888 403.692 136.904 404.278 136.904Z" fill="#FFF8DC"/>
<rect x="121.969" y="102" width="163.134" height="65" rx="8" fill="#E04963"/>
<path d="M183.666 131.168C183.634 131.851 183.618 132.507 183.618 133.136C183.618 133.787 183.66 134.741 183.746 136C183.756 136.192 183.778 136.581 183.81 137.168C183.842 137.744 183.858 138.272 183.858 138.752C183.964 138.741 184.076 138.725 184.194 138.704C184.322 138.683 184.418 138.672 184.482 138.672C184.716 138.672 184.903 138.731 185.042 138.848C185.18 138.965 185.25 139.147 185.25 139.392C185.25 139.552 185.186 139.675 185.058 139.76C184.93 139.845 184.706 139.909 184.386 139.952C184.076 139.984 183.623 140 183.026 140C182.364 140 181.868 139.979 181.538 139.936C181.207 139.893 180.978 139.813 180.85 139.696C180.722 139.568 180.658 139.381 180.658 139.136C180.658 138.955 180.716 138.832 180.834 138.768C180.951 138.704 181.116 138.672 181.33 138.672L181.666 138.688L182.194 138.72L182.114 136.832C182.05 135.808 182.018 134.869 182.018 134.016C182.018 133.557 182.034 132.928 182.066 132.128L182.098 131.248C181.735 131.269 181.452 131.28 181.25 131.28C181.015 131.28 180.855 131.237 180.77 131.152C180.695 131.067 180.658 130.891 180.658 130.624C180.658 130.325 180.86 130.133 181.266 130.048C181.682 129.963 182.311 129.92 183.154 129.92C183.804 129.92 184.29 129.941 184.61 129.984C184.94 130.027 185.106 130.123 185.106 130.272C185.106 130.635 185.026 130.875 184.866 130.992C184.716 131.099 184.423 131.152 183.986 131.152L183.666 131.168ZM194.05 138.768C194.104 138.789 194.189 138.816 194.306 138.848C194.424 138.88 194.509 138.912 194.562 138.944C194.616 138.976 194.642 139.024 194.642 139.088C194.653 139.344 194.557 139.557 194.354 139.728C194.162 139.888 193.933 139.968 193.666 139.968C193.25 139.968 192.925 139.856 192.69 139.632C192.456 139.408 192.285 139.067 192.178 138.608C192.136 138.427 192.114 138.176 192.114 137.856C192.114 137.675 192.125 137.381 192.146 136.976C192.168 136.549 192.178 136.208 192.178 135.952C192.178 135.579 192.072 135.253 191.858 134.976C191.656 134.688 191.368 134.544 190.994 134.544C190.77 134.544 190.536 134.613 190.29 134.752C190.045 134.88 189.874 135.04 189.778 135.232C189.618 135.541 189.506 135.877 189.442 136.24C189.325 136.88 189.266 137.547 189.266 138.24C189.266 138.571 189.272 138.827 189.282 139.008C189.282 139.051 189.282 139.136 189.282 139.264C189.293 139.381 189.282 139.493 189.25 139.6C189.229 139.696 189.186 139.787 189.122 139.872C189.069 139.925 188.984 139.968 188.866 140C188.76 140.043 188.658 140.064 188.562 140.064C188.413 140.064 188.226 140 188.002 139.872C187.778 139.744 187.65 139.6 187.618 139.44L187.602 139.168C187.602 139.072 187.613 138.96 187.634 138.832C187.762 138.085 187.826 137.435 187.826 136.88C187.826 136.635 187.821 136.443 187.81 136.304L187.794 135.552C187.794 135.296 187.73 135.051 187.602 134.816C187.474 134.571 187.325 134.448 187.154 134.448C187.101 134.448 187.026 134.469 186.93 134.512C186.834 134.544 186.754 134.56 186.69 134.56C186.584 134.56 186.466 134.507 186.338 134.4C186.221 134.293 186.162 134.181 186.162 134.064C186.162 133.84 186.237 133.659 186.386 133.52C186.546 133.392 186.701 133.291 186.85 133.216C187.01 133.141 187.192 133.104 187.394 133.104C187.565 133.104 187.704 133.12 187.81 133.152C187.917 133.184 188.061 133.253 188.242 133.36C188.338 133.413 188.45 133.531 188.578 133.712C188.706 133.893 188.813 134.149 188.898 134.48C189.176 133.968 189.517 133.611 189.922 133.408C190.338 133.195 190.866 133.088 191.506 133.088C191.752 133.088 192.013 133.168 192.29 133.328C192.578 133.488 192.824 133.675 193.026 133.888C193.218 134.123 193.378 134.416 193.506 134.768C193.634 135.109 193.698 135.419 193.698 135.696C193.698 135.856 193.688 136.117 193.666 136.48C193.634 136.768 193.618 137.072 193.618 137.392C193.618 138.139 193.762 138.597 194.05 138.768ZM200.515 129.84C200.718 129.84 200.899 129.893 201.059 130C201.23 130.107 201.331 130.293 201.363 130.56C201.491 131.403 201.571 132.245 201.603 133.088C201.646 133.92 201.667 134.864 201.667 135.92C201.667 136.368 201.63 137.184 201.555 138.368C202.024 138.411 202.387 138.432 202.643 138.432C202.824 138.432 203.235 138.405 203.875 138.352C204.248 138.299 204.574 138.272 204.851 138.272C205.107 138.272 205.342 138.299 205.555 138.352C205.768 138.395 205.987 138.469 206.211 138.576C206.435 138.704 206.547 138.901 206.547 139.168C206.547 139.381 206.478 139.573 206.339 139.744C206.211 139.915 206.056 140 205.875 140C205.747 140 205.544 139.979 205.267 139.936C204.766 139.861 204.286 139.824 203.827 139.824C203.678 139.824 203.507 139.835 203.315 139.856C203.134 139.867 203 139.872 202.915 139.872C202.659 139.904 202.403 139.92 202.147 139.92C201.624 139.92 201.155 139.893 200.739 139.84C200.526 139.819 200.312 139.739 200.099 139.6C199.886 139.451 199.779 139.237 199.779 138.96C199.779 138.8 199.8 138.389 199.843 137.728C199.918 136.629 199.955 135.792 199.955 135.216C199.955 134.768 199.934 134.299 199.891 133.808C199.848 133.317 199.822 133.008 199.811 132.88C199.715 131.973 199.667 131.227 199.667 130.64C199.667 130.363 199.731 130.16 199.859 130.032C199.998 129.904 200.216 129.84 200.515 129.84ZM213.809 134.864C213.894 135.013 213.964 135.232 214.017 135.52C214.07 135.797 214.097 136.048 214.097 136.272C214.097 136.688 214.006 137.28 213.825 138.048C213.089 139.392 212.001 140.064 210.561 140.064C210.028 140.064 209.484 139.888 208.929 139.536C208.374 139.184 207.99 138.779 207.777 138.32C207.489 137.403 207.345 136.821 207.345 136.576C207.345 136.149 207.436 135.696 207.617 135.216C207.809 134.736 208.049 134.32 208.337 133.968C208.518 133.723 208.844 133.515 209.313 133.344C209.782 133.163 210.209 133.072 210.593 133.072C211.34 133.072 211.974 133.216 212.497 133.504C213.02 133.781 213.457 134.235 213.809 134.864ZM212.417 137.44C212.47 137.301 212.497 136.944 212.497 136.368C212.497 136.059 212.438 135.755 212.321 135.456C212.214 135.157 212.054 134.901 211.841 134.688C211.82 134.667 211.761 134.635 211.665 134.592C211.569 134.539 211.436 134.491 211.265 134.448C211.105 134.395 210.918 134.368 210.705 134.368C210.108 134.368 209.67 134.608 209.393 135.088C209.116 135.568 208.977 136.112 208.977 136.72C208.977 136.827 209.004 137.029 209.057 137.328C209.121 137.627 209.174 137.813 209.217 137.888C209.249 137.963 209.329 138.069 209.457 138.208C209.596 138.336 209.761 138.453 209.953 138.56C210.156 138.656 210.364 138.704 210.577 138.704C211.057 138.704 211.441 138.592 211.729 138.368C212.017 138.133 212.246 137.824 212.417 137.44ZM219.373 135.888C219.405 135.803 219.517 135.493 219.709 134.96C219.911 134.427 220.098 134.021 220.269 133.744C220.546 133.307 220.791 133.088 221.005 133.088C221.303 133.088 221.533 133.147 221.693 133.264C221.853 133.371 221.933 133.525 221.933 133.728C221.933 133.824 221.89 133.957 221.805 134.128C221.73 134.299 221.687 134.4 221.677 134.432C221.25 135.371 220.866 136.379 220.525 137.456L220.189 138.704C220.061 139.109 219.842 139.44 219.533 139.696C219.223 139.941 218.861 140.064 218.445 140.064C218.071 140.064 217.725 139.893 217.405 139.552C217.213 139.253 217.01 138.875 216.797 138.416C216.594 137.957 216.418 137.509 216.269 137.072L215.709 135.392C215.591 135.061 215.495 134.779 215.421 134.544C215.357 134.309 215.325 134.096 215.325 133.904C215.314 133.68 215.378 133.499 215.517 133.36C215.655 133.221 215.847 133.152 216.093 133.152C216.37 133.152 216.567 133.211 216.685 133.328C216.802 133.435 216.909 133.605 217.005 133.84C217.047 134.085 217.165 134.587 217.357 135.344L217.469 135.792C217.565 136.155 217.687 136.523 217.837 136.896C217.986 137.269 218.135 137.627 218.285 137.968C218.263 137.915 218.338 138.091 218.509 138.496C218.615 138.187 218.738 137.808 218.877 137.36L219.373 135.888ZM222.907 136.336C222.907 135.685 223.051 135.147 223.339 134.72C223.627 134.283 224.027 133.872 224.539 133.488C224.688 133.381 224.939 133.291 225.291 133.216C225.643 133.131 225.952 133.088 226.219 133.088C226.539 133.088 226.875 133.157 227.227 133.296C227.589 133.424 227.883 133.573 228.107 133.744C228.501 134.032 228.773 134.368 228.923 134.752C229.072 135.125 229.147 135.573 229.147 136.096C229.147 136.32 229.019 136.539 228.763 136.752C228.517 136.955 228.251 137.056 227.963 137.056L227.355 137.04C227.045 137.04 226.603 137.051 226.027 137.072L225.691 137.088C225.456 137.109 225.28 137.12 225.163 137.12C224.992 137.12 224.757 137.099 224.459 137.056C224.501 137.557 224.688 137.952 225.019 138.24C225.349 138.517 225.707 138.656 226.091 138.656C226.763 138.656 227.232 138.523 227.499 138.256C227.723 138.096 227.872 137.995 227.947 137.952C228.021 137.909 228.139 137.888 228.299 137.888C228.469 137.888 228.619 137.968 228.747 138.128C228.875 138.288 228.939 138.448 228.939 138.608C228.939 138.789 228.827 138.976 228.603 139.168C228.389 139.349 228.096 139.541 227.723 139.744C227.52 139.829 227.243 139.904 226.891 139.968C226.539 140.032 226.245 140.064 226.011 140.064C225.637 140.064 225.221 139.957 224.763 139.744C224.304 139.52 223.963 139.275 223.739 139.008C223.515 138.741 223.317 138.363 223.147 137.872C222.987 137.381 222.907 136.869 222.907 136.336ZM226.091 135.904C226.848 135.904 227.403 135.877 227.755 135.824C227.733 135.515 227.637 135.264 227.467 135.072C227.296 134.869 227.061 134.699 226.763 134.56C226.667 134.517 226.581 134.485 226.507 134.464C226.432 134.443 226.347 134.432 226.251 134.432C225.76 134.432 225.344 134.565 225.003 134.832C224.672 135.099 224.475 135.44 224.411 135.856C224.944 135.888 225.504 135.904 226.091 135.904Z" fill="#FFF8DC"/>
<path d="M275.528 137.777C275.395 137.777 275.266 137.752 275.141 137.702C275.016 137.652 274.911 137.585 274.828 137.502L270.228 132.902C270.045 132.718 269.953 132.485 269.953 132.202C269.953 131.918 270.045 131.685 270.228 131.502C270.411 131.318 270.645 131.227 270.928 131.227C271.211 131.227 271.445 131.318 271.628 131.502L275.528 135.402L279.428 131.502C279.611 131.318 279.845 131.227 280.128 131.227C280.411 131.227 280.645 131.318 280.828 131.502C281.011 131.685 281.103 131.918 281.103 132.202C281.103 132.485 281.011 132.718 280.828 132.902L276.228 137.502C276.128 137.602 276.02 137.672 275.903 137.714C275.786 137.756 275.661 137.777 275.528 137.777Z" fill="#FFF8DC"/>
<path d="M32.3607 59C32.3607 61.5837 34.4552 63.6783 37.039 63.6784C39.6228 63.6784 41.7174 61.5838 41.7174 59C41.7175 56.4163 39.6229 54.3217 37.0391 54.3216C34.4553 54.3216 32.3607 56.4162 32.3607 59ZM121.57 59.0009L112.798 53.9363L112.798 64.0653L121.57 59.0009ZM37.0391 59.8772L113.675 59.878L113.675 58.1236L37.0391 58.1228L37.0391 59.8772Z" fill="#F09D20"/>
<path d="M470.969 135.258L479.741 140.322V130.193L470.969 135.258ZM554.292 135.258C554.292 137.842 556.386 139.936 558.97 139.936C561.554 139.936 563.649 137.842 563.649 135.258C563.649 132.674 561.554 130.579 558.97 130.579C556.386 130.579 554.292 132.674 554.292 135.258ZM478.863 136.135H558.97V134.381H478.863V136.135Z" fill="#F09D20"/>
<rect x="0.96875" y="44" width="28.0702" height="28.0702" rx="14.0351" fill="#17D4D4"/>
<path d="M18.9351 65.6008V67.0312H11.0286V65.6008H14.2016V50.9843C13.7508 51.3657 13.2306 51.7038 12.6411 51.9986C12.069 52.276 11.5661 52.4147 11.1327 52.4147C10.8206 52.4147 10.5778 52.3367 10.4044 52.1806C10.2484 52.0073 10.1704 51.8079 10.1704 51.5825C10.1704 51.4091 10.2137 51.253 10.3004 51.1143C10.994 51.045 11.7308 50.8196 12.5111 50.4381C13.2913 50.0393 14.0282 49.5018 14.7218 48.8256H15.8921V65.6008H18.9351Z" fill="#2E2776"/>
<rect x="566.969" y="120" width="28.0702" height="28.0702" rx="14.0351" fill="#17D4D4"/>
<path d="M586.38 130.027C586.432 131.778 585.773 133.564 584.403 135.385C583.033 137.188 581.005 139.225 578.317 141.497H586.25V143.031H575.352V142.095C577.589 140.274 579.375 138.688 580.71 137.335C582.063 135.966 583.059 134.7 583.701 133.538C584.36 132.359 584.689 131.198 584.689 130.053C584.689 128.84 584.369 127.921 583.727 127.296C583.103 126.655 582.21 126.334 581.048 126.334C579.817 126.334 578.864 126.664 578.187 127.322C577.511 127.964 577.104 129.013 576.965 130.469C576.462 130.469 576.115 130.4 575.925 130.261C575.734 130.123 575.639 129.88 575.639 129.533C575.639 128.666 575.847 127.877 576.263 127.166C576.696 126.438 577.32 125.866 578.135 125.45C578.968 125.034 579.939 124.826 581.048 124.826C582.661 124.826 583.935 125.259 584.871 126.126C585.808 126.976 586.31 128.276 586.38 130.027Z" fill="#2E2776"/>
</svg>
