<svg width="328" height="66" viewBox="0 0 328 66" fill="none" xmlns="http://www.w3.org/2000/svg">
<rect y="0.890625" width="328" height="65" rx="8" fill="#24C2AF"/>
<path d="M103.896 31.1946C103.438 30.864 103.043 30.624 102.712 30.4746C102.382 30.3146 101.998 30.2346 101.56 30.2346C100.686 30.2346 99.9337 30.4586 99.3044 30.9066C98.8244 31.2586 98.4671 31.7173 98.2324 32.2826C97.9977 32.848 97.8804 33.4826 97.8804 34.1866C97.8804 34.8586 98.0351 35.4506 98.3444 35.9626C98.6537 36.464 99.0537 36.848 99.5444 37.1146C100.035 37.3813 100.547 37.5146 101.08 37.5146C101.614 37.5146 102.072 37.4346 102.456 37.2746C102.851 37.104 103.166 36.8853 103.4 36.6186C103.763 36.16 103.944 35.552 103.944 34.7946C103.944 34.688 103.859 34.6133 103.688 34.5706C103.518 34.528 103.272 34.5066 102.952 34.5066L101.8 34.5226C101.491 34.5226 101.246 34.464 101.064 34.3466C100.883 34.2293 100.792 34.08 100.792 33.8986C100.792 33.6426 100.878 33.456 101.048 33.3386C101.219 33.2106 101.448 33.1466 101.736 33.1466C102.078 33.1466 102.536 33.168 103.112 33.2106C103.688 33.2533 104.104 33.2746 104.36 33.2746C104.734 33.2746 105.032 33.392 105.256 33.6266C105.491 33.8613 105.608 34.2026 105.608 34.6506C105.608 35.0666 105.518 35.552 105.336 36.1066C105.155 36.6613 104.899 37.1573 104.568 37.5946C104.248 38.0213 103.774 38.3466 103.144 38.5706C102.526 38.784 101.838 38.8906 101.08 38.8906C100.451 38.8906 99.8431 38.7893 99.2564 38.5866C98.6697 38.384 98.1791 38.1013 97.7844 37.7386C97.2937 37.28 96.9044 36.736 96.6164 36.1066C96.3391 35.4666 96.2004 34.832 96.2004 34.2026C96.2004 33.2853 96.4137 32.3946 96.8404 31.5306C97.2777 30.656 97.8644 29.9786 98.6004 29.4986C98.9204 29.2853 99.3684 29.1093 99.9444 28.9706C100.52 28.832 101.048 28.7626 101.528 28.7626C102.275 28.7626 102.931 28.88 103.496 29.1146C104.062 29.3386 104.494 29.664 104.792 30.0906C104.92 30.2826 104.984 30.4533 104.984 30.6026C104.984 30.7733 104.91 30.9333 104.76 31.0826C104.611 31.232 104.462 31.3066 104.312 31.3066C104.248 31.3066 104.174 31.296 104.088 31.2746C104.003 31.2533 103.939 31.2266 103.896 31.1946ZM107.167 35.4986C107.167 35.0933 107.242 34.688 107.391 34.2826C107.541 33.8666 107.738 33.488 107.983 33.1466C108.229 32.8053 108.618 32.528 109.151 32.3146C109.685 32.0906 110.159 31.9786 110.575 31.9786C111.002 31.9786 111.434 32.0373 111.871 32.1546C112.319 32.272 112.629 32.4533 112.799 32.6986C113.194 33.2533 113.391 33.7973 113.391 34.3306C113.391 34.6186 113.327 34.864 113.199 35.0666C113.082 35.2693 112.911 35.488 112.687 35.7226C112.506 35.9146 112.218 36.0426 111.823 36.1066C111.439 36.1706 111.055 36.2026 110.671 36.2026C110.426 36.2026 110.127 36.1813 109.775 36.1386C109.423 36.0853 109.082 36.0213 108.751 35.9466C108.773 36.16 108.826 36.368 108.911 36.5706C108.997 36.7733 109.098 36.928 109.215 37.0346C109.429 37.2373 109.647 37.3653 109.871 37.4186C110.106 37.472 110.405 37.4986 110.767 37.4986C111.151 37.4986 111.509 37.4346 111.839 37.3066C112.106 37.2106 112.325 37.1626 112.495 37.1626C112.698 37.1626 112.853 37.2266 112.959 37.3546C113.066 37.472 113.119 37.6266 113.119 37.8186C113.119 38.0853 112.965 38.304 112.655 38.4746C112.346 38.6453 111.989 38.7733 111.583 38.8586C111.189 38.9333 110.869 38.9706 110.623 38.9706C110.122 38.9706 109.637 38.88 109.167 38.6986C108.698 38.5173 108.309 38.2613 107.999 37.9306C107.743 37.632 107.541 37.2746 107.391 36.8586C107.242 36.432 107.167 35.9786 107.167 35.4986ZM110.655 33.3386C110.421 33.3386 110.186 33.3866 109.951 33.4826C109.717 33.568 109.525 33.6906 109.375 33.8506C109.183 34.0533 109.05 34.2186 108.975 34.3466C108.911 34.464 108.869 34.6293 108.847 34.8426C109.114 34.928 109.669 34.9706 110.511 34.9706C110.97 34.9706 111.322 34.9013 111.567 34.7626C111.823 34.624 111.951 34.4426 111.951 34.2186C111.951 33.9946 111.813 33.792 111.535 33.6106C111.258 33.4293 110.965 33.3386 110.655 33.3386ZM114.92 33.3546C114.771 33.3333 114.648 33.2693 114.552 33.1626C114.467 33.056 114.424 32.928 114.424 32.7786C114.424 32.704 114.44 32.624 114.472 32.5386C114.515 32.4533 114.574 32.3786 114.648 32.3146C114.787 32.176 115.16 32.1066 115.768 32.1066C115.854 31.6906 115.896 31.2693 115.896 30.8426C115.896 30.6826 115.891 30.544 115.88 30.4266C115.87 30.3093 115.864 30.2186 115.864 30.1546C115.864 29.92 115.95 29.744 116.12 29.6266C116.302 29.5093 116.504 29.4506 116.728 29.4506C117.006 29.4506 117.192 29.52 117.288 29.6586C117.395 29.7973 117.448 30.0533 117.448 30.4266C117.448 30.9813 117.4 31.5253 117.304 32.0586C117.475 32.0586 117.71 32.048 118.008 32.0266C118.414 32.0053 118.707 31.9946 118.888 31.9946C119.07 31.9946 119.224 32.0426 119.352 32.1386C119.491 32.224 119.56 32.3466 119.56 32.5066C119.56 32.9226 119.374 33.168 119 33.2426C118.606 33.3386 117.992 33.3973 117.16 33.4186C117.128 33.8346 117.112 34.288 117.112 34.7786C117.112 35.5466 117.16 36.176 117.256 36.6666C117.32 37.008 117.427 37.2586 117.576 37.4186C117.736 37.568 117.971 37.6426 118.28 37.6426C118.462 37.6426 118.648 37.5946 118.84 37.4986C118.968 37.424 119.086 37.3866 119.192 37.3866C119.342 37.3866 119.448 37.4346 119.512 37.5306C119.587 37.6266 119.624 37.7546 119.624 37.9146C119.624 38.2133 119.464 38.464 119.144 38.6666C118.824 38.8586 118.414 38.9546 117.912 38.9546C117.603 38.9546 117.288 38.88 116.968 38.7306C116.659 38.5813 116.398 38.3946 116.184 38.1706C116.152 38.1386 116.094 38.016 116.008 37.8026C115.923 37.5893 115.848 37.36 115.784 37.1146C115.678 36.6133 115.624 35.9093 115.624 35.0026C115.624 34.608 115.646 34.08 115.688 33.4186L114.92 33.3546ZM132.914 37.3866C133.074 37.3866 133.202 37.456 133.298 37.5946C133.404 37.7333 133.458 37.8826 133.458 38.0426C133.458 38.32 133.351 38.5333 133.138 38.6826C132.935 38.8213 132.668 38.8906 132.338 38.8906C131.847 38.8906 131.452 38.8053 131.154 38.6346C130.855 38.464 130.588 38.144 130.354 37.6746C130.279 37.504 130.188 37.2266 130.082 36.8426C129.986 36.4586 129.884 36.1546 129.778 35.9306C129.682 35.696 129.516 35.4986 129.282 35.3386C129.058 35.1786 128.748 35.0933 128.354 35.0826L128.002 35.0986C127.639 35.12 127.367 35.1306 127.186 35.1306C126.972 35.1306 126.77 35.1146 126.578 35.0826C126.599 36.4906 126.61 37.568 126.61 38.3146C126.61 38.5066 126.514 38.6666 126.322 38.7946C126.14 38.9226 125.932 38.9866 125.698 38.9866C125.42 38.9866 125.202 38.88 125.042 38.6666C124.914 38.4106 124.85 38.032 124.85 37.5306C124.85 37.36 124.86 37.1146 124.882 36.7946L124.898 36.0906C124.898 35.44 124.924 34.7413 124.978 33.9946C125.02 33.1413 125.042 32.5173 125.042 32.1226C125.042 31.792 125.01 31.3493 124.946 30.7946C124.935 30.688 124.919 30.5173 124.898 30.2826C124.876 30.0373 124.866 29.8186 124.866 29.6266C124.866 29.488 124.924 29.36 125.042 29.2426C125.159 29.1253 125.276 29.0506 125.394 29.0186C126.268 28.88 127.132 28.8106 127.986 28.8106C129.372 28.8106 130.508 29.072 131.394 29.5946C132.279 30.1173 132.722 30.9173 132.722 31.9946C132.722 32.3146 132.636 32.6506 132.466 33.0026C132.306 33.344 132.103 33.6106 131.858 33.8026C131.442 34.1653 130.994 34.4 130.514 34.5066C130.535 34.528 130.652 34.6346 130.866 34.8266C131.079 35.0186 131.223 35.2213 131.298 35.4346L131.506 36.0746C131.687 36.5973 131.831 36.96 131.938 37.1626C132.044 37.3546 132.183 37.4506 132.354 37.4506C132.514 37.4506 132.61 37.44 132.642 37.4186C132.684 37.3973 132.775 37.3866 132.914 37.3866ZM126.562 33.7226C126.882 33.744 127.106 33.7546 127.234 33.7546C127.426 33.7546 127.692 33.744 128.034 33.7226L128.786 33.7066C129.116 33.7066 129.458 33.632 129.81 33.4826C130.162 33.3333 130.455 33.1253 130.69 32.8586C130.924 32.5813 131.042 32.272 131.042 31.9306C131.042 31.3226 130.796 30.88 130.306 30.6026C129.815 30.3253 129.052 30.1866 128.018 30.1866C127.623 30.1866 127.159 30.24 126.626 30.3466C126.647 30.7306 126.658 31.008 126.658 31.1786C126.658 31.3813 126.647 31.6853 126.626 32.0906L126.61 32.5546C126.578 33.0026 126.562 33.392 126.562 33.7226ZM140.532 38.9546C140.169 38.9546 139.892 38.9013 139.7 38.7946C139.508 38.6773 139.3 38.464 139.076 38.1546C138.798 38.4 138.382 38.5973 137.828 38.7466C137.284 38.896 136.814 38.9706 136.42 38.9706C135.769 38.9706 135.241 38.7946 134.836 38.4426C134.441 38.08 134.244 37.552 134.244 36.8586C134.244 36.56 134.324 36.288 134.484 36.0426C134.654 35.7866 134.873 35.5626 135.14 35.3706C135.438 35.168 135.79 35.008 136.196 34.8906C136.612 34.7733 136.99 34.7146 137.332 34.7146C137.908 34.7146 138.42 34.768 138.868 34.8746V34.8586C138.868 34.2826 138.724 33.888 138.436 33.6746C138.158 33.4506 137.71 33.3386 137.092 33.3386C136.697 33.3386 136.356 33.5146 136.068 33.8666C135.961 34.0053 135.737 34.0746 135.396 34.0746C135.225 34.0746 135.097 34.0053 135.012 33.8666C134.937 33.7173 134.9 33.568 134.9 33.4186C134.9 33.1093 135.028 32.8426 135.284 32.6186C135.55 32.3946 135.87 32.2293 136.244 32.1226C136.617 32.0053 136.964 31.9466 137.284 31.9466C137.593 31.9466 137.961 32.0106 138.388 32.1386C138.814 32.2666 139.161 32.4373 139.428 32.6506C139.748 32.928 139.993 33.2533 140.164 33.6266C140.345 33.9893 140.436 34.3893 140.436 34.8266C140.436 34.9653 140.425 35.1733 140.404 35.4506C140.382 35.7706 140.372 36.032 140.372 36.2346C140.372 36.3306 140.361 36.4533 140.34 36.6026C140.318 36.7946 140.308 36.9546 140.308 37.0826C140.308 37.2213 140.35 37.3546 140.436 37.4826C140.521 37.6106 140.638 37.7173 140.788 37.8026C140.926 37.8773 141.017 37.9573 141.06 38.0426C141.102 38.128 141.124 38.224 141.124 38.3306C141.124 38.4373 141.054 38.5706 140.916 38.7306C140.788 38.88 140.66 38.9546 140.532 38.9546ZM137.332 35.8986C136.916 35.8986 136.548 35.9786 136.228 36.1386C135.908 36.2986 135.748 36.5813 135.748 36.9866C135.748 37.1893 135.817 37.36 135.956 37.4986C136.105 37.6373 136.265 37.7066 136.436 37.7066C136.894 37.7066 137.278 37.6586 137.588 37.5626C137.897 37.4666 138.27 37.2906 138.708 37.0346C138.761 36.864 138.793 36.624 138.804 36.3146C138.804 36.1973 138.809 36.1066 138.82 36.0426C138.244 35.9466 137.748 35.8986 137.332 35.8986ZM142.199 33.2586C142.113 33.1946 142.044 33.1306 141.991 33.0666C141.937 32.992 141.911 32.864 141.911 32.6826C141.911 32.48 141.98 32.3253 142.119 32.2186C142.268 32.1013 142.439 32.0426 142.631 32.0426C143.004 32.0426 143.324 32.1386 143.591 32.3306C143.868 32.5226 144.071 32.7893 144.199 33.1306C144.433 32.6933 144.732 32.3946 145.095 32.2346C145.457 32.064 145.959 31.9786 146.599 31.9786C146.855 31.9786 147.116 32.0586 147.383 32.2186C147.66 32.368 147.911 32.5546 148.135 32.7786C148.316 33.0133 148.471 33.3066 148.599 33.6586C148.727 34 148.791 34.3093 148.791 34.5866C148.791 34.7466 148.78 35.008 148.759 35.3706C148.737 35.7546 148.727 36.0586 148.727 36.2826C148.727 37.0293 148.871 37.488 149.159 37.6586C149.201 37.68 149.281 37.7066 149.399 37.7386C149.516 37.7706 149.601 37.8026 149.655 37.8346C149.719 37.8666 149.751 37.9146 149.751 37.9786C149.761 38.2346 149.665 38.448 149.463 38.6186C149.271 38.7786 149.036 38.8586 148.759 38.8586C148.343 38.8586 148.017 38.7466 147.783 38.5226C147.548 38.2986 147.383 37.9573 147.287 37.4986C147.233 37.328 147.207 37.0773 147.207 36.7466C147.207 36.5653 147.217 36.272 147.239 35.8666C147.271 35.5466 147.287 35.2053 147.287 34.8426C147.287 34.4693 147.18 34.144 146.967 33.8666C146.753 33.5786 146.46 33.4346 146.087 33.4346C145.863 33.4346 145.628 33.504 145.383 33.6426C145.137 33.7706 144.967 33.9306 144.871 34.1226C144.711 34.4533 144.604 34.7893 144.551 35.1306C144.423 35.792 144.359 36.4266 144.359 37.0346C144.359 37.184 144.369 37.472 144.391 37.8986C144.391 37.9306 144.391 38.0106 144.391 38.1386C144.391 38.256 144.375 38.368 144.343 38.4746C144.321 38.5813 144.279 38.6773 144.215 38.7626C144.172 38.8053 144.092 38.848 143.975 38.8906C143.857 38.9333 143.756 38.9546 143.671 38.9546C143.521 38.9546 143.335 38.8906 143.111 38.7626C142.887 38.6346 142.753 38.4906 142.711 38.3306L142.695 38.1066C142.695 38.0213 142.705 37.8933 142.727 37.7226C142.855 36.976 142.919 36.3253 142.919 35.7706C142.919 35.5253 142.913 35.3386 142.903 35.2106L142.887 34.4746C142.887 34.2506 142.823 34.0373 142.695 33.8346C142.567 33.6213 142.401 33.4293 142.199 33.2586ZM157.242 28.8746C157.242 28.9813 157.226 29.1146 157.194 29.2746C157.183 29.3386 157.172 29.408 157.162 29.4826C157.151 29.5573 157.14 29.648 157.13 29.7546C157.034 30.7146 156.986 31.904 156.986 33.3226C156.986 34.6666 157.044 35.664 157.162 36.3146C157.279 36.9653 157.46 37.3546 157.706 37.4826L158.01 37.6106C158.17 37.664 158.287 37.7226 158.362 37.7866C158.447 37.8506 158.49 37.9573 158.49 38.1066C158.49 38.32 158.378 38.5066 158.154 38.6666C157.93 38.816 157.684 38.8906 157.418 38.8906C157.14 38.8906 156.868 38.7786 156.602 38.5546C156.335 38.32 156.116 38.0266 155.946 37.6746C155.764 38.0586 155.444 38.368 154.986 38.6026C154.527 38.8266 154.09 38.9386 153.674 38.9386C153.3 38.9386 152.975 38.8906 152.698 38.7946C152.42 38.688 152.132 38.528 151.834 38.3146C151.471 38.0586 151.194 37.7333 151.002 37.3386C150.82 36.944 150.73 36.512 150.73 36.0426C150.73 35.5733 150.82 35.0773 151.002 34.5546C151.183 34.0213 151.391 33.584 151.626 33.2426C151.903 32.848 152.271 32.5546 152.73 32.3626C153.188 32.16 153.663 32.0586 154.154 32.0586C154.431 32.0586 154.671 32.112 154.874 32.2186C155.076 32.3146 155.284 32.4533 155.498 32.6346C155.498 32.1013 155.487 31.6533 155.466 31.2906C155.455 31.1946 155.45 31.0826 155.45 30.9546C155.45 30.0373 155.524 29.312 155.674 28.7786C155.791 28.3306 156.074 28.1066 156.522 28.1066C156.767 28.1066 156.948 28.16 157.066 28.2666C157.183 28.3733 157.242 28.576 157.242 28.8746ZM152.282 36.0106C152.282 36.5546 152.458 36.9706 152.81 37.2586C152.97 37.408 153.103 37.5093 153.21 37.5626C153.316 37.616 153.45 37.6426 153.61 37.6426C153.919 37.6426 154.212 37.5573 154.49 37.3866C154.778 37.2053 155.002 36.9706 155.162 36.6826C155.332 36.3946 155.418 36.0853 155.418 35.7546L155.402 34.1706C155.178 33.9146 154.97 33.7386 154.778 33.6426C154.596 33.536 154.404 33.4826 154.202 33.4826C153.519 33.4826 153.05 33.744 152.794 34.2666C152.655 34.512 152.532 34.7893 152.426 35.0986C152.33 35.408 152.282 35.712 152.282 36.0106ZM165.865 33.7546C165.95 33.904 166.02 34.1226 166.073 34.4106C166.126 34.688 166.153 34.9386 166.153 35.1626C166.153 35.4613 166.105 35.8346 166.009 36.2826C165.913 36.72 165.833 37.0133 165.769 37.1626C165.193 38.3573 164.084 38.9546 162.441 38.9546C161.918 38.9546 161.406 38.784 160.905 38.4426C160.404 38.0906 160.046 37.68 159.833 37.2106L159.721 36.8906C159.71 36.848 159.652 36.688 159.545 36.4106C159.449 36.1226 159.401 35.904 159.401 35.7546C159.401 35.3173 159.508 34.8106 159.721 34.2346C159.934 33.6586 160.18 33.2 160.457 32.8586C160.638 32.6133 160.985 32.4053 161.497 32.2346C162.009 32.0533 162.462 31.9626 162.857 31.9626C163.593 31.9626 164.185 32.1013 164.633 32.3786C165.092 32.656 165.502 33.1146 165.865 33.7546ZM164.393 36.3306C164.436 36.256 164.473 36.1226 164.505 35.9306C164.537 35.7386 164.553 35.5146 164.553 35.2586C164.553 34.9493 164.494 34.6453 164.377 34.3466C164.27 34.048 164.11 33.792 163.897 33.5786C163.886 33.5573 163.849 33.5253 163.785 33.4826C163.721 33.4293 163.62 33.3813 163.481 33.3386C163.342 33.2853 163.166 33.2586 162.953 33.2586C162.537 33.2586 162.185 33.3813 161.897 33.6266C161.609 33.872 161.39 34.176 161.241 34.5386C161.102 34.9013 161.033 35.2586 161.033 35.6106C161.033 35.7066 161.065 35.904 161.129 36.2026C161.193 36.5013 161.241 36.6933 161.273 36.7786C161.358 36.928 161.524 37.104 161.769 37.3066C162.014 37.4986 162.292 37.5946 162.601 37.5946C163.081 37.5946 163.454 37.4826 163.721 37.2586C163.998 37.0346 164.222 36.7253 164.393 36.3306ZM177.782 38.3306C177.622 38.032 177.521 37.7013 177.478 37.3386C177.435 36.9653 177.414 36.4533 177.414 35.8026C177.414 35.184 177.329 34.6453 177.158 34.1866C176.987 33.728 176.635 33.4986 176.102 33.4986C175.899 33.4986 175.697 33.5626 175.494 33.6906C175.302 33.808 175.158 33.9573 175.062 34.1386C174.913 34.4266 174.811 34.7413 174.758 35.0826C174.705 35.4133 174.678 35.7973 174.678 36.2346C174.678 36.512 174.694 36.7946 174.726 37.0826C174.726 37.168 174.731 37.3066 174.742 37.4986C174.763 37.68 174.774 37.8453 174.774 37.9946C174.774 38.6346 174.55 38.9546 174.102 38.9546C173.515 38.9546 173.206 38.6453 173.174 38.0266C173.174 37.5893 173.179 37.3546 173.19 37.3226V36.6346C173.19 36.2506 173.174 35.8773 173.142 35.5146C173.11 35.152 173.073 34.88 173.03 34.6986C172.934 34.3466 172.806 34.0746 172.646 33.8826C172.497 33.6906 172.257 33.5946 171.926 33.5946C171.457 33.5946 171.078 33.7973 170.79 34.2026C170.587 34.5226 170.454 34.912 170.39 35.3706C170.326 35.9573 170.278 36.4213 170.246 36.7626C170.225 37.0933 170.214 37.4773 170.214 37.9146C170.214 38.224 170.161 38.4746 170.054 38.6666C169.958 38.8586 169.771 38.9546 169.494 38.9546C169.291 38.9546 169.078 38.9013 168.854 38.7946C168.641 38.6773 168.534 38.5226 168.534 38.3306C168.534 38.128 168.555 37.9253 168.598 37.7226C168.694 37.1146 168.742 36.0266 168.742 34.4586C168.742 34.2026 168.678 33.9573 168.55 33.7226C168.433 33.4773 168.289 33.3546 168.118 33.3546C168.075 33.3546 167.995 33.376 167.878 33.4186C167.771 33.4613 167.691 33.4826 167.638 33.4826C167.499 33.4826 167.371 33.4186 167.254 33.2906C167.147 33.1626 167.094 33.056 167.094 32.9706C167.094 32.704 167.222 32.48 167.478 32.2986C167.745 32.1066 168.022 32.0106 168.31 32.0106C168.705 32.0106 169.041 32.1333 169.318 32.3786C169.595 32.624 169.809 32.9653 169.958 33.4026C170.203 32.976 170.534 32.6346 170.95 32.3786C171.366 32.112 171.83 31.9786 172.342 31.9786C172.662 31.9786 172.918 32.0213 173.11 32.1066C173.313 32.1813 173.478 32.2933 173.606 32.4426C173.734 32.5813 173.899 32.7946 174.102 33.0826C174.369 32.7413 174.71 32.4746 175.126 32.2826C175.553 32.0906 175.99 31.9946 176.438 31.9946C176.971 31.9946 177.451 32.2133 177.878 32.6506C178.305 33.0773 178.593 33.5733 178.742 34.1386C178.817 34.4266 178.854 34.9813 178.854 35.8026L178.918 36.7306C178.971 37.2853 179.153 37.6213 179.462 37.7386C179.825 37.8453 180.006 37.9573 180.006 38.0746C180.006 38.3306 179.942 38.5173 179.814 38.6346C179.718 38.6986 179.585 38.768 179.414 38.8426C179.243 38.9173 179.11 38.9546 179.014 38.9546C178.438 38.9546 178.027 38.7466 177.782 38.3306ZM188.029 29.4666C187.709 29.4666 187.511 29.7333 187.437 30.2666C187.362 30.992 187.325 31.5413 187.325 31.9146C187.538 31.936 187.762 31.9466 187.997 31.9466C188.146 31.9466 188.338 31.936 188.573 31.9146L188.989 31.8986C189.202 31.8986 189.362 31.936 189.469 32.0106C189.575 32.0853 189.629 32.208 189.629 32.3786C189.629 32.6133 189.549 32.816 189.389 32.9866C189.239 33.1466 189.063 33.2266 188.861 33.2266C188.093 33.2266 187.575 33.264 187.309 33.3386C187.309 33.9893 187.341 34.912 187.405 36.1066L187.437 36.8906L187.501 38.1386C187.522 38.448 187.49 38.6666 187.405 38.7946C187.33 38.912 187.165 38.9706 186.909 38.9706C186.439 38.9706 186.135 38.688 185.997 38.1226C185.911 37.7066 185.842 37.1253 185.789 36.3786C185.735 35.632 185.709 34.9653 185.709 34.3786C185.709 34.0693 185.725 33.7173 185.757 33.3226C185.735 33.312 185.677 33.3066 185.581 33.3066C185.485 33.3066 185.415 33.312 185.373 33.3226C185.053 33.344 184.818 33.3546 184.669 33.3546C184.573 33.3546 184.477 33.2906 184.381 33.1626C184.285 33.024 184.237 32.8586 184.237 32.6666C184.237 32.56 184.274 32.464 184.349 32.3786C184.423 32.2826 184.514 32.2133 184.621 32.1706C184.781 32.0853 185.01 32.0426 185.309 32.0426L185.789 32.0586C185.789 30.544 185.959 29.4933 186.301 28.9066C186.621 28.352 187.149 28.0746 187.885 28.0746C188.311 28.0746 188.701 28.1813 189.053 28.3946C189.202 28.4906 189.314 28.608 189.389 28.7466C189.474 28.8853 189.517 29.0186 189.517 29.1466C189.517 29.3066 189.453 29.472 189.325 29.6426C189.207 29.8133 189.026 29.8986 188.781 29.8986C188.685 29.8986 188.562 29.824 188.413 29.6746C188.359 29.6213 188.301 29.5733 188.237 29.5306C188.173 29.488 188.103 29.4666 188.029 29.4666ZM198.044 38.1226C198.044 38.3573 197.916 38.5546 197.66 38.7146C197.415 38.8746 197.185 38.9546 196.972 38.9546C196.567 38.9546 196.241 38.9066 195.996 38.8106C195.761 38.704 195.543 38.512 195.34 38.2346C195.063 38.48 194.684 38.6666 194.204 38.7946C193.724 38.912 193.281 38.9706 192.876 38.9706C192.215 38.9706 191.671 38.7946 191.244 38.4426C190.817 38.08 190.604 37.552 190.604 36.8586C190.604 36.56 190.684 36.288 190.844 36.0426C191.004 35.7866 191.223 35.5626 191.5 35.3706C191.809 35.168 192.161 35.0133 192.556 34.9066C192.951 34.7893 193.361 34.7306 193.788 34.7306C194.012 34.7306 194.279 34.7733 194.588 34.8586C194.897 34.944 195.137 35.0346 195.308 35.1306V34.8746C195.308 34.2986 195.169 33.904 194.892 33.6906C194.615 33.4666 194.167 33.3546 193.548 33.3546C193.367 33.3546 193.185 33.392 193.004 33.4666C192.833 33.5413 192.636 33.6426 192.412 33.7706C192.113 33.9306 191.831 34.0106 191.564 34.0106C191.468 34.0106 191.377 33.9466 191.292 33.8186C191.207 33.68 191.164 33.5573 191.164 33.4506C191.164 33.1413 191.308 32.8746 191.596 32.6506C191.895 32.4266 192.247 32.2613 192.652 32.1546C193.057 32.0373 193.42 31.9786 193.74 31.9786C194.06 31.9786 194.428 32.0426 194.844 32.1706C195.26 32.288 195.601 32.4533 195.868 32.6666C196.188 32.944 196.433 33.2693 196.604 33.6426C196.785 34.0053 196.876 34.4053 196.876 34.8426C196.876 34.9813 196.865 35.1893 196.844 35.4666C196.823 35.7653 196.812 36.0213 196.812 36.2346C196.812 36.3306 196.801 36.4746 196.78 36.6666C196.759 36.9013 196.748 37.088 196.748 37.2266C196.748 37.3546 196.796 37.4666 196.892 37.5626C196.988 37.648 197.1 37.6906 197.228 37.6906L197.676 37.6746C197.793 37.6746 197.884 37.7173 197.948 37.8026C198.012 37.888 198.044 37.9946 198.044 38.1226ZM192.892 37.7066C193.351 37.7066 193.735 37.6586 194.044 37.5626C194.353 37.4666 194.727 37.2906 195.164 37.0346C195.207 36.8533 195.233 36.6133 195.244 36.3146C194.657 36.0373 194.172 35.8986 193.788 35.8986C193.351 35.8986 192.961 35.9786 192.62 36.1386C192.279 36.2986 192.108 36.5813 192.108 36.9866C192.108 37.1893 192.193 37.36 192.364 37.4986C192.535 37.6373 192.711 37.7066 192.892 37.7066ZM204.852 33.5466C204.852 33.7706 204.804 33.9413 204.708 34.0586C204.622 34.176 204.478 34.2346 204.276 34.2346C204.126 34.2346 203.998 34.1973 203.892 34.1226C203.796 34.048 203.668 33.92 203.508 33.7386C203.38 33.6 203.23 33.488 203.06 33.4026C202.9 33.3173 202.756 33.2746 202.628 33.2746C201.977 33.2746 201.508 33.4133 201.22 33.6906C201.038 33.8826 200.889 34.1386 200.772 34.4586C200.654 34.768 200.596 35.088 200.596 35.4186C200.596 35.8986 200.665 36.2826 200.804 36.5706C200.942 36.8586 201.188 37.104 201.54 37.3066C201.668 37.3813 201.849 37.4453 202.084 37.4986C202.318 37.5413 202.51 37.5626 202.66 37.5626C202.862 37.5626 203.076 37.5093 203.3 37.4026C203.524 37.2853 203.716 37.136 203.876 36.9546C204.078 36.72 204.324 36.6026 204.612 36.6026C204.729 36.6026 204.862 36.6613 205.012 36.7786C205.172 36.896 205.252 37.0346 205.252 37.1946C205.252 37.5146 205.097 37.8133 204.788 38.0906C204.489 38.3573 204.121 38.5706 203.684 38.7306C203.246 38.88 202.841 38.9546 202.468 38.9546C201.838 38.9546 201.252 38.8106 200.708 38.5226C200.174 38.2346 199.748 37.84 199.428 37.3386C199.108 36.8266 198.948 36.2506 198.948 35.6106C198.948 35.056 199.049 34.5173 199.252 33.9946C199.465 33.472 199.748 33.0453 200.1 32.7146C200.388 32.448 200.745 32.2506 201.172 32.1226C201.598 31.9946 202.046 31.9306 202.516 31.9306C202.846 31.9306 203.188 31.9946 203.54 32.1226C203.892 32.2506 204.174 32.4213 204.388 32.6346C204.697 32.944 204.852 33.248 204.852 33.5466ZM206.448 35.2266C206.448 34.576 206.592 34.0373 206.88 33.6106C207.168 33.1733 207.568 32.7626 208.08 32.3786C208.229 32.272 208.48 32.1813 208.832 32.1066C209.184 32.0213 209.493 31.9786 209.76 31.9786C210.08 31.9786 210.416 32.048 210.768 32.1866C211.13 32.3146 211.424 32.464 211.648 32.6346C212.042 32.9226 212.314 33.2586 212.464 33.6426C212.613 34.016 212.688 34.464 212.688 34.9866C212.688 35.2106 212.56 35.4293 212.304 35.6426C212.058 35.8453 211.792 35.9466 211.504 35.9466L210.896 35.9306C210.586 35.9306 210.144 35.9413 209.568 35.9626L209.232 35.9786C208.997 36 208.821 36.0106 208.704 36.0106C208.533 36.0106 208.298 35.9893 208 35.9466C208.042 36.448 208.229 36.8426 208.56 37.1306C208.89 37.408 209.248 37.5466 209.632 37.5466C210.304 37.5466 210.773 37.4133 211.04 37.1466C211.264 36.9866 211.413 36.8853 211.488 36.8426C211.562 36.8 211.68 36.7786 211.84 36.7786C212.01 36.7786 212.16 36.8586 212.288 37.0186C212.416 37.1786 212.48 37.3386 212.48 37.4986C212.48 37.68 212.368 37.8666 212.144 38.0586C211.93 38.24 211.637 38.432 211.264 38.6346C211.061 38.72 210.784 38.7946 210.432 38.8586C210.08 38.9226 209.786 38.9546 209.552 38.9546C209.178 38.9546 208.762 38.848 208.304 38.6346C207.845 38.4106 207.504 38.1653 207.28 37.8986C207.056 37.632 206.858 37.2533 206.688 36.7626C206.528 36.272 206.448 35.76 206.448 35.2266ZM209.632 34.7946C210.389 34.7946 210.944 34.768 211.296 34.7146C211.274 34.4053 211.178 34.1546 211.008 33.9626C210.837 33.76 210.602 33.5893 210.304 33.4506C210.208 33.408 210.122 33.376 210.048 33.3546C209.973 33.3333 209.888 33.3226 209.792 33.3226C209.301 33.3226 208.885 33.456 208.544 33.7226C208.213 33.9893 208.016 34.3306 207.952 34.7466C208.485 34.7786 209.045 34.7946 209.632 34.7946Z" fill="#2F4F4F"/>
</svg>
