<svg width="800" height="406" viewBox="0 0 800 406" fill="none" xmlns="http://www.w3.org/2000/svg">
<path d="M604.297 390.061C605.603 390.061 606.663 389.002 606.663 387.695C606.663 386.389 605.603 385.33 604.297 385.33C602.99 385.33 601.931 386.389 601.931 387.695C601.931 389.002 602.99 390.061 604.297 390.061ZM604.297 359.377L601.736 363.813H606.858L604.297 359.377ZM604.74 387.695V363.369H603.853V387.695H604.74Z" fill="#F09D20"/>
<rect x="597.219" y="391.742" width="14.1948" height="14.1948" rx="7.09739" fill="#17D4D4"/>
<path d="M605.166 401.061H601.076V400.587C601.908 399.412 602.522 398.343 602.917 397.378C603.311 396.405 603.552 395.322 603.64 394.13C603.745 394.103 603.846 394.09 603.943 394.09C604.311 394.09 604.495 394.322 604.495 394.787C604.495 395.541 604.267 396.431 603.811 397.457C603.364 398.483 602.834 399.425 602.22 400.285H605.166V397.391H606.008V400.285H607.336V401.061H606.008V403.336H605.166V401.061Z" fill="#2E2776"/>
<path d="M15.8764 149.281C15.8764 150.588 16.9356 151.647 18.2422 151.647C19.5488 151.647 20.608 150.588 20.608 149.281C20.608 147.975 19.5488 146.915 18.2422 146.915C16.9356 146.915 15.8764 147.975 15.8764 149.281ZM274.591 149.281L270.156 146.72V151.842L274.591 149.281ZM18.2422 149.725H270.599V148.838H18.2422V149.725Z" fill="#F09D20"/>
<path d="M15.8373 309.312C15.8373 310.619 16.8965 311.678 18.2031 311.678C19.5097 311.678 20.5689 310.619 20.5689 309.313C20.5689 308.006 19.5097 306.947 18.2031 306.947C16.8965 306.947 15.8373 308.006 15.8373 309.312ZM54.6127 309.313L50.1769 306.752L50.1769 311.874L54.6127 309.313ZM18.2031 309.756L50.6204 309.757L50.6205 308.869L18.2031 308.869L18.2031 309.756Z" fill="#F09D20"/>
<path d="M15.8376 346.702C15.8194 348.008 16.8638 349.082 18.1703 349.1C19.4767 349.118 20.5505 348.074 20.5687 346.767C20.5868 345.461 19.5424 344.387 18.236 344.369C16.9295 344.351 15.8557 345.395 15.8376 346.702ZM54.6127 347.24L50.2129 344.618L50.1417 349.739L54.6127 347.24ZM18.197 347.178L50.6147 347.628L50.627 346.741L18.2093 346.291L18.197 347.178Z" fill="#F09D20"/>
<rect y="142.438" width="14.1948" height="14.1948" rx="7.09739" fill="#17D4D4"/>
<path d="M8.61781 153.308V154.031H4.61961V153.308H6.22415V145.916C5.99618 146.109 5.73314 146.28 5.43503 146.429C5.14569 146.57 4.89141 146.64 4.67221 146.64C4.51439 146.64 4.39164 146.6 4.30396 146.521C4.22505 146.434 4.18559 146.333 4.18559 146.219C4.18559 146.131 4.20751 146.052 4.25135 145.982C4.60207 145.947 4.97471 145.833 5.36927 145.64C5.76383 145.439 6.13647 145.167 6.48719 144.825H7.07903V153.308H8.61781Z" fill="#2E2776"/>
<rect y="302.234" width="14.1948" height="14.1948" rx="7.09739" fill="#17D4D4"/>
<path d="M9.3541 307.252C9.3804 308.138 9.04722 309.041 8.35455 309.961C7.66188 310.873 6.63602 311.904 5.27698 313.052H9.28834V313.828H3.77765V313.355C4.90873 312.434 5.81183 311.632 6.48697 310.948C7.17087 310.255 7.67503 309.615 7.99944 309.028C8.33263 308.431 8.49922 307.844 8.49922 307.265C8.49922 306.652 8.33701 306.187 8.0126 305.871C7.69695 305.547 7.2454 305.385 6.65794 305.385C6.03541 305.385 5.55317 305.551 5.21122 305.884C4.86927 306.209 4.66322 306.739 4.59308 307.476C4.33881 307.476 4.16345 307.441 4.067 307.37C3.97055 307.3 3.92233 307.178 3.92233 307.002C3.92233 306.564 4.02754 306.165 4.23797 305.805C4.45717 305.437 4.77282 305.148 5.18492 304.937C5.60578 304.727 6.09679 304.622 6.65794 304.622C7.47336 304.622 8.11781 304.841 8.59128 305.279C9.06476 305.709 9.31903 306.367 9.3541 307.252Z" fill="#2E2776"/>
<rect y="340.164" width="14.1948" height="14.1948" rx="7.09739" fill="#17D4D4"/>
<path d="M7.94684 346.997C8.37647 347.12 8.73596 347.356 9.0253 347.707C9.32341 348.049 9.47247 348.522 9.47247 349.127C9.47247 349.987 9.19189 350.662 8.63074 351.153C8.06959 351.635 7.31992 351.876 6.38175 351.876C5.79429 351.876 5.28137 351.802 4.84297 351.653C4.40457 351.504 4.067 351.315 3.83026 351.087C3.60229 350.859 3.48831 350.627 3.48831 350.39C3.48831 350.223 3.53653 350.092 3.63298 349.995C3.7382 349.89 3.86533 349.838 4.01439 349.838C4.27743 350.241 4.57993 350.557 4.92188 350.785C5.2726 351.004 5.77237 351.113 6.42121 351.113C7.12264 351.113 7.66188 350.938 8.0389 350.587C8.42469 350.237 8.61759 349.754 8.61759 349.141C8.61759 348.553 8.44223 348.115 8.09151 347.825C7.74079 347.536 7.27608 347.391 6.6974 347.391L6.27653 347.405C6.08364 347.422 5.9302 347.431 5.81621 347.431C5.69346 347.431 5.57948 347.356 5.47426 347.207C5.36905 347.058 5.31644 346.922 5.31644 346.8C5.31644 346.721 5.34713 346.681 5.4085 346.681H6.57903C7.15772 346.681 7.60488 346.528 7.92053 346.221C8.23618 345.914 8.394 345.458 8.394 344.853C8.394 344.353 8.22303 343.972 7.88108 343.709C7.54789 343.446 7.06127 343.314 6.42121 343.314C5.89513 343.314 5.46111 343.433 5.11916 343.669C4.78597 343.897 4.48786 344.252 4.22482 344.735C4.07577 344.735 3.94863 344.691 3.84341 344.603C3.74697 344.515 3.69874 344.388 3.69874 344.222C3.69874 343.985 3.81711 343.735 4.05385 343.472C4.29935 343.209 4.63253 342.99 5.0534 342.814C5.47426 342.639 5.93897 342.551 6.44751 342.551C7.28047 342.551 7.9556 342.757 8.47292 343.17C8.99023 343.573 9.24888 344.143 9.24888 344.879C9.24888 345.432 9.12613 345.888 8.88063 346.247C8.63512 346.598 8.32386 346.848 7.94684 346.997Z" fill="#2E2776"/>
<g clip-path="url(#clip0_571_21173)">
<circle cx="420.736" cy="143.955" r="139.064" fill="#C4C4C4"/>
<rect x="57.6484" y="290.602" width="726.169" height="36.4096" rx="4.04551" fill="#20708D"/>
<path d="M382.179 307.467C381.831 307.216 381.532 307.034 381.281 306.921C381.03 306.8 380.739 306.739 380.407 306.739C379.743 306.739 379.173 306.909 378.696 307.249C378.332 307.516 378.061 307.863 377.883 308.292C377.705 308.721 377.616 309.203 377.616 309.737C377.616 310.246 377.733 310.695 377.967 311.084C378.202 311.464 378.506 311.755 378.878 311.958C379.25 312.16 379.638 312.261 380.043 312.261C380.447 312.261 380.795 312.2 381.087 312.079C381.386 311.949 381.625 311.784 381.803 311.581C382.078 311.233 382.215 310.772 382.215 310.198C382.215 310.117 382.151 310.06 382.021 310.028C381.892 309.995 381.706 309.979 381.463 309.979L380.589 309.991C380.354 309.991 380.168 309.947 380.031 309.858C379.893 309.769 379.824 309.656 379.824 309.518C379.824 309.324 379.889 309.182 380.019 309.093C380.148 308.996 380.322 308.948 380.54 308.948C380.799 308.948 381.147 308.964 381.584 308.996C382.021 309.029 382.337 309.045 382.531 309.045C382.814 309.045 383.041 309.134 383.21 309.312C383.388 309.49 383.477 309.749 383.477 310.089C383.477 310.404 383.409 310.772 383.271 311.193C383.134 311.614 382.939 311.99 382.689 312.322C382.446 312.645 382.086 312.892 381.608 313.062C381.139 313.224 380.617 313.305 380.043 313.305C379.565 313.305 379.104 313.228 378.659 313.074C378.214 312.92 377.842 312.706 377.543 312.431C377.171 312.083 376.875 311.67 376.657 311.193C376.446 310.707 376.341 310.226 376.341 309.749C376.341 309.053 376.503 308.377 376.827 307.722C377.158 307.058 377.603 306.545 378.162 306.181C378.404 306.019 378.744 305.885 379.181 305.78C379.618 305.675 380.019 305.622 380.383 305.622C380.949 305.622 381.447 305.711 381.875 305.889C382.304 306.059 382.632 306.306 382.859 306.63C382.956 306.775 383.004 306.905 383.004 307.018C383.004 307.147 382.948 307.269 382.834 307.382C382.721 307.495 382.608 307.552 382.494 307.552C382.446 307.552 382.389 307.544 382.325 307.528C382.26 307.512 382.211 307.491 382.179 307.467ZM384.66 310.732C384.66 310.424 384.717 310.117 384.83 309.809C384.943 309.494 385.093 309.207 385.279 308.948C385.465 308.689 385.76 308.478 386.165 308.317C386.569 308.147 386.929 308.062 387.245 308.062C387.569 308.062 387.896 308.106 388.228 308.195C388.568 308.284 388.803 308.422 388.932 308.608C389.231 309.029 389.381 309.441 389.381 309.846C389.381 310.064 389.333 310.25 389.235 310.404C389.146 310.558 389.017 310.724 388.847 310.902C388.71 311.047 388.491 311.144 388.192 311.193C387.9 311.241 387.609 311.266 387.318 311.266C387.132 311.266 386.905 311.25 386.638 311.217C386.371 311.177 386.112 311.128 385.861 311.072C385.878 311.233 385.918 311.391 385.983 311.545C386.048 311.699 386.124 311.816 386.213 311.897C386.375 312.051 386.541 312.148 386.711 312.188C386.889 312.229 387.116 312.249 387.391 312.249C387.682 312.249 387.953 312.2 388.204 312.103C388.406 312.03 388.572 311.994 388.701 311.994C388.855 311.994 388.972 312.042 389.053 312.14C389.134 312.229 389.175 312.346 389.175 312.492C389.175 312.694 389.057 312.86 388.823 312.989C388.588 313.119 388.317 313.216 388.01 313.28C387.71 313.337 387.468 313.365 387.281 313.365C386.901 313.365 386.533 313.297 386.177 313.159C385.821 313.022 385.526 312.827 385.291 312.576C385.097 312.35 384.943 312.079 384.83 311.763C384.717 311.44 384.66 311.096 384.66 310.732ZM387.306 309.093C387.128 309.093 386.95 309.13 386.772 309.203C386.594 309.267 386.448 309.36 386.335 309.482C386.189 309.635 386.088 309.761 386.031 309.858C385.983 309.947 385.95 310.072 385.934 310.234C386.137 310.299 386.557 310.331 387.196 310.331C387.544 310.331 387.811 310.279 387.997 310.173C388.192 310.068 388.289 309.931 388.289 309.761C388.289 309.591 388.184 309.437 387.973 309.3C387.763 309.162 387.54 309.093 387.306 309.093ZM390.541 309.105C390.428 309.089 390.335 309.041 390.262 308.96C390.197 308.879 390.165 308.782 390.165 308.669C390.165 308.612 390.177 308.551 390.201 308.486C390.233 308.422 390.278 308.365 390.335 308.317C390.44 308.211 390.723 308.159 391.184 308.159C391.249 307.843 391.281 307.524 391.281 307.2C391.281 307.079 391.277 306.973 391.269 306.884C391.261 306.795 391.257 306.727 391.257 306.678C391.257 306.5 391.322 306.367 391.451 306.278C391.589 306.189 391.742 306.144 391.912 306.144C392.123 306.144 392.264 306.197 392.337 306.302C392.418 306.407 392.458 306.601 392.458 306.884C392.458 307.305 392.422 307.718 392.349 308.122C392.479 308.122 392.657 308.114 392.883 308.098C393.191 308.082 393.413 308.074 393.551 308.074C393.688 308.074 393.806 308.11 393.903 308.183C394.008 308.248 394.06 308.341 394.06 308.462C394.06 308.778 393.919 308.964 393.636 309.02C393.336 309.093 392.871 309.138 392.24 309.154C392.216 309.47 392.204 309.813 392.204 310.186C392.204 310.768 392.24 311.246 392.313 311.618C392.361 311.877 392.442 312.067 392.556 312.188C392.677 312.301 392.855 312.358 393.09 312.358C393.227 312.358 393.369 312.322 393.514 312.249C393.611 312.192 393.7 312.164 393.781 312.164C393.895 312.164 393.975 312.2 394.024 312.273C394.081 312.346 394.109 312.443 394.109 312.564C394.109 312.791 393.988 312.981 393.745 313.135C393.502 313.28 393.191 313.353 392.81 313.353C392.576 313.353 392.337 313.297 392.094 313.183C391.86 313.07 391.661 312.928 391.5 312.759C391.475 312.734 391.431 312.641 391.366 312.479C391.301 312.318 391.245 312.144 391.196 311.958C391.115 311.577 391.075 311.043 391.075 310.356C391.075 310.056 391.091 309.656 391.123 309.154L390.541 309.105ZM404.189 312.164C404.311 312.164 404.408 312.216 404.481 312.322C404.562 312.427 404.602 312.54 404.602 312.661C404.602 312.872 404.521 313.034 404.359 313.147C404.206 313.252 404.003 313.305 403.753 313.305C403.38 313.305 403.081 313.24 402.854 313.111C402.628 312.981 402.426 312.738 402.248 312.382C402.191 312.253 402.122 312.042 402.041 311.751C401.968 311.46 401.892 311.229 401.811 311.059C401.738 310.881 401.612 310.732 401.434 310.61C401.265 310.489 401.03 310.424 400.731 310.416L400.464 310.428C400.188 310.445 399.982 310.453 399.845 310.453C399.683 310.453 399.529 310.44 399.383 310.416C399.4 311.484 399.408 312.301 399.408 312.868C399.408 313.013 399.335 313.135 399.189 313.232C399.052 313.329 398.894 313.378 398.716 313.378C398.505 313.378 398.34 313.297 398.218 313.135C398.121 312.941 398.073 312.653 398.073 312.273C398.073 312.144 398.081 311.958 398.097 311.715L398.109 311.181C398.109 310.687 398.129 310.157 398.17 309.591C398.202 308.944 398.218 308.47 398.218 308.171C398.218 307.92 398.194 307.584 398.145 307.164C398.137 307.083 398.125 306.953 398.109 306.775C398.093 306.589 398.085 306.423 398.085 306.278C398.085 306.172 398.129 306.075 398.218 305.986C398.307 305.897 398.396 305.841 398.485 305.816C399.149 305.711 399.804 305.659 400.451 305.659C401.503 305.659 402.365 305.857 403.036 306.253C403.708 306.65 404.044 307.257 404.044 308.074C404.044 308.317 403.979 308.571 403.85 308.838C403.728 309.097 403.575 309.3 403.388 309.445C403.073 309.72 402.733 309.898 402.369 309.979C402.385 309.995 402.474 310.076 402.636 310.222C402.798 310.368 402.907 310.521 402.964 310.683L403.121 311.169C403.259 311.565 403.368 311.84 403.449 311.994C403.53 312.14 403.635 312.212 403.765 312.212C403.886 312.212 403.959 312.204 403.983 312.188C404.015 312.172 404.084 312.164 404.189 312.164ZM399.371 309.385C399.614 309.401 399.784 309.409 399.881 309.409C400.027 309.409 400.229 309.401 400.488 309.385L401.058 309.372C401.309 309.372 401.568 309.316 401.835 309.203C402.102 309.089 402.324 308.931 402.502 308.729C402.68 308.519 402.769 308.284 402.769 308.025C402.769 307.564 402.583 307.228 402.211 307.018C401.839 306.808 401.26 306.702 400.476 306.702C400.176 306.702 399.824 306.743 399.42 306.824C399.436 307.115 399.444 307.325 399.444 307.455C399.444 307.609 399.436 307.839 399.42 308.147L399.408 308.499C399.383 308.838 399.371 309.134 399.371 309.385ZM409.968 313.353C409.693 313.353 409.482 313.313 409.337 313.232C409.191 313.143 409.033 312.981 408.863 312.746C408.653 312.933 408.338 313.082 407.917 313.195C407.504 313.309 407.148 313.365 406.849 313.365C406.355 313.365 405.955 313.232 405.647 312.965C405.348 312.69 405.198 312.289 405.198 311.763C405.198 311.537 405.259 311.33 405.38 311.144C405.51 310.95 405.676 310.78 405.878 310.635C406.104 310.481 406.371 310.36 406.679 310.271C406.994 310.182 407.282 310.137 407.541 310.137C407.977 310.137 408.366 310.178 408.706 310.258V310.246C408.706 309.809 408.596 309.51 408.378 309.348C408.168 309.178 407.828 309.093 407.358 309.093C407.059 309.093 406.8 309.227 406.582 309.494C406.501 309.599 406.331 309.652 406.072 309.652C405.943 309.652 405.845 309.599 405.781 309.494C405.724 309.381 405.696 309.267 405.696 309.154C405.696 308.919 405.793 308.717 405.987 308.547C406.189 308.377 406.432 308.252 406.715 308.171C406.998 308.082 407.261 308.037 407.504 308.037C407.739 308.037 408.018 308.086 408.342 308.183C408.665 308.28 408.928 308.41 409.13 308.571C409.373 308.782 409.559 309.029 409.689 309.312C409.826 309.587 409.895 309.89 409.895 310.222C409.895 310.327 409.887 310.485 409.871 310.695C409.855 310.938 409.846 311.136 409.846 311.29C409.846 311.363 409.838 311.456 409.822 311.569C409.806 311.715 409.798 311.836 409.798 311.933C409.798 312.038 409.83 312.14 409.895 312.237C409.96 312.334 410.049 312.415 410.162 312.479C410.267 312.536 410.336 312.597 410.368 312.661C410.401 312.726 410.417 312.799 410.417 312.88C410.417 312.961 410.364 313.062 410.259 313.183C410.162 313.297 410.065 313.353 409.968 313.353ZM407.541 311.035C407.225 311.035 406.946 311.096 406.703 311.217C406.46 311.339 406.339 311.553 406.339 311.86C406.339 312.014 406.392 312.144 406.497 312.249C406.61 312.354 406.731 312.407 406.861 312.407C407.209 312.407 407.5 312.37 407.735 312.297C407.969 312.225 408.253 312.091 408.584 311.897C408.625 311.767 408.649 311.585 408.657 311.351C408.657 311.262 408.661 311.193 408.669 311.144C408.232 311.072 407.856 311.035 407.541 311.035ZM411.232 309.033C411.168 308.984 411.115 308.936 411.075 308.887C411.034 308.83 411.014 308.733 411.014 308.596C411.014 308.442 411.066 308.325 411.172 308.244C411.285 308.155 411.414 308.11 411.56 308.11C411.843 308.11 412.086 308.183 412.288 308.329C412.499 308.474 412.652 308.677 412.749 308.936C412.927 308.604 413.154 308.377 413.429 308.256C413.704 308.126 414.084 308.062 414.57 308.062C414.764 308.062 414.962 308.122 415.165 308.244C415.375 308.357 415.565 308.499 415.735 308.669C415.873 308.847 415.99 309.069 416.087 309.336C416.184 309.595 416.233 309.83 416.233 310.04C416.233 310.161 416.224 310.36 416.208 310.635C416.192 310.926 416.184 311.157 416.184 311.326C416.184 311.893 416.293 312.241 416.512 312.37C416.544 312.386 416.605 312.407 416.694 312.431C416.783 312.455 416.847 312.479 416.888 312.504C416.936 312.528 416.961 312.564 416.961 312.613C416.969 312.807 416.896 312.969 416.742 313.098C416.597 313.22 416.419 313.28 416.208 313.28C415.893 313.28 415.646 313.195 415.468 313.026C415.29 312.856 415.165 312.597 415.092 312.249C415.051 312.119 415.031 311.929 415.031 311.678C415.031 311.541 415.039 311.318 415.055 311.011C415.08 310.768 415.092 310.509 415.092 310.234C415.092 309.951 415.011 309.704 414.849 309.494C414.687 309.275 414.465 309.166 414.181 309.166C414.012 309.166 413.834 309.219 413.647 309.324C413.461 309.421 413.332 309.542 413.259 309.688C413.138 309.939 413.057 310.194 413.016 310.453C412.919 310.954 412.871 311.436 412.871 311.897C412.871 312.01 412.879 312.229 412.895 312.552C412.895 312.576 412.895 312.637 412.895 312.734C412.895 312.823 412.883 312.908 412.859 312.989C412.842 313.07 412.81 313.143 412.762 313.208C412.729 313.24 412.668 313.272 412.579 313.305C412.49 313.337 412.414 313.353 412.349 313.353C412.236 313.353 412.094 313.305 411.924 313.208C411.754 313.111 411.653 313.001 411.621 312.88L411.609 312.71C411.609 312.645 411.617 312.548 411.633 312.419C411.73 311.852 411.778 311.359 411.778 310.938C411.778 310.752 411.774 310.61 411.766 310.513L411.754 309.955C411.754 309.785 411.706 309.623 411.609 309.47C411.511 309.308 411.386 309.162 411.232 309.033ZM422.643 305.707C422.643 305.788 422.631 305.889 422.607 306.011C422.599 306.059 422.591 306.112 422.582 306.168C422.574 306.225 422.566 306.294 422.558 306.375C422.485 307.103 422.449 308.005 422.449 309.081C422.449 310.101 422.493 310.857 422.582 311.351C422.671 311.844 422.809 312.14 422.995 312.237L423.226 312.334C423.347 312.374 423.436 312.419 423.493 312.467C423.557 312.516 423.59 312.597 423.59 312.71C423.59 312.872 423.505 313.013 423.335 313.135C423.165 313.248 422.979 313.305 422.777 313.305C422.566 313.305 422.36 313.22 422.158 313.05C421.955 312.872 421.79 312.649 421.66 312.382C421.523 312.674 421.28 312.908 420.932 313.086C420.584 313.256 420.252 313.341 419.937 313.341C419.653 313.341 419.407 313.305 419.196 313.232C418.986 313.151 418.768 313.03 418.541 312.868C418.266 312.674 418.056 312.427 417.91 312.127C417.772 311.828 417.704 311.5 417.704 311.144C417.704 310.788 417.772 310.412 417.91 310.016C418.047 309.611 418.205 309.279 418.383 309.02C418.594 308.721 418.873 308.499 419.221 308.353C419.569 308.199 419.929 308.122 420.301 308.122C420.511 308.122 420.693 308.163 420.847 308.244C421.001 308.317 421.158 308.422 421.32 308.559C421.32 308.155 421.312 307.815 421.296 307.54C421.288 307.467 421.284 307.382 421.284 307.285C421.284 306.589 421.34 306.039 421.454 305.634C421.543 305.295 421.757 305.125 422.097 305.125C422.283 305.125 422.421 305.165 422.51 305.246C422.599 305.327 422.643 305.481 422.643 305.707ZM418.881 311.12C418.881 311.533 419.014 311.848 419.281 312.067C419.403 312.18 419.504 312.257 419.585 312.297C419.666 312.338 419.767 312.358 419.888 312.358C420.123 312.358 420.345 312.293 420.556 312.164C420.774 312.026 420.944 311.848 421.065 311.63C421.195 311.411 421.26 311.177 421.26 310.926L421.247 309.724C421.078 309.53 420.92 309.397 420.774 309.324C420.637 309.243 420.491 309.203 420.337 309.203C419.819 309.203 419.463 309.401 419.269 309.797C419.164 309.983 419.071 310.194 418.99 310.428C418.917 310.663 418.881 310.894 418.881 311.12ZM429.184 309.409C429.249 309.522 429.301 309.688 429.342 309.906C429.382 310.117 429.403 310.307 429.403 310.477C429.403 310.703 429.366 310.987 429.293 311.326C429.22 311.658 429.16 311.881 429.111 311.994C428.674 312.9 427.833 313.353 426.587 313.353C426.19 313.353 425.802 313.224 425.422 312.965C425.041 312.698 424.77 312.386 424.609 312.03L424.524 311.788C424.516 311.755 424.471 311.634 424.39 311.424C424.317 311.205 424.281 311.039 424.281 310.926C424.281 310.594 424.362 310.21 424.524 309.773C424.685 309.336 424.872 308.988 425.082 308.729C425.219 308.543 425.482 308.385 425.871 308.256C426.259 308.118 426.603 308.05 426.902 308.05C427.461 308.05 427.91 308.155 428.25 308.365C428.597 308.575 428.909 308.923 429.184 309.409ZM428.068 311.363C428.1 311.306 428.128 311.205 428.152 311.059C428.177 310.914 428.189 310.744 428.189 310.55C428.189 310.315 428.144 310.084 428.055 309.858C427.974 309.631 427.853 309.437 427.691 309.275C427.683 309.259 427.655 309.235 427.606 309.203C427.558 309.162 427.481 309.126 427.376 309.093C427.271 309.053 427.137 309.033 426.975 309.033C426.66 309.033 426.393 309.126 426.174 309.312C425.956 309.498 425.79 309.728 425.677 310.004C425.571 310.279 425.519 310.55 425.519 310.817C425.519 310.89 425.543 311.039 425.592 311.266C425.64 311.492 425.677 311.638 425.701 311.703C425.766 311.816 425.891 311.949 426.077 312.103C426.263 312.249 426.474 312.322 426.708 312.322C427.072 312.322 427.355 312.237 427.558 312.067C427.768 311.897 427.938 311.662 428.068 311.363ZM438.224 312.88C438.102 312.653 438.025 312.403 437.993 312.127C437.961 311.844 437.944 311.456 437.944 310.962C437.944 310.493 437.88 310.084 437.75 309.737C437.621 309.389 437.354 309.215 436.949 309.215C436.795 309.215 436.642 309.263 436.488 309.36C436.342 309.449 436.233 309.563 436.16 309.7C436.047 309.919 435.97 310.157 435.93 310.416C435.889 310.667 435.869 310.958 435.869 311.29C435.869 311.5 435.881 311.715 435.905 311.933C435.905 311.998 435.909 312.103 435.918 312.249C435.934 312.386 435.942 312.512 435.942 312.625C435.942 313.111 435.772 313.353 435.432 313.353C434.987 313.353 434.752 313.119 434.728 312.649C434.728 312.318 434.732 312.14 434.74 312.115V311.593C434.74 311.302 434.728 311.019 434.704 310.744C434.68 310.469 434.651 310.262 434.619 310.125C434.546 309.858 434.449 309.652 434.328 309.506C434.214 309.36 434.032 309.287 433.782 309.287C433.426 309.287 433.138 309.441 432.92 309.749C432.766 309.991 432.665 310.287 432.616 310.635C432.568 311.08 432.531 311.432 432.507 311.691C432.491 311.941 432.483 312.233 432.483 312.564C432.483 312.799 432.442 312.989 432.362 313.135C432.289 313.28 432.147 313.353 431.937 313.353C431.783 313.353 431.621 313.313 431.451 313.232C431.289 313.143 431.209 313.026 431.209 312.88C431.209 312.726 431.225 312.572 431.257 312.419C431.33 311.958 431.366 311.132 431.366 309.943C431.366 309.749 431.318 309.563 431.221 309.385C431.132 309.198 431.022 309.105 430.893 309.105C430.861 309.105 430.8 309.122 430.711 309.154C430.63 309.186 430.569 309.203 430.529 309.203C430.424 309.203 430.327 309.154 430.238 309.057C430.157 308.96 430.116 308.879 430.116 308.814C430.116 308.612 430.213 308.442 430.408 308.304C430.61 308.159 430.82 308.086 431.039 308.086C431.338 308.086 431.593 308.179 431.803 308.365C432.014 308.551 432.175 308.81 432.289 309.142C432.475 308.818 432.726 308.559 433.041 308.365C433.357 308.163 433.709 308.062 434.097 308.062C434.34 308.062 434.534 308.094 434.68 308.159C434.833 308.215 434.959 308.3 435.056 308.414C435.153 308.519 435.278 308.681 435.432 308.899C435.634 308.64 435.893 308.438 436.209 308.292C436.532 308.147 436.864 308.074 437.204 308.074C437.609 308.074 437.973 308.24 438.296 308.571C438.62 308.895 438.838 309.271 438.952 309.7C439.008 309.919 439.037 310.339 439.037 310.962L439.085 311.666C439.126 312.087 439.263 312.342 439.498 312.431C439.773 312.512 439.91 312.597 439.91 312.686C439.91 312.88 439.862 313.022 439.765 313.111C439.692 313.159 439.591 313.212 439.461 313.268C439.332 313.325 439.231 313.353 439.158 313.353C438.721 313.353 438.41 313.195 438.224 312.88ZM445.996 306.156C445.753 306.156 445.604 306.359 445.547 306.763C445.49 307.313 445.462 307.73 445.462 308.013C445.624 308.029 445.794 308.037 445.972 308.037C446.085 308.037 446.231 308.029 446.409 308.013L446.724 308.001C446.886 308.001 447.007 308.029 447.088 308.086C447.169 308.143 447.21 308.236 447.21 308.365C447.21 308.543 447.149 308.697 447.028 308.826C446.914 308.948 446.781 309.008 446.627 309.008C446.045 309.008 445.652 309.037 445.45 309.093C445.45 309.587 445.474 310.287 445.523 311.193L445.547 311.788L445.596 312.734C445.612 312.969 445.588 313.135 445.523 313.232C445.466 313.321 445.341 313.365 445.147 313.365C444.791 313.365 444.56 313.151 444.455 312.722C444.39 312.407 444.337 311.966 444.297 311.399C444.257 310.833 444.236 310.327 444.236 309.882C444.236 309.648 444.248 309.381 444.273 309.081C444.257 309.073 444.212 309.069 444.139 309.069C444.066 309.069 444.014 309.073 443.981 309.081C443.739 309.097 443.561 309.105 443.447 309.105C443.375 309.105 443.302 309.057 443.229 308.96C443.156 308.855 443.12 308.729 443.12 308.584C443.12 308.503 443.148 308.43 443.205 308.365C443.261 308.292 443.33 308.24 443.411 308.207C443.532 308.143 443.706 308.11 443.933 308.11L444.297 308.122C444.297 306.973 444.426 306.176 444.685 305.731C444.928 305.311 445.329 305.1 445.887 305.1C446.211 305.1 446.506 305.181 446.773 305.343C446.886 305.416 446.971 305.505 447.028 305.61C447.092 305.715 447.125 305.816 447.125 305.914C447.125 306.035 447.076 306.16 446.979 306.29C446.89 306.419 446.753 306.484 446.567 306.484C446.494 306.484 446.401 306.427 446.287 306.314C446.247 306.274 446.202 306.237 446.154 306.205C446.105 306.172 446.053 306.156 445.996 306.156ZM453.593 312.722C453.593 312.9 453.496 313.05 453.302 313.171C453.116 313.293 452.942 313.353 452.78 313.353C452.472 313.353 452.226 313.317 452.04 313.244C451.862 313.163 451.696 313.017 451.542 312.807C451.332 312.993 451.044 313.135 450.68 313.232C450.316 313.321 449.98 313.365 449.673 313.365C449.171 313.365 448.759 313.232 448.435 312.965C448.111 312.69 447.95 312.289 447.95 311.763C447.95 311.537 448.01 311.33 448.132 311.144C448.253 310.95 448.419 310.78 448.629 310.635C448.864 310.481 449.131 310.364 449.43 310.283C449.73 310.194 450.041 310.149 450.365 310.149C450.535 310.149 450.737 310.182 450.972 310.246C451.206 310.311 451.388 310.38 451.518 310.453V310.258C451.518 309.822 451.412 309.522 451.202 309.36C450.992 309.19 450.652 309.105 450.183 309.105C450.045 309.105 449.908 309.134 449.77 309.19C449.641 309.247 449.491 309.324 449.321 309.421C449.094 309.542 448.88 309.603 448.678 309.603C448.605 309.603 448.536 309.554 448.471 309.457C448.407 309.352 448.374 309.259 448.374 309.178C448.374 308.944 448.484 308.741 448.702 308.571C448.929 308.402 449.196 308.276 449.503 308.195C449.81 308.106 450.086 308.062 450.328 308.062C450.571 308.062 450.85 308.11 451.166 308.207C451.481 308.296 451.74 308.422 451.942 308.584C452.185 308.794 452.371 309.041 452.501 309.324C452.638 309.599 452.707 309.902 452.707 310.234C452.707 310.339 452.699 310.497 452.683 310.707C452.667 310.934 452.658 311.128 452.658 311.29C452.658 311.363 452.65 311.472 452.634 311.618C452.618 311.796 452.61 311.937 452.61 312.042C452.61 312.14 452.646 312.225 452.719 312.297C452.792 312.362 452.877 312.394 452.974 312.394L453.314 312.382C453.403 312.382 453.472 312.415 453.52 312.479C453.569 312.544 453.593 312.625 453.593 312.722ZM449.685 312.407C450.033 312.407 450.324 312.37 450.559 312.297C450.794 312.225 451.077 312.091 451.408 311.897C451.441 311.759 451.461 311.577 451.469 311.351C451.024 311.14 450.656 311.035 450.365 311.035C450.033 311.035 449.738 311.096 449.479 311.217C449.22 311.339 449.09 311.553 449.09 311.86C449.09 312.014 449.155 312.144 449.285 312.249C449.414 312.354 449.547 312.407 449.685 312.407ZM458.757 309.251C458.757 309.421 458.721 309.55 458.648 309.639C458.583 309.728 458.474 309.773 458.32 309.773C458.207 309.773 458.11 309.745 458.029 309.688C457.956 309.631 457.859 309.534 457.737 309.397C457.64 309.292 457.527 309.207 457.398 309.142C457.276 309.077 457.167 309.045 457.07 309.045C456.576 309.045 456.22 309.15 456.002 309.36C455.864 309.506 455.751 309.7 455.662 309.943C455.573 310.178 455.529 310.42 455.529 310.671C455.529 311.035 455.581 311.326 455.686 311.545C455.792 311.763 455.978 311.949 456.245 312.103C456.342 312.16 456.479 312.208 456.657 312.249C456.835 312.281 456.981 312.297 457.094 312.297C457.248 312.297 457.41 312.257 457.58 312.176C457.75 312.087 457.895 311.974 458.017 311.836C458.17 311.658 458.356 311.569 458.575 311.569C458.664 311.569 458.765 311.614 458.878 311.703C459 311.792 459.06 311.897 459.06 312.018C459.06 312.261 458.943 312.487 458.708 312.698C458.482 312.9 458.203 313.062 457.871 313.183C457.539 313.297 457.232 313.353 456.949 313.353C456.471 313.353 456.026 313.244 455.614 313.026C455.209 312.807 454.885 312.508 454.643 312.127C454.4 311.739 454.279 311.302 454.279 310.817C454.279 310.396 454.355 309.987 454.509 309.591C454.671 309.194 454.885 308.871 455.152 308.62C455.371 308.418 455.642 308.268 455.966 308.171C456.289 308.074 456.629 308.025 456.985 308.025C457.236 308.025 457.495 308.074 457.762 308.171C458.029 308.268 458.243 308.397 458.405 308.559C458.64 308.794 458.757 309.025 458.757 309.251ZM459.968 310.525C459.968 310.032 460.077 309.623 460.295 309.3C460.514 308.968 460.817 308.656 461.205 308.365C461.319 308.284 461.509 308.215 461.776 308.159C462.043 308.094 462.278 308.062 462.48 308.062C462.723 308.062 462.977 308.114 463.244 308.219C463.519 308.317 463.742 308.43 463.912 308.559C464.211 308.778 464.418 309.033 464.531 309.324C464.644 309.607 464.701 309.947 464.701 310.343C464.701 310.513 464.604 310.679 464.41 310.841C464.223 310.995 464.021 311.072 463.803 311.072L463.341 311.059C463.107 311.059 462.771 311.068 462.334 311.084L462.079 311.096C461.901 311.112 461.768 311.12 461.679 311.12C461.549 311.12 461.371 311.104 461.145 311.072C461.177 311.452 461.319 311.751 461.57 311.97C461.82 312.18 462.091 312.285 462.383 312.285C462.892 312.285 463.248 312.184 463.451 311.982C463.621 311.86 463.734 311.784 463.791 311.751C463.847 311.719 463.936 311.703 464.058 311.703C464.187 311.703 464.3 311.763 464.397 311.885C464.494 312.006 464.543 312.127 464.543 312.249C464.543 312.386 464.458 312.528 464.288 312.674C464.126 312.811 463.904 312.957 463.621 313.111C463.467 313.175 463.257 313.232 462.99 313.28C462.723 313.329 462.5 313.353 462.322 313.353C462.039 313.353 461.723 313.272 461.375 313.111C461.027 312.941 460.769 312.754 460.599 312.552C460.429 312.35 460.279 312.063 460.15 311.691C460.028 311.318 459.968 310.93 459.968 310.525ZM462.383 310.198C462.957 310.198 463.378 310.178 463.645 310.137C463.629 309.902 463.556 309.712 463.426 309.567C463.297 309.413 463.119 309.283 462.892 309.178C462.82 309.146 462.755 309.122 462.698 309.105C462.642 309.089 462.577 309.081 462.504 309.081C462.132 309.081 461.816 309.182 461.557 309.385C461.307 309.587 461.157 309.846 461.108 310.161C461.513 310.186 461.938 310.198 462.383 310.198Z" fill="#FFF8DC"/>
<rect x="57.6484" y="335.102" width="359.039" height="23.641" rx="4.04551" fill="#E04963"/>
<path d="M212.617 344.723C212.593 345.24 212.58 345.738 212.58 346.215C212.58 346.709 212.613 347.433 212.678 348.388C212.686 348.533 212.702 348.829 212.726 349.274C212.75 349.711 212.763 350.111 212.763 350.475C212.843 350.467 212.928 350.455 213.017 350.439C213.114 350.423 213.187 350.415 213.236 350.415C213.414 350.415 213.555 350.459 213.661 350.548C213.766 350.637 213.818 350.775 213.818 350.961C213.818 351.082 213.77 351.175 213.673 351.24C213.576 351.305 213.406 351.353 213.163 351.385C212.928 351.41 212.585 351.422 212.131 351.422C211.63 351.422 211.254 351.406 211.003 351.373C210.752 351.341 210.578 351.28 210.481 351.191C210.384 351.094 210.335 350.953 210.335 350.767C210.335 350.629 210.38 350.536 210.469 350.487C210.558 350.439 210.683 350.415 210.845 350.415L211.1 350.427L211.5 350.451L211.44 349.019C211.391 348.242 211.367 347.53 211.367 346.883C211.367 346.535 211.379 346.058 211.403 345.451L211.427 344.783C211.152 344.799 210.938 344.807 210.784 344.807C210.606 344.807 210.485 344.775 210.42 344.71C210.364 344.646 210.335 344.512 210.335 344.31C210.335 344.083 210.489 343.938 210.796 343.873C211.112 343.808 211.589 343.776 212.229 343.776C212.722 343.776 213.09 343.792 213.333 343.824C213.584 343.857 213.709 343.93 213.709 344.043C213.709 344.318 213.648 344.5 213.527 344.589C213.414 344.67 213.191 344.71 212.86 344.71L212.617 344.723ZM220.494 350.487C220.535 350.504 220.599 350.524 220.688 350.548C220.777 350.572 220.842 350.597 220.882 350.621C220.923 350.645 220.943 350.682 220.943 350.73C220.951 350.924 220.878 351.086 220.725 351.216C220.579 351.337 220.405 351.398 220.203 351.398C219.887 351.398 219.64 351.313 219.462 351.143C219.284 350.973 219.155 350.714 219.074 350.366C219.042 350.228 219.026 350.038 219.026 349.796C219.026 349.658 219.034 349.436 219.05 349.128C219.066 348.804 219.074 348.546 219.074 348.351C219.074 348.068 218.993 347.821 218.831 347.611C218.678 347.393 218.459 347.283 218.176 347.283C218.006 347.283 217.828 347.336 217.642 347.441C217.456 347.538 217.326 347.66 217.254 347.805C217.132 348.04 217.047 348.295 216.999 348.57C216.91 349.055 216.865 349.561 216.865 350.087C216.865 350.338 216.869 350.532 216.877 350.669C216.877 350.702 216.877 350.767 216.877 350.864C216.885 350.953 216.877 351.038 216.853 351.118C216.837 351.191 216.805 351.26 216.756 351.325C216.716 351.365 216.651 351.398 216.562 351.422C216.481 351.454 216.404 351.47 216.331 351.47C216.218 351.47 216.076 351.422 215.906 351.325C215.737 351.228 215.639 351.118 215.615 350.997L215.603 350.791C215.603 350.718 215.611 350.633 215.627 350.536C215.724 349.97 215.773 349.476 215.773 349.055C215.773 348.869 215.769 348.724 215.761 348.618L215.749 348.048C215.749 347.854 215.7 347.668 215.603 347.49C215.506 347.304 215.393 347.21 215.263 347.21C215.223 347.21 215.166 347.227 215.093 347.259C215.02 347.283 214.96 347.295 214.911 347.295C214.83 347.295 214.741 347.255 214.644 347.174C214.555 347.093 214.511 347.008 214.511 346.919C214.511 346.749 214.567 346.612 214.681 346.507C214.802 346.409 214.919 346.333 215.033 346.276C215.154 346.219 215.292 346.191 215.445 346.191C215.575 346.191 215.68 346.203 215.761 346.227C215.842 346.252 215.951 346.304 216.088 346.385C216.161 346.426 216.246 346.515 216.343 346.652C216.44 346.79 216.521 346.984 216.586 347.235C216.796 346.846 217.055 346.575 217.363 346.422C217.678 346.26 218.079 346.179 218.564 346.179C218.75 346.179 218.949 346.24 219.159 346.361C219.377 346.482 219.564 346.624 219.717 346.786C219.863 346.964 219.984 347.186 220.081 347.453C220.179 347.712 220.227 347.947 220.227 348.157C220.227 348.279 220.219 348.477 220.203 348.752C220.179 348.97 220.166 349.201 220.166 349.444C220.166 350.01 220.276 350.358 220.494 350.487ZM225.398 343.715C225.551 343.715 225.689 343.756 225.81 343.837C225.94 343.917 226.017 344.059 226.041 344.261C226.138 344.901 226.199 345.54 226.223 346.179C226.255 346.81 226.272 347.526 226.272 348.327C226.272 348.667 226.243 349.286 226.187 350.184C226.543 350.216 226.818 350.232 227.012 350.232C227.149 350.232 227.461 350.212 227.946 350.172C228.23 350.131 228.476 350.111 228.687 350.111C228.881 350.111 229.059 350.131 229.221 350.172C229.383 350.204 229.548 350.261 229.718 350.342C229.888 350.439 229.973 350.588 229.973 350.791C229.973 350.953 229.921 351.098 229.815 351.228C229.718 351.357 229.601 351.422 229.463 351.422C229.366 351.422 229.213 351.406 229.002 351.373C228.622 351.317 228.258 351.288 227.91 351.288C227.797 351.288 227.667 351.296 227.522 351.313C227.384 351.321 227.283 351.325 227.218 351.325C227.024 351.349 226.83 351.361 226.636 351.361C226.239 351.361 225.883 351.341 225.568 351.301C225.406 351.284 225.244 351.224 225.082 351.118C224.92 351.005 224.839 350.843 224.839 350.633C224.839 350.512 224.856 350.2 224.888 349.698C224.945 348.865 224.973 348.23 224.973 347.793C224.973 347.453 224.957 347.097 224.924 346.725C224.892 346.353 224.872 346.118 224.864 346.021C224.791 345.333 224.754 344.767 224.754 344.322C224.754 344.112 224.803 343.958 224.9 343.861C225.005 343.764 225.171 343.715 225.398 343.715ZM235.482 347.526C235.546 347.639 235.599 347.805 235.64 348.024C235.68 348.234 235.7 348.424 235.7 348.594C235.7 348.91 235.631 349.359 235.494 349.941C234.936 350.961 234.11 351.47 233.018 351.47C232.613 351.47 232.201 351.337 231.78 351.07C231.359 350.803 231.068 350.495 230.906 350.148C230.688 349.452 230.579 349.011 230.579 348.825C230.579 348.501 230.647 348.157 230.785 347.793C230.931 347.429 231.113 347.113 231.331 346.846C231.469 346.66 231.715 346.503 232.071 346.373C232.427 346.236 232.751 346.167 233.042 346.167C233.609 346.167 234.09 346.276 234.487 346.494C234.883 346.705 235.215 347.049 235.482 347.526ZM234.426 349.48C234.466 349.375 234.487 349.104 234.487 348.667C234.487 348.432 234.442 348.202 234.353 347.975C234.272 347.749 234.151 347.554 233.989 347.393C233.973 347.376 233.928 347.352 233.855 347.32C233.783 347.279 233.681 347.243 233.552 347.21C233.431 347.17 233.289 347.15 233.127 347.15C232.674 347.15 232.342 347.332 232.132 347.696C231.922 348.06 231.816 348.473 231.816 348.934C231.816 349.015 231.837 349.169 231.877 349.395C231.926 349.622 231.966 349.763 231.999 349.82C232.023 349.876 232.083 349.957 232.181 350.063C232.286 350.16 232.411 350.249 232.557 350.33C232.711 350.402 232.868 350.439 233.03 350.439C233.394 350.439 233.686 350.354 233.904 350.184C234.122 350.006 234.296 349.771 234.426 349.48ZM239.702 348.303C239.726 348.238 239.811 348.003 239.957 347.599C240.11 347.194 240.252 346.887 240.381 346.676C240.592 346.345 240.778 346.179 240.94 346.179C241.166 346.179 241.34 346.223 241.462 346.312C241.583 346.393 241.644 346.511 241.644 346.664C241.644 346.737 241.611 346.838 241.547 346.968C241.49 347.097 241.458 347.174 241.449 347.198C241.126 347.91 240.835 348.675 240.576 349.492L240.321 350.439C240.224 350.746 240.058 350.997 239.823 351.191C239.589 351.377 239.313 351.47 238.998 351.47C238.715 351.47 238.452 351.341 238.209 351.082C238.063 350.856 237.91 350.568 237.748 350.22C237.594 349.872 237.461 349.533 237.347 349.201L236.923 347.927C236.834 347.676 236.761 347.461 236.704 347.283C236.656 347.105 236.631 346.943 236.631 346.798C236.623 346.628 236.672 346.49 236.777 346.385C236.882 346.28 237.028 346.227 237.214 346.227C237.424 346.227 237.574 346.272 237.663 346.361C237.752 346.442 237.833 346.571 237.906 346.749C237.938 346.935 238.027 347.316 238.173 347.89L238.258 348.23C238.33 348.505 238.423 348.784 238.537 349.067C238.65 349.351 238.763 349.622 238.877 349.881C238.86 349.84 238.917 349.974 239.046 350.281C239.127 350.046 239.22 349.759 239.326 349.419L239.702 348.303ZM242.383 348.643C242.383 348.149 242.492 347.74 242.71 347.417C242.929 347.085 243.232 346.774 243.621 346.482C243.734 346.401 243.924 346.333 244.191 346.276C244.458 346.211 244.693 346.179 244.895 346.179C245.138 346.179 245.393 346.231 245.66 346.337C245.935 346.434 246.157 346.547 246.327 346.676C246.626 346.895 246.833 347.15 246.946 347.441C247.059 347.724 247.116 348.064 247.116 348.461C247.116 348.63 247.019 348.796 246.825 348.958C246.639 349.112 246.436 349.189 246.218 349.189L245.757 349.177C245.522 349.177 245.186 349.185 244.749 349.201L244.494 349.213C244.316 349.229 244.183 349.237 244.094 349.237C243.964 349.237 243.786 349.221 243.56 349.189C243.592 349.569 243.734 349.868 243.985 350.087C244.236 350.297 244.507 350.402 244.798 350.402C245.308 350.402 245.664 350.301 245.866 350.099C246.036 349.978 246.149 349.901 246.206 349.868C246.262 349.836 246.351 349.82 246.473 349.82C246.602 349.82 246.715 349.881 246.813 350.002C246.91 350.123 246.958 350.245 246.958 350.366C246.958 350.504 246.873 350.645 246.703 350.791C246.541 350.928 246.319 351.074 246.036 351.228C245.882 351.292 245.672 351.349 245.405 351.398C245.138 351.446 244.915 351.47 244.737 351.47C244.454 351.47 244.138 351.39 243.791 351.228C243.443 351.058 243.184 350.872 243.014 350.669C242.844 350.467 242.694 350.18 242.565 349.808C242.443 349.436 242.383 349.047 242.383 348.643ZM244.798 348.315C245.372 348.315 245.793 348.295 246.06 348.254C246.044 348.02 245.971 347.829 245.842 347.684C245.712 347.53 245.534 347.401 245.308 347.295C245.235 347.263 245.17 347.239 245.113 347.223C245.057 347.206 244.992 347.198 244.919 347.198C244.547 347.198 244.231 347.299 243.973 347.502C243.722 347.704 243.572 347.963 243.524 348.279C243.928 348.303 244.353 348.315 244.798 348.315Z" fill="#FFF8DC"/>
<path d="M409.819 348.578C409.752 348.578 409.687 348.565 409.624 348.54C409.56 348.515 409.507 348.481 409.465 348.439L407.139 346.113C407.046 346.02 407 345.902 407 345.759C407 345.615 407.046 345.497 407.139 345.405C407.232 345.312 407.35 345.266 407.493 345.266C407.636 345.266 407.754 345.312 407.847 345.405L409.819 347.377L411.791 345.405C411.884 345.312 412.002 345.266 412.145 345.266C412.289 345.266 412.407 345.312 412.499 345.405C412.592 345.497 412.638 345.615 412.638 345.759C412.638 345.902 412.592 346.02 412.499 346.113L410.173 348.439C410.123 348.489 410.068 348.525 410.009 348.546C409.95 348.567 409.887 348.578 409.819 348.578Z" fill="#FFF8DC"/>
<rect x="424.781" y="335.609" width="359.039" height="22.6296" rx="4.04551" fill="#E06805"/>
<path d="M587.453 344.383C587.453 344.617 587.445 344.929 587.429 345.317L587.416 346.106C587.416 346.875 587.473 347.518 587.586 348.036C587.748 348.764 587.991 349.326 588.315 349.723C588.614 350.071 588.982 350.245 589.419 350.245C589.759 350.245 590.062 350.143 590.329 349.941C590.596 349.731 590.803 349.472 590.948 349.164C591.191 348.663 591.312 348.044 591.312 347.308C591.312 346.863 591.284 346.337 591.227 345.73C591.179 345.05 591.154 344.54 591.154 344.201C591.154 344.023 591.26 343.909 591.47 343.861C591.68 343.804 591.899 343.776 592.125 343.776C592.206 343.776 592.299 343.828 592.405 343.934C592.51 344.039 592.562 344.152 592.562 344.273C592.562 344.516 592.55 344.747 592.526 344.965C592.51 345.208 592.502 345.378 592.502 345.475C592.502 345.782 592.518 346.211 592.55 346.761C592.558 346.899 592.566 347.065 592.574 347.259C592.583 347.453 592.587 347.676 592.587 347.927C592.587 348.477 592.453 349.027 592.186 349.577C591.927 350.119 591.563 350.568 591.094 350.924C590.625 351.272 590.095 351.446 589.504 351.446C588.598 351.446 587.89 351.155 587.38 350.572C586.87 349.982 586.522 349.221 586.336 348.291C586.231 347.757 586.162 347.198 586.13 346.616C586.106 346.033 586.094 345.252 586.094 344.273C586.094 344.144 586.154 344.023 586.276 343.909C586.405 343.796 586.543 343.739 586.688 343.739C587.198 343.739 587.453 343.954 587.453 344.383ZM594.275 347.198C594.202 347.198 594.133 347.206 594.068 347.223C594.004 347.231 593.939 347.235 593.874 347.235C593.785 347.235 593.7 347.194 593.619 347.113C593.546 347.032 593.51 346.96 593.51 346.895C593.51 346.685 593.615 346.523 593.826 346.409C594.036 346.288 594.25 346.227 594.469 346.227C594.655 346.227 594.845 346.292 595.039 346.422C595.242 346.543 595.391 346.701 595.488 346.895C595.699 346.644 595.958 346.462 596.265 346.349C596.572 346.236 596.892 346.179 597.224 346.179C597.596 346.179 597.94 346.296 598.255 346.531C598.579 346.765 598.834 347.065 599.02 347.429C599.206 347.785 599.299 348.141 599.299 348.497C599.299 348.845 599.263 349.156 599.19 349.431C599.117 349.698 598.988 349.97 598.802 350.245C598.591 350.536 598.308 350.775 597.952 350.961C597.604 351.147 597.187 351.24 596.702 351.24C596.572 351.24 596.415 351.207 596.229 351.143C596.043 351.07 595.889 350.993 595.767 350.912C595.711 351.462 595.682 351.94 595.682 352.344C595.682 352.587 595.695 352.818 595.719 353.036C595.735 353.295 595.743 353.481 595.743 353.594C595.743 353.772 595.682 353.902 595.561 353.983C595.44 354.072 595.306 354.116 595.161 354.116C594.869 354.116 594.675 354.035 594.578 353.873C594.489 353.72 594.445 353.497 594.445 353.206C594.477 352.51 594.517 351.867 594.566 351.276C594.614 350.548 594.639 349.423 594.639 347.902C594.639 347.757 594.61 347.603 594.554 347.441C594.497 347.279 594.404 347.198 594.275 347.198ZM595.816 349.711C595.856 349.864 595.97 349.994 596.156 350.099C596.35 350.196 596.524 350.245 596.678 350.245C597.139 350.245 597.483 350.119 597.709 349.868C597.879 349.69 597.988 349.516 598.037 349.347C598.094 349.177 598.122 348.906 598.122 348.533C598.122 348.242 598.065 347.999 597.952 347.805C597.839 347.603 597.701 347.457 597.539 347.368C597.378 347.271 597.224 347.223 597.078 347.223C596.746 347.223 596.475 347.324 596.265 347.526C596.063 347.72 595.933 347.987 595.877 348.327C595.836 348.594 595.816 349.055 595.816 349.711ZM605.444 351.361C605.274 351.361 605.112 351.313 604.958 351.216C604.813 351.11 604.683 351.001 604.57 350.888C604.457 350.767 604.38 350.686 604.339 350.645C604.17 350.888 603.923 351.086 603.599 351.24C603.275 351.394 602.964 351.47 602.665 351.47C602.203 351.47 601.795 351.373 601.439 351.179C601.083 350.985 600.808 350.722 600.614 350.39C600.419 350.05 600.322 349.674 600.322 349.262C600.322 348.873 600.367 348.501 600.456 348.145C600.553 347.781 600.682 347.478 600.844 347.235C601.063 346.927 601.354 346.685 601.718 346.507C602.09 346.329 602.458 346.24 602.822 346.24C603.041 346.24 603.247 346.28 603.441 346.361C603.636 346.442 603.805 346.543 603.951 346.664C603.951 346.13 603.947 345.795 603.939 345.657V345.39C603.939 344.629 603.987 344.075 604.085 343.727C604.174 343.387 604.392 343.218 604.74 343.218C604.926 343.218 605.064 343.258 605.153 343.339C605.242 343.42 605.286 343.574 605.286 343.8C605.286 343.881 605.266 344.104 605.225 344.468C605.136 345.374 605.092 346.28 605.092 347.186C605.092 347.947 605.104 348.513 605.128 348.885C605.161 349.249 605.221 349.541 605.31 349.759C605.407 349.978 605.557 350.172 605.759 350.342C605.881 350.439 605.966 350.52 606.014 350.584C606.071 350.649 606.099 350.734 606.099 350.839C606.099 350.969 606.034 351.09 605.905 351.203C605.776 351.309 605.622 351.361 605.444 351.361ZM602.628 350.487C603.057 350.487 603.373 350.354 603.575 350.087C603.785 349.812 603.89 349.464 603.89 349.043L603.878 348.363C603.87 348.234 603.866 348.06 603.866 347.842C603.567 347.486 603.243 347.308 602.895 347.308C602.661 347.308 602.438 347.368 602.228 347.49C602.025 347.611 601.86 347.789 601.73 348.024C601.593 348.291 601.524 348.695 601.524 349.237C601.524 349.609 601.633 349.913 601.851 350.148C602.07 350.374 602.329 350.487 602.628 350.487ZM612.436 350.839C612.436 351.017 612.339 351.167 612.145 351.288C611.959 351.41 611.785 351.47 611.623 351.47C611.316 351.47 611.069 351.434 610.883 351.361C610.705 351.28 610.539 351.135 610.385 350.924C610.175 351.11 609.888 351.252 609.524 351.349C609.16 351.438 608.824 351.483 608.516 351.483C608.015 351.483 607.602 351.349 607.278 351.082C606.955 350.807 606.793 350.406 606.793 349.881C606.793 349.654 606.854 349.448 606.975 349.262C607.096 349.067 607.262 348.897 607.473 348.752C607.707 348.598 607.974 348.481 608.274 348.4C608.573 348.311 608.884 348.266 609.208 348.266C609.378 348.266 609.58 348.299 609.815 348.363C610.05 348.428 610.232 348.497 610.361 348.57V348.376C610.361 347.939 610.256 347.639 610.045 347.478C609.835 347.308 609.495 347.223 609.026 347.223C608.888 347.223 608.751 347.251 608.613 347.308C608.484 347.364 608.334 347.441 608.164 347.538C607.938 347.66 607.723 347.72 607.521 347.72C607.448 347.72 607.379 347.672 607.315 347.575C607.25 347.469 607.218 347.376 607.218 347.295C607.218 347.061 607.327 346.859 607.545 346.689C607.772 346.519 608.039 346.393 608.346 346.312C608.654 346.223 608.929 346.179 609.172 346.179C609.414 346.179 609.694 346.227 610.009 346.325C610.325 346.414 610.584 346.539 610.786 346.701C611.029 346.911 611.215 347.158 611.344 347.441C611.482 347.716 611.55 348.02 611.55 348.351C611.55 348.457 611.542 348.614 611.526 348.825C611.51 349.051 611.502 349.245 611.502 349.407C611.502 349.48 611.494 349.589 611.478 349.735C611.461 349.913 611.453 350.054 611.453 350.16C611.453 350.257 611.49 350.342 611.563 350.415C611.635 350.479 611.72 350.512 611.817 350.512L612.157 350.499C612.246 350.499 612.315 350.532 612.364 350.597C612.412 350.661 612.436 350.742 612.436 350.839ZM608.528 350.524C608.876 350.524 609.168 350.487 609.402 350.415C609.637 350.342 609.92 350.208 610.252 350.014C610.284 349.876 610.304 349.694 610.312 349.468C609.867 349.258 609.499 349.152 609.208 349.152C608.876 349.152 608.581 349.213 608.322 349.334C608.063 349.456 607.934 349.67 607.934 349.978C607.934 350.131 607.998 350.261 608.128 350.366C608.257 350.471 608.391 350.524 608.528 350.524ZM613.268 347.223C613.154 347.206 613.061 347.158 612.988 347.077C612.924 346.996 612.891 346.899 612.891 346.786C612.891 346.729 612.903 346.668 612.928 346.604C612.96 346.539 613.005 346.482 613.061 346.434C613.166 346.345 613.308 346.26 613.486 346.179C613.672 346.106 613.806 346.017 613.887 345.912C613.967 345.807 614.008 345.608 614.008 345.317C614.008 345.196 614 345.091 613.984 345.002C613.976 344.913 613.971 344.844 613.971 344.795C613.971 344.617 614.036 344.484 614.166 344.395C614.295 344.306 614.445 344.261 614.615 344.261C614.825 344.261 614.967 344.314 615.039 344.419C615.12 344.524 615.161 344.718 615.161 345.002C615.161 345.277 615.149 345.515 615.124 345.718C615.1 345.912 615.048 346.086 614.967 346.24C615.08 346.24 615.266 346.231 615.525 346.215C615.881 346.199 616.128 346.191 616.265 346.191C616.403 346.191 616.524 346.227 616.629 346.3C616.735 346.365 616.787 346.458 616.787 346.579C616.787 346.749 616.751 346.875 616.678 346.956C616.605 347.037 616.5 347.089 616.362 347.113C616.031 347.202 615.561 347.255 614.955 347.271C614.938 347.587 614.93 347.931 614.93 348.303C614.93 348.926 614.967 349.403 615.039 349.735C615.088 349.994 615.169 350.184 615.282 350.305C615.404 350.419 615.582 350.475 615.816 350.475C615.938 350.475 616.035 350.459 616.108 350.427C616.188 350.394 616.233 350.374 616.241 350.366C616.338 350.309 616.427 350.281 616.508 350.281C616.621 350.281 616.702 350.317 616.751 350.39C616.807 350.463 616.836 350.56 616.836 350.682C616.836 350.908 616.714 351.098 616.472 351.252C616.229 351.398 615.917 351.47 615.537 351.47C615.108 351.47 614.744 351.345 614.445 351.094C614.154 350.835 613.98 350.495 613.923 350.075C613.842 349.694 613.802 349.16 613.802 348.473C613.802 348.173 613.818 347.773 613.85 347.271L613.268 347.223ZM617.685 348.643C617.685 348.149 617.794 347.74 618.013 347.417C618.231 347.085 618.535 346.774 618.923 346.482C619.036 346.401 619.226 346.333 619.493 346.276C619.76 346.211 619.995 346.179 620.197 346.179C620.44 346.179 620.695 346.231 620.962 346.337C621.237 346.434 621.459 346.547 621.629 346.676C621.929 346.895 622.135 347.15 622.248 347.441C622.362 347.724 622.418 348.064 622.418 348.461C622.418 348.63 622.321 348.796 622.127 348.958C621.941 349.112 621.739 349.189 621.52 349.189L621.059 349.177C620.824 349.177 620.489 349.185 620.052 349.201L619.797 349.213C619.619 349.229 619.485 349.237 619.396 349.237C619.267 349.237 619.089 349.221 618.862 349.189C618.895 349.569 619.036 349.868 619.287 350.087C619.538 350.297 619.809 350.402 620.1 350.402C620.61 350.402 620.966 350.301 621.168 350.099C621.338 349.978 621.451 349.901 621.508 349.868C621.565 349.836 621.654 349.82 621.775 349.82C621.904 349.82 622.018 349.881 622.115 350.002C622.212 350.123 622.26 350.245 622.26 350.366C622.26 350.504 622.175 350.645 622.006 350.791C621.844 350.928 621.621 351.074 621.338 351.228C621.184 351.292 620.974 351.349 620.707 351.398C620.44 351.446 620.217 351.47 620.039 351.47C619.756 351.47 619.441 351.39 619.093 351.228C618.745 351.058 618.486 350.872 618.316 350.669C618.146 350.467 617.996 350.18 617.867 349.808C617.746 349.436 617.685 349.047 617.685 348.643ZM620.1 348.315C620.675 348.315 621.095 348.295 621.362 348.254C621.346 348.02 621.273 347.829 621.144 347.684C621.014 347.53 620.836 347.401 620.61 347.295C620.537 347.263 620.472 347.239 620.416 347.223C620.359 347.206 620.294 347.198 620.222 347.198C619.849 347.198 619.534 347.299 619.275 347.502C619.024 347.704 618.874 347.963 618.826 348.279C619.23 348.303 619.655 348.315 620.1 348.315Z" fill="#FFF8DC"/>
</g>
<rect x="41.9744" y="1.34944" width="757.522" height="365.613" stroke="black" stroke-width="1.01138"/>
<defs>
<clipPath id="clip0_571_21173">
<rect x="41.4688" y="0.84375" width="758.534" height="366.625" fill="white"/>
</clipPath>
</defs>
</svg>
