<svg width="222" height="42" viewBox="0 0 222 42" fill="none" xmlns="http://www.w3.org/2000/svg">
<path d="M7.34 38.696C7.212 39.336 6.828 39.8907 6.188 40.36C5.59067 40.7867 4.73733 41 3.628 41C2.68933 41 1.94267 40.744 1.388 40.232C0.876 39.72 0.598667 39.1867 0.556 38.632C0.812 36.84 0.94 34.152 0.94 30.568C0.94 28.4347 0.812 25.1493 0.556 20.712C0.257334 16.5307 0.108 12.8187 0.108 9.576C0.108 7.82667 0.193334 6.03467 0.364 4.2C0.364 3.60266 0.705334 2.96266 1.388 2.28C2.11333 1.59733 3.09467 1.17066 4.332 1C8.38533 0.573331 13.356 0.359997 19.244 0.359997H21.292C22.828 0.359997 24.3213 0.63733 25.772 1.192C27.2653 1.74666 28.012 2.70667 28.012 4.072C28.012 4.968 27.7987 5.672 27.372 6.184C26.9453 6.696 26.156 6.952 25.004 6.952C24.4493 6.952 23.8093 6.90933 23.084 6.824C22.3587 6.73867 21.8467 6.67467 21.548 6.632C19.9267 6.376 18.668 6.248 17.772 6.248C12.8227 6.248 9.08933 6.58933 6.572 7.272C6.572 8.68 6.61467 10.9627 6.7 14.12L6.764 18.216C8.98267 18.216 10.9667 18.1307 12.716 17.96C14.4653 17.7467 15.468 17.6187 15.724 17.576C17.9427 17.32 19.4147 17.192 20.14 17.192C21.164 17.192 22.0173 17.4267 22.7 17.896C23.4253 18.3227 23.788 19.0053 23.788 19.944C23.788 22.0773 22.2947 23.144 19.308 23.144C18.5827 23.144 17.9427 23.1653 17.388 23.208C16.8333 23.2507 16.364 23.2933 15.98 23.336C14.444 23.5067 13.228 23.592 12.332 23.592C10.3693 23.592 8.70533 23.656 7.34 23.784C7.34 25.3627 7.404 27.0267 7.532 28.776C7.532 29.3307 7.55333 30.184 7.596 31.336C7.68133 32.488 7.724 33.5333 7.724 34.472C7.724 35.2827 7.70267 36.0293 7.66 36.712C7.61733 37.3947 7.51067 38.056 7.34 38.696ZM29.926 19.432C29.5847 19.432 29.2647 19.304 28.966 19.048C28.71 18.7493 28.582 18.408 28.582 18.024C28.582 17.0427 29.0087 16.1253 29.862 15.272C30.118 15.144 30.63 14.9307 31.398 14.632C32.166 14.3333 32.8487 14.184 33.446 14.184C35.0673 14.184 36.39 14.632 37.414 15.528C38.438 16.3813 38.95 17.6187 38.95 19.24C38.95 19.7093 38.8647 20.712 38.694 22.248C38.5233 24.04 38.438 25.4267 38.438 26.408C38.438 29.3947 38.8433 31.8053 39.654 33.64C39.9527 34.2373 40.422 34.7067 41.062 35.048C41.702 35.3893 42.278 35.56 42.79 35.56C44.0273 35.56 45.03 35.3467 45.798 34.92C46.566 34.4933 47.398 33.8107 48.294 32.872C49.19 31.9333 49.766 30.8667 50.022 29.672C50.3207 28.4773 50.534 26.8347 50.662 24.744C50.7473 23.3787 50.8327 22.376 50.918 21.736C51.1313 19.688 51.238 17.9387 51.238 16.488C51.238 15.5493 51.494 14.7813 52.006 14.184C52.518 13.544 53.222 13.224 54.118 13.224C54.63 13.224 55.206 13.3947 55.846 13.736C56.5287 14.0347 56.9767 14.3973 57.19 14.824C57.446 15.2507 57.574 15.9547 57.574 16.936C57.574 17.448 57.51 17.9387 57.382 18.408C57.0833 19.4747 56.934 20.7547 56.934 22.248L56.998 25.576C56.998 28.6053 57.2113 30.8453 57.638 32.296C57.8513 32.9787 58.15 33.6827 58.534 34.408C58.918 35.0907 59.2807 35.6667 59.622 36.136C60.4753 37.0747 61.03 37.736 61.286 38.12C61.542 38.4613 61.67 38.8027 61.67 39.144C61.67 39.656 61.414 40.1467 60.902 40.616C60.4327 41.0427 59.9207 41.256 59.366 41.256C57.7873 41.256 56.422 40.7227 55.27 39.656C54.118 38.5893 53.2647 37.2027 52.71 35.496C51.2593 37.16 49.9153 38.504 48.678 39.528C47.8247 40.1253 46.7793 40.5733 45.542 40.872C44.3047 41.128 43.0673 41.256 41.83 41.256C40.166 41.256 38.4807 40.5733 36.774 39.208C35.0673 37.8427 33.9153 36.264 33.318 34.472C33.2753 34.3867 33.1473 34.0453 32.934 33.448C32.7633 32.8507 32.678 31.9547 32.678 30.76C32.678 29.1813 32.7633 27.1973 32.934 24.808C33.062 23.272 33.126 21.864 33.126 20.584C33.126 20.2 32.9767 19.88 32.678 19.624C32.422 19.368 32.1233 19.24 31.782 19.24C31.526 19.24 31.2273 19.2827 30.886 19.368C30.5873 19.4107 30.2673 19.432 29.926 19.432ZM95.701 36.072C95.9143 36.1573 96.2557 36.264 96.725 36.392C97.1943 36.52 97.5357 36.648 97.749 36.776C97.9623 36.904 98.069 37.096 98.069 37.352C98.1117 38.376 97.7277 39.2293 96.917 39.912C96.149 40.552 95.2317 40.872 94.165 40.872C92.501 40.872 91.1997 40.424 90.261 39.528C89.3223 38.632 88.6397 37.2667 88.213 35.432C88.0423 34.7067 87.957 33.704 87.957 32.424C87.957 31.6987 87.9997 30.5253 88.085 28.904C88.1703 27.1973 88.213 25.832 88.213 24.808C88.213 23.3147 87.7863 22.0133 86.933 20.904C86.1223 19.752 84.9703 19.176 83.477 19.176C82.581 19.176 81.6423 19.4533 80.661 20.008C79.6797 20.52 78.997 21.16 78.613 21.928C77.973 23.1653 77.525 24.5093 77.269 25.96C76.7997 28.52 76.565 31.1867 76.565 33.96C76.565 35.2827 76.5863 36.3067 76.629 37.032C76.629 37.2027 76.629 37.544 76.629 38.056C76.6717 38.5253 76.629 38.9733 76.501 39.4C76.4157 39.784 76.245 40.1467 75.989 40.488C75.7757 40.7013 75.4343 40.872 74.965 41C74.5383 41.1707 74.133 41.256 73.749 41.256C73.1517 41.256 72.405 41 71.509 40.488C70.613 39.976 70.101 39.4 69.973 38.76L69.909 37.672C69.909 37.288 69.9517 36.84 70.037 36.328C70.549 33.3413 70.805 30.7387 70.805 28.52C70.805 27.5387 70.7837 26.7707 70.741 26.216L70.677 23.208C70.677 22.184 70.421 21.2027 69.909 20.264C69.397 19.2827 68.7997 18.792 68.117 18.792C67.9037 18.792 67.605 18.8773 67.221 19.048C66.837 19.176 66.517 19.24 66.261 19.24C65.8343 19.24 65.365 19.0267 64.853 18.6C64.3837 18.1733 64.149 17.7253 64.149 17.256C64.149 16.36 64.4477 15.6347 65.045 15.08C65.685 14.568 66.3037 14.1627 66.901 13.864C67.541 13.5653 68.2663 13.416 69.077 13.416C69.7597 13.416 70.3143 13.48 70.741 13.608C71.1677 13.736 71.7437 14.0133 72.469 14.44C72.853 14.6533 73.301 15.1227 73.813 15.848C74.325 16.5733 74.7517 17.5973 75.093 18.92C76.2023 16.872 77.5677 15.4427 79.189 14.632C80.853 13.7787 82.965 13.352 85.525 13.352C86.5063 13.352 87.5517 13.672 88.661 14.312C89.813 14.952 90.7943 15.6987 91.605 16.552C92.373 17.4907 93.013 18.664 93.525 20.072C94.037 21.4373 94.293 22.6747 94.293 23.784C94.293 24.424 94.2503 25.4693 94.165 26.92C94.037 28.072 93.973 29.288 93.973 30.568C93.973 33.5547 94.549 35.3893 95.701 36.072Z" fill="#24C2AF"/>
<path d="M106.929 41.192C105.947 41.192 105.201 40.936 104.689 40.424C104.177 39.8693 103.921 39.3147 103.921 38.76C104.177 37.224 104.326 35.5813 104.369 33.832C104.411 32.0827 104.433 31.0373 104.433 30.696V28.392C104.433 26.6427 104.411 25.1067 104.369 23.784C104.326 22.4187 104.283 21.2667 104.241 20.328C104.07 16.5733 103.985 13.6507 103.985 11.56V9.576C104.07 7.528 104.177 5.736 104.305 4.2C104.347 3.60266 104.71 2.96266 105.393 2.28C106.118 1.59733 107.099 1.17066 108.337 1C112.39 0.573331 117.425 0.359997 123.441 0.359997H125.489C126.982 0.359997 128.454 0.63733 129.905 1.192C131.398 1.74666 132.145 2.68533 132.145 4.008C132.145 4.904 131.931 5.62933 131.505 6.184C131.078 6.696 130.246 6.952 129.009 6.952C128.454 6.952 127.814 6.90933 127.089 6.824C126.363 6.73867 125.851 6.67467 125.553 6.632C123.931 6.376 122.673 6.248 121.777 6.248C116.827 6.248 113.073 6.58933 110.513 7.272V10.792V18.152C113.414 18.152 116.443 18.024 119.601 17.768C121.905 17.5973 123.398 17.512 124.081 17.512C125.062 17.512 125.894 17.7467 126.577 18.216C127.302 18.6427 127.665 19.304 127.665 20.2C127.665 22.4187 126.15 23.528 123.121 23.528C122.395 23.528 121.307 23.6133 119.857 23.784C118.235 23.9547 116.977 24.04 116.081 24.04C115.526 24.04 114.737 23.9973 113.713 23.912C112.39 23.8267 111.494 23.8053 111.025 23.848C110.982 24.9573 111.003 26.6853 111.089 29.032L111.153 33.32C111.153 34.7707 111.131 35.8587 111.089 36.584C111.046 37.2667 110.918 38.0133 110.705 38.824C110.577 39.5067 110.193 40.0827 109.553 40.552C108.913 40.9787 108.038 41.192 106.929 41.192ZM160.15 41.256C158.699 41.256 157.59 41.0427 156.822 40.616C156.054 40.1467 155.222 39.2933 154.326 38.056C153.216 39.0373 151.552 39.8267 149.333 40.424C147.158 41.0213 145.28 41.32 143.702 41.32C141.099 41.32 138.987 40.616 137.366 39.208C135.787 37.7573 134.998 35.6453 134.998 32.872C134.998 31.6773 135.318 30.5893 135.958 29.608C136.64 28.584 137.515 27.688 138.582 26.92C139.776 26.1093 141.184 25.4693 142.806 25C144.47 24.5307 145.984 24.296 147.35 24.296C149.654 24.296 151.702 24.5093 153.494 24.936V24.872C153.494 22.568 152.918 20.9893 151.766 20.136C150.656 19.24 148.864 18.792 146.39 18.792C144.811 18.792 143.446 19.496 142.294 20.904C141.867 21.4587 140.971 21.736 139.606 21.736C138.923 21.736 138.411 21.4587 138.07 20.904C137.771 20.3067 137.622 19.7093 137.622 19.112C137.622 17.8747 138.134 16.808 139.158 15.912C140.224 15.016 141.504 14.3547 142.998 13.928C144.491 13.4587 145.878 13.224 147.158 13.224C148.395 13.224 149.867 13.48 151.574 13.992C153.28 14.504 154.667 15.1867 155.734 16.04C157.014 17.1493 157.995 18.4507 158.678 19.944C159.403 21.3947 159.766 22.9947 159.766 24.744C159.766 25.2987 159.723 26.1307 159.638 27.24C159.552 28.52 159.51 29.5653 159.51 30.376C159.51 30.76 159.467 31.2507 159.382 31.848C159.296 32.616 159.254 33.256 159.254 33.768C159.254 34.3227 159.424 34.856 159.766 35.368C160.107 35.88 160.576 36.3067 161.174 36.648C161.728 36.9467 162.091 37.2667 162.262 37.608C162.432 37.9493 162.518 38.3333 162.518 38.76C162.518 39.1867 162.24 39.72 161.686 40.36C161.174 40.9573 160.662 41.256 160.15 41.256ZM147.35 29.032C145.686 29.032 144.214 29.352 142.934 29.992C141.654 30.632 141.014 31.7627 141.014 33.384C141.014 34.1947 141.291 34.8773 141.845 35.432C142.443 35.9867 143.083 36.264 143.766 36.264C145.6 36.264 147.136 36.072 148.374 35.688C149.611 35.304 151.104 34.6 152.854 33.576C153.067 32.8933 153.195 31.9333 153.238 30.696C153.238 30.2267 153.259 29.864 153.302 29.608C150.998 29.224 149.014 29.032 147.35 29.032ZM187.234 21.608C186.594 21.608 186.039 21.4587 185.57 21.16C185.143 20.8187 184.695 20.3707 184.226 19.816C183.756 19.2613 183.244 18.8987 182.69 18.728C182.178 18.5573 181.58 18.472 180.898 18.472C179.66 18.472 178.444 18.856 177.25 19.624C176.098 20.3493 175.138 21.3733 174.37 22.696C173.644 24.0187 173.282 25.4907 173.282 27.112C173.282 28.904 173.623 30.3973 174.306 31.592C175.031 32.7867 176.162 33.832 177.698 34.728C178.252 35.0267 178.892 35.2613 179.618 35.432C180.386 35.6027 181.047 35.688 181.602 35.688C182.924 35.688 184.631 35.112 186.722 33.96C186.892 33.8747 187.212 33.7253 187.682 33.512C188.194 33.256 188.578 33.128 188.834 33.128C189.303 33.128 189.836 33.3627 190.434 33.832C191.031 34.2587 191.33 34.792 191.33 35.432C191.33 36.712 190.775 37.8 189.666 38.696C188.599 39.592 187.255 40.2533 185.634 40.68C184.012 41.1067 182.412 41.32 180.833 41.32C178.316 41.32 175.97 40.744 173.794 39.592C171.618 38.44 169.89 36.84 168.61 34.792C167.33 32.744 166.69 30.44 166.69 27.88C166.69 25.1067 167.308 22.6107 168.546 20.392C169.783 18.1307 171.447 16.36 173.538 15.08C175.671 13.7573 177.975 13.096 180.45 13.096C182.839 13.096 185.036 13.5653 187.042 14.504C189.09 15.4427 190.114 16.872 190.114 18.792C190.114 20.6693 189.154 21.608 187.234 21.608ZM195.943 26.536C195.943 25 196.22 23.5707 196.775 22.248C197.329 20.8827 198.14 19.4747 199.207 18.024C200.273 16.5733 201.745 15.4427 203.623 14.632C205.5 13.7787 207.548 13.352 209.767 13.352C211.473 13.352 213.116 13.7147 214.695 14.44C216.316 15.1227 217.767 15.976 219.047 17C219.217 17.2987 219.516 17.8533 219.943 18.664C220.369 19.432 220.668 20.136 220.839 20.776C221.052 21.416 221.159 22.0773 221.159 22.76C221.159 25.6187 220.113 27.5387 218.023 28.52C215.932 29.4587 213.287 29.928 210.087 29.928C206.887 29.928 204.284 29.7147 202.279 29.288C202.364 30.0987 202.577 30.9093 202.919 31.72C203.26 32.5307 203.665 33.1493 204.135 33.576C204.988 34.3867 205.82 34.92 206.631 35.176C207.484 35.3893 208.615 35.496 210.023 35.496C212.156 35.496 213.82 35.0907 215.015 34.28C216.124 33.5547 216.977 33.192 217.575 33.192C218.385 33.192 219.004 33.448 219.431 33.96C219.857 34.4293 220.071 35.048 220.071 35.816C220.071 37.4373 219.025 38.76 216.935 39.784C214.887 40.808 212.561 41.32 209.958 41.32C207.911 41.32 205.884 40.9573 203.879 40.232C201.873 39.5067 200.273 38.4827 199.079 37.16C198.268 35.7947 197.543 34.1307 196.903 32.168C196.263 30.2053 195.943 28.328 195.943 26.536ZM210.023 18.6C209.084 18.6 208.103 18.7707 207.079 19.112C206.097 19.4107 205.329 19.88 204.775 20.52C204.092 21.2453 203.58 21.9067 203.239 22.504C202.94 23.1013 202.748 23.848 202.663 24.744C203.132 24.744 203.58 24.7653 204.007 24.808C204.433 24.8507 204.839 24.8933 205.223 24.936C207.1 25.1067 208.508 25.192 209.447 25.192C211.324 25.192 212.753 24.9147 213.735 24.36C214.759 23.8053 215.271 23.0587 215.271 22.12C215.271 21.224 214.695 20.4133 213.543 19.688C212.433 18.9627 211.26 18.6 210.023 18.6Z" fill="#E04963"/>
</svg>
