<svg width="800" height="528" viewBox="0 0 800 528" fill="none" xmlns="http://www.w3.org/2000/svg">
<g clip-path="url(#clip0_571_20998)">
<circle cx="165.996" cy="186.801" r="104.754" fill="#C4C4C4"/>
<rect x="59.9531" y="372.141" width="211.442" height="41.9017" rx="5.15713" fill="#24C2AF"/>
<path d="M126.461 392.133C126.166 391.919 125.911 391.765 125.698 391.668C125.485 391.565 125.237 391.514 124.955 391.514C124.392 391.514 123.907 391.658 123.501 391.947C123.192 392.174 122.961 392.47 122.81 392.834C122.659 393.198 122.583 393.608 122.583 394.061C122.583 394.495 122.683 394.876 122.882 395.206C123.082 395.529 123.339 395.777 123.656 395.949C123.972 396.121 124.302 396.207 124.646 396.207C124.99 396.207 125.285 396.155 125.533 396.052C125.787 395.942 125.99 395.801 126.142 395.629C126.375 395.333 126.492 394.942 126.492 394.453C126.492 394.385 126.437 394.336 126.327 394.309C126.217 394.281 126.059 394.268 125.853 394.268L125.11 394.278C124.911 394.278 124.753 394.24 124.636 394.164C124.519 394.089 124.46 393.993 124.46 393.876C124.46 393.711 124.515 393.59 124.625 393.515C124.735 393.432 124.883 393.391 125.069 393.391C125.289 393.391 125.585 393.405 125.956 393.432C126.327 393.46 126.595 393.473 126.76 393.473C127.001 393.473 127.194 393.549 127.338 393.7C127.489 393.852 127.565 394.072 127.565 394.36C127.565 394.629 127.506 394.942 127.39 395.299C127.273 395.657 127.108 395.976 126.894 396.258C126.688 396.533 126.382 396.743 125.976 396.887C125.578 397.025 125.134 397.094 124.646 397.094C124.24 397.094 123.848 397.028 123.47 396.898C123.092 396.767 122.776 396.585 122.521 396.351C122.205 396.055 121.954 395.705 121.768 395.299C121.589 394.886 121.5 394.477 121.5 394.072C121.5 393.48 121.638 392.906 121.913 392.349C122.195 391.785 122.573 391.349 123.047 391.039C123.254 390.902 123.542 390.788 123.914 390.699C124.285 390.61 124.625 390.565 124.935 390.565C125.416 390.565 125.839 390.64 126.203 390.792C126.568 390.936 126.846 391.146 127.039 391.421C127.121 391.545 127.163 391.655 127.163 391.751C127.163 391.861 127.114 391.964 127.018 392.06C126.922 392.157 126.826 392.205 126.729 392.205C126.688 392.205 126.64 392.198 126.585 392.184C126.53 392.17 126.489 392.153 126.461 392.133ZM128.57 394.907C128.57 394.646 128.618 394.385 128.714 394.123C128.81 393.855 128.938 393.611 129.096 393.391C129.254 393.171 129.505 392.992 129.849 392.855C130.193 392.71 130.499 392.638 130.767 392.638C131.042 392.638 131.32 392.676 131.602 392.751C131.891 392.827 132.09 392.944 132.2 393.102C132.455 393.46 132.582 393.81 132.582 394.154C132.582 394.34 132.541 394.498 132.458 394.629C132.383 394.759 132.273 394.9 132.128 395.052C132.011 395.175 131.826 395.258 131.571 395.299C131.324 395.34 131.076 395.361 130.829 395.361C130.67 395.361 130.478 395.347 130.251 395.32C130.024 395.285 129.804 395.244 129.591 395.196C129.605 395.333 129.639 395.468 129.694 395.598C129.749 395.729 129.814 395.829 129.89 395.897C130.028 396.028 130.169 396.11 130.313 396.145C130.464 396.179 130.657 396.196 130.89 396.196C131.138 396.196 131.368 396.155 131.582 396.073C131.753 396.011 131.894 395.98 132.004 395.98C132.135 395.98 132.235 396.021 132.304 396.104C132.372 396.179 132.407 396.279 132.407 396.403C132.407 396.575 132.307 396.716 132.108 396.826C131.908 396.936 131.678 397.018 131.417 397.073C131.162 397.121 130.956 397.145 130.798 397.145C130.474 397.145 130.162 397.087 129.859 396.97C129.557 396.853 129.306 396.688 129.106 396.475C128.941 396.282 128.81 396.052 128.714 395.784C128.618 395.509 128.57 395.217 128.57 394.907ZM130.818 393.515C130.667 393.515 130.516 393.546 130.364 393.608C130.213 393.663 130.089 393.742 129.993 393.845C129.869 393.975 129.783 394.082 129.735 394.164C129.694 394.24 129.667 394.347 129.653 394.484C129.825 394.539 130.182 394.567 130.725 394.567C131.021 394.567 131.248 394.522 131.406 394.433C131.571 394.343 131.654 394.226 131.654 394.082C131.654 393.938 131.564 393.807 131.386 393.69C131.207 393.573 131.018 393.515 130.818 393.515ZM133.568 393.525C133.471 393.511 133.392 393.47 133.33 393.401C133.275 393.332 133.248 393.25 133.248 393.154C133.248 393.106 133.258 393.054 133.279 392.999C133.306 392.944 133.344 392.896 133.392 392.855C133.482 392.765 133.722 392.721 134.114 392.721C134.169 392.452 134.197 392.181 134.197 391.906C134.197 391.803 134.193 391.713 134.187 391.638C134.18 391.562 134.176 391.503 134.176 391.462C134.176 391.311 134.231 391.197 134.341 391.122C134.458 391.046 134.589 391.008 134.733 391.008C134.912 391.008 135.032 391.053 135.094 391.142C135.163 391.232 135.197 391.397 135.197 391.638C135.197 391.995 135.166 392.346 135.105 392.69C135.215 392.69 135.366 392.683 135.558 392.669C135.82 392.655 136.009 392.648 136.126 392.648C136.243 392.648 136.342 392.679 136.425 392.741C136.514 392.796 136.559 392.875 136.559 392.978C136.559 393.247 136.438 393.405 136.198 393.453C135.943 393.515 135.548 393.553 135.012 393.566C134.991 393.834 134.981 394.127 134.981 394.443C134.981 394.938 135.012 395.344 135.074 395.66C135.115 395.88 135.184 396.042 135.28 396.145C135.383 396.241 135.534 396.289 135.734 396.289C135.851 396.289 135.971 396.258 136.095 396.196C136.177 396.148 136.253 396.124 136.322 396.124C136.418 396.124 136.487 396.155 136.528 396.217C136.576 396.279 136.6 396.361 136.6 396.465C136.6 396.657 136.497 396.819 136.291 396.949C136.084 397.073 135.82 397.135 135.496 397.135C135.297 397.135 135.094 397.087 134.888 396.991C134.689 396.894 134.52 396.774 134.383 396.63C134.362 396.609 134.324 396.53 134.269 396.392C134.214 396.255 134.166 396.107 134.125 395.949C134.056 395.626 134.022 395.172 134.022 394.587C134.022 394.333 134.035 393.993 134.063 393.566L133.568 393.525ZM145.167 396.124C145.27 396.124 145.353 396.169 145.415 396.258C145.483 396.348 145.518 396.444 145.518 396.547C145.518 396.726 145.449 396.863 145.311 396.96C145.181 397.049 145.009 397.094 144.796 397.094C144.479 397.094 144.225 397.039 144.032 396.929C143.84 396.819 143.668 396.612 143.517 396.31C143.469 396.2 143.41 396.021 143.341 395.774C143.279 395.526 143.214 395.33 143.145 395.186C143.083 395.034 142.977 394.907 142.826 394.804C142.681 394.701 142.482 394.646 142.227 394.639L142 394.649C141.767 394.663 141.591 394.67 141.474 394.67C141.337 394.67 141.206 394.66 141.083 394.639C141.096 395.547 141.103 396.241 141.103 396.722C141.103 396.846 141.041 396.949 140.917 397.032C140.801 397.114 140.667 397.156 140.515 397.156C140.336 397.156 140.195 397.087 140.092 396.949C140.01 396.784 139.969 396.54 139.969 396.217C139.969 396.107 139.975 395.949 139.989 395.743L140 395.289C140 394.869 140.017 394.419 140.051 393.938C140.079 393.387 140.092 392.985 140.092 392.731C140.092 392.518 140.072 392.232 140.03 391.875C140.024 391.806 140.013 391.696 140 391.545C139.986 391.387 139.979 391.246 139.979 391.122C139.979 391.032 140.017 390.95 140.092 390.874C140.168 390.799 140.244 390.75 140.319 390.73C140.883 390.64 141.44 390.596 141.99 390.596C142.884 390.596 143.616 390.764 144.187 391.101C144.758 391.438 145.043 391.954 145.043 392.648C145.043 392.855 144.988 393.071 144.878 393.298C144.775 393.518 144.644 393.69 144.486 393.814C144.218 394.048 143.929 394.199 143.62 394.268C143.634 394.281 143.709 394.35 143.847 394.474C143.984 394.598 144.077 394.728 144.125 394.866L144.259 395.278C144.376 395.615 144.469 395.849 144.538 395.98C144.607 396.104 144.696 396.165 144.806 396.165C144.909 396.165 144.971 396.159 144.992 396.145C145.019 396.131 145.078 396.124 145.167 396.124ZM141.072 393.762C141.278 393.776 141.423 393.783 141.505 393.783C141.629 393.783 141.801 393.776 142.021 393.762L142.506 393.752C142.719 393.752 142.939 393.704 143.166 393.608C143.393 393.511 143.582 393.377 143.733 393.205C143.885 393.026 143.96 392.827 143.96 392.607C143.96 392.215 143.802 391.93 143.486 391.751C143.169 391.572 142.678 391.483 142.011 391.483C141.756 391.483 141.457 391.517 141.113 391.586C141.127 391.833 141.134 392.012 141.134 392.122C141.134 392.253 141.127 392.449 141.113 392.71L141.103 393.009C141.083 393.298 141.072 393.549 141.072 393.762ZM150.078 397.135C149.844 397.135 149.665 397.101 149.541 397.032C149.418 396.956 149.284 396.819 149.139 396.619C148.96 396.777 148.692 396.905 148.335 397.001C147.984 397.097 147.681 397.145 147.427 397.145C147.008 397.145 146.667 397.032 146.406 396.805C146.151 396.571 146.024 396.231 146.024 395.784C146.024 395.591 146.076 395.416 146.179 395.258C146.289 395.093 146.43 394.948 146.602 394.825C146.794 394.694 147.021 394.591 147.283 394.515C147.551 394.44 147.795 394.402 148.015 394.402C148.386 394.402 148.716 394.436 149.005 394.505V394.495C149.005 394.123 148.912 393.869 148.727 393.731C148.548 393.587 148.259 393.515 147.86 393.515C147.606 393.515 147.386 393.628 147.2 393.855C147.131 393.944 146.987 393.989 146.767 393.989C146.657 393.989 146.574 393.944 146.519 393.855C146.471 393.759 146.447 393.663 146.447 393.566C146.447 393.367 146.53 393.195 146.695 393.051C146.867 392.906 147.073 392.8 147.314 392.731C147.554 392.655 147.778 392.617 147.984 392.617C148.183 392.617 148.421 392.659 148.696 392.741C148.971 392.824 149.194 392.934 149.366 393.071C149.572 393.25 149.731 393.46 149.841 393.7C149.957 393.934 150.016 394.192 150.016 394.474C150.016 394.563 150.009 394.697 149.995 394.876C149.981 395.082 149.975 395.251 149.975 395.382C149.975 395.443 149.968 395.523 149.954 395.619C149.94 395.743 149.933 395.846 149.933 395.928C149.933 396.018 149.961 396.104 150.016 396.186C150.071 396.269 150.147 396.337 150.243 396.392C150.332 396.441 150.391 396.492 150.418 396.547C150.446 396.602 150.459 396.664 150.459 396.733C150.459 396.802 150.415 396.887 150.325 396.991C150.243 397.087 150.16 397.135 150.078 397.135ZM148.015 395.165C147.747 395.165 147.51 395.217 147.303 395.32C147.097 395.423 146.994 395.605 146.994 395.866C146.994 395.997 147.038 396.107 147.128 396.196C147.224 396.286 147.327 396.33 147.437 396.33C147.733 396.33 147.981 396.3 148.18 396.238C148.379 396.176 148.62 396.062 148.902 395.897C148.936 395.787 148.957 395.633 148.964 395.433C148.964 395.358 148.967 395.299 148.974 395.258C148.603 395.196 148.283 395.165 148.015 395.165ZM151.152 393.463C151.097 393.422 151.053 393.381 151.018 393.339C150.984 393.291 150.967 393.209 150.967 393.092C150.967 392.961 151.011 392.861 151.101 392.793C151.197 392.717 151.307 392.679 151.431 392.679C151.672 392.679 151.878 392.741 152.05 392.865C152.229 392.989 152.359 393.161 152.442 393.381C152.593 393.099 152.785 392.906 153.019 392.803C153.253 392.693 153.576 392.638 153.989 392.638C154.154 392.638 154.322 392.69 154.494 392.793C154.673 392.889 154.835 393.009 154.979 393.154C155.096 393.305 155.196 393.494 155.278 393.721C155.361 393.941 155.402 394.14 155.402 394.319C155.402 394.422 155.395 394.591 155.381 394.825C155.367 395.072 155.361 395.268 155.361 395.413C155.361 395.894 155.453 396.19 155.639 396.3C155.667 396.313 155.718 396.33 155.794 396.351C155.869 396.372 155.924 396.392 155.959 396.413C156 396.434 156.021 396.465 156.021 396.506C156.028 396.671 155.966 396.808 155.835 396.918C155.711 397.022 155.56 397.073 155.381 397.073C155.113 397.073 154.903 397.001 154.752 396.857C154.601 396.712 154.494 396.492 154.432 396.196C154.398 396.086 154.381 395.925 154.381 395.712C154.381 395.595 154.388 395.406 154.401 395.144C154.422 394.938 154.432 394.718 154.432 394.484C154.432 394.244 154.364 394.034 154.226 393.855C154.089 393.669 153.899 393.577 153.659 393.577C153.514 393.577 153.363 393.621 153.205 393.711C153.047 393.793 152.937 393.896 152.875 394.02C152.772 394.233 152.703 394.45 152.669 394.67C152.586 395.096 152.545 395.505 152.545 395.897C152.545 395.994 152.552 396.179 152.565 396.454C152.565 396.475 152.565 396.526 152.565 396.609C152.565 396.685 152.555 396.757 152.534 396.826C152.521 396.894 152.493 396.956 152.452 397.011C152.424 397.039 152.373 397.066 152.297 397.094C152.222 397.121 152.156 397.135 152.101 397.135C152.005 397.135 151.885 397.094 151.74 397.011C151.596 396.929 151.51 396.836 151.482 396.733L151.472 396.588C151.472 396.533 151.479 396.451 151.493 396.341C151.575 395.859 151.617 395.44 151.617 395.082C151.617 394.924 151.613 394.804 151.606 394.721L151.596 394.247C151.596 394.103 151.555 393.965 151.472 393.834C151.39 393.697 151.283 393.573 151.152 393.463ZM160.85 390.637C160.85 390.706 160.84 390.792 160.819 390.895C160.812 390.936 160.805 390.981 160.798 391.029C160.791 391.077 160.785 391.136 160.778 391.204C160.716 391.823 160.685 392.59 160.685 393.504C160.685 394.371 160.723 395.014 160.798 395.433C160.874 395.853 160.991 396.104 161.149 396.186L161.345 396.269C161.448 396.303 161.524 396.341 161.572 396.382C161.627 396.423 161.654 396.492 161.654 396.588C161.654 396.726 161.582 396.846 161.438 396.949C161.293 397.046 161.135 397.094 160.963 397.094C160.785 397.094 160.609 397.022 160.437 396.877C160.265 396.726 160.124 396.537 160.014 396.31C159.898 396.557 159.691 396.757 159.396 396.908C159.1 397.052 158.818 397.125 158.55 397.125C158.309 397.125 158.099 397.094 157.921 397.032C157.742 396.963 157.556 396.86 157.364 396.722C157.13 396.557 156.951 396.348 156.827 396.093C156.71 395.839 156.652 395.56 156.652 395.258C156.652 394.955 156.71 394.636 156.827 394.299C156.944 393.955 157.078 393.673 157.23 393.453C157.408 393.198 157.646 393.009 157.941 392.886C158.237 392.755 158.543 392.69 158.859 392.69C159.038 392.69 159.193 392.724 159.323 392.793C159.454 392.855 159.588 392.944 159.726 393.061C159.726 392.717 159.719 392.428 159.705 392.194C159.698 392.133 159.695 392.06 159.695 391.978C159.695 391.387 159.743 390.919 159.839 390.575C159.915 390.286 160.097 390.142 160.386 390.142C160.544 390.142 160.661 390.176 160.736 390.245C160.812 390.314 160.85 390.444 160.85 390.637ZM157.652 395.237C157.652 395.588 157.766 395.856 157.993 396.042C158.096 396.138 158.182 396.203 158.251 396.238C158.319 396.272 158.405 396.289 158.509 396.289C158.708 396.289 158.897 396.234 159.076 396.124C159.261 396.007 159.406 395.856 159.509 395.67C159.619 395.485 159.674 395.285 159.674 395.072L159.664 394.051C159.519 393.886 159.385 393.773 159.261 393.711C159.145 393.642 159.021 393.608 158.89 393.608C158.45 393.608 158.148 393.776 157.983 394.113C157.893 394.271 157.814 394.45 157.745 394.649C157.683 394.849 157.652 395.045 157.652 395.237ZM166.409 393.783C166.464 393.879 166.508 394.02 166.543 394.206C166.577 394.385 166.594 394.546 166.594 394.691C166.594 394.883 166.563 395.124 166.502 395.413C166.44 395.694 166.388 395.884 166.347 395.98C165.976 396.75 165.26 397.135 164.201 397.135C163.865 397.135 163.534 397.025 163.211 396.805C162.888 396.578 162.658 396.313 162.52 396.011L162.448 395.804C162.441 395.777 162.403 395.674 162.335 395.495C162.273 395.309 162.242 395.168 162.242 395.072C162.242 394.79 162.311 394.464 162.448 394.092C162.586 393.721 162.744 393.425 162.922 393.205C163.039 393.047 163.263 392.913 163.593 392.803C163.923 392.686 164.215 392.628 164.47 392.628C164.944 392.628 165.326 392.717 165.615 392.896C165.91 393.075 166.175 393.37 166.409 393.783ZM165.46 395.443C165.487 395.395 165.511 395.309 165.532 395.186C165.553 395.062 165.563 394.917 165.563 394.752C165.563 394.553 165.525 394.357 165.449 394.164C165.381 393.972 165.278 393.807 165.14 393.669C165.133 393.656 165.109 393.635 165.068 393.608C165.027 393.573 164.961 393.542 164.872 393.515C164.782 393.48 164.669 393.463 164.532 393.463C164.263 393.463 164.036 393.542 163.851 393.7C163.665 393.859 163.524 394.054 163.428 394.288C163.338 394.522 163.294 394.752 163.294 394.979C163.294 395.041 163.314 395.168 163.356 395.361C163.397 395.553 163.428 395.677 163.449 395.732C163.504 395.829 163.61 395.942 163.768 396.073C163.926 396.196 164.105 396.258 164.305 396.258C164.614 396.258 164.855 396.186 165.027 396.042C165.205 395.897 165.35 395.698 165.46 395.443ZM174.091 396.733C173.988 396.54 173.922 396.327 173.895 396.093C173.867 395.853 173.854 395.523 173.854 395.103C173.854 394.704 173.799 394.357 173.689 394.061C173.579 393.766 173.352 393.618 173.008 393.618C172.877 393.618 172.747 393.659 172.616 393.742C172.492 393.817 172.399 393.914 172.337 394.03C172.241 394.216 172.176 394.419 172.142 394.639C172.107 394.852 172.09 395.1 172.09 395.382C172.09 395.56 172.1 395.743 172.121 395.928C172.121 395.983 172.124 396.073 172.131 396.196C172.145 396.313 172.152 396.42 172.152 396.516C172.152 396.929 172.007 397.135 171.719 397.135C171.34 397.135 171.141 396.936 171.12 396.537C171.12 396.255 171.124 396.104 171.131 396.083V395.639C171.131 395.392 171.12 395.151 171.1 394.917C171.079 394.684 171.055 394.508 171.028 394.391C170.966 394.164 170.883 393.989 170.78 393.865C170.684 393.742 170.529 393.68 170.316 393.68C170.013 393.68 169.769 393.81 169.584 394.072C169.453 394.278 169.367 394.529 169.326 394.825C169.284 395.203 169.254 395.502 169.233 395.722C169.219 395.935 169.212 396.183 169.212 396.465C169.212 396.664 169.178 396.826 169.109 396.949C169.047 397.073 168.927 397.135 168.748 397.135C168.617 397.135 168.48 397.101 168.336 397.032C168.198 396.956 168.129 396.857 168.129 396.733C168.129 396.602 168.143 396.471 168.171 396.341C168.232 395.949 168.263 395.247 168.263 394.237C168.263 394.072 168.222 393.914 168.14 393.762C168.064 393.604 167.971 393.525 167.861 393.525C167.834 393.525 167.782 393.539 167.706 393.566C167.638 393.594 167.586 393.608 167.552 393.608C167.462 393.608 167.38 393.566 167.304 393.484C167.235 393.401 167.201 393.332 167.201 393.277C167.201 393.106 167.283 392.961 167.449 392.844C167.62 392.721 167.799 392.659 167.985 392.659C168.239 392.659 168.456 392.738 168.635 392.896C168.813 393.054 168.951 393.274 169.047 393.556C169.205 393.281 169.419 393.061 169.687 392.896C169.955 392.724 170.254 392.638 170.584 392.638C170.79 392.638 170.955 392.665 171.079 392.721C171.21 392.769 171.316 392.841 171.399 392.937C171.481 393.026 171.588 393.164 171.719 393.35C171.891 393.13 172.111 392.958 172.379 392.834C172.654 392.71 172.936 392.648 173.225 392.648C173.568 392.648 173.878 392.789 174.153 393.071C174.428 393.346 174.613 393.666 174.71 394.03C174.758 394.216 174.782 394.574 174.782 395.103L174.823 395.701C174.858 396.059 174.974 396.275 175.174 396.351C175.408 396.42 175.525 396.492 175.525 396.568C175.525 396.733 175.483 396.853 175.401 396.929C175.339 396.97 175.253 397.015 175.143 397.063C175.033 397.111 174.947 397.135 174.885 397.135C174.514 397.135 174.249 397.001 174.091 396.733ZM180.696 391.019C180.49 391.019 180.363 391.191 180.315 391.534C180.267 392.002 180.243 392.356 180.243 392.597C180.38 392.61 180.525 392.617 180.676 392.617C180.772 392.617 180.896 392.61 181.047 392.597L181.315 392.586C181.453 392.586 181.556 392.61 181.625 392.659C181.694 392.707 181.728 392.786 181.728 392.896C181.728 393.047 181.676 393.178 181.573 393.288C181.477 393.391 181.363 393.443 181.233 393.443C180.738 393.443 180.404 393.467 180.232 393.515C180.232 393.934 180.253 394.529 180.294 395.299L180.315 395.804L180.356 396.609C180.37 396.808 180.349 396.949 180.294 397.032C180.246 397.108 180.139 397.145 179.974 397.145C179.672 397.145 179.476 396.963 179.387 396.599C179.332 396.33 179.287 395.956 179.252 395.474C179.218 394.993 179.201 394.563 179.201 394.185C179.201 393.986 179.211 393.759 179.232 393.504C179.218 393.498 179.18 393.494 179.118 393.494C179.056 393.494 179.012 393.498 178.984 393.504C178.778 393.518 178.627 393.525 178.53 393.525C178.469 393.525 178.407 393.484 178.345 393.401C178.283 393.312 178.252 393.205 178.252 393.082C178.252 393.013 178.276 392.951 178.324 392.896C178.372 392.834 178.431 392.789 178.5 392.762C178.603 392.707 178.751 392.679 178.943 392.679L179.252 392.69C179.252 391.713 179.362 391.036 179.583 390.658C179.789 390.3 180.129 390.121 180.604 390.121C180.879 390.121 181.13 390.19 181.357 390.328C181.453 390.389 181.525 390.465 181.573 390.555C181.628 390.644 181.656 390.73 181.656 390.812C181.656 390.916 181.614 391.022 181.532 391.132C181.456 391.242 181.339 391.297 181.181 391.297C181.119 391.297 181.04 391.249 180.944 391.153C180.91 391.118 180.872 391.087 180.831 391.06C180.789 391.032 180.745 391.019 180.696 391.019ZM187.153 396.599C187.153 396.75 187.07 396.877 186.905 396.98C186.747 397.083 186.599 397.135 186.462 397.135C186.2 397.135 185.991 397.104 185.832 397.042C185.681 396.973 185.54 396.85 185.41 396.671C185.231 396.829 184.987 396.949 184.677 397.032C184.368 397.108 184.082 397.145 183.821 397.145C183.395 397.145 183.044 397.032 182.769 396.805C182.494 396.571 182.357 396.231 182.357 395.784C182.357 395.591 182.408 395.416 182.511 395.258C182.614 395.093 182.755 394.948 182.934 394.825C183.134 394.694 183.36 394.594 183.615 394.525C183.869 394.45 184.134 394.412 184.409 394.412C184.554 394.412 184.725 394.44 184.925 394.495C185.124 394.55 185.279 394.608 185.389 394.67V394.505C185.389 394.134 185.3 393.879 185.121 393.742C184.942 393.597 184.653 393.525 184.254 393.525C184.138 393.525 184.021 393.549 183.904 393.597C183.794 393.645 183.666 393.711 183.522 393.793C183.33 393.896 183.147 393.948 182.975 393.948C182.914 393.948 182.855 393.907 182.8 393.824C182.745 393.735 182.718 393.656 182.718 393.587C182.718 393.387 182.81 393.216 182.996 393.071C183.189 392.927 183.416 392.82 183.677 392.751C183.938 392.676 184.172 392.638 184.378 392.638C184.584 392.638 184.822 392.679 185.09 392.762C185.358 392.837 185.578 392.944 185.75 393.082C185.956 393.26 186.114 393.47 186.224 393.711C186.341 393.944 186.4 394.202 186.4 394.484C186.4 394.574 186.393 394.708 186.379 394.886C186.365 395.079 186.359 395.244 186.359 395.382C186.359 395.443 186.352 395.536 186.338 395.66C186.324 395.811 186.317 395.932 186.317 396.021C186.317 396.104 186.348 396.176 186.41 396.238C186.472 396.293 186.544 396.32 186.627 396.32L186.915 396.31C186.991 396.31 187.05 396.337 187.091 396.392C187.132 396.447 187.153 396.516 187.153 396.599ZM183.832 396.33C184.127 396.33 184.375 396.3 184.574 396.238C184.774 396.176 185.014 396.062 185.296 395.897C185.324 395.78 185.341 395.626 185.348 395.433C184.97 395.254 184.657 395.165 184.409 395.165C184.127 395.165 183.876 395.217 183.656 395.32C183.436 395.423 183.326 395.605 183.326 395.866C183.326 395.997 183.381 396.107 183.491 396.196C183.601 396.286 183.715 396.33 183.832 396.33ZM191.541 393.649C191.541 393.793 191.51 393.903 191.448 393.979C191.393 394.054 191.301 394.092 191.17 394.092C191.074 394.092 190.991 394.068 190.922 394.02C190.861 393.972 190.778 393.889 190.675 393.773C190.592 393.683 190.496 393.611 190.386 393.556C190.283 393.501 190.19 393.473 190.108 393.473C189.688 393.473 189.386 393.563 189.2 393.742C189.083 393.865 188.987 394.03 188.911 394.237C188.835 394.436 188.798 394.642 188.798 394.856C188.798 395.165 188.842 395.413 188.932 395.598C189.021 395.784 189.179 395.942 189.406 396.073C189.489 396.121 189.606 396.162 189.757 396.196C189.908 396.224 190.032 396.238 190.128 396.238C190.259 396.238 190.396 396.203 190.541 396.135C190.685 396.059 190.809 395.963 190.912 395.846C191.043 395.694 191.201 395.619 191.387 395.619C191.462 395.619 191.548 395.657 191.644 395.732C191.748 395.808 191.799 395.897 191.799 396C191.799 396.207 191.699 396.399 191.5 396.578C191.307 396.75 191.07 396.887 190.788 396.991C190.506 397.087 190.245 397.135 190.004 397.135C189.599 397.135 189.221 397.042 188.87 396.857C188.526 396.671 188.251 396.416 188.045 396.093C187.838 395.763 187.735 395.392 187.735 394.979C187.735 394.622 187.801 394.275 187.931 393.938C188.069 393.601 188.251 393.326 188.478 393.112C188.664 392.941 188.894 392.813 189.169 392.731C189.444 392.648 189.733 392.607 190.035 392.607C190.249 392.607 190.469 392.648 190.695 392.731C190.922 392.813 191.105 392.923 191.242 393.061C191.442 393.26 191.541 393.456 191.541 393.649ZM192.57 394.732C192.57 394.312 192.663 393.965 192.849 393.69C193.034 393.408 193.292 393.143 193.622 392.896C193.718 392.827 193.88 392.769 194.107 392.721C194.334 392.665 194.533 392.638 194.705 392.638C194.911 392.638 195.128 392.683 195.355 392.772C195.589 392.855 195.778 392.951 195.922 393.061C196.177 393.247 196.352 393.463 196.448 393.711C196.545 393.951 196.593 394.24 196.593 394.577C196.593 394.721 196.51 394.862 196.345 395C196.187 395.131 196.015 395.196 195.829 395.196L195.437 395.186C195.238 395.186 194.953 395.192 194.581 395.206L194.365 395.217C194.214 395.23 194.1 395.237 194.024 395.237C193.914 395.237 193.763 395.223 193.571 395.196C193.598 395.519 193.718 395.774 193.932 395.959C194.145 396.138 194.375 396.227 194.623 396.227C195.056 396.227 195.358 396.141 195.53 395.969C195.675 395.866 195.771 395.801 195.819 395.774C195.867 395.746 195.943 395.732 196.046 395.732C196.156 395.732 196.252 395.784 196.335 395.887C196.417 395.99 196.459 396.093 196.459 396.196C196.459 396.313 196.386 396.434 196.242 396.557C196.104 396.674 195.915 396.798 195.675 396.929C195.544 396.984 195.365 397.032 195.138 397.073C194.911 397.114 194.722 397.135 194.571 397.135C194.33 397.135 194.062 397.066 193.767 396.929C193.471 396.784 193.251 396.626 193.106 396.454C192.962 396.282 192.835 396.038 192.725 395.722C192.622 395.406 192.57 395.076 192.57 394.732ZM194.623 394.453C195.111 394.453 195.468 394.436 195.695 394.402C195.682 394.202 195.62 394.041 195.51 393.917C195.4 393.786 195.248 393.676 195.056 393.587C194.994 393.559 194.939 393.539 194.891 393.525C194.843 393.511 194.788 393.504 194.726 393.504C194.409 393.504 194.141 393.59 193.921 393.762C193.708 393.934 193.581 394.154 193.54 394.422C193.883 394.443 194.244 394.453 194.623 394.453Z" fill="#2F4F4F"/>
<rect x="170.828" y="425.008" width="100.564" height="42.1467" rx="5.15713" fill="#EE7B1D"/>
<path d="M206.935 444.096C206.935 444.295 206.928 444.56 206.914 444.89L206.904 445.56C206.904 446.214 206.952 446.76 207.048 447.2C207.186 447.819 207.392 448.297 207.667 448.634C207.922 448.93 208.235 449.078 208.606 449.078C208.895 449.078 209.153 448.992 209.379 448.82C209.606 448.641 209.782 448.421 209.906 448.16C210.112 447.733 210.215 447.207 210.215 446.582C210.215 446.203 210.191 445.756 210.143 445.241C210.101 444.663 210.081 444.23 210.081 443.941C210.081 443.79 210.17 443.694 210.349 443.652C210.528 443.604 210.713 443.58 210.906 443.58C210.975 443.58 211.054 443.625 211.143 443.714C211.233 443.804 211.277 443.9 211.277 444.003C211.277 444.209 211.267 444.405 211.246 444.591C211.233 444.797 211.226 444.942 211.226 445.024C211.226 445.285 211.239 445.65 211.267 446.117C211.274 446.234 211.281 446.375 211.288 446.54C211.294 446.705 211.298 446.894 211.298 447.108C211.298 447.575 211.184 448.043 210.958 448.51C210.738 448.971 210.428 449.353 210.029 449.655C209.63 449.951 209.18 450.099 208.678 450.099C207.908 450.099 207.306 449.851 206.873 449.356C206.44 448.854 206.144 448.208 205.986 447.417C205.897 446.963 205.838 446.489 205.811 445.994C205.79 445.499 205.78 444.835 205.78 444.003C205.78 443.893 205.831 443.79 205.935 443.694C206.045 443.597 206.161 443.549 206.285 443.549C206.718 443.549 206.935 443.731 206.935 444.096ZM212.733 446.489C212.671 446.489 212.612 446.496 212.557 446.509C212.502 446.516 212.447 446.52 212.392 446.52C212.316 446.52 212.244 446.485 212.176 446.417C212.114 446.348 212.083 446.286 212.083 446.231C212.083 446.052 212.172 445.915 212.351 445.818C212.53 445.715 212.712 445.664 212.898 445.664C213.056 445.664 213.217 445.719 213.382 445.829C213.554 445.932 213.681 446.066 213.764 446.231C213.943 446.018 214.163 445.863 214.424 445.767C214.685 445.67 214.957 445.622 215.239 445.622C215.555 445.622 215.847 445.722 216.116 445.921C216.391 446.121 216.607 446.375 216.765 446.685C216.924 446.987 217.003 447.29 217.003 447.592C217.003 447.888 216.972 448.153 216.91 448.387C216.848 448.613 216.738 448.844 216.58 449.078C216.401 449.325 216.16 449.528 215.858 449.686C215.562 449.844 215.208 449.923 214.795 449.923C214.685 449.923 214.551 449.896 214.393 449.841C214.235 449.779 214.104 449.714 214.001 449.645C213.953 450.113 213.929 450.518 213.929 450.862C213.929 451.068 213.939 451.264 213.96 451.45C213.974 451.67 213.981 451.828 213.981 451.924C213.981 452.076 213.929 452.186 213.826 452.254C213.723 452.33 213.609 452.368 213.485 452.368C213.238 452.368 213.073 452.299 212.99 452.162C212.915 452.031 212.877 451.842 212.877 451.594C212.904 451.003 212.939 450.456 212.98 449.954C213.021 449.335 213.042 448.38 213.042 447.087C213.042 446.963 213.018 446.833 212.97 446.695C212.922 446.558 212.843 446.489 212.733 446.489ZM214.042 448.624C214.077 448.754 214.173 448.864 214.331 448.954C214.496 449.036 214.644 449.078 214.775 449.078C215.167 449.078 215.459 448.971 215.651 448.758C215.796 448.607 215.889 448.459 215.93 448.314C215.978 448.17 216.002 447.94 216.002 447.623C216.002 447.376 215.954 447.17 215.858 447.004C215.761 446.833 215.645 446.709 215.507 446.633C215.37 446.551 215.239 446.509 215.115 446.509C214.833 446.509 214.603 446.595 214.424 446.767C214.252 446.932 214.142 447.159 214.094 447.448C214.06 447.675 214.042 448.067 214.042 448.624ZM222.225 450.027C222.08 450.027 221.943 449.985 221.812 449.903C221.688 449.813 221.578 449.721 221.482 449.624C221.386 449.521 221.32 449.452 221.286 449.418C221.142 449.624 220.932 449.793 220.657 449.923C220.382 450.054 220.117 450.119 219.863 450.119C219.471 450.119 219.124 450.037 218.821 449.872C218.518 449.707 218.285 449.483 218.12 449.201C217.955 448.913 217.872 448.593 217.872 448.242C217.872 447.912 217.91 447.596 217.986 447.293C218.068 446.984 218.178 446.726 218.316 446.52C218.501 446.258 218.749 446.052 219.058 445.901C219.375 445.75 219.687 445.674 219.997 445.674C220.182 445.674 220.358 445.708 220.523 445.777C220.688 445.846 220.832 445.932 220.956 446.035C220.956 445.581 220.953 445.296 220.946 445.179V444.952C220.946 444.306 220.987 443.835 221.069 443.539C221.145 443.25 221.331 443.106 221.626 443.106C221.785 443.106 221.902 443.14 221.977 443.209C222.053 443.278 222.091 443.408 222.091 443.601C222.091 443.67 222.073 443.859 222.039 444.168C221.963 444.938 221.926 445.708 221.926 446.478C221.926 447.125 221.936 447.606 221.957 447.922C221.984 448.232 222.036 448.479 222.111 448.665C222.194 448.851 222.321 449.016 222.493 449.16C222.596 449.243 222.668 449.311 222.709 449.366C222.758 449.421 222.782 449.494 222.782 449.583C222.782 449.693 222.727 449.796 222.617 449.892C222.507 449.982 222.376 450.027 222.225 450.027ZM219.832 449.284C220.196 449.284 220.464 449.17 220.636 448.944C220.815 448.71 220.904 448.414 220.904 448.057L220.894 447.479C220.887 447.369 220.884 447.221 220.884 447.035C220.629 446.733 220.354 446.582 220.059 446.582C219.859 446.582 219.67 446.633 219.491 446.736C219.32 446.839 219.179 446.991 219.069 447.19C218.952 447.417 218.893 447.761 218.893 448.222C218.893 448.538 218.986 448.796 219.172 448.995C219.357 449.188 219.577 449.284 219.832 449.284ZM228.167 449.583C228.167 449.734 228.085 449.862 227.92 449.965C227.762 450.068 227.614 450.119 227.476 450.119C227.215 450.119 227.005 450.088 226.847 450.027C226.696 449.958 226.555 449.834 226.424 449.655C226.245 449.813 226.001 449.934 225.692 450.016C225.382 450.092 225.097 450.13 224.836 450.13C224.409 450.13 224.059 450.016 223.784 449.789C223.509 449.556 223.371 449.215 223.371 448.768C223.371 448.576 223.423 448.4 223.526 448.242C223.629 448.077 223.77 447.933 223.949 447.809C224.148 447.678 224.375 447.579 224.63 447.51C224.884 447.434 225.149 447.396 225.424 447.396C225.568 447.396 225.74 447.424 225.939 447.479C226.139 447.534 226.294 447.592 226.404 447.654V447.489C226.404 447.118 226.314 446.864 226.135 446.726C225.957 446.582 225.668 446.509 225.269 446.509C225.152 446.509 225.035 446.533 224.918 446.582C224.808 446.63 224.681 446.695 224.537 446.778C224.344 446.881 224.162 446.932 223.99 446.932C223.928 446.932 223.87 446.891 223.815 446.809C223.76 446.719 223.732 446.64 223.732 446.571C223.732 446.372 223.825 446.2 224.011 446.056C224.203 445.911 224.43 445.805 224.691 445.736C224.953 445.66 225.186 445.622 225.393 445.622C225.599 445.622 225.836 445.664 226.104 445.746C226.373 445.822 226.593 445.928 226.765 446.066C226.971 446.245 227.129 446.454 227.239 446.695C227.356 446.929 227.414 447.187 227.414 447.469C227.414 447.558 227.407 447.692 227.394 447.871C227.38 448.063 227.373 448.228 227.373 448.366C227.373 448.428 227.366 448.521 227.352 448.644C227.339 448.796 227.332 448.916 227.332 449.005C227.332 449.088 227.363 449.16 227.425 449.222C227.487 449.277 227.559 449.305 227.641 449.305L227.93 449.294C228.006 449.294 228.064 449.322 228.105 449.377C228.147 449.432 228.167 449.501 228.167 449.583ZM224.846 449.315C225.142 449.315 225.389 449.284 225.589 449.222C225.788 449.16 226.029 449.047 226.311 448.882C226.338 448.765 226.355 448.61 226.362 448.418C225.984 448.239 225.671 448.149 225.424 448.149C225.142 448.149 224.891 448.201 224.671 448.304C224.451 448.407 224.341 448.589 224.341 448.851C224.341 448.981 224.396 449.091 224.506 449.181C224.616 449.27 224.729 449.315 224.846 449.315ZM228.874 446.509C228.777 446.496 228.698 446.454 228.636 446.386C228.581 446.317 228.554 446.234 228.554 446.138C228.554 446.09 228.564 446.038 228.585 445.983C228.612 445.928 228.65 445.88 228.698 445.839C228.788 445.763 228.908 445.691 229.059 445.622C229.217 445.56 229.331 445.485 229.4 445.395C229.468 445.306 229.503 445.138 229.503 444.89C229.503 444.787 229.496 444.698 229.482 444.622C229.475 444.546 229.472 444.488 229.472 444.447C229.472 444.295 229.527 444.182 229.637 444.106C229.747 444.031 229.874 443.993 230.019 443.993C230.197 443.993 230.318 444.037 230.38 444.127C230.448 444.216 230.483 444.381 230.483 444.622C230.483 444.856 230.472 445.059 230.452 445.23C230.431 445.395 230.386 445.543 230.318 445.674C230.414 445.674 230.572 445.667 230.792 445.653C231.095 445.64 231.304 445.633 231.421 445.633C231.538 445.633 231.641 445.664 231.731 445.726C231.82 445.781 231.865 445.86 231.865 445.963C231.865 446.107 231.834 446.214 231.772 446.282C231.71 446.351 231.621 446.396 231.504 446.417C231.222 446.492 230.823 446.537 230.307 446.551C230.294 446.819 230.287 447.111 230.287 447.427C230.287 447.957 230.318 448.363 230.38 448.644C230.421 448.864 230.49 449.026 230.586 449.129C230.689 449.225 230.84 449.274 231.04 449.274C231.143 449.274 231.225 449.26 231.287 449.232C231.356 449.205 231.394 449.188 231.401 449.181C231.483 449.133 231.559 449.109 231.628 449.109C231.724 449.109 231.793 449.14 231.834 449.201C231.882 449.263 231.906 449.346 231.906 449.449C231.906 449.641 231.803 449.803 231.597 449.934C231.39 450.057 231.126 450.119 230.802 450.119C230.438 450.119 230.129 450.013 229.874 449.8C229.627 449.58 229.479 449.291 229.431 448.933C229.362 448.61 229.328 448.156 229.328 447.572C229.328 447.317 229.341 446.977 229.369 446.551L228.874 446.509ZM232.628 447.716C232.628 447.297 232.721 446.949 232.906 446.674C233.092 446.392 233.35 446.128 233.68 445.88C233.776 445.811 233.938 445.753 234.165 445.705C234.392 445.65 234.591 445.622 234.763 445.622C234.969 445.622 235.186 445.667 235.413 445.756C235.646 445.839 235.836 445.935 235.98 446.045C236.234 446.231 236.41 446.448 236.506 446.695C236.602 446.936 236.65 447.225 236.65 447.561C236.65 447.706 236.568 447.847 236.403 447.984C236.245 448.115 236.073 448.18 235.887 448.18L235.495 448.17C235.296 448.17 235.01 448.177 234.639 448.191L234.423 448.201C234.271 448.215 234.158 448.222 234.082 448.222C233.972 448.222 233.821 448.208 233.628 448.18C233.656 448.503 233.776 448.758 233.989 448.944C234.202 449.122 234.433 449.212 234.68 449.212C235.114 449.212 235.416 449.126 235.588 448.954C235.732 448.851 235.829 448.785 235.877 448.758C235.925 448.73 236.001 448.717 236.104 448.717C236.214 448.717 236.31 448.768 236.393 448.871C236.475 448.974 236.516 449.078 236.516 449.181C236.516 449.298 236.444 449.418 236.3 449.542C236.162 449.659 235.973 449.782 235.732 449.913C235.602 449.968 235.423 450.016 235.196 450.057C234.969 450.099 234.78 450.119 234.629 450.119C234.388 450.119 234.12 450.051 233.824 449.913C233.529 449.769 233.309 449.611 233.164 449.439C233.02 449.267 232.893 449.023 232.783 448.706C232.679 448.39 232.628 448.06 232.628 447.716ZM234.68 447.438C235.169 447.438 235.526 447.42 235.753 447.386C235.739 447.187 235.677 447.025 235.567 446.901C235.457 446.771 235.306 446.661 235.114 446.571C235.052 446.544 234.997 446.523 234.949 446.509C234.9 446.496 234.845 446.489 234.784 446.489C234.467 446.489 234.199 446.575 233.979 446.747C233.766 446.919 233.639 447.139 233.597 447.407C233.941 447.427 234.302 447.438 234.68 447.438Z" fill="#FFF8DC"/>
<rect x="59.9531" y="424.359" width="100.564" height="43.4359" rx="5.15713" fill="#F17388"/>
<path d="M94.747 444.385C94.7263 444.825 94.716 445.248 94.716 445.653C94.716 446.073 94.7435 446.688 94.7985 447.5C94.8054 447.623 94.8192 447.874 94.8398 448.253C94.8604 448.624 94.8707 448.964 94.8707 449.274C94.9395 449.267 95.0117 449.256 95.0873 449.243C95.1699 449.229 95.2317 449.222 95.273 449.222C95.4243 449.222 95.5446 449.26 95.634 449.335C95.7234 449.411 95.7681 449.528 95.7681 449.686C95.7681 449.789 95.7268 449.868 95.6443 449.923C95.5618 449.978 95.4174 450.02 95.2111 450.047C95.0117 450.068 94.7195 450.078 94.3344 450.078C93.9081 450.078 93.5883 450.064 93.3752 450.037C93.162 450.009 93.0142 449.958 92.9317 449.882C92.8491 449.8 92.8079 449.679 92.8079 449.521C92.8079 449.404 92.8457 449.325 92.9213 449.284C92.997 449.243 93.1036 449.222 93.2411 449.222L93.4577 449.232L93.7981 449.253L93.7465 448.036C93.7052 447.376 93.6846 446.771 93.6846 446.221C93.6846 445.925 93.6949 445.519 93.7155 445.004L93.7362 444.436C93.5024 444.45 93.3202 444.457 93.1895 444.457C93.0382 444.457 92.9351 444.429 92.8801 444.374C92.832 444.319 92.8079 444.206 92.8079 444.034C92.8079 443.841 92.9385 443.718 93.1998 443.663C93.468 443.608 93.8737 443.58 94.4169 443.58C94.8364 443.58 95.1492 443.594 95.3555 443.621C95.5687 443.649 95.6753 443.711 95.6753 443.807C95.6753 444.041 95.6237 444.196 95.5205 444.271C95.4243 444.34 95.2352 444.374 94.9533 444.374L94.747 444.385ZM101.441 449.284C101.476 449.298 101.531 449.315 101.606 449.335C101.682 449.356 101.737 449.377 101.771 449.397C101.806 449.418 101.823 449.449 101.823 449.49C101.83 449.655 101.768 449.793 101.637 449.903C101.514 450.006 101.366 450.057 101.194 450.057C100.926 450.057 100.716 449.985 100.565 449.841C100.413 449.696 100.303 449.476 100.235 449.181C100.207 449.064 100.193 448.902 100.193 448.696C100.193 448.579 100.2 448.39 100.214 448.129C100.228 447.854 100.235 447.634 100.235 447.469C100.235 447.228 100.166 447.018 100.028 446.839C99.8977 446.654 99.7121 446.561 99.4714 446.561C99.327 446.561 99.1757 446.606 99.0176 446.695C98.8594 446.778 98.7494 446.881 98.6875 447.004C98.5844 447.204 98.5122 447.42 98.4709 447.654C98.3953 448.067 98.3574 448.497 98.3574 448.944C98.3574 449.157 98.3609 449.322 98.3678 449.439C98.3678 449.466 98.3678 449.521 98.3678 449.604C98.3746 449.679 98.3678 449.752 98.3471 449.82C98.3334 449.882 98.3059 449.941 98.2646 449.996C98.2302 450.03 98.1752 450.057 98.0996 450.078C98.0308 450.106 97.9655 450.119 97.9036 450.119C97.8074 450.119 97.687 450.078 97.5426 449.996C97.3982 449.913 97.3157 449.82 97.2951 449.717L97.2848 449.542C97.2848 449.48 97.2916 449.408 97.3054 449.325C97.3879 448.844 97.4292 448.424 97.4292 448.067C97.4292 447.909 97.4257 447.785 97.4189 447.696L97.4085 447.211C97.4085 447.046 97.3673 446.888 97.2848 446.736C97.2023 446.578 97.106 446.499 96.996 446.499C96.9616 446.499 96.9135 446.513 96.8516 446.54C96.7897 446.561 96.7381 446.571 96.6969 446.571C96.6281 446.571 96.5525 446.537 96.4699 446.468C96.3943 446.399 96.3565 446.327 96.3565 446.252C96.3565 446.107 96.4046 445.99 96.5009 445.901C96.604 445.818 96.7037 445.753 96.8 445.705C96.9031 445.657 97.02 445.633 97.1507 445.633C97.2607 445.633 97.3501 445.643 97.4189 445.664C97.4876 445.684 97.5804 445.729 97.6973 445.798C97.7592 445.832 97.8314 445.908 97.9139 446.025C97.9964 446.142 98.0652 446.307 98.1202 446.52C98.299 446.19 98.519 445.959 98.7803 445.829C99.0485 445.691 99.3889 445.622 99.8014 445.622C99.9596 445.622 100.128 445.674 100.307 445.777C100.493 445.88 100.651 446.001 100.781 446.138C100.905 446.289 101.008 446.478 101.091 446.705C101.173 446.925 101.214 447.125 101.214 447.304C101.214 447.407 101.208 447.575 101.194 447.809C101.173 447.995 101.163 448.191 101.163 448.397C101.163 448.878 101.256 449.174 101.441 449.284ZM105.609 443.529C105.739 443.529 105.856 443.563 105.959 443.632C106.069 443.7 106.135 443.821 106.155 443.993C106.238 444.536 106.29 445.079 106.31 445.622C106.338 446.159 106.351 446.767 106.351 447.448C106.351 447.737 106.327 448.263 106.279 449.026C106.582 449.054 106.816 449.067 106.981 449.067C107.097 449.067 107.362 449.05 107.775 449.016C108.015 448.981 108.225 448.964 108.404 448.964C108.569 448.964 108.72 448.981 108.858 449.016C108.995 449.043 109.136 449.091 109.281 449.16C109.425 449.243 109.497 449.37 109.497 449.542C109.497 449.679 109.453 449.803 109.363 449.913C109.281 450.023 109.181 450.078 109.064 450.078C108.982 450.078 108.851 450.064 108.672 450.037C108.349 449.989 108.04 449.965 107.744 449.965C107.648 449.965 107.538 449.972 107.414 449.985C107.297 449.992 107.211 449.996 107.156 449.996C106.991 450.016 106.826 450.027 106.661 450.027C106.324 450.027 106.021 450.009 105.753 449.975C105.616 449.961 105.478 449.91 105.341 449.82C105.203 449.724 105.134 449.586 105.134 449.408C105.134 449.305 105.148 449.04 105.176 448.613C105.224 447.905 105.248 447.365 105.248 446.994C105.248 446.705 105.234 446.403 105.207 446.087C105.179 445.77 105.162 445.571 105.155 445.488C105.093 444.904 105.062 444.422 105.062 444.044C105.062 443.866 105.103 443.735 105.186 443.652C105.275 443.57 105.416 443.529 105.609 443.529ZM114.179 446.767C114.234 446.864 114.278 447.004 114.313 447.19C114.347 447.369 114.364 447.531 114.364 447.675C114.364 447.943 114.306 448.325 114.189 448.82C113.715 449.686 113.013 450.119 112.085 450.119C111.741 450.119 111.39 450.006 111.033 449.779C110.675 449.552 110.428 449.291 110.29 448.995C110.105 448.404 110.012 448.029 110.012 447.871C110.012 447.596 110.07 447.304 110.187 446.994C110.311 446.685 110.466 446.417 110.651 446.19C110.768 446.031 110.978 445.897 111.28 445.787C111.583 445.67 111.858 445.612 112.106 445.612C112.587 445.612 112.996 445.705 113.333 445.891C113.67 446.069 113.952 446.362 114.179 446.767ZM113.281 448.428C113.316 448.338 113.333 448.108 113.333 447.737C113.333 447.537 113.295 447.341 113.219 447.149C113.151 446.956 113.048 446.791 112.91 446.654C112.896 446.64 112.858 446.619 112.797 446.592C112.735 446.558 112.649 446.527 112.539 446.499C112.436 446.465 112.315 446.448 112.178 446.448C111.793 446.448 111.511 446.602 111.332 446.912C111.153 447.221 111.064 447.572 111.064 447.964C111.064 448.032 111.081 448.163 111.115 448.356C111.157 448.548 111.191 448.669 111.219 448.717C111.239 448.765 111.291 448.834 111.373 448.923C111.463 449.005 111.569 449.081 111.693 449.15C111.824 449.212 111.958 449.243 112.095 449.243C112.405 449.243 112.652 449.17 112.838 449.026C113.024 448.875 113.171 448.675 113.281 448.428ZM117.765 447.427C117.786 447.372 117.858 447.173 117.982 446.829C118.112 446.485 118.233 446.224 118.343 446.045C118.522 445.763 118.68 445.622 118.817 445.622C119.01 445.622 119.158 445.66 119.261 445.736C119.364 445.805 119.415 445.904 119.415 446.035C119.415 446.097 119.388 446.183 119.333 446.293C119.285 446.403 119.257 446.468 119.25 446.489C118.975 447.094 118.728 447.744 118.508 448.438L118.291 449.243C118.209 449.504 118.068 449.717 117.868 449.882C117.669 450.04 117.435 450.119 117.167 450.119C116.926 450.119 116.703 450.009 116.497 449.789C116.373 449.597 116.242 449.353 116.105 449.057C115.974 448.761 115.86 448.473 115.764 448.191L115.403 447.108C115.328 446.894 115.266 446.712 115.218 446.561C115.176 446.41 115.156 446.272 115.156 446.148C115.149 446.004 115.19 445.887 115.279 445.798C115.369 445.708 115.493 445.664 115.651 445.664C115.83 445.664 115.957 445.701 116.032 445.777C116.108 445.846 116.177 445.956 116.239 446.107C116.266 446.265 116.342 446.588 116.466 447.077L116.538 447.365C116.6 447.599 116.679 447.836 116.775 448.077C116.871 448.318 116.968 448.548 117.064 448.768C117.05 448.734 117.098 448.847 117.208 449.109C117.277 448.909 117.356 448.665 117.445 448.376L117.765 447.427ZM120.044 447.716C120.044 447.297 120.136 446.949 120.322 446.674C120.508 446.392 120.766 446.128 121.096 445.88C121.192 445.811 121.353 445.753 121.58 445.705C121.807 445.65 122.007 445.622 122.179 445.622C122.385 445.622 122.601 445.667 122.828 445.756C123.062 445.839 123.251 445.935 123.396 446.045C123.65 446.231 123.825 446.448 123.922 446.695C124.018 446.936 124.066 447.225 124.066 447.561C124.066 447.706 123.984 447.847 123.819 447.984C123.66 448.115 123.488 448.18 123.303 448.18L122.911 448.17C122.711 448.17 122.426 448.177 122.055 448.191L121.838 448.201C121.687 448.215 121.573 448.222 121.498 448.222C121.388 448.222 121.237 448.208 121.044 448.18C121.071 448.503 121.192 448.758 121.405 448.944C121.618 449.122 121.849 449.212 122.096 449.212C122.529 449.212 122.832 449.126 123.004 448.954C123.148 448.851 123.244 448.785 123.293 448.758C123.341 448.73 123.416 448.717 123.519 448.717C123.629 448.717 123.726 448.768 123.808 448.871C123.891 448.974 123.932 449.078 123.932 449.181C123.932 449.298 123.86 449.418 123.715 449.542C123.578 449.659 123.389 449.782 123.148 449.913C123.017 449.968 122.839 450.016 122.612 450.057C122.385 450.099 122.196 450.119 122.044 450.119C121.804 450.119 121.536 450.051 121.24 449.913C120.944 449.769 120.724 449.611 120.58 449.439C120.435 449.267 120.308 449.023 120.198 448.706C120.095 448.39 120.044 448.06 120.044 447.716ZM122.096 447.438C122.584 447.438 122.942 447.42 123.169 447.386C123.155 447.187 123.093 447.025 122.983 446.901C122.873 446.771 122.722 446.661 122.529 446.571C122.467 446.544 122.412 446.523 122.364 446.509C122.316 446.496 122.261 446.489 122.199 446.489C121.883 446.489 121.615 446.575 121.395 446.747C121.182 446.919 121.054 447.139 121.013 447.407C121.357 447.427 121.718 447.438 122.096 447.438Z" fill="#FFF8DC"/>
<path d="M154.344 448.191C154.258 448.191 154.175 448.175 154.094 448.143C154.014 448.111 153.946 448.068 153.893 448.014L150.927 445.049C150.809 444.93 150.75 444.78 150.75 444.597C150.75 444.415 150.809 444.264 150.927 444.146C151.045 444.028 151.196 443.969 151.379 443.969C151.561 443.969 151.712 444.028 151.83 444.146L154.344 446.66L156.858 444.146C156.976 444.028 157.127 443.969 157.309 443.969C157.492 443.969 157.642 444.028 157.76 444.146C157.879 444.264 157.938 444.415 157.938 444.597C157.938 444.78 157.879 444.93 157.76 445.049L154.795 448.014C154.731 448.078 154.661 448.124 154.586 448.151C154.51 448.178 154.43 448.191 154.344 448.191Z" fill="#FFF8DC"/>
</g>
<rect x="50.2853" y="1.47277" width="230.782" height="475.745" stroke="black" stroke-width="1.28928"/>
<g clip-path="url(#clip1_571_20998)">
<circle cx="561.488" cy="338.62" r="87.0266" fill="#949494"/>
<rect x="333.281" y="431.445" width="221.265" height="28.8477" rx="5.15713" fill="#24C2AF"/>
<path d="M410.891 444.906C410.595 444.693 410.341 444.538 410.128 444.442C409.915 444.339 409.667 444.287 409.385 444.287C408.821 444.287 408.336 444.432 407.931 444.72C407.621 444.947 407.391 445.243 407.24 445.607C407.088 445.972 407.013 446.381 407.013 446.835C407.013 447.268 407.112 447.65 407.312 447.98C407.511 448.303 407.769 448.55 408.085 448.722C408.402 448.894 408.732 448.98 409.076 448.98C409.419 448.98 409.715 448.929 409.963 448.825C410.217 448.715 410.42 448.574 410.571 448.403C410.805 448.107 410.922 447.715 410.922 447.227C410.922 447.158 410.867 447.11 410.757 447.082C410.647 447.055 410.489 447.041 410.282 447.041L409.54 447.051C409.34 447.051 409.182 447.014 409.065 446.938C408.948 446.862 408.89 446.766 408.89 446.649C408.89 446.484 408.945 446.364 409.055 446.288C409.165 446.206 409.313 446.164 409.499 446.164C409.719 446.164 410.014 446.178 410.386 446.206C410.757 446.233 411.025 446.247 411.19 446.247C411.431 446.247 411.623 446.323 411.768 446.474C411.919 446.625 411.995 446.845 411.995 447.134C411.995 447.402 411.936 447.715 411.819 448.073C411.702 448.43 411.537 448.75 411.324 449.032C411.118 449.307 410.812 449.517 410.406 449.661C410.007 449.798 409.564 449.867 409.076 449.867C408.67 449.867 408.278 449.802 407.9 449.671C407.522 449.541 407.205 449.358 406.951 449.125C406.635 448.829 406.384 448.478 406.198 448.073C406.019 447.66 405.93 447.251 405.93 446.845C405.93 446.254 406.067 445.68 406.342 445.123C406.624 444.559 407.002 444.122 407.477 443.813C407.683 443.675 407.972 443.562 408.343 443.472C408.715 443.383 409.055 443.338 409.364 443.338C409.846 443.338 410.269 443.414 410.633 443.565C410.998 443.71 411.276 443.919 411.469 444.194C411.551 444.318 411.592 444.428 411.592 444.524C411.592 444.634 411.544 444.738 411.448 444.834C411.352 444.93 411.255 444.978 411.159 444.978C411.118 444.978 411.07 444.971 411.015 444.958C410.96 444.944 410.918 444.927 410.891 444.906ZM412.999 447.681C412.999 447.419 413.048 447.158 413.144 446.897C413.24 446.629 413.367 446.384 413.526 446.164C413.684 445.944 413.935 445.766 414.278 445.628C414.622 445.484 414.928 445.411 415.196 445.411C415.471 445.411 415.75 445.449 416.032 445.525C416.321 445.601 416.52 445.717 416.63 445.876C416.885 446.233 417.012 446.584 417.012 446.928C417.012 447.113 416.97 447.271 416.888 447.402C416.812 447.533 416.702 447.674 416.558 447.825C416.441 447.949 416.255 448.031 416.001 448.073C415.753 448.114 415.506 448.134 415.258 448.134C415.1 448.134 414.908 448.121 414.681 448.093C414.454 448.059 414.234 448.017 414.021 447.969C414.034 448.107 414.069 448.241 414.124 448.372C414.179 448.502 414.244 448.602 414.32 448.671C414.457 448.801 414.598 448.884 414.743 448.918C414.894 448.953 415.086 448.97 415.32 448.97C415.568 448.97 415.798 448.929 416.011 448.846C416.183 448.784 416.324 448.753 416.434 448.753C416.565 448.753 416.664 448.795 416.733 448.877C416.802 448.953 416.836 449.052 416.836 449.176C416.836 449.348 416.737 449.489 416.537 449.599C416.338 449.709 416.108 449.792 415.846 449.847C415.592 449.895 415.386 449.919 415.227 449.919C414.904 449.919 414.591 449.86 414.289 449.743C413.986 449.627 413.735 449.461 413.536 449.248C413.371 449.056 413.24 448.825 413.144 448.557C413.048 448.282 412.999 447.99 412.999 447.681ZM415.248 446.288C415.097 446.288 414.945 446.319 414.794 446.381C414.643 446.436 414.519 446.515 414.423 446.618C414.299 446.749 414.213 446.855 414.165 446.938C414.124 447.014 414.096 447.12 414.082 447.258C414.254 447.313 414.612 447.34 415.155 447.34C415.451 447.34 415.678 447.295 415.836 447.206C416.001 447.117 416.083 447 416.083 446.855C416.083 446.711 415.994 446.58 415.815 446.463C415.636 446.347 415.447 446.288 415.248 446.288ZM417.997 446.298C417.901 446.285 417.822 446.243 417.76 446.175C417.705 446.106 417.678 446.023 417.678 445.927C417.678 445.879 417.688 445.827 417.709 445.772C417.736 445.717 417.774 445.669 417.822 445.628C417.911 445.539 418.152 445.494 418.544 445.494C418.599 445.226 418.627 444.954 418.627 444.679C418.627 444.576 418.623 444.487 418.616 444.411C418.609 444.335 418.606 444.277 418.606 444.236C418.606 444.084 418.661 443.971 418.771 443.895C418.888 443.82 419.018 443.782 419.163 443.782C419.342 443.782 419.462 443.826 419.524 443.916C419.593 444.005 419.627 444.17 419.627 444.411C419.627 444.769 419.596 445.119 419.534 445.463C419.644 445.463 419.796 445.456 419.988 445.442C420.249 445.429 420.438 445.422 420.555 445.422C420.672 445.422 420.772 445.453 420.854 445.515C420.944 445.57 420.989 445.649 420.989 445.752C420.989 446.02 420.868 446.178 420.628 446.226C420.373 446.288 419.978 446.326 419.441 446.34C419.421 446.608 419.41 446.9 419.41 447.216C419.41 447.712 419.441 448.117 419.503 448.434C419.545 448.654 419.613 448.815 419.71 448.918C419.813 449.015 419.964 449.063 420.163 449.063C420.28 449.063 420.401 449.032 420.524 448.97C420.607 448.922 420.683 448.898 420.751 448.898C420.848 448.898 420.916 448.929 420.958 448.99C421.006 449.052 421.03 449.135 421.03 449.238C421.03 449.431 420.927 449.592 420.72 449.723C420.514 449.847 420.249 449.908 419.926 449.908C419.727 449.908 419.524 449.86 419.318 449.764C419.118 449.668 418.95 449.547 418.812 449.403C418.792 449.382 418.754 449.303 418.699 449.166C418.644 449.028 418.596 448.88 418.554 448.722C418.486 448.399 418.451 447.945 418.451 447.361C418.451 447.106 418.465 446.766 418.492 446.34L417.997 446.298ZM429.597 448.898C429.7 448.898 429.782 448.942 429.844 449.032C429.913 449.121 429.947 449.217 429.947 449.321C429.947 449.499 429.879 449.637 429.741 449.733C429.61 449.822 429.439 449.867 429.225 449.867C428.909 449.867 428.655 449.812 428.462 449.702C428.27 449.592 428.098 449.386 427.946 449.083C427.898 448.973 427.84 448.795 427.771 448.547C427.709 448.299 427.644 448.103 427.575 447.959C427.513 447.808 427.407 447.681 427.255 447.577C427.111 447.474 426.912 447.419 426.657 447.412L426.43 447.423C426.196 447.436 426.021 447.443 425.904 447.443C425.767 447.443 425.636 447.433 425.512 447.412C425.526 448.32 425.533 449.015 425.533 449.496C425.533 449.62 425.471 449.723 425.347 449.805C425.23 449.888 425.096 449.929 424.945 449.929C424.766 449.929 424.625 449.86 424.522 449.723C424.44 449.558 424.398 449.314 424.398 448.99C424.398 448.88 424.405 448.722 424.419 448.516L424.429 448.062C424.429 447.643 424.446 447.192 424.481 446.711C424.508 446.161 424.522 445.759 424.522 445.504C424.522 445.291 424.501 445.006 424.46 444.648C424.453 444.579 424.443 444.469 424.429 444.318C424.415 444.16 424.409 444.019 424.409 443.895C424.409 443.806 424.446 443.723 424.522 443.648C424.598 443.572 424.673 443.524 424.749 443.503C425.313 443.414 425.87 443.369 426.42 443.369C427.314 443.369 428.046 443.538 428.617 443.875C429.188 444.212 429.473 444.727 429.473 445.422C429.473 445.628 429.418 445.845 429.308 446.072C429.205 446.292 429.074 446.463 428.916 446.587C428.648 446.821 428.359 446.972 428.05 447.041C428.063 447.055 428.139 447.124 428.276 447.247C428.414 447.371 428.507 447.502 428.555 447.639L428.689 448.052C428.806 448.389 428.899 448.623 428.967 448.753C429.036 448.877 429.126 448.939 429.236 448.939C429.339 448.939 429.401 448.932 429.421 448.918C429.449 448.905 429.507 448.898 429.597 448.898ZM425.502 446.536C425.708 446.549 425.853 446.556 425.935 446.556C426.059 446.556 426.231 446.549 426.451 446.536L426.936 446.525C427.149 446.525 427.369 446.477 427.596 446.381C427.823 446.285 428.012 446.151 428.163 445.979C428.314 445.8 428.39 445.601 428.39 445.38C428.39 444.989 428.232 444.703 427.915 444.524C427.599 444.346 427.107 444.256 426.44 444.256C426.186 444.256 425.887 444.291 425.543 444.359C425.557 444.607 425.564 444.786 425.564 444.896C425.564 445.026 425.557 445.222 425.543 445.484L425.533 445.783C425.512 446.072 425.502 446.323 425.502 446.536ZM434.507 449.908C434.274 449.908 434.095 449.874 433.971 449.805C433.847 449.73 433.713 449.592 433.569 449.393C433.39 449.551 433.122 449.678 432.764 449.774C432.414 449.871 432.111 449.919 431.857 449.919C431.437 449.919 431.097 449.805 430.836 449.578C430.581 449.345 430.454 449.004 430.454 448.557C430.454 448.365 430.506 448.189 430.609 448.031C430.719 447.866 430.86 447.722 431.032 447.598C431.224 447.467 431.451 447.364 431.712 447.289C431.98 447.213 432.225 447.175 432.445 447.175C432.816 447.175 433.146 447.21 433.435 447.278V447.268C433.435 446.897 433.342 446.642 433.156 446.505C432.978 446.36 432.689 446.288 432.29 446.288C432.035 446.288 431.815 446.402 431.63 446.629C431.561 446.718 431.417 446.763 431.197 446.763C431.087 446.763 431.004 446.718 430.949 446.629C430.901 446.532 430.877 446.436 430.877 446.34C430.877 446.14 430.959 445.968 431.124 445.824C431.296 445.68 431.503 445.573 431.743 445.504C431.984 445.429 432.207 445.391 432.414 445.391C432.613 445.391 432.85 445.432 433.125 445.515C433.4 445.597 433.624 445.707 433.796 445.845C434.002 446.023 434.16 446.233 434.27 446.474C434.387 446.708 434.446 446.965 434.446 447.247C434.446 447.337 434.439 447.471 434.425 447.65C434.411 447.856 434.404 448.024 434.404 448.155C434.404 448.217 434.397 448.296 434.384 448.392C434.37 448.516 434.363 448.619 434.363 448.702C434.363 448.791 434.391 448.877 434.446 448.96C434.501 449.042 434.576 449.111 434.672 449.166C434.762 449.214 434.82 449.266 434.848 449.321C434.875 449.376 434.889 449.437 434.889 449.506C434.889 449.575 434.844 449.661 434.755 449.764C434.672 449.86 434.59 449.908 434.507 449.908ZM432.445 447.938C432.176 447.938 431.939 447.99 431.733 448.093C431.527 448.196 431.423 448.378 431.423 448.64C431.423 448.77 431.468 448.88 431.558 448.97C431.654 449.059 431.757 449.104 431.867 449.104C432.163 449.104 432.41 449.073 432.61 449.011C432.809 448.949 433.05 448.836 433.332 448.671C433.366 448.561 433.387 448.406 433.394 448.207C433.394 448.131 433.397 448.073 433.404 448.031C433.033 447.969 432.713 447.938 432.445 447.938ZM435.582 446.237C435.527 446.195 435.482 446.154 435.448 446.113C435.414 446.065 435.396 445.982 435.396 445.865C435.396 445.735 435.441 445.635 435.53 445.566C435.627 445.491 435.737 445.453 435.861 445.453C436.101 445.453 436.308 445.515 436.479 445.638C436.658 445.762 436.789 445.934 436.871 446.154C437.023 445.872 437.215 445.68 437.449 445.576C437.683 445.466 438.006 445.411 438.418 445.411C438.584 445.411 438.752 445.463 438.924 445.566C439.103 445.662 439.264 445.783 439.409 445.927C439.526 446.078 439.625 446.268 439.708 446.494C439.79 446.714 439.832 446.914 439.832 447.093C439.832 447.196 439.825 447.364 439.811 447.598C439.797 447.846 439.79 448.042 439.79 448.186C439.79 448.667 439.883 448.963 440.069 449.073C440.096 449.087 440.148 449.104 440.223 449.125C440.299 449.145 440.354 449.166 440.389 449.186C440.43 449.207 440.45 449.238 440.45 449.279C440.457 449.444 440.395 449.582 440.265 449.692C440.141 449.795 439.99 449.847 439.811 449.847C439.543 449.847 439.333 449.774 439.182 449.63C439.03 449.486 438.924 449.266 438.862 448.97C438.828 448.86 438.81 448.698 438.81 448.485C438.81 448.368 438.817 448.179 438.831 447.918C438.852 447.712 438.862 447.491 438.862 447.258C438.862 447.017 438.793 446.807 438.656 446.629C438.518 446.443 438.329 446.35 438.088 446.35C437.944 446.35 437.793 446.395 437.635 446.484C437.476 446.567 437.366 446.67 437.305 446.794C437.201 447.007 437.133 447.223 437.098 447.443C437.016 447.87 436.974 448.279 436.974 448.671C436.974 448.767 436.981 448.953 436.995 449.228C436.995 449.248 436.995 449.3 436.995 449.382C436.995 449.458 436.985 449.53 436.964 449.599C436.95 449.668 436.923 449.73 436.882 449.785C436.854 449.812 436.803 449.84 436.727 449.867C436.651 449.895 436.586 449.908 436.531 449.908C436.435 449.908 436.314 449.867 436.17 449.785C436.026 449.702 435.94 449.609 435.912 449.506L435.902 449.362C435.902 449.307 435.909 449.224 435.922 449.114C436.005 448.633 436.046 448.213 436.046 447.856C436.046 447.698 436.043 447.577 436.036 447.495L436.026 447.02C436.026 446.876 435.984 446.739 435.902 446.608C435.819 446.47 435.713 446.347 435.582 446.237ZM445.28 443.41C445.28 443.479 445.269 443.565 445.249 443.668C445.242 443.71 445.235 443.754 445.228 443.802C445.221 443.851 445.214 443.909 445.207 443.978C445.145 444.597 445.115 445.363 445.115 446.278C445.115 447.144 445.152 447.787 445.228 448.207C445.304 448.626 445.421 448.877 445.579 448.96L445.775 449.042C445.878 449.076 445.953 449.114 446.002 449.156C446.057 449.197 446.084 449.266 446.084 449.362C446.084 449.499 446.012 449.62 445.867 449.723C445.723 449.819 445.565 449.867 445.393 449.867C445.214 449.867 445.039 449.795 444.867 449.651C444.695 449.499 444.554 449.31 444.444 449.083C444.327 449.331 444.121 449.53 443.825 449.682C443.53 449.826 443.248 449.898 442.979 449.898C442.739 449.898 442.529 449.867 442.35 449.805C442.172 449.737 441.986 449.633 441.793 449.496C441.56 449.331 441.381 449.121 441.257 448.867C441.14 448.612 441.082 448.334 441.082 448.031C441.082 447.729 441.14 447.409 441.257 447.072C441.374 446.728 441.508 446.446 441.659 446.226C441.838 445.972 442.075 445.783 442.371 445.659C442.667 445.528 442.973 445.463 443.289 445.463C443.468 445.463 443.622 445.497 443.753 445.566C443.884 445.628 444.018 445.717 444.155 445.834C444.155 445.491 444.148 445.202 444.135 444.968C444.128 444.906 444.124 444.834 444.124 444.751C444.124 444.16 444.173 443.692 444.269 443.349C444.344 443.06 444.527 442.915 444.815 442.915C444.974 442.915 445.09 442.95 445.166 443.019C445.242 443.087 445.28 443.218 445.28 443.41ZM442.082 448.011C442.082 448.361 442.196 448.629 442.423 448.815C442.526 448.911 442.612 448.977 442.68 449.011C442.749 449.045 442.835 449.063 442.938 449.063C443.138 449.063 443.327 449.008 443.506 448.898C443.691 448.781 443.836 448.629 443.939 448.444C444.049 448.258 444.104 448.059 444.104 447.846L444.093 446.824C443.949 446.659 443.815 446.546 443.691 446.484C443.574 446.415 443.451 446.381 443.32 446.381C442.88 446.381 442.577 446.549 442.412 446.886C442.323 447.045 442.244 447.223 442.175 447.423C442.113 447.622 442.082 447.818 442.082 448.011ZM450.838 446.556C450.893 446.653 450.938 446.794 450.972 446.979C451.007 447.158 451.024 447.32 451.024 447.464C451.024 447.656 450.993 447.897 450.931 448.186C450.869 448.468 450.818 448.657 450.777 448.753C450.405 449.523 449.69 449.908 448.631 449.908C448.294 449.908 447.964 449.798 447.641 449.578C447.318 449.351 447.087 449.087 446.95 448.784L446.878 448.578C446.871 448.55 446.833 448.447 446.764 448.268C446.702 448.083 446.671 447.942 446.671 447.846C446.671 447.564 446.74 447.237 446.878 446.866C447.015 446.494 447.173 446.199 447.352 445.979C447.469 445.821 447.693 445.686 448.023 445.576C448.353 445.46 448.645 445.401 448.899 445.401C449.374 445.401 449.755 445.491 450.044 445.669C450.34 445.848 450.605 446.144 450.838 446.556ZM449.889 448.217C449.917 448.169 449.941 448.083 449.962 447.959C449.982 447.835 449.993 447.691 449.993 447.526C449.993 447.326 449.955 447.13 449.879 446.938C449.81 446.745 449.707 446.58 449.57 446.443C449.563 446.429 449.539 446.408 449.498 446.381C449.456 446.347 449.391 446.316 449.302 446.288C449.212 446.254 449.099 446.237 448.961 446.237C448.693 446.237 448.466 446.316 448.28 446.474C448.095 446.632 447.954 446.828 447.858 447.062C447.768 447.295 447.723 447.526 447.723 447.753C447.723 447.815 447.744 447.942 447.785 448.134C447.827 448.327 447.858 448.451 447.878 448.506C447.933 448.602 448.04 448.715 448.198 448.846C448.356 448.97 448.535 449.032 448.734 449.032C449.044 449.032 449.284 448.96 449.456 448.815C449.635 448.671 449.779 448.471 449.889 448.217ZM458.521 449.506C458.417 449.314 458.352 449.1 458.325 448.867C458.297 448.626 458.283 448.296 458.283 447.877C458.283 447.478 458.228 447.13 458.118 446.835C458.008 446.539 457.781 446.391 457.438 446.391C457.307 446.391 457.176 446.433 457.046 446.515C456.922 446.591 456.829 446.687 456.767 446.804C456.671 446.99 456.606 447.192 456.571 447.412C456.537 447.626 456.52 447.873 456.52 448.155C456.52 448.334 456.53 448.516 456.551 448.702C456.551 448.757 456.554 448.846 456.561 448.97C456.575 449.087 456.582 449.193 456.582 449.29C456.582 449.702 456.437 449.908 456.148 449.908C455.77 449.908 455.571 449.709 455.55 449.31C455.55 449.028 455.554 448.877 455.56 448.856V448.413C455.56 448.165 455.55 447.925 455.529 447.691C455.509 447.457 455.485 447.282 455.457 447.165C455.395 446.938 455.313 446.763 455.21 446.639C455.113 446.515 454.959 446.453 454.746 446.453C454.443 446.453 454.199 446.584 454.013 446.845C453.883 447.051 453.797 447.302 453.755 447.598C453.714 447.976 453.683 448.275 453.663 448.495C453.649 448.709 453.642 448.956 453.642 449.238C453.642 449.437 453.608 449.599 453.539 449.723C453.477 449.847 453.357 449.908 453.178 449.908C453.047 449.908 452.91 449.874 452.765 449.805C452.628 449.73 452.559 449.63 452.559 449.506C452.559 449.376 452.573 449.245 452.6 449.114C452.662 448.722 452.693 448.021 452.693 447.01C452.693 446.845 452.652 446.687 452.569 446.536C452.494 446.378 452.401 446.298 452.291 446.298C452.263 446.298 452.212 446.312 452.136 446.34C452.067 446.367 452.016 446.381 451.981 446.381C451.892 446.381 451.809 446.34 451.734 446.257C451.665 446.175 451.631 446.106 451.631 446.051C451.631 445.879 451.713 445.735 451.878 445.618C452.05 445.494 452.229 445.432 452.415 445.432C452.669 445.432 452.886 445.511 453.064 445.669C453.243 445.827 453.381 446.047 453.477 446.329C453.635 446.054 453.848 445.834 454.116 445.669C454.385 445.497 454.684 445.411 455.014 445.411C455.22 445.411 455.385 445.439 455.509 445.494C455.639 445.542 455.746 445.614 455.829 445.711C455.911 445.8 456.018 445.937 456.148 446.123C456.32 445.903 456.54 445.731 456.808 445.607C457.083 445.484 457.365 445.422 457.654 445.422C457.998 445.422 458.307 445.563 458.582 445.845C458.858 446.12 459.043 446.439 459.139 446.804C459.188 446.99 459.212 447.347 459.212 447.877L459.253 448.475C459.287 448.832 459.404 449.049 459.604 449.125C459.837 449.193 459.954 449.266 459.954 449.341C459.954 449.506 459.913 449.627 459.831 449.702C459.769 449.743 459.683 449.788 459.573 449.836C459.463 449.884 459.377 449.908 459.315 449.908C458.943 449.908 458.679 449.774 458.521 449.506ZM465.126 443.792C464.92 443.792 464.793 443.964 464.745 444.308C464.696 444.775 464.672 445.13 464.672 445.37C464.81 445.384 464.954 445.391 465.106 445.391C465.202 445.391 465.326 445.384 465.477 445.37L465.745 445.36C465.883 445.36 465.986 445.384 466.054 445.432C466.123 445.48 466.158 445.559 466.158 445.669C466.158 445.821 466.106 445.951 466.003 446.061C465.907 446.164 465.793 446.216 465.662 446.216C465.167 446.216 464.834 446.24 464.662 446.288C464.662 446.708 464.683 447.302 464.724 448.073L464.745 448.578L464.786 449.382C464.8 449.582 464.779 449.723 464.724 449.805C464.676 449.881 464.569 449.919 464.404 449.919C464.102 449.919 463.906 449.737 463.816 449.372C463.761 449.104 463.717 448.729 463.682 448.248C463.648 447.767 463.631 447.337 463.631 446.959C463.631 446.759 463.641 446.532 463.662 446.278C463.648 446.271 463.61 446.268 463.548 446.268C463.486 446.268 463.441 446.271 463.414 446.278C463.208 446.292 463.056 446.298 462.96 446.298C462.898 446.298 462.836 446.257 462.774 446.175C462.713 446.085 462.682 445.979 462.682 445.855C462.682 445.786 462.706 445.724 462.754 445.669C462.802 445.607 462.86 445.563 462.929 445.535C463.032 445.48 463.18 445.453 463.373 445.453L463.682 445.463C463.682 444.487 463.792 443.809 464.012 443.431C464.218 443.074 464.559 442.895 465.033 442.895C465.308 442.895 465.559 442.964 465.786 443.101C465.883 443.163 465.955 443.239 466.003 443.328C466.058 443.417 466.085 443.503 466.085 443.586C466.085 443.689 466.044 443.796 465.962 443.906C465.886 444.016 465.769 444.071 465.611 444.071C465.549 444.071 465.47 444.022 465.374 443.926C465.339 443.892 465.301 443.861 465.26 443.833C465.219 443.806 465.174 443.792 465.126 443.792ZM471.582 449.372C471.582 449.523 471.5 449.651 471.335 449.754C471.177 449.857 471.029 449.908 470.891 449.908C470.63 449.908 470.42 449.878 470.262 449.816C470.111 449.747 469.97 449.623 469.839 449.444C469.661 449.602 469.416 449.723 469.107 449.805C468.798 449.881 468.512 449.919 468.251 449.919C467.825 449.919 467.474 449.805 467.199 449.578C466.924 449.345 466.786 449.004 466.786 448.557C466.786 448.365 466.838 448.189 466.941 448.031C467.044 447.866 467.185 447.722 467.364 447.598C467.563 447.467 467.79 447.368 468.045 447.299C468.299 447.223 468.564 447.185 468.839 447.185C468.983 447.185 469.155 447.213 469.355 447.268C469.554 447.323 469.709 447.381 469.819 447.443V447.278C469.819 446.907 469.729 446.653 469.55 446.515C469.372 446.371 469.083 446.298 468.684 446.298C468.567 446.298 468.45 446.323 468.333 446.371C468.223 446.419 468.096 446.484 467.952 446.567C467.759 446.67 467.577 446.721 467.405 446.721C467.343 446.721 467.285 446.68 467.23 446.598C467.175 446.508 467.147 446.429 467.147 446.36C467.147 446.161 467.24 445.989 467.426 445.845C467.618 445.7 467.845 445.594 468.106 445.525C468.368 445.449 468.602 445.411 468.808 445.411C469.014 445.411 469.251 445.453 469.52 445.535C469.788 445.611 470.008 445.717 470.18 445.855C470.386 446.034 470.544 446.243 470.654 446.484C470.771 446.718 470.829 446.976 470.829 447.258C470.829 447.347 470.823 447.481 470.809 447.66C470.795 447.852 470.788 448.017 470.788 448.155C470.788 448.217 470.781 448.31 470.768 448.434C470.754 448.585 470.747 448.705 470.747 448.795C470.747 448.877 470.778 448.949 470.84 449.011C470.902 449.066 470.974 449.094 471.056 449.094L471.345 449.083C471.421 449.083 471.479 449.111 471.521 449.166C471.562 449.221 471.582 449.29 471.582 449.372ZM468.261 449.104C468.557 449.104 468.804 449.073 469.004 449.011C469.203 448.949 469.444 448.836 469.726 448.671C469.753 448.554 469.771 448.399 469.777 448.207C469.399 448.028 469.086 447.938 468.839 447.938C468.557 447.938 468.306 447.99 468.086 448.093C467.866 448.196 467.756 448.378 467.756 448.64C467.756 448.77 467.811 448.88 467.921 448.97C468.031 449.059 468.144 449.104 468.261 449.104ZM475.971 446.422C475.971 446.567 475.94 446.677 475.878 446.752C475.823 446.828 475.73 446.866 475.6 446.866C475.503 446.866 475.421 446.842 475.352 446.794C475.29 446.745 475.208 446.663 475.105 446.546C475.022 446.457 474.926 446.384 474.816 446.329C474.713 446.274 474.62 446.247 474.537 446.247C474.118 446.247 473.815 446.336 473.63 446.515C473.513 446.639 473.416 446.804 473.341 447.01C473.265 447.21 473.227 447.416 473.227 447.629C473.227 447.938 473.272 448.186 473.361 448.372C473.451 448.557 473.609 448.715 473.836 448.846C473.918 448.894 474.035 448.935 474.187 448.97C474.338 448.997 474.462 449.011 474.558 449.011C474.689 449.011 474.826 448.977 474.97 448.908C475.115 448.832 475.239 448.736 475.342 448.619C475.472 448.468 475.631 448.392 475.816 448.392C475.892 448.392 475.978 448.43 476.074 448.506C476.177 448.581 476.229 448.671 476.229 448.774C476.229 448.98 476.129 449.173 475.93 449.351C475.737 449.523 475.5 449.661 475.218 449.764C474.936 449.86 474.675 449.908 474.434 449.908C474.028 449.908 473.65 449.816 473.3 449.63C472.956 449.444 472.681 449.19 472.474 448.867C472.268 448.537 472.165 448.165 472.165 447.753C472.165 447.395 472.23 447.048 472.361 446.711C472.498 446.374 472.681 446.099 472.908 445.886C473.093 445.714 473.324 445.587 473.599 445.504C473.874 445.422 474.163 445.38 474.465 445.38C474.678 445.38 474.898 445.422 475.125 445.504C475.352 445.587 475.534 445.697 475.672 445.834C475.871 446.034 475.971 446.23 475.971 446.422ZM477 447.505C477 447.086 477.093 446.739 477.278 446.463C477.464 446.182 477.722 445.917 478.052 445.669C478.148 445.601 478.31 445.542 478.537 445.494C478.764 445.439 478.963 445.411 479.135 445.411C479.341 445.411 479.558 445.456 479.785 445.546C480.018 445.628 480.208 445.724 480.352 445.834C480.606 446.02 480.782 446.237 480.878 446.484C480.974 446.725 481.022 447.014 481.022 447.351C481.022 447.495 480.94 447.636 480.775 447.773C480.617 447.904 480.445 447.969 480.259 447.969L479.867 447.959C479.668 447.959 479.382 447.966 479.011 447.98L478.794 447.99C478.643 448.004 478.53 448.011 478.454 448.011C478.344 448.011 478.193 447.997 478 447.969C478.028 448.293 478.148 448.547 478.361 448.733C478.574 448.911 478.805 449.001 479.052 449.001C479.486 449.001 479.788 448.915 479.96 448.743C480.104 448.64 480.201 448.574 480.249 448.547C480.297 448.519 480.373 448.506 480.476 448.506C480.586 448.506 480.682 448.557 480.765 448.66C480.847 448.764 480.888 448.867 480.888 448.97C480.888 449.087 480.816 449.207 480.672 449.331C480.534 449.448 480.345 449.572 480.104 449.702C479.974 449.757 479.795 449.805 479.568 449.847C479.341 449.888 479.152 449.908 479.001 449.908C478.76 449.908 478.492 449.84 478.196 449.702C477.901 449.558 477.681 449.4 477.536 449.228C477.392 449.056 477.265 448.812 477.155 448.495C477.051 448.179 477 447.849 477 447.505ZM479.052 447.227C479.541 447.227 479.898 447.21 480.125 447.175C480.111 446.976 480.049 446.814 479.939 446.69C479.829 446.56 479.678 446.45 479.486 446.36C479.424 446.333 479.369 446.312 479.321 446.298C479.272 446.285 479.217 446.278 479.155 446.278C478.839 446.278 478.571 446.364 478.351 446.536C478.138 446.708 478.011 446.928 477.969 447.196C478.313 447.216 478.674 447.227 479.052 447.227Z" fill="#2F4F4F"/>
<rect x="682.43" y="432.094" width="107.255" height="29.0089" rx="5.15713" fill="#EE7B1D"/>
<path d="M721.88 444.619C721.88 444.819 721.873 445.083 721.86 445.413L721.849 446.084C721.849 446.737 721.898 447.284 721.994 447.724C722.131 448.343 722.338 448.821 722.613 449.158C722.867 449.453 723.18 449.601 723.551 449.601C723.84 449.601 724.098 449.515 724.325 449.343C724.552 449.164 724.727 448.944 724.851 448.683C725.057 448.257 725.16 447.731 725.16 447.105C725.16 446.727 725.136 446.28 725.088 445.764C725.047 445.187 725.026 444.753 725.026 444.465C725.026 444.313 725.116 444.217 725.294 444.176C725.473 444.128 725.659 444.104 725.851 444.104C725.92 444.104 725.999 444.148 726.089 444.238C726.178 444.327 726.223 444.423 726.223 444.526C726.223 444.733 726.212 444.929 726.192 445.114C726.178 445.321 726.171 445.465 726.171 445.548C726.171 445.809 726.185 446.173 726.212 446.641C726.219 446.758 726.226 446.899 726.233 447.064C726.24 447.229 726.243 447.418 726.243 447.631C726.243 448.099 726.13 448.566 725.903 449.034C725.683 449.494 725.373 449.876 724.975 450.179C724.576 450.474 724.125 450.622 723.623 450.622C722.853 450.622 722.252 450.375 721.818 449.88C721.385 449.378 721.09 448.731 720.931 447.94C720.842 447.487 720.784 447.012 720.756 446.517C720.735 446.022 720.725 445.358 720.725 444.526C720.725 444.416 720.777 444.313 720.88 444.217C720.99 444.121 721.107 444.073 721.231 444.073C721.664 444.073 721.88 444.255 721.88 444.619ZM727.678 447.012C727.616 447.012 727.557 447.019 727.502 447.033C727.447 447.04 727.392 447.043 727.337 447.043C727.262 447.043 727.19 447.009 727.121 446.94C727.059 446.871 727.028 446.809 727.028 446.754C727.028 446.576 727.117 446.438 727.296 446.342C727.475 446.239 727.657 446.187 727.843 446.187C728.001 446.187 728.163 446.242 728.328 446.352C728.5 446.455 728.627 446.589 728.709 446.754C728.888 446.541 729.108 446.386 729.369 446.29C729.631 446.194 729.902 446.146 730.184 446.146C730.5 446.146 730.793 446.246 731.061 446.445C731.336 446.644 731.553 446.899 731.711 447.208C731.869 447.511 731.948 447.813 731.948 448.116C731.948 448.412 731.917 448.676 731.855 448.91C731.793 449.137 731.683 449.367 731.525 449.601C731.346 449.849 731.106 450.051 730.803 450.21C730.507 450.368 730.153 450.447 729.741 450.447C729.631 450.447 729.497 450.419 729.338 450.364C729.18 450.302 729.05 450.237 728.946 450.168C728.898 450.636 728.874 451.042 728.874 451.385C728.874 451.592 728.885 451.788 728.905 451.973C728.919 452.193 728.926 452.352 728.926 452.448C728.926 452.599 728.874 452.709 728.771 452.778C728.668 452.854 728.555 452.891 728.431 452.891C728.183 452.891 728.018 452.823 727.936 452.685C727.86 452.554 727.822 452.365 727.822 452.118C727.85 451.526 727.884 450.98 727.925 450.478C727.967 449.859 727.987 448.903 727.987 447.61C727.987 447.487 727.963 447.356 727.915 447.218C727.867 447.081 727.788 447.012 727.678 447.012ZM728.988 449.147C729.022 449.278 729.118 449.388 729.277 449.477C729.442 449.56 729.589 449.601 729.72 449.601C730.112 449.601 730.404 449.494 730.597 449.281C730.741 449.13 730.834 448.982 730.875 448.838C730.923 448.693 730.947 448.463 730.947 448.147C730.947 447.899 730.899 447.693 730.803 447.528C730.707 447.356 730.59 447.232 730.452 447.157C730.315 447.074 730.184 447.033 730.06 447.033C729.778 447.033 729.548 447.119 729.369 447.291C729.197 447.456 729.087 447.683 729.039 447.971C729.005 448.198 728.988 448.59 728.988 449.147ZM737.17 450.55C737.026 450.55 736.888 450.509 736.757 450.426C736.634 450.337 736.524 450.244 736.427 450.148C736.331 450.045 736.266 449.976 736.231 449.941C736.087 450.148 735.877 450.316 735.602 450.447C735.327 450.577 735.062 450.643 734.808 450.643C734.416 450.643 734.069 450.56 733.766 450.395C733.464 450.23 733.23 450.007 733.065 449.725C732.9 449.436 732.817 449.116 732.817 448.766C732.817 448.436 732.855 448.119 732.931 447.817C733.013 447.507 733.123 447.249 733.261 447.043C733.447 446.782 733.694 446.576 734.004 446.424C734.32 446.273 734.633 446.197 734.942 446.197C735.128 446.197 735.303 446.232 735.468 446.301C735.633 446.369 735.778 446.455 735.901 446.558C735.901 446.105 735.898 445.819 735.891 445.702V445.475C735.891 444.829 735.932 444.358 736.015 444.062C736.09 443.774 736.276 443.629 736.572 443.629C736.73 443.629 736.847 443.664 736.922 443.732C736.998 443.801 737.036 443.932 737.036 444.124C737.036 444.193 737.019 444.382 736.984 444.691C736.909 445.462 736.871 446.232 736.871 447.002C736.871 447.648 736.881 448.13 736.902 448.446C736.929 448.755 736.981 449.003 737.057 449.189C737.139 449.374 737.266 449.539 737.438 449.684C737.541 449.766 737.614 449.835 737.655 449.89C737.703 449.945 737.727 450.017 737.727 450.106C737.727 450.216 737.672 450.32 737.562 450.416C737.452 450.505 737.321 450.55 737.17 450.55ZM734.777 449.807C735.142 449.807 735.41 449.694 735.582 449.467C735.76 449.233 735.85 448.938 735.85 448.58L735.839 448.002C735.833 447.892 735.829 447.745 735.829 447.559C735.575 447.256 735.3 447.105 735.004 447.105C734.805 447.105 734.615 447.157 734.437 447.26C734.265 447.363 734.124 447.514 734.014 447.714C733.897 447.94 733.838 448.284 733.838 448.745C733.838 449.061 733.931 449.319 734.117 449.519C734.303 449.711 734.523 449.807 734.777 449.807ZM743.113 450.106C743.113 450.258 743.03 450.385 742.865 450.488C742.707 450.591 742.559 450.643 742.422 450.643C742.16 450.643 741.951 450.612 741.792 450.55C741.641 450.481 741.5 450.357 741.37 450.179C741.191 450.337 740.947 450.457 740.637 450.54C740.328 450.615 740.042 450.653 739.781 450.653C739.355 450.653 739.004 450.54 738.729 450.313C738.454 450.079 738.316 449.739 738.316 449.292C738.316 449.099 738.368 448.924 738.471 448.766C738.574 448.601 738.715 448.456 738.894 448.332C739.093 448.202 739.32 448.102 739.575 448.033C739.829 447.958 740.094 447.92 740.369 447.92C740.513 447.92 740.685 447.947 740.885 448.002C741.084 448.057 741.239 448.116 741.349 448.178V448.013C741.349 447.641 741.259 447.387 741.081 447.249C740.902 447.105 740.613 447.033 740.214 447.033C740.097 447.033 739.981 447.057 739.864 447.105C739.754 447.153 739.626 447.218 739.482 447.301C739.289 447.404 739.107 447.456 738.935 447.456C738.873 447.456 738.815 447.414 738.76 447.332C738.705 447.243 738.677 447.163 738.677 447.095C738.677 446.895 738.77 446.723 738.956 446.579C739.149 446.435 739.375 446.328 739.637 446.259C739.898 446.184 740.132 446.146 740.338 446.146C740.544 446.146 740.782 446.187 741.05 446.27C741.318 446.345 741.538 446.452 741.71 446.589C741.916 446.768 742.074 446.978 742.184 447.218C742.301 447.452 742.36 447.71 742.36 447.992C742.36 448.081 742.353 448.216 742.339 448.394C742.325 448.587 742.318 448.752 742.318 448.889C742.318 448.951 742.312 449.044 742.298 449.168C742.284 449.319 742.277 449.439 742.277 449.529C742.277 449.611 742.308 449.684 742.37 449.745C742.432 449.8 742.504 449.828 742.587 449.828L742.875 449.818C742.951 449.818 743.009 449.845 743.051 449.9C743.092 449.955 743.113 450.024 743.113 450.106ZM739.791 449.838C740.087 449.838 740.335 449.807 740.534 449.745C740.733 449.684 740.974 449.57 741.256 449.405C741.284 449.288 741.301 449.133 741.308 448.941C740.929 448.762 740.617 448.673 740.369 448.673C740.087 448.673 739.836 448.724 739.616 448.828C739.396 448.931 739.286 449.113 739.286 449.374C739.286 449.505 739.341 449.615 739.451 449.704C739.561 449.794 739.675 449.838 739.791 449.838ZM743.819 447.033C743.723 447.019 743.644 446.978 743.582 446.909C743.527 446.84 743.499 446.758 743.499 446.662C743.499 446.613 743.51 446.562 743.53 446.507C743.558 446.452 743.596 446.404 743.644 446.362C743.733 446.287 743.853 446.215 744.005 446.146C744.163 446.084 744.276 446.008 744.345 445.919C744.414 445.829 744.448 445.661 744.448 445.413C744.448 445.31 744.441 445.221 744.428 445.145C744.421 445.07 744.417 445.011 744.417 444.97C744.417 444.819 744.472 444.705 744.582 444.63C744.692 444.554 744.819 444.516 744.964 444.516C745.143 444.516 745.263 444.561 745.325 444.65C745.394 444.74 745.428 444.905 745.428 445.145C745.428 445.379 745.418 445.582 745.397 445.754C745.376 445.919 745.332 446.067 745.263 446.197C745.359 446.197 745.517 446.19 745.737 446.177C746.04 446.163 746.25 446.156 746.367 446.156C746.484 446.156 746.587 446.187 746.676 446.249C746.765 446.304 746.81 446.383 746.81 446.486C746.81 446.631 746.779 446.737 746.717 446.806C746.655 446.875 746.566 446.919 746.449 446.94C746.167 447.016 745.768 447.06 745.253 447.074C745.239 447.342 745.232 447.634 745.232 447.951C745.232 448.48 745.263 448.886 745.325 449.168C745.366 449.388 745.435 449.55 745.531 449.653C745.634 449.749 745.786 449.797 745.985 449.797C746.088 449.797 746.171 449.783 746.233 449.756C746.301 449.728 746.339 449.711 746.346 449.704C746.428 449.656 746.504 449.632 746.573 449.632C746.669 449.632 746.738 449.663 746.779 449.725C746.827 449.787 746.851 449.869 746.851 449.972C746.851 450.165 746.748 450.327 746.542 450.457C746.336 450.581 746.071 450.643 745.748 450.643C745.383 450.643 745.074 450.536 744.819 450.323C744.572 450.103 744.424 449.814 744.376 449.457C744.307 449.133 744.273 448.68 744.273 448.095C744.273 447.841 744.287 447.5 744.314 447.074L743.819 447.033ZM747.573 448.24C747.573 447.82 747.666 447.473 747.852 447.198C748.037 446.916 748.295 446.651 748.625 446.404C748.721 446.335 748.883 446.276 749.11 446.228C749.337 446.173 749.536 446.146 749.708 446.146C749.914 446.146 750.131 446.19 750.358 446.28C750.592 446.362 750.781 446.459 750.925 446.569C751.18 446.754 751.355 446.971 751.451 447.218C751.548 447.459 751.596 447.748 751.596 448.085C751.596 448.229 751.513 448.37 751.348 448.508C751.19 448.638 751.018 448.704 750.832 448.704L750.441 448.693C750.241 448.693 749.956 448.7 749.584 448.714L749.368 448.724C749.217 448.738 749.103 448.745 749.027 448.745C748.917 448.745 748.766 448.731 748.574 448.704C748.601 449.027 748.721 449.281 748.935 449.467C749.148 449.646 749.378 449.735 749.626 449.735C750.059 449.735 750.361 449.649 750.533 449.477C750.678 449.374 750.774 449.309 750.822 449.281C750.87 449.254 750.946 449.24 751.049 449.24C751.159 449.24 751.255 449.292 751.338 449.395C751.42 449.498 751.462 449.601 751.462 449.704C751.462 449.821 751.389 449.941 751.245 450.065C751.107 450.182 750.918 450.306 750.678 450.437C750.547 450.492 750.368 450.54 750.141 450.581C749.914 450.622 749.725 450.643 749.574 450.643C749.333 450.643 749.065 450.574 748.77 450.437C748.474 450.292 748.254 450.134 748.109 449.962C747.965 449.79 747.838 449.546 747.728 449.23C747.625 448.913 747.573 448.583 747.573 448.24ZM749.626 447.961C750.114 447.961 750.471 447.944 750.698 447.91C750.685 447.71 750.623 447.549 750.513 447.425C750.403 447.294 750.251 447.184 750.059 447.095C749.997 447.067 749.942 447.047 749.894 447.033C749.846 447.019 749.791 447.012 749.729 447.012C749.413 447.012 749.144 447.098 748.924 447.27C748.711 447.442 748.584 447.662 748.543 447.93C748.886 447.951 749.247 447.961 749.626 447.961Z" fill="#FFF8DC"/>
<rect x="564.859" y="431.445" width="107.255" height="29.0089" rx="5.15713" fill="#F17388"/>
<path d="M601.184 444.252C601.164 444.692 601.154 445.115 601.154 445.52C601.154 445.94 601.181 446.555 601.236 447.367C601.243 447.491 601.257 447.741 601.277 448.12C601.298 448.491 601.308 448.831 601.308 449.141C601.377 449.134 601.449 449.124 601.525 449.11C601.607 449.096 601.669 449.089 601.711 449.089C601.862 449.089 601.982 449.127 602.071 449.203C602.161 449.278 602.206 449.395 602.206 449.553C602.206 449.657 602.164 449.736 602.082 449.791C601.999 449.846 601.855 449.887 601.649 449.914C601.449 449.935 601.157 449.945 600.772 449.945C600.346 449.945 600.026 449.932 599.813 449.904C599.6 449.877 599.452 449.825 599.369 449.749C599.287 449.667 599.245 449.546 599.245 449.388C599.245 449.271 599.283 449.192 599.359 449.151C599.434 449.11 599.541 449.089 599.679 449.089L599.895 449.1L600.236 449.12L600.184 447.903C600.143 447.243 600.122 446.638 600.122 446.088C600.122 445.792 600.132 445.386 600.153 444.871L600.174 444.303C599.94 444.317 599.758 444.324 599.627 444.324C599.476 444.324 599.373 444.297 599.318 444.242C599.269 444.187 599.245 444.073 599.245 443.901C599.245 443.709 599.376 443.585 599.637 443.53C599.906 443.475 600.311 443.447 600.854 443.447C601.274 443.447 601.587 443.461 601.793 443.489C602.006 443.516 602.113 443.578 602.113 443.674C602.113 443.908 602.061 444.063 601.958 444.138C601.862 444.207 601.673 444.242 601.391 444.242L601.184 444.252ZM607.879 449.151C607.913 449.165 607.968 449.182 608.044 449.203C608.12 449.223 608.175 449.244 608.209 449.265C608.243 449.285 608.261 449.316 608.261 449.357C608.267 449.522 608.206 449.66 608.075 449.77C607.951 449.873 607.803 449.925 607.631 449.925C607.363 449.925 607.153 449.852 607.002 449.708C606.851 449.564 606.741 449.344 606.672 449.048C606.645 448.931 606.631 448.769 606.631 448.563C606.631 448.446 606.638 448.257 606.652 447.996C606.665 447.721 606.672 447.501 606.672 447.336C606.672 447.095 606.603 446.885 606.466 446.707C606.335 446.521 606.15 446.428 605.909 446.428C605.764 446.428 605.613 446.473 605.455 446.562C605.297 446.645 605.187 446.748 605.125 446.872C605.022 447.071 604.95 447.288 604.908 447.521C604.833 447.934 604.795 448.364 604.795 448.811C604.795 449.024 604.798 449.189 604.805 449.306C604.805 449.333 604.805 449.388 604.805 449.471C604.812 449.546 604.805 449.619 604.785 449.687C604.771 449.749 604.743 449.808 604.702 449.863C604.668 449.897 604.613 449.925 604.537 449.945C604.468 449.973 604.403 449.987 604.341 449.987C604.245 449.987 604.125 449.945 603.98 449.863C603.836 449.78 603.753 449.687 603.733 449.584L603.722 449.409C603.722 449.347 603.729 449.275 603.743 449.192C603.825 448.711 603.867 448.292 603.867 447.934C603.867 447.776 603.863 447.652 603.856 447.563L603.846 447.078C603.846 446.913 603.805 446.755 603.722 446.603C603.64 446.445 603.543 446.366 603.433 446.366C603.399 446.366 603.351 446.38 603.289 446.408C603.227 446.428 603.176 446.438 603.134 446.438C603.066 446.438 602.99 446.404 602.907 446.335C602.832 446.267 602.794 446.194 602.794 446.119C602.794 445.974 602.842 445.857 602.938 445.768C603.042 445.686 603.141 445.62 603.237 445.572C603.341 445.524 603.458 445.5 603.588 445.5C603.698 445.5 603.788 445.51 603.856 445.531C603.925 445.551 604.018 445.596 604.135 445.665C604.197 445.699 604.269 445.775 604.351 445.892C604.434 446.009 604.503 446.174 604.558 446.387C604.737 446.057 604.957 445.826 605.218 445.696C605.486 445.558 605.826 445.49 606.239 445.49C606.397 445.49 606.566 445.541 606.744 445.644C606.93 445.747 607.088 445.868 607.219 446.005C607.343 446.157 607.446 446.346 607.528 446.573C607.611 446.793 607.652 446.992 607.652 447.171C607.652 447.274 607.645 447.442 607.631 447.676C607.611 447.862 607.6 448.058 607.6 448.264C607.6 448.745 607.693 449.041 607.879 449.151ZM612.046 443.396C612.177 443.396 612.294 443.43 612.397 443.499C612.507 443.568 612.572 443.688 612.593 443.86C612.675 444.403 612.727 444.946 612.748 445.49C612.775 446.026 612.789 446.634 612.789 447.315C612.789 447.604 612.765 448.13 612.717 448.893C613.019 448.921 613.253 448.935 613.418 448.935C613.535 448.935 613.8 448.917 614.212 448.883C614.453 448.849 614.663 448.831 614.841 448.831C615.006 448.831 615.158 448.849 615.295 448.883C615.433 448.91 615.574 448.959 615.718 449.027C615.863 449.11 615.935 449.237 615.935 449.409C615.935 449.546 615.89 449.67 615.801 449.78C615.718 449.89 615.618 449.945 615.502 449.945C615.419 449.945 615.288 449.932 615.11 449.904C614.786 449.856 614.477 449.832 614.181 449.832C614.085 449.832 613.975 449.839 613.851 449.852C613.734 449.859 613.648 449.863 613.593 449.863C613.428 449.883 613.263 449.894 613.098 449.894C612.761 449.894 612.459 449.877 612.191 449.842C612.053 449.828 611.916 449.777 611.778 449.687C611.641 449.591 611.572 449.454 611.572 449.275C611.572 449.172 611.586 448.907 611.613 448.481C611.661 447.772 611.685 447.233 611.685 446.861C611.685 446.573 611.672 446.27 611.644 445.954C611.617 445.637 611.599 445.438 611.592 445.355C611.531 444.771 611.5 444.29 611.5 443.911C611.5 443.733 611.541 443.602 611.623 443.52C611.713 443.437 611.854 443.396 612.046 443.396ZM620.616 446.634C620.671 446.731 620.716 446.872 620.75 447.057C620.785 447.236 620.802 447.398 620.802 447.542C620.802 447.81 620.743 448.192 620.627 448.687C620.152 449.553 619.451 449.987 618.522 449.987C618.179 449.987 617.828 449.873 617.47 449.646C617.113 449.419 616.865 449.158 616.728 448.862C616.542 448.271 616.449 447.896 616.449 447.738C616.449 447.463 616.508 447.171 616.625 446.861C616.748 446.552 616.903 446.284 617.089 446.057C617.206 445.899 617.415 445.765 617.718 445.655C618.02 445.538 618.296 445.479 618.543 445.479C619.024 445.479 619.434 445.572 619.77 445.758C620.107 445.937 620.389 446.229 620.616 446.634ZM619.719 448.295C619.753 448.206 619.77 447.975 619.77 447.604C619.77 447.405 619.733 447.209 619.657 447.016C619.588 446.824 619.485 446.659 619.348 446.521C619.334 446.507 619.296 446.487 619.234 446.459C619.172 446.425 619.086 446.394 618.976 446.366C618.873 446.332 618.753 446.315 618.615 446.315C618.23 446.315 617.948 446.469 617.769 446.779C617.591 447.088 617.501 447.439 617.501 447.831C617.501 447.9 617.519 448.03 617.553 448.223C617.594 448.415 617.629 448.536 617.656 448.584C617.677 448.632 617.728 448.701 617.811 448.79C617.9 448.873 618.007 448.948 618.13 449.017C618.261 449.079 618.395 449.11 618.533 449.11C618.842 449.11 619.09 449.038 619.275 448.893C619.461 448.742 619.609 448.543 619.719 448.295ZM624.203 447.295C624.223 447.24 624.296 447.04 624.419 446.696C624.55 446.353 624.67 446.091 624.78 445.912C624.959 445.631 625.117 445.49 625.255 445.49C625.447 445.49 625.595 445.527 625.698 445.603C625.801 445.672 625.853 445.771 625.853 445.902C625.853 445.964 625.825 446.05 625.77 446.16C625.722 446.27 625.695 446.335 625.688 446.356C625.413 446.961 625.165 447.611 624.945 448.305L624.729 449.11C624.646 449.371 624.505 449.584 624.306 449.749C624.106 449.907 623.873 449.987 623.604 449.987C623.364 449.987 623.14 449.877 622.934 449.657C622.81 449.464 622.68 449.22 622.542 448.924C622.411 448.629 622.298 448.34 622.202 448.058L621.841 446.975C621.765 446.762 621.703 446.579 621.655 446.428C621.614 446.277 621.593 446.139 621.593 446.016C621.586 445.871 621.628 445.754 621.717 445.665C621.806 445.576 621.93 445.531 622.088 445.531C622.267 445.531 622.394 445.569 622.47 445.644C622.546 445.713 622.614 445.823 622.676 445.974C622.704 446.132 622.779 446.456 622.903 446.944L622.975 447.233C623.037 447.466 623.116 447.704 623.213 447.944C623.309 448.185 623.405 448.415 623.501 448.635C623.488 448.601 623.536 448.714 623.646 448.976C623.714 448.776 623.794 448.532 623.883 448.243L624.203 447.295ZM626.481 447.583C626.481 447.164 626.574 446.817 626.759 446.542C626.945 446.26 627.203 445.995 627.533 445.747C627.629 445.679 627.791 445.62 628.018 445.572C628.245 445.517 628.444 445.49 628.616 445.49C628.822 445.49 629.039 445.534 629.266 445.624C629.5 445.706 629.689 445.802 629.833 445.912C630.088 446.098 630.263 446.315 630.359 446.562C630.455 446.803 630.504 447.092 630.504 447.429C630.504 447.573 630.421 447.714 630.256 447.852C630.098 447.982 629.926 448.047 629.74 448.047L629.348 448.037C629.149 448.037 628.864 448.044 628.492 448.058L628.276 448.068C628.124 448.082 628.011 448.089 627.935 448.089C627.825 448.089 627.674 448.075 627.481 448.047C627.509 448.371 627.629 448.625 627.842 448.811C628.056 448.99 628.286 449.079 628.534 449.079C628.967 449.079 629.269 448.993 629.441 448.821C629.586 448.718 629.682 448.653 629.73 448.625C629.778 448.598 629.854 448.584 629.957 448.584C630.067 448.584 630.163 448.635 630.246 448.739C630.328 448.842 630.369 448.945 630.369 449.048C630.369 449.165 630.297 449.285 630.153 449.409C630.015 449.526 629.826 449.65 629.586 449.78C629.455 449.835 629.276 449.883 629.049 449.925C628.822 449.966 628.633 449.987 628.482 449.987C628.241 449.987 627.973 449.918 627.677 449.78C627.382 449.636 627.162 449.478 627.017 449.306C626.873 449.134 626.746 448.89 626.636 448.574C626.533 448.257 626.481 447.927 626.481 447.583ZM628.534 447.305C629.022 447.305 629.379 447.288 629.606 447.253C629.592 447.054 629.531 446.892 629.421 446.769C629.311 446.638 629.159 446.528 628.967 446.438C628.905 446.411 628.85 446.39 628.802 446.377C628.754 446.363 628.699 446.356 628.637 446.356C628.32 446.356 628.052 446.442 627.832 446.614C627.619 446.786 627.492 447.006 627.451 447.274C627.794 447.295 628.155 447.305 628.534 447.305Z" fill="#FFF8DC"/>
<path d="M665.945 448.058C665.859 448.058 665.776 448.042 665.696 448.01C665.615 447.978 665.548 447.935 665.494 447.881L662.529 444.916C662.411 444.798 662.352 444.647 662.352 444.464C662.352 444.282 662.411 444.131 662.529 444.013C662.647 443.895 662.797 443.836 662.98 443.836C663.163 443.836 663.313 443.895 663.431 444.013L665.945 446.527L668.46 444.013C668.578 443.895 668.728 443.836 668.911 443.836C669.093 443.836 669.244 443.895 669.362 444.013C669.48 444.131 669.539 444.282 669.539 444.464C669.539 444.647 669.48 444.798 669.362 444.916L666.397 447.881C666.332 447.946 666.262 447.991 666.187 448.018C666.112 448.045 666.031 448.058 665.945 448.058Z" fill="#FFF8DC"/>
</g>
<rect x="323.613" y="246.434" width="475.745" height="230.782" stroke="black" stroke-width="1.28928"/>
<path d="M20.2341 189.062C20.2341 190.728 21.5844 192.078 23.25 192.078C24.9156 192.078 26.2659 190.728 26.2659 189.063C26.2659 187.397 24.9156 186.047 23.25 186.047C21.5844 186.047 20.2341 187.397 20.2341 189.062ZM59.347 189.063L53.6923 185.798L53.6922 192.328L59.347 189.063ZM23.25 189.628L54.2577 189.628L54.2577 188.498L23.25 188.497L23.25 189.628Z" fill="#F09D20"/>
<path d="M20.1951 394.062C20.1951 395.728 21.5453 397.078 23.2109 397.078C24.8765 397.078 26.2268 395.728 26.2268 394.063C26.2268 392.397 24.8766 391.047 23.211 391.047C21.5453 391.047 20.1951 392.397 20.1951 394.062ZM59.3079 394.063L53.6532 390.798L53.6532 397.328L59.3079 394.063ZM23.2109 394.628L54.2187 394.628L54.2187 393.498L23.2109 393.497L23.2109 394.628Z" fill="#F09D20"/>
<path d="M20.1951 443.055C20.1951 444.72 21.5453 446.071 23.2109 446.071C24.8766 446.071 26.2268 444.72 26.2268 443.055C26.2268 441.389 24.8766 440.039 23.2109 440.039C21.5453 440.039 20.1951 441.389 20.1951 443.055ZM59.3109 443.055L53.6561 439.79V446.319L59.3109 443.055ZM23.2109 443.62H54.2216V442.489L23.2109 442.489V443.62Z" fill="#F09D20"/>
<path d="M222.398 507.313C224.064 507.313 225.414 505.962 225.414 504.297C225.414 502.631 224.064 501.281 222.398 501.281C220.733 501.281 219.383 502.631 219.383 504.297C219.383 505.962 220.733 507.313 222.398 507.313ZM222.398 468.197L219.134 473.852H225.663L222.398 468.197ZM222.964 504.297V473.286H221.833V504.297H222.964Z" fill="#F09D20"/>
<rect y="180.68" width="18.0952" height="18.0952" rx="9.0476" fill="#17D4D4"/>
<path d="M11.4514 194.804V195.727H6.35461V194.804H8.40005V185.382C8.10944 185.628 7.77412 185.846 7.3941 186.036C7.02525 186.215 6.70111 186.304 6.42168 186.304C6.22049 186.304 6.06401 186.254 5.95223 186.153C5.85164 186.041 5.80134 185.913 5.80134 185.768C5.80134 185.656 5.82928 185.555 5.88517 185.466C6.33226 185.421 6.80729 185.276 7.31027 185.03C7.81325 184.773 8.28828 184.426 8.73537 183.99H9.48983V194.804H11.4514Z" fill="#2E2776"/>
<rect y="385.68" width="18.0952" height="18.0952" rx="9.0476" fill="#17D4D4"/>
<path d="M12.0274 392.344C12.061 393.473 11.6362 394.624 10.7532 395.797C9.87022 396.96 8.56249 398.273 6.83001 399.737H11.9436V400.727H4.9187V400.123C6.36057 398.949 7.51182 397.927 8.37247 397.055C9.2443 396.172 9.88699 395.356 10.3005 394.607C10.7253 393.847 10.9377 393.098 10.9377 392.36C10.9377 391.578 10.7309 390.986 10.3173 390.583C9.91493 390.17 9.3393 389.963 8.59043 389.963C7.79684 389.963 7.18209 390.175 6.74618 390.6C6.31027 391.014 6.0476 391.69 5.95819 392.629C5.63404 392.629 5.4105 392.584 5.28755 392.495C5.1646 392.405 5.10313 392.249 5.10313 392.025C5.10313 391.466 5.23725 390.958 5.50551 390.499C5.78494 390.03 6.18732 389.661 6.71265 389.393C7.24916 389.125 7.87508 388.99 8.59043 388.99C9.62991 388.99 10.4514 389.27 11.055 389.829C11.6586 390.376 11.9827 391.215 12.0274 392.344Z" fill="#2E2776"/>
<rect y="434.672" width="18.0952" height="18.0952" rx="9.0476" fill="#17D4D4"/>
<path d="M10.2335 443.65C10.7812 443.806 11.2394 444.108 11.6083 444.555C11.9883 444.991 12.1783 445.594 12.1783 446.366C12.1783 447.461 11.8207 448.322 11.1053 448.948C10.39 449.562 9.43431 449.87 8.23834 449.87C7.48947 449.87 6.8356 449.775 6.27674 449.585C5.71787 449.395 5.28755 449.154 4.98576 448.864C4.69516 448.573 4.54985 448.277 4.54985 447.975C4.54985 447.763 4.61133 447.595 4.73428 447.472C4.8684 447.338 5.03047 447.271 5.22049 447.271C5.5558 447.785 5.94142 448.187 6.37733 448.478C6.82442 448.758 7.46153 448.897 8.28864 448.897C9.18282 448.897 9.87022 448.674 10.3508 448.227C10.8426 447.779 11.0885 447.165 11.0885 446.382C11.0885 445.633 10.865 445.075 10.4179 444.706C9.97082 444.337 9.37842 444.152 8.64073 444.152L8.10422 444.169C7.85832 444.192 7.66272 444.203 7.51741 444.203C7.36093 444.203 7.21563 444.108 7.0815 443.918C6.94737 443.728 6.88031 443.554 6.88031 443.398C6.88031 443.297 6.91943 443.247 6.99767 443.247H8.48983C9.22753 443.247 9.79757 443.052 10.2 442.66C10.6023 442.269 10.8035 441.688 10.8035 440.917C10.8035 440.28 10.5856 439.793 10.1497 439.458C9.72492 439.123 9.10458 438.955 8.28864 438.955C7.61801 438.955 7.06473 439.106 6.62882 439.408C6.20408 439.698 5.82406 440.151 5.48874 440.766C5.29873 440.766 5.13666 440.71 5.00253 440.598C4.87958 440.486 4.81811 440.324 4.81811 440.112C4.81811 439.81 4.969 439.492 5.27078 439.156C5.58375 438.821 6.00848 438.541 6.54499 438.318C7.0815 438.094 7.67389 437.983 8.32217 437.983C9.38401 437.983 10.2447 438.245 10.9041 438.771C11.5636 439.285 11.8933 440.011 11.8933 440.95C11.8933 441.654 11.7368 442.236 11.4239 442.694C11.1109 443.141 10.7141 443.459 10.2335 443.65Z" fill="#2E2776"/>
<rect x="213.375" y="509.453" width="18.0952" height="18.0952" rx="9.0476" fill="#17D4D4"/>
<path d="M223.471 521.6H218.257V520.996C219.319 519.498 220.101 518.135 220.604 516.905C221.107 515.664 221.415 514.284 221.527 512.764C221.661 512.73 221.789 512.714 221.912 512.714C222.382 512.714 222.616 513.01 222.616 513.602C222.616 514.563 222.326 515.698 221.744 517.006C221.174 518.313 220.498 519.515 219.716 520.61H223.471V516.922H224.544V520.61H226.238V521.6H224.544V524.5H223.471V521.6Z" fill="#2E2776"/>
<defs>
<clipPath id="clip0_571_20998">
<rect x="49.6406" y="0.828125" width="232.071" height="477.035" fill="white"/>
</clipPath>
<clipPath id="clip1_571_20998">
<rect x="322.969" y="245.789" width="477.035" height="232.071" fill="white"/>
</clipPath>
</defs>
</svg>
