<svg width="800" height="447" viewBox="0 0 800 447" fill="none" xmlns="http://www.w3.org/2000/svg">
<path d="M262.359 433.373C263.437 433.373 264.311 432.5 264.311 431.422C264.311 430.344 263.437 429.471 262.359 429.471C261.282 429.471 260.408 430.344 260.408 431.422C260.408 432.5 261.282 433.373 262.359 433.373ZM262.359 408.064L260.247 411.723H264.472L262.359 408.064ZM262.725 431.422V411.357H261.993V431.422H262.725Z" fill="#F09D20"/>
<rect x="256.516" y="434.758" width="11.7081" height="11.7081" rx="5.85405" fill="#17D4D4"/>
<path d="M262.958 442.733H259.584V442.342C260.271 441.373 260.777 440.491 261.103 439.695C261.428 438.892 261.627 437.999 261.7 437.016C261.786 436.994 261.869 436.983 261.949 436.983C262.253 436.983 262.405 437.175 262.405 437.558C262.405 438.18 262.217 438.914 261.841 439.76C261.472 440.606 261.034 441.384 260.528 442.093H262.958V439.706H263.652V442.093H264.748V442.733H263.652V444.609H262.958V442.733Z" fill="#2E2776"/>
<g clip-path="url(#clip0_571_21053)">
<rect x="39.2031" y="339.242" width="293.639" height="30.0313" rx="3.33681" fill="#24C2AF"/>
<path d="M162.01 353.147C161.795 352.991 161.61 352.879 161.455 352.809C161.299 352.734 161.119 352.696 160.914 352.696C160.504 352.696 160.151 352.801 159.855 353.011C159.63 353.177 159.462 353.392 159.352 353.657C159.242 353.922 159.187 354.22 159.187 354.551C159.187 354.866 159.26 355.144 159.405 355.384C159.55 355.619 159.738 355.799 159.968 355.924C160.198 356.05 160.438 356.112 160.689 356.112C160.939 356.112 161.154 356.075 161.334 356C161.52 355.919 161.667 355.817 161.777 355.692C161.948 355.476 162.033 355.191 162.033 354.836C162.033 354.786 161.993 354.751 161.912 354.731C161.832 354.711 161.717 354.701 161.567 354.701L161.027 354.708C160.881 354.708 160.766 354.681 160.681 354.626C160.596 354.571 160.554 354.5 160.554 354.415C160.554 354.295 160.594 354.208 160.674 354.153C160.754 354.093 160.861 354.063 160.997 354.063C161.157 354.063 161.372 354.073 161.642 354.093C161.912 354.113 162.108 354.123 162.228 354.123C162.403 354.123 162.543 354.178 162.648 354.288C162.758 354.398 162.813 354.558 162.813 354.768C162.813 354.963 162.771 355.191 162.686 355.451C162.601 355.712 162.481 355.944 162.325 356.15C162.175 356.35 161.953 356.503 161.657 356.608C161.367 356.708 161.044 356.758 160.689 356.758C160.393 356.758 160.108 356.71 159.833 356.615C159.558 356.52 159.327 356.387 159.142 356.217C158.912 356.002 158.729 355.747 158.594 355.451C158.464 355.151 158.399 354.853 158.399 354.558C158.399 354.128 158.499 353.71 158.699 353.304C158.904 352.894 159.18 352.576 159.525 352.351C159.675 352.251 159.885 352.168 160.156 352.103C160.426 352.038 160.674 352.005 160.899 352.005C161.249 352.005 161.557 352.06 161.822 352.171C162.088 352.276 162.29 352.428 162.431 352.629C162.491 352.719 162.521 352.799 162.521 352.869C162.521 352.949 162.486 353.024 162.416 353.094C162.345 353.164 162.275 353.199 162.205 353.199C162.175 353.199 162.14 353.194 162.1 353.184C162.06 353.174 162.03 353.162 162.01 353.147ZM163.545 355.166C163.545 354.976 163.58 354.786 163.65 354.596C163.72 354.4 163.813 354.223 163.928 354.063C164.043 353.902 164.226 353.772 164.476 353.672C164.726 353.567 164.949 353.514 165.144 353.514C165.344 353.514 165.547 353.542 165.752 353.597C165.962 353.652 166.108 353.737 166.188 353.852C166.373 354.113 166.465 354.368 166.465 354.618C166.465 354.753 166.435 354.868 166.375 354.963C166.32 355.059 166.24 355.161 166.135 355.271C166.05 355.361 165.915 355.421 165.73 355.451C165.55 355.481 165.369 355.496 165.189 355.496C165.074 355.496 164.934 355.486 164.769 355.466C164.604 355.441 164.443 355.411 164.288 355.376C164.298 355.476 164.323 355.574 164.363 355.669C164.403 355.764 164.451 355.837 164.506 355.887C164.606 355.982 164.709 356.042 164.814 356.067C164.924 356.092 165.064 356.105 165.234 356.105C165.414 356.105 165.582 356.075 165.737 356.015C165.862 355.969 165.965 355.947 166.045 355.947C166.14 355.947 166.213 355.977 166.263 356.037C166.313 356.092 166.338 356.165 166.338 356.255C166.338 356.38 166.265 356.483 166.12 356.563C165.975 356.643 165.807 356.703 165.617 356.743C165.432 356.778 165.282 356.795 165.167 356.795C164.931 356.795 164.704 356.753 164.483 356.668C164.263 356.583 164.08 356.463 163.935 356.307C163.815 356.167 163.72 356 163.65 355.804C163.58 355.604 163.545 355.391 163.545 355.166ZM165.182 354.153C165.072 354.153 164.961 354.175 164.851 354.22C164.741 354.26 164.651 354.318 164.581 354.393C164.491 354.488 164.428 354.566 164.393 354.626C164.363 354.681 164.343 354.758 164.333 354.858C164.458 354.898 164.719 354.918 165.114 354.918C165.329 354.918 165.494 354.886 165.61 354.821C165.73 354.756 165.79 354.671 165.79 354.566C165.79 354.46 165.725 354.365 165.595 354.28C165.464 354.195 165.327 354.153 165.182 354.153ZM167.183 354.16C167.113 354.15 167.055 354.12 167.01 354.07C166.97 354.02 166.95 353.96 166.95 353.89C166.95 353.855 166.958 353.817 166.973 353.777C166.993 353.737 167.02 353.702 167.055 353.672C167.12 353.607 167.296 353.574 167.581 353.574C167.621 353.379 167.641 353.182 167.641 352.981C167.641 352.906 167.638 352.841 167.633 352.786C167.628 352.731 167.626 352.689 167.626 352.659C167.626 352.548 167.666 352.466 167.746 352.411C167.831 352.356 167.926 352.328 168.031 352.328C168.161 352.328 168.249 352.361 168.294 352.426C168.344 352.491 168.369 352.611 168.369 352.786C168.369 353.046 168.347 353.302 168.302 353.552C168.382 353.552 168.492 353.547 168.632 353.537C168.822 353.527 168.96 353.522 169.045 353.522C169.13 353.522 169.203 353.544 169.263 353.59C169.328 353.63 169.36 353.687 169.36 353.762C169.36 353.957 169.273 354.073 169.097 354.108C168.912 354.153 168.624 354.18 168.234 354.19C168.219 354.385 168.211 354.598 168.211 354.828C168.211 355.189 168.234 355.484 168.279 355.714C168.309 355.874 168.359 355.992 168.429 356.067C168.504 356.137 168.614 356.172 168.76 356.172C168.845 356.172 168.932 356.15 169.022 356.105C169.082 356.07 169.137 356.052 169.188 356.052C169.258 356.052 169.308 356.075 169.338 356.12C169.373 356.165 169.39 356.225 169.39 356.3C169.39 356.44 169.315 356.558 169.165 356.653C169.015 356.743 168.822 356.788 168.587 356.788C168.442 356.788 168.294 356.753 168.144 356.683C167.999 356.613 167.876 356.525 167.776 356.42C167.761 356.405 167.733 356.347 167.693 356.247C167.653 356.147 167.618 356.04 167.588 355.924C167.538 355.689 167.513 355.359 167.513 354.933C167.513 354.748 167.523 354.5 167.543 354.19L167.183 354.16ZM175.626 356.052C175.701 356.052 175.761 356.085 175.806 356.15C175.856 356.215 175.881 356.285 175.881 356.36C175.881 356.49 175.831 356.59 175.731 356.66C175.636 356.725 175.511 356.758 175.356 356.758C175.126 356.758 174.94 356.718 174.8 356.638C174.66 356.558 174.535 356.407 174.425 356.187C174.39 356.107 174.347 355.977 174.297 355.797C174.252 355.617 174.205 355.474 174.155 355.369C174.11 355.259 174.032 355.166 173.922 355.091C173.817 355.016 173.672 354.976 173.486 354.971L173.321 354.978C173.151 354.988 173.023 354.993 172.938 354.993C172.838 354.993 172.743 354.986 172.653 354.971C172.663 355.632 172.668 356.137 172.668 356.488C172.668 356.578 172.623 356.653 172.533 356.713C172.448 356.773 172.35 356.803 172.24 356.803C172.11 356.803 172.007 356.753 171.932 356.653C171.872 356.533 171.842 356.355 171.842 356.12C171.842 356.04 171.847 355.924 171.857 355.774L171.865 355.444C171.865 355.139 171.877 354.811 171.902 354.46C171.922 354.06 171.932 353.767 171.932 353.582C171.932 353.427 171.917 353.219 171.887 352.959C171.882 352.909 171.875 352.829 171.865 352.719C171.855 352.603 171.85 352.501 171.85 352.411C171.85 352.346 171.877 352.286 171.932 352.231C171.987 352.176 172.042 352.141 172.097 352.125C172.508 352.06 172.913 352.028 173.314 352.028C173.964 352.028 174.497 352.151 174.913 352.396C175.328 352.641 175.536 353.016 175.536 353.522C175.536 353.672 175.496 353.83 175.416 353.995C175.341 354.155 175.246 354.28 175.131 354.37C174.935 354.541 174.725 354.651 174.5 354.701C174.51 354.711 174.565 354.761 174.665 354.851C174.765 354.941 174.833 355.036 174.868 355.136L174.965 355.436C175.051 355.682 175.118 355.852 175.168 355.947C175.218 356.037 175.283 356.082 175.363 356.082C175.438 356.082 175.483 356.077 175.498 356.067C175.518 356.057 175.561 356.052 175.626 356.052ZM172.646 354.333C172.796 354.343 172.901 354.348 172.961 354.348C173.051 354.348 173.176 354.343 173.336 354.333L173.689 354.325C173.844 354.325 174.004 354.29 174.17 354.22C174.335 354.15 174.472 354.052 174.583 353.927C174.693 353.797 174.748 353.652 174.748 353.492C174.748 353.207 174.633 352.999 174.402 352.869C174.172 352.739 173.814 352.674 173.329 352.674C173.144 352.674 172.926 352.699 172.676 352.749C172.686 352.929 172.691 353.059 172.691 353.139C172.691 353.234 172.686 353.377 172.676 353.567L172.668 353.785C172.653 353.995 172.646 354.178 172.646 354.333ZM179.201 356.788C179.031 356.788 178.9 356.763 178.81 356.713C178.72 356.658 178.623 356.558 178.517 356.412C178.387 356.528 178.192 356.62 177.932 356.69C177.677 356.76 177.456 356.795 177.271 356.795C176.966 356.795 176.718 356.713 176.528 356.548C176.343 356.377 176.25 356.13 176.25 355.804C176.25 355.664 176.288 355.537 176.363 355.421C176.443 355.301 176.545 355.196 176.671 355.106C176.811 355.011 176.976 354.936 177.166 354.881C177.361 354.826 177.539 354.798 177.699 354.798C177.969 354.798 178.21 354.823 178.42 354.873V354.866C178.42 354.596 178.352 354.41 178.217 354.31C178.087 354.205 177.877 354.153 177.587 354.153C177.401 354.153 177.241 354.235 177.106 354.4C177.056 354.465 176.951 354.498 176.791 354.498C176.711 354.498 176.651 354.465 176.611 354.4C176.575 354.33 176.558 354.26 176.558 354.19C176.558 354.045 176.618 353.92 176.738 353.815C176.863 353.71 177.013 353.632 177.189 353.582C177.364 353.527 177.526 353.499 177.677 353.499C177.822 353.499 177.994 353.529 178.195 353.59C178.395 353.65 178.558 353.73 178.683 353.83C178.833 353.96 178.948 354.113 179.028 354.288C179.113 354.458 179.156 354.646 179.156 354.851C179.156 354.916 179.151 355.013 179.141 355.144C179.131 355.294 179.126 355.416 179.126 355.512C179.126 355.557 179.121 355.614 179.111 355.684C179.101 355.774 179.096 355.849 179.096 355.909C179.096 355.974 179.116 356.037 179.156 356.097C179.196 356.157 179.251 356.207 179.321 356.247C179.386 356.282 179.428 356.32 179.448 356.36C179.468 356.4 179.479 356.445 179.479 356.495C179.479 356.545 179.446 356.608 179.381 356.683C179.321 356.753 179.261 356.788 179.201 356.788ZM177.699 355.354C177.504 355.354 177.331 355.391 177.181 355.466C177.031 355.542 176.956 355.674 176.956 355.864C176.956 355.959 176.988 356.04 177.053 356.105C177.124 356.17 177.199 356.202 177.279 356.202C177.494 356.202 177.674 356.18 177.819 356.135C177.964 356.09 178.14 356.007 178.345 355.887C178.37 355.807 178.385 355.694 178.39 355.549C178.39 355.494 178.392 355.451 178.397 355.421C178.127 355.376 177.894 355.354 177.699 355.354ZM179.983 354.115C179.943 354.085 179.91 354.055 179.885 354.025C179.86 353.99 179.848 353.93 179.848 353.845C179.848 353.75 179.88 353.677 179.945 353.627C180.015 353.572 180.096 353.544 180.186 353.544C180.361 353.544 180.511 353.59 180.636 353.68C180.766 353.77 180.861 353.895 180.921 354.055C181.032 353.85 181.172 353.71 181.342 353.635C181.512 353.554 181.747 353.514 182.048 353.514C182.168 353.514 182.29 353.552 182.415 353.627C182.546 353.697 182.663 353.785 182.768 353.89C182.853 354 182.926 354.138 182.986 354.303C183.046 354.463 183.076 354.608 183.076 354.738C183.076 354.813 183.071 354.936 183.061 355.106C183.051 355.286 183.046 355.429 183.046 355.534C183.046 355.884 183.114 356.1 183.249 356.18C183.269 356.19 183.306 356.202 183.361 356.217C183.417 356.232 183.457 356.247 183.482 356.262C183.512 356.277 183.527 356.3 183.527 356.33C183.532 356.45 183.487 356.55 183.391 356.63C183.301 356.705 183.191 356.743 183.061 356.743C182.866 356.743 182.713 356.69 182.603 356.585C182.493 356.48 182.415 356.32 182.37 356.105C182.345 356.025 182.333 355.907 182.333 355.752C182.333 355.667 182.338 355.529 182.348 355.339C182.363 355.189 182.37 355.029 182.37 354.858C182.37 354.683 182.32 354.53 182.22 354.4C182.12 354.265 181.983 354.198 181.807 354.198C181.702 354.198 181.592 354.23 181.477 354.295C181.362 354.355 181.282 354.43 181.237 354.52C181.162 354.676 181.112 354.833 181.087 354.993C181.027 355.304 180.996 355.602 180.996 355.887C180.996 355.957 181.001 356.092 181.012 356.292C181.012 356.307 181.012 356.345 181.012 356.405C181.012 356.46 181.004 356.513 180.989 356.563C180.979 356.613 180.959 356.658 180.929 356.698C180.909 356.718 180.871 356.738 180.816 356.758C180.761 356.778 180.714 356.788 180.674 356.788C180.604 356.788 180.516 356.758 180.411 356.698C180.306 356.638 180.243 356.57 180.223 356.495L180.216 356.39C180.216 356.35 180.221 356.29 180.231 356.21C180.291 355.859 180.321 355.554 180.321 355.294C180.321 355.179 180.318 355.091 180.313 355.031L180.306 354.686C180.306 354.581 180.276 354.48 180.216 354.385C180.156 354.285 180.078 354.195 179.983 354.115ZM187.042 352.058C187.042 352.108 187.034 352.171 187.019 352.246C187.014 352.276 187.009 352.308 187.004 352.343C186.999 352.378 186.994 352.421 186.989 352.471C186.944 352.921 186.922 353.479 186.922 354.145C186.922 354.776 186.949 355.244 187.004 355.549C187.059 355.854 187.144 356.037 187.26 356.097L187.402 356.157C187.477 356.182 187.532 356.21 187.567 356.24C187.607 356.27 187.627 356.32 187.627 356.39C187.627 356.49 187.575 356.578 187.47 356.653C187.365 356.723 187.25 356.758 187.124 356.758C186.994 356.758 186.867 356.705 186.741 356.6C186.616 356.49 186.514 356.352 186.434 356.187C186.349 356.367 186.198 356.513 185.983 356.623C185.768 356.728 185.563 356.78 185.368 356.78C185.192 356.78 185.04 356.758 184.91 356.713C184.779 356.663 184.644 356.588 184.504 356.488C184.334 356.367 184.204 356.215 184.114 356.03C184.029 355.844 183.986 355.642 183.986 355.421C183.986 355.201 184.029 354.968 184.114 354.723C184.199 354.473 184.296 354.268 184.407 354.108C184.537 353.922 184.709 353.785 184.925 353.695C185.14 353.6 185.363 353.552 185.593 353.552C185.723 353.552 185.836 353.577 185.931 353.627C186.026 353.672 186.123 353.737 186.223 353.822C186.223 353.572 186.218 353.362 186.208 353.192C186.203 353.147 186.201 353.094 186.201 353.034C186.201 352.603 186.236 352.263 186.306 352.013C186.361 351.803 186.494 351.698 186.704 351.698C186.819 351.698 186.904 351.723 186.959 351.773C187.014 351.823 187.042 351.918 187.042 352.058ZM184.714 355.406C184.714 355.662 184.797 355.857 184.962 355.992C185.037 356.062 185.1 356.11 185.15 356.135C185.2 356.16 185.262 356.172 185.338 356.172C185.483 356.172 185.62 356.132 185.75 356.052C185.886 355.967 185.991 355.857 186.066 355.722C186.146 355.587 186.186 355.441 186.186 355.286L186.178 354.543C186.073 354.423 185.976 354.34 185.886 354.295C185.801 354.245 185.71 354.22 185.615 354.22C185.295 354.22 185.075 354.343 184.955 354.588C184.89 354.703 184.832 354.833 184.782 354.978C184.737 355.124 184.714 355.266 184.714 355.406ZM191.088 354.348C191.128 354.418 191.161 354.52 191.186 354.656C191.211 354.786 191.223 354.903 191.223 355.008C191.223 355.149 191.201 355.324 191.156 355.534C191.111 355.739 191.073 355.877 191.043 355.947C190.773 356.508 190.252 356.788 189.481 356.788C189.236 356.788 188.996 356.708 188.761 356.548C188.525 356.382 188.358 356.19 188.258 355.969L188.205 355.819C188.2 355.799 188.173 355.724 188.123 355.594C188.077 355.459 188.055 355.356 188.055 355.286C188.055 355.081 188.105 354.843 188.205 354.573C188.305 354.303 188.42 354.088 188.55 353.927C188.636 353.812 188.798 353.715 189.038 353.635C189.279 353.549 189.491 353.507 189.677 353.507C190.022 353.507 190.3 353.572 190.51 353.702C190.725 353.832 190.918 354.047 191.088 354.348ZM190.397 355.557C190.417 355.522 190.435 355.459 190.45 355.369C190.465 355.279 190.472 355.174 190.472 355.054C190.472 354.908 190.445 354.766 190.39 354.626C190.34 354.485 190.265 354.365 190.165 354.265C190.16 354.255 190.142 354.24 190.112 354.22C190.082 354.195 190.035 354.173 189.969 354.153C189.904 354.128 189.822 354.115 189.722 354.115C189.526 354.115 189.361 354.173 189.226 354.288C189.091 354.403 188.988 354.546 188.918 354.716C188.853 354.886 188.821 355.054 188.821 355.219C188.821 355.264 188.836 355.356 188.866 355.496C188.896 355.637 188.918 355.727 188.933 355.767C188.973 355.837 189.051 355.919 189.166 356.015C189.281 356.105 189.411 356.15 189.557 356.15C189.782 356.15 189.957 356.097 190.082 355.992C190.212 355.887 190.317 355.742 190.397 355.557ZM196.68 356.495C196.605 356.355 196.557 356.2 196.537 356.03C196.517 355.854 196.507 355.614 196.507 355.309C196.507 355.019 196.467 354.766 196.387 354.551C196.307 354.335 196.142 354.228 195.892 354.228C195.797 354.228 195.702 354.258 195.606 354.318C195.516 354.373 195.449 354.443 195.404 354.528C195.334 354.663 195.286 354.811 195.261 354.971C195.236 355.126 195.224 355.306 195.224 355.512C195.224 355.642 195.231 355.774 195.246 355.909C195.246 355.949 195.249 356.015 195.254 356.105C195.264 356.19 195.269 356.267 195.269 356.337C195.269 356.638 195.163 356.788 194.953 356.788C194.678 356.788 194.533 356.643 194.518 356.352C194.518 356.147 194.52 356.037 194.525 356.022V355.699C194.525 355.519 194.518 355.344 194.503 355.174C194.488 355.003 194.47 354.876 194.45 354.791C194.405 354.626 194.345 354.498 194.27 354.408C194.2 354.318 194.087 354.273 193.932 354.273C193.712 354.273 193.534 354.368 193.399 354.558C193.304 354.708 193.241 354.891 193.211 355.106C193.181 355.381 193.159 355.599 193.144 355.759C193.134 355.914 193.129 356.095 193.129 356.3C193.129 356.445 193.104 356.563 193.054 356.653C193.009 356.743 192.921 356.788 192.791 356.788C192.696 356.788 192.596 356.763 192.491 356.713C192.391 356.658 192.341 356.585 192.341 356.495C192.341 356.4 192.351 356.305 192.371 356.21C192.416 355.924 192.438 355.414 192.438 354.678C192.438 354.558 192.408 354.443 192.348 354.333C192.293 354.218 192.225 354.16 192.145 354.16C192.125 354.16 192.088 354.17 192.033 354.19C191.983 354.21 191.945 354.22 191.92 354.22C191.855 354.22 191.795 354.19 191.74 354.13C191.69 354.07 191.665 354.02 191.665 353.98C191.665 353.855 191.725 353.75 191.845 353.665C191.97 353.574 192.1 353.529 192.235 353.529C192.421 353.529 192.578 353.587 192.708 353.702C192.839 353.817 192.939 353.977 193.009 354.183C193.124 353.982 193.279 353.822 193.474 353.702C193.669 353.577 193.887 353.514 194.127 353.514C194.278 353.514 194.398 353.534 194.488 353.574C194.583 353.61 194.66 353.662 194.72 353.732C194.781 353.797 194.858 353.897 194.953 354.032C195.078 353.872 195.239 353.747 195.434 353.657C195.634 353.567 195.839 353.522 196.049 353.522C196.3 353.522 196.525 353.625 196.725 353.83C196.925 354.03 197.06 354.263 197.131 354.528C197.166 354.663 197.183 354.923 197.183 355.309L197.213 355.744C197.238 356.005 197.323 356.162 197.468 356.217C197.639 356.267 197.724 356.32 197.724 356.375C197.724 356.495 197.694 356.583 197.634 356.638C197.588 356.668 197.526 356.7 197.446 356.735C197.366 356.77 197.303 356.788 197.258 356.788C196.988 356.788 196.795 356.69 196.68 356.495ZM201.488 352.336C201.338 352.336 201.246 352.461 201.21 352.711C201.175 353.051 201.158 353.309 201.158 353.484C201.258 353.494 201.363 353.499 201.473 353.499C201.543 353.499 201.633 353.494 201.744 353.484L201.939 353.477C202.039 353.477 202.114 353.494 202.164 353.529C202.214 353.564 202.239 353.622 202.239 353.702C202.239 353.812 202.202 353.907 202.126 353.987C202.056 354.063 201.974 354.1 201.879 354.1C201.518 354.1 201.276 354.118 201.15 354.153C201.15 354.458 201.165 354.891 201.195 355.451L201.21 355.819L201.241 356.405C201.251 356.55 201.236 356.653 201.195 356.713C201.16 356.768 201.083 356.795 200.963 356.795C200.742 356.795 200.6 356.663 200.535 356.397C200.495 356.202 200.462 355.929 200.437 355.579C200.412 355.229 200.4 354.916 200.4 354.641C200.4 354.495 200.407 354.33 200.422 354.145C200.412 354.14 200.385 354.138 200.34 354.138C200.295 354.138 200.262 354.14 200.242 354.145C200.092 354.155 199.982 354.16 199.912 354.16C199.867 354.16 199.822 354.13 199.776 354.07C199.731 354.005 199.709 353.927 199.709 353.837C199.709 353.787 199.726 353.742 199.761 353.702C199.797 353.657 199.839 353.625 199.889 353.605C199.964 353.564 200.072 353.544 200.212 353.544L200.437 353.552C200.437 352.841 200.517 352.348 200.677 352.073C200.828 351.813 201.075 351.683 201.421 351.683C201.621 351.683 201.804 351.733 201.969 351.833C202.039 351.878 202.091 351.933 202.126 351.998C202.166 352.063 202.186 352.125 202.186 352.186C202.186 352.261 202.156 352.338 202.096 352.418C202.041 352.498 201.956 352.538 201.841 352.538C201.796 352.538 201.739 352.503 201.668 352.433C201.643 352.408 201.616 352.386 201.586 352.366C201.556 352.346 201.523 352.336 201.488 352.336ZM206.188 356.397C206.188 356.508 206.128 356.6 206.008 356.675C205.893 356.75 205.785 356.788 205.685 356.788C205.495 356.788 205.342 356.765 205.227 356.72C205.117 356.67 205.014 356.58 204.919 356.45C204.789 356.565 204.611 356.653 204.386 356.713C204.161 356.768 203.953 356.795 203.763 356.795C203.452 356.795 203.197 356.713 202.997 356.548C202.797 356.377 202.697 356.13 202.697 355.804C202.697 355.664 202.734 355.537 202.809 355.421C202.884 355.301 202.987 355.196 203.117 355.106C203.262 355.011 203.427 354.938 203.613 354.888C203.798 354.833 203.991 354.806 204.191 354.806C204.296 354.806 204.421 354.826 204.566 354.866C204.711 354.906 204.824 354.948 204.904 354.993V354.873C204.904 354.603 204.839 354.418 204.709 354.318C204.579 354.213 204.368 354.16 204.078 354.16C203.993 354.16 203.908 354.178 203.823 354.213C203.743 354.248 203.65 354.295 203.545 354.355C203.405 354.43 203.272 354.468 203.147 354.468C203.102 354.468 203.06 354.438 203.02 354.378C202.979 354.313 202.959 354.255 202.959 354.205C202.959 354.06 203.027 353.935 203.162 353.83C203.302 353.725 203.467 353.647 203.658 353.597C203.848 353.542 204.018 353.514 204.168 353.514C204.318 353.514 204.491 353.544 204.686 353.605C204.881 353.66 205.042 353.737 205.167 353.837C205.317 353.967 205.432 354.12 205.512 354.295C205.597 354.465 205.64 354.653 205.64 354.858C205.64 354.923 205.635 355.021 205.625 355.151C205.615 355.291 205.61 355.411 205.61 355.512C205.61 355.557 205.605 355.624 205.595 355.714C205.585 355.824 205.58 355.912 205.58 355.977C205.58 356.037 205.602 356.09 205.647 356.135C205.692 356.175 205.745 356.195 205.805 356.195L206.015 356.187C206.07 356.187 206.113 356.207 206.143 356.247C206.173 356.287 206.188 356.337 206.188 356.397ZM203.77 356.202C203.986 356.202 204.166 356.18 204.311 356.135C204.456 356.09 204.631 356.007 204.836 355.887C204.856 355.802 204.869 355.689 204.874 355.549C204.599 355.419 204.371 355.354 204.191 355.354C203.986 355.354 203.803 355.391 203.643 355.466C203.482 355.542 203.402 355.674 203.402 355.864C203.402 355.959 203.442 356.04 203.523 356.105C203.603 356.17 203.685 356.202 203.77 356.202ZM209.382 354.25C209.382 354.355 209.36 354.435 209.315 354.49C209.275 354.546 209.207 354.573 209.112 354.573C209.042 354.573 208.982 354.556 208.932 354.52C208.887 354.485 208.827 354.425 208.752 354.34C208.692 354.275 208.621 354.223 208.541 354.183C208.466 354.143 208.399 354.123 208.339 354.123C208.033 354.123 207.813 354.188 207.678 354.318C207.593 354.408 207.523 354.528 207.468 354.678C207.413 354.823 207.385 354.973 207.385 355.129C207.385 355.354 207.418 355.534 207.483 355.669C207.548 355.804 207.663 355.919 207.828 356.015C207.888 356.05 207.973 356.08 208.083 356.105C208.194 356.125 208.284 356.135 208.354 356.135C208.449 356.135 208.549 356.11 208.654 356.06C208.759 356.005 208.849 355.934 208.924 355.849C209.019 355.739 209.135 355.684 209.27 355.684C209.325 355.684 209.387 355.712 209.457 355.767C209.532 355.822 209.57 355.887 209.57 355.962C209.57 356.112 209.497 356.252 209.352 356.382C209.212 356.508 209.039 356.608 208.834 356.683C208.629 356.753 208.439 356.788 208.264 356.788C207.968 356.788 207.693 356.72 207.438 356.585C207.187 356.45 206.987 356.265 206.837 356.03C206.687 355.789 206.612 355.519 206.612 355.219C206.612 354.958 206.659 354.706 206.755 354.46C206.855 354.215 206.987 354.015 207.152 353.86C207.288 353.735 207.455 353.642 207.655 353.582C207.856 353.522 208.066 353.492 208.286 353.492C208.441 353.492 208.601 353.522 208.767 353.582C208.932 353.642 209.064 353.722 209.165 353.822C209.31 353.967 209.382 354.11 209.382 354.25ZM210.131 355.039C210.131 354.733 210.199 354.48 210.334 354.28C210.469 354.075 210.657 353.882 210.897 353.702C210.967 353.652 211.085 353.61 211.25 353.574C211.415 353.534 211.56 353.514 211.685 353.514C211.835 353.514 211.993 353.547 212.158 353.612C212.328 353.672 212.466 353.742 212.571 353.822C212.756 353.957 212.884 354.115 212.954 354.295C213.024 354.47 213.059 354.681 213.059 354.926C213.059 355.031 212.999 355.134 212.879 355.234C212.764 355.329 212.639 355.376 212.504 355.376L212.218 355.369C212.073 355.369 211.865 355.374 211.595 355.384L211.438 355.391C211.327 355.401 211.245 355.406 211.19 355.406C211.11 355.406 211 355.396 210.859 355.376C210.879 355.612 210.967 355.797 211.122 355.932C211.277 356.062 211.445 356.127 211.625 356.127C211.941 356.127 212.161 356.065 212.286 355.939C212.391 355.864 212.461 355.817 212.496 355.797C212.531 355.777 212.586 355.767 212.661 355.767C212.741 355.767 212.811 355.804 212.872 355.879C212.932 355.954 212.962 356.03 212.962 356.105C212.962 356.19 212.909 356.277 212.804 356.367C212.704 356.452 212.566 356.543 212.391 356.638C212.296 356.678 212.166 356.713 212.001 356.743C211.835 356.773 211.698 356.788 211.588 356.788C211.413 356.788 211.217 356.738 211.002 356.638C210.787 356.533 210.627 356.417 210.522 356.292C210.416 356.167 210.324 355.99 210.244 355.759C210.169 355.529 210.131 355.289 210.131 355.039ZM211.625 354.836C211.981 354.836 212.241 354.823 212.406 354.798C212.396 354.653 212.351 354.535 212.271 354.445C212.191 354.35 212.081 354.27 211.941 354.205C211.896 354.185 211.855 354.17 211.82 354.16C211.785 354.15 211.745 354.145 211.7 354.145C211.47 354.145 211.275 354.208 211.115 354.333C210.96 354.458 210.867 354.618 210.837 354.813C211.087 354.828 211.35 354.836 211.625 354.836Z" fill="#2F4F4F"/>
<rect x="39.2031" y="375.945" width="143.436" height="31.024" rx="3.33681" fill="#F17388"/>
<path d="M95.4212 389.817C95.4062 390.137 95.3987 390.445 95.3987 390.74C95.3987 391.045 95.4187 391.493 95.4587 392.084C95.4637 392.174 95.4738 392.357 95.4888 392.632C95.5038 392.902 95.5113 393.15 95.5113 393.375C95.5613 393.37 95.6139 393.363 95.669 393.353C95.729 393.343 95.7741 393.338 95.8041 393.338C95.9142 393.338 96.0018 393.365 96.0669 393.42C96.1319 393.475 96.1645 393.561 96.1645 393.676C96.1645 393.751 96.1344 393.808 96.0744 393.848C96.0143 393.888 95.9092 393.918 95.759 393.938C95.6139 393.953 95.4012 393.961 95.1209 393.961C94.8106 393.961 94.5778 393.951 94.4227 393.931C94.2675 393.911 94.1599 393.873 94.0998 393.818C94.0398 393.758 94.0097 393.671 94.0097 393.556C94.0097 393.47 94.0373 393.413 94.0923 393.383C94.1474 393.353 94.225 393.338 94.3251 393.338L94.4827 393.345L94.7305 393.36L94.6929 392.474C94.6629 391.994 94.6479 391.553 94.6479 391.153C94.6479 390.938 94.6554 390.642 94.6704 390.267L94.6854 389.854C94.5153 389.864 94.3826 389.869 94.2875 389.869C94.1774 389.869 94.1023 389.849 94.0623 389.809C94.0272 389.769 94.0097 389.686 94.0097 389.561C94.0097 389.421 94.1048 389.331 94.295 389.291C94.4902 389.251 94.7855 389.231 95.1809 389.231C95.4863 389.231 95.714 389.241 95.8642 389.261C96.0193 389.281 96.0969 389.326 96.0969 389.396C96.0969 389.566 96.0594 389.679 95.9843 389.734C95.9142 389.784 95.7766 389.809 95.5714 389.809L95.4212 389.817ZM100.294 393.383C100.319 393.393 100.359 393.405 100.414 393.42C100.469 393.435 100.509 393.45 100.534 393.465C100.559 393.48 100.572 393.503 100.572 393.533C100.577 393.653 100.532 393.753 100.437 393.833C100.347 393.908 100.239 393.946 100.114 393.946C99.9187 393.946 99.7661 393.893 99.656 393.788C99.5458 393.683 99.4658 393.523 99.4157 393.308C99.3957 393.223 99.3857 393.105 99.3857 392.955C99.3857 392.87 99.3907 392.732 99.4007 392.542C99.4107 392.342 99.4157 392.182 99.4157 392.061C99.4157 391.886 99.3657 391.734 99.2656 391.603C99.1705 391.468 99.0353 391.401 98.8601 391.401C98.755 391.401 98.6449 391.433 98.5298 391.498C98.4147 391.558 98.3346 391.634 98.2895 391.724C98.2145 391.869 98.1619 392.026 98.1319 392.197C98.0768 392.497 98.0493 392.81 98.0493 393.135C98.0493 393.29 98.0518 393.41 98.0568 393.495C98.0568 393.515 98.0568 393.556 98.0568 393.616C98.0618 393.671 98.0568 393.723 98.0418 393.773C98.0318 393.818 98.0117 393.861 97.9817 393.901C97.9567 393.926 97.9166 393.946 97.8616 393.961C97.8115 393.981 97.764 393.991 97.7189 393.991C97.6489 393.991 97.5613 393.961 97.4562 393.901C97.3511 393.841 97.291 393.773 97.276 393.698L97.2685 393.571C97.2685 393.525 97.2735 393.473 97.2835 393.413C97.3436 393.063 97.3736 392.757 97.3736 392.497C97.3736 392.382 97.3711 392.292 97.3661 392.227L97.3586 391.874C97.3586 391.754 97.3285 391.639 97.2685 391.528C97.2084 391.413 97.1383 391.356 97.0583 391.356C97.0332 391.356 96.9982 391.366 96.9531 391.386C96.9081 391.401 96.8706 391.408 96.8405 391.408C96.7905 391.408 96.7354 391.383 96.6754 391.333C96.6203 391.283 96.5928 391.231 96.5928 391.176C96.5928 391.07 96.6278 390.985 96.6979 390.92C96.773 390.86 96.8455 390.813 96.9156 390.778C96.9907 390.743 97.0758 390.725 97.1709 390.725C97.251 390.725 97.316 390.733 97.3661 390.748C97.4161 390.763 97.4837 390.795 97.5688 390.845C97.6138 390.87 97.6664 390.925 97.7265 391.01C97.7865 391.095 97.8366 391.216 97.8766 391.371C98.0067 391.13 98.1669 390.963 98.3571 390.868C98.5523 390.768 98.8001 390.718 99.1004 390.718C99.2155 390.718 99.3381 390.755 99.4683 390.83C99.6034 390.905 99.7185 390.993 99.8136 391.093C99.9037 391.203 99.9788 391.341 100.039 391.506C100.099 391.666 100.129 391.811 100.129 391.941C100.129 392.016 100.124 392.139 100.114 392.309C100.099 392.444 100.091 392.587 100.091 392.737C100.091 393.088 100.159 393.303 100.294 393.383ZM103.328 389.193C103.423 389.193 103.508 389.218 103.583 389.269C103.663 389.319 103.71 389.406 103.725 389.531C103.786 389.927 103.823 390.322 103.838 390.718C103.858 391.108 103.868 391.551 103.868 392.046C103.868 392.257 103.851 392.64 103.816 393.195C104.036 393.215 104.206 393.225 104.326 393.225C104.411 393.225 104.604 393.213 104.904 393.188C105.079 393.163 105.232 393.15 105.362 393.15C105.482 393.15 105.592 393.163 105.693 393.188C105.793 393.208 105.895 393.243 106 393.293C106.105 393.353 106.158 393.445 106.158 393.571C106.158 393.671 106.125 393.761 106.06 393.841C106 393.921 105.928 393.961 105.843 393.961C105.783 393.961 105.688 393.951 105.557 393.931C105.322 393.896 105.097 393.878 104.882 393.878C104.812 393.878 104.732 393.883 104.641 393.893C104.556 393.898 104.494 393.901 104.454 393.901C104.334 393.916 104.214 393.923 104.093 393.923C103.848 393.923 103.628 393.911 103.433 393.886C103.333 393.876 103.232 393.838 103.132 393.773C103.032 393.703 102.982 393.603 102.982 393.473C102.982 393.398 102.992 393.205 103.012 392.895C103.047 392.379 103.065 391.986 103.065 391.716C103.065 391.506 103.055 391.286 103.035 391.055C103.015 390.825 103.002 390.68 102.997 390.62C102.952 390.195 102.93 389.844 102.93 389.569C102.93 389.439 102.96 389.344 103.02 389.284C103.085 389.224 103.187 389.193 103.328 389.193ZM109.566 391.551C109.606 391.621 109.638 391.724 109.663 391.859C109.688 391.989 109.701 392.107 109.701 392.212C109.701 392.407 109.658 392.685 109.573 393.045C109.228 393.676 108.717 393.991 108.042 393.991C107.791 393.991 107.536 393.908 107.276 393.743C107.016 393.578 106.835 393.388 106.735 393.173C106.6 392.742 106.533 392.469 106.533 392.354C106.533 392.154 106.575 391.941 106.66 391.716C106.75 391.491 106.863 391.296 106.998 391.13C107.083 391.015 107.236 390.918 107.456 390.838C107.676 390.753 107.876 390.71 108.057 390.71C108.407 390.71 108.705 390.778 108.95 390.913C109.195 391.043 109.401 391.256 109.566 391.551ZM108.913 392.76C108.938 392.695 108.95 392.527 108.95 392.257C108.95 392.112 108.923 391.969 108.867 391.829C108.817 391.689 108.742 391.568 108.642 391.468C108.632 391.458 108.605 391.443 108.56 391.423C108.515 391.398 108.452 391.376 108.372 391.356C108.297 391.331 108.209 391.318 108.109 391.318C107.829 391.318 107.624 391.431 107.494 391.656C107.363 391.881 107.298 392.137 107.298 392.422C107.298 392.472 107.311 392.567 107.336 392.707C107.366 392.847 107.391 392.935 107.411 392.97C107.426 393.005 107.464 393.055 107.524 393.12C107.589 393.18 107.666 393.235 107.756 393.285C107.851 393.33 107.949 393.353 108.049 393.353C108.274 393.353 108.455 393.3 108.59 393.195C108.725 393.085 108.832 392.94 108.913 392.76ZM112.176 392.031C112.191 391.991 112.244 391.846 112.334 391.596C112.429 391.346 112.517 391.156 112.597 391.025C112.727 390.82 112.842 390.718 112.942 390.718C113.082 390.718 113.19 390.745 113.265 390.8C113.34 390.85 113.378 390.923 113.378 391.018C113.378 391.063 113.358 391.125 113.317 391.206C113.282 391.286 113.262 391.333 113.257 391.348C113.057 391.789 112.877 392.262 112.717 392.767L112.559 393.353C112.499 393.543 112.397 393.698 112.251 393.818C112.106 393.933 111.936 393.991 111.741 393.991C111.566 393.991 111.403 393.911 111.253 393.751C111.163 393.611 111.068 393.433 110.968 393.218C110.872 393.002 110.79 392.792 110.72 392.587L110.457 391.799C110.402 391.644 110.357 391.511 110.322 391.401C110.292 391.291 110.277 391.191 110.277 391.1C110.272 390.995 110.302 390.91 110.367 390.845C110.432 390.78 110.522 390.748 110.637 390.748C110.767 390.748 110.86 390.775 110.915 390.83C110.97 390.88 111.02 390.96 111.065 391.07C111.085 391.186 111.14 391.421 111.23 391.776L111.283 391.986C111.328 392.157 111.385 392.329 111.456 392.504C111.526 392.68 111.596 392.847 111.666 393.007C111.656 392.982 111.691 393.065 111.771 393.255C111.821 393.11 111.878 392.932 111.944 392.722L112.176 392.031ZM113.835 392.242C113.835 391.936 113.902 391.684 114.037 391.483C114.173 391.278 114.36 391.085 114.601 390.905C114.671 390.855 114.788 390.813 114.953 390.778C115.119 390.738 115.264 390.718 115.389 390.718C115.539 390.718 115.697 390.75 115.862 390.815C116.032 390.875 116.17 390.945 116.275 391.025C116.46 391.161 116.588 391.318 116.658 391.498C116.728 391.674 116.763 391.884 116.763 392.129C116.763 392.234 116.703 392.337 116.583 392.437C116.467 392.532 116.342 392.579 116.207 392.579L115.922 392.572C115.777 392.572 115.569 392.577 115.299 392.587L115.141 392.595C115.031 392.605 114.948 392.61 114.893 392.61C114.813 392.61 114.703 392.6 114.563 392.579C114.583 392.815 114.671 393 114.826 393.135C114.981 393.265 115.149 393.33 115.329 393.33C115.644 393.33 115.864 393.268 115.989 393.143C116.095 393.068 116.165 393.02 116.2 393C116.235 392.98 116.29 392.97 116.365 392.97C116.445 392.97 116.515 393.007 116.575 393.083C116.635 393.158 116.665 393.233 116.665 393.308C116.665 393.393 116.613 393.48 116.507 393.571C116.407 393.656 116.27 393.746 116.095 393.841C115.999 393.881 115.869 393.916 115.704 393.946C115.539 393.976 115.401 393.991 115.291 393.991C115.116 393.991 114.921 393.941 114.706 393.841C114.49 393.736 114.33 393.621 114.225 393.495C114.12 393.37 114.027 393.193 113.947 392.962C113.872 392.732 113.835 392.492 113.835 392.242ZM115.329 392.039C115.684 392.039 115.944 392.026 116.11 392.001C116.1 391.856 116.055 391.739 115.974 391.649C115.894 391.553 115.784 391.473 115.644 391.408C115.599 391.388 115.559 391.373 115.524 391.363C115.489 391.353 115.449 391.348 115.404 391.348C115.174 391.348 114.978 391.411 114.818 391.536C114.663 391.661 114.57 391.821 114.54 392.016C114.791 392.031 115.053 392.039 115.329 392.039Z" fill="#FFF8DC"/>
<path d="M176.974 392.826C176.918 392.826 176.864 392.815 176.812 392.794C176.76 392.774 176.717 392.746 176.682 392.711L174.763 390.792C174.687 390.716 174.648 390.619 174.648 390.5C174.648 390.382 174.687 390.285 174.763 390.208C174.84 390.132 174.937 390.094 175.055 390.094C175.173 390.094 175.271 390.132 175.347 390.208L176.974 391.835L178.6 390.208C178.677 390.132 178.774 390.094 178.892 390.094C179.011 390.094 179.108 390.132 179.184 390.208C179.261 390.285 179.299 390.382 179.299 390.5C179.299 390.619 179.261 390.716 179.184 390.792L177.266 392.711C177.224 392.753 177.179 392.782 177.13 392.799C177.082 392.817 177.029 392.826 176.974 392.826Z" fill="#FFF8DC"/>
<rect x="189.406" y="375.945" width="143.436" height="30.1898" rx="3.33681" fill="#EE7B1D"/>
<path d="M250.454 389.185C250.454 389.33 250.449 389.522 250.439 389.763L250.431 390.251C250.431 390.726 250.466 391.124 250.536 391.444C250.637 391.895 250.787 392.243 250.987 392.488C251.172 392.703 251.4 392.811 251.67 392.811C251.88 392.811 252.068 392.748 252.233 392.623C252.398 392.493 252.526 392.333 252.616 392.143C252.766 391.832 252.841 391.449 252.841 390.994C252.841 390.719 252.824 390.393 252.789 390.018C252.759 389.597 252.744 389.282 252.744 389.072C252.744 388.962 252.809 388.892 252.939 388.862C253.069 388.827 253.204 388.809 253.344 388.809C253.394 388.809 253.452 388.842 253.517 388.907C253.582 388.972 253.615 389.042 253.615 389.117C253.615 389.267 253.607 389.41 253.592 389.545C253.582 389.695 253.577 389.8 253.577 389.86C253.577 390.05 253.587 390.316 253.607 390.656C253.612 390.741 253.617 390.844 253.622 390.964C253.627 391.084 253.63 391.222 253.63 391.377C253.63 391.717 253.547 392.058 253.382 392.398C253.222 392.733 252.997 393.011 252.706 393.231C252.416 393.446 252.088 393.554 251.723 393.554C251.162 393.554 250.724 393.374 250.409 393.014C250.094 392.648 249.878 392.178 249.763 391.602C249.698 391.272 249.656 390.926 249.636 390.566C249.621 390.206 249.613 389.723 249.613 389.117C249.613 389.037 249.651 388.962 249.726 388.892C249.806 388.822 249.891 388.787 249.981 388.787C250.296 388.787 250.454 388.919 250.454 389.185ZM254.674 390.926C254.629 390.926 254.586 390.931 254.546 390.941C254.506 390.946 254.466 390.949 254.426 390.949C254.371 390.949 254.319 390.924 254.269 390.874C254.223 390.824 254.201 390.779 254.201 390.739C254.201 390.609 254.266 390.508 254.396 390.438C254.526 390.363 254.659 390.326 254.794 390.326C254.909 390.326 255.027 390.366 255.147 390.446C255.272 390.521 255.365 390.619 255.425 390.739C255.555 390.583 255.715 390.471 255.905 390.401C256.095 390.331 256.293 390.296 256.498 390.296C256.729 390.296 256.941 390.368 257.136 390.513C257.337 390.659 257.494 390.844 257.609 391.069C257.725 391.289 257.782 391.509 257.782 391.73C257.782 391.945 257.76 392.138 257.715 392.308C257.67 392.473 257.589 392.641 257.474 392.811C257.344 392.991 257.169 393.139 256.949 393.254C256.734 393.369 256.476 393.426 256.175 393.426C256.095 393.426 255.998 393.406 255.883 393.366C255.768 393.321 255.672 393.274 255.597 393.224C255.562 393.564 255.545 393.859 255.545 394.11C255.545 394.26 255.552 394.402 255.567 394.538C255.577 394.698 255.582 394.813 255.582 394.883C255.582 394.993 255.545 395.073 255.47 395.123C255.395 395.178 255.312 395.206 255.222 395.206C255.042 395.206 254.922 395.156 254.862 395.056C254.807 394.961 254.779 394.823 254.779 394.643C254.799 394.212 254.824 393.814 254.854 393.449C254.884 392.998 254.899 392.303 254.899 391.362C254.899 391.272 254.882 391.177 254.847 391.076C254.812 390.976 254.754 390.926 254.674 390.926ZM255.627 392.48C255.652 392.576 255.723 392.656 255.838 392.721C255.958 392.781 256.065 392.811 256.16 392.811C256.446 392.811 256.658 392.733 256.799 392.578C256.904 392.468 256.971 392.36 257.001 392.255C257.036 392.15 257.054 391.982 257.054 391.752C257.054 391.572 257.019 391.422 256.949 391.302C256.879 391.177 256.794 391.087 256.694 391.031C256.593 390.971 256.498 390.941 256.408 390.941C256.203 390.941 256.035 391.004 255.905 391.129C255.78 391.249 255.7 391.414 255.665 391.625C255.64 391.79 255.627 392.075 255.627 392.48ZM261.583 393.502C261.478 393.502 261.378 393.471 261.283 393.411C261.193 393.346 261.113 393.279 261.043 393.209C260.973 393.134 260.925 393.084 260.9 393.059C260.795 393.209 260.642 393.331 260.442 393.426C260.242 393.522 260.049 393.569 259.864 393.569C259.579 393.569 259.326 393.509 259.106 393.389C258.886 393.269 258.715 393.106 258.595 392.901C258.475 392.691 258.415 392.458 258.415 392.203C258.415 391.962 258.443 391.732 258.498 391.512C258.558 391.287 258.638 391.099 258.738 390.949C258.873 390.759 259.053 390.609 259.278 390.498C259.509 390.388 259.736 390.333 259.962 390.333C260.097 390.333 260.224 390.358 260.345 390.408C260.465 390.458 260.57 390.521 260.66 390.596C260.66 390.266 260.657 390.058 260.652 389.973V389.808C260.652 389.337 260.682 388.994 260.742 388.779C260.798 388.569 260.933 388.464 261.148 388.464C261.263 388.464 261.348 388.489 261.403 388.539C261.458 388.589 261.486 388.684 261.486 388.824C261.486 388.874 261.473 389.012 261.448 389.237C261.393 389.798 261.366 390.358 261.366 390.919C261.366 391.389 261.373 391.74 261.388 391.97C261.408 392.195 261.446 392.375 261.501 392.51C261.561 392.646 261.653 392.766 261.779 392.871C261.854 392.931 261.906 392.981 261.936 393.021C261.971 393.061 261.989 393.114 261.989 393.179C261.989 393.259 261.949 393.334 261.869 393.404C261.789 393.469 261.693 393.502 261.583 393.502ZM259.842 392.961C260.107 392.961 260.302 392.878 260.427 392.713C260.557 392.543 260.622 392.328 260.622 392.068L260.615 391.647C260.61 391.567 260.607 391.459 260.607 391.324C260.422 391.104 260.222 390.994 260.007 390.994C259.862 390.994 259.724 391.031 259.594 391.107C259.469 391.182 259.366 391.292 259.286 391.437C259.201 391.602 259.158 391.852 259.158 392.188C259.158 392.418 259.226 392.606 259.361 392.751C259.496 392.891 259.656 392.961 259.842 392.961ZM265.909 393.179C265.909 393.289 265.849 393.381 265.729 393.456C265.614 393.532 265.506 393.569 265.406 393.569C265.216 393.569 265.063 393.547 264.948 393.502C264.838 393.451 264.735 393.361 264.64 393.231C264.51 393.346 264.332 393.434 264.107 393.494C263.882 393.549 263.674 393.577 263.484 393.577C263.174 393.577 262.918 393.494 262.718 393.329C262.518 393.159 262.418 392.911 262.418 392.586C262.418 392.445 262.455 392.318 262.531 392.203C262.606 392.083 262.708 391.977 262.838 391.887C262.983 391.792 263.149 391.72 263.334 391.67C263.519 391.615 263.712 391.587 263.912 391.587C264.017 391.587 264.142 391.607 264.287 391.647C264.432 391.687 264.545 391.73 264.625 391.775V391.655C264.625 391.384 264.56 391.199 264.43 391.099C264.3 390.994 264.09 390.941 263.799 390.941C263.714 390.941 263.629 390.959 263.544 390.994C263.464 391.029 263.371 391.076 263.266 391.137C263.126 391.212 262.993 391.249 262.868 391.249C262.823 391.249 262.781 391.219 262.741 391.159C262.701 391.094 262.681 391.036 262.681 390.986C262.681 390.841 262.748 390.716 262.883 390.611C263.024 390.506 263.189 390.428 263.379 390.378C263.569 390.323 263.739 390.296 263.889 390.296C264.04 390.296 264.212 390.326 264.407 390.386C264.603 390.441 264.763 390.518 264.888 390.619C265.038 390.749 265.153 390.901 265.233 391.076C265.318 391.247 265.361 391.434 265.361 391.64C265.361 391.705 265.356 391.802 265.346 391.932C265.336 392.073 265.331 392.193 265.331 392.293C265.331 392.338 265.326 392.405 265.316 392.495C265.306 392.606 265.301 392.693 265.301 392.758C265.301 392.818 265.323 392.871 265.368 392.916C265.414 392.956 265.466 392.976 265.526 392.976L265.736 392.968C265.791 392.968 265.834 392.988 265.864 393.029C265.894 393.069 265.909 393.119 265.909 393.179ZM263.492 392.983C263.707 392.983 263.887 392.961 264.032 392.916C264.177 392.871 264.352 392.788 264.558 392.668C264.578 392.583 264.59 392.47 264.595 392.33C264.32 392.2 264.092 392.135 263.912 392.135C263.707 392.135 263.524 392.173 263.364 392.248C263.204 392.323 263.124 392.455 263.124 392.646C263.124 392.741 263.164 392.821 263.244 392.886C263.324 392.951 263.406 392.983 263.492 392.983ZM266.423 390.941C266.353 390.931 266.296 390.901 266.251 390.851C266.21 390.801 266.19 390.741 266.19 390.671C266.19 390.636 266.198 390.598 266.213 390.558C266.233 390.518 266.261 390.483 266.296 390.453C266.361 390.398 266.448 390.346 266.558 390.296C266.673 390.251 266.756 390.196 266.806 390.131C266.856 390.065 266.881 389.943 266.881 389.763C266.881 389.688 266.876 389.622 266.866 389.567C266.861 389.512 266.859 389.47 266.859 389.44C266.859 389.33 266.899 389.247 266.979 389.192C267.059 389.137 267.151 389.109 267.257 389.109C267.387 389.109 267.474 389.142 267.519 389.207C267.569 389.272 267.594 389.392 267.594 389.567C267.594 389.738 267.587 389.885 267.572 390.01C267.557 390.131 267.524 390.238 267.474 390.333C267.544 390.333 267.659 390.328 267.82 390.318C268.04 390.308 268.193 390.303 268.278 390.303C268.363 390.303 268.438 390.326 268.503 390.371C268.568 390.411 268.6 390.468 268.6 390.543C268.6 390.649 268.578 390.726 268.533 390.776C268.488 390.826 268.423 390.859 268.338 390.874C268.132 390.929 267.842 390.961 267.467 390.971C267.457 391.167 267.452 391.379 267.452 391.61C267.452 391.995 267.474 392.29 267.519 392.495C267.549 392.656 267.599 392.773 267.669 392.848C267.745 392.918 267.855 392.953 268 392.953C268.075 392.953 268.135 392.943 268.18 392.923C268.23 392.903 268.258 392.891 268.263 392.886C268.323 392.851 268.378 392.833 268.428 392.833C268.498 392.833 268.548 392.856 268.578 392.901C268.613 392.946 268.63 393.006 268.63 393.081C268.63 393.221 268.555 393.339 268.405 393.434C268.255 393.524 268.062 393.569 267.827 393.569C267.562 393.569 267.337 393.492 267.151 393.336C266.971 393.176 266.864 392.966 266.829 392.706C266.779 392.47 266.754 392.14 266.754 391.715C266.754 391.529 266.764 391.282 266.784 390.971L266.423 390.941ZM269.156 391.82C269.156 391.514 269.223 391.262 269.359 391.061C269.494 390.856 269.681 390.664 269.922 390.483C269.992 390.433 270.109 390.391 270.275 390.356C270.44 390.316 270.585 390.296 270.71 390.296C270.86 390.296 271.018 390.328 271.183 390.393C271.353 390.453 271.491 390.523 271.596 390.604C271.781 390.739 271.909 390.896 271.979 391.076C272.049 391.252 272.084 391.462 272.084 391.707C272.084 391.812 272.024 391.915 271.904 392.015C271.789 392.11 271.663 392.158 271.528 392.158L271.243 392.15C271.098 392.15 270.89 392.155 270.62 392.165L270.462 392.173C270.352 392.183 270.27 392.188 270.214 392.188C270.134 392.188 270.024 392.178 269.884 392.158C269.904 392.393 269.992 392.578 270.147 392.713C270.302 392.843 270.47 392.908 270.65 392.908C270.965 392.908 271.185 392.846 271.311 392.721C271.416 392.646 271.486 392.598 271.521 392.578C271.556 392.558 271.611 392.548 271.686 392.548C271.766 392.548 271.836 392.586 271.896 392.661C271.956 392.736 271.986 392.811 271.986 392.886C271.986 392.971 271.934 393.059 271.829 393.149C271.729 393.234 271.591 393.324 271.416 393.419C271.321 393.459 271.19 393.494 271.025 393.524C270.86 393.554 270.722 393.569 270.612 393.569C270.437 393.569 270.242 393.519 270.027 393.419C269.812 393.314 269.651 393.199 269.546 393.074C269.441 392.948 269.349 392.771 269.268 392.541C269.193 392.31 269.156 392.07 269.156 391.82ZM270.65 391.617C271.005 391.617 271.266 391.605 271.431 391.58C271.421 391.434 271.376 391.317 271.296 391.227C271.216 391.132 271.105 391.051 270.965 390.986C270.92 390.966 270.88 390.951 270.845 390.941C270.81 390.931 270.77 390.926 270.725 390.926C270.495 390.926 270.3 390.989 270.139 391.114C269.984 391.239 269.892 391.399 269.862 391.595C270.112 391.61 270.375 391.617 270.65 391.617Z" fill="#FFF8DC"/>
<circle cx="186.023" cy="166.148" r="114.703" fill="#C4C4C4"/>
</g>
<rect x="26.2765" y="0.557726" width="319.499" height="426.277" stroke="black" stroke-width="0.834202"/>
<g clip-path="url(#clip1_571_21053)">
<rect x="386.234" y="356.352" width="400.417" height="30.0313" rx="3.33681" fill="#24C2AF"/>
<path d="M562.432 370.256C562.217 370.101 562.032 369.988 561.876 369.918C561.721 369.843 561.541 369.805 561.336 369.805C560.925 369.805 560.573 369.911 560.277 370.121C560.052 370.286 559.884 370.501 559.774 370.766C559.664 371.032 559.609 371.33 559.609 371.66C559.609 371.975 559.682 372.253 559.827 372.493C559.972 372.729 560.16 372.909 560.39 373.034C560.62 373.159 560.86 373.222 561.111 373.222C561.361 373.222 561.576 373.184 561.756 373.109C561.941 373.029 562.089 372.926 562.199 372.801C562.369 372.586 562.454 372.301 562.454 371.945C562.454 371.895 562.414 371.86 562.334 371.84C562.254 371.82 562.139 371.81 561.989 371.81L561.448 371.818C561.303 371.818 561.188 371.79 561.103 371.735C561.018 371.68 560.975 371.61 560.975 371.525C560.975 371.405 561.015 371.317 561.096 371.262C561.176 371.202 561.283 371.172 561.418 371.172C561.579 371.172 561.794 371.182 562.064 371.202C562.334 371.222 562.53 371.232 562.65 371.232C562.825 371.232 562.965 371.287 563.07 371.397C563.18 371.507 563.235 371.667 563.235 371.878C563.235 372.073 563.193 372.301 563.108 372.561C563.023 372.821 562.902 373.054 562.747 373.259C562.597 373.459 562.374 373.612 562.079 373.717C561.789 373.817 561.466 373.867 561.111 373.867C560.815 373.867 560.53 373.82 560.255 373.725C559.979 373.629 559.749 373.497 559.564 373.327C559.334 373.111 559.151 372.856 559.016 372.561C558.886 372.261 558.821 371.963 558.821 371.667C558.821 371.237 558.921 370.819 559.121 370.414C559.326 370.003 559.602 369.685 559.947 369.46C560.097 369.36 560.307 369.277 560.578 369.212C560.848 369.147 561.096 369.115 561.321 369.115C561.671 369.115 561.979 369.17 562.244 369.28C562.51 369.385 562.712 369.538 562.852 369.738C562.912 369.828 562.942 369.908 562.942 369.978C562.942 370.058 562.907 370.133 562.837 370.203C562.767 370.273 562.697 370.308 562.627 370.308C562.597 370.308 562.562 370.303 562.522 370.293C562.482 370.283 562.452 370.271 562.432 370.256ZM563.967 372.276C563.967 372.085 564.002 371.895 564.072 371.705C564.142 371.51 564.235 371.332 564.35 371.172C564.465 371.012 564.647 370.882 564.898 370.781C565.148 370.676 565.371 370.624 565.566 370.624C565.766 370.624 565.969 370.651 566.174 370.706C566.384 370.761 566.529 370.847 566.61 370.962C566.795 371.222 566.887 371.477 566.887 371.727C566.887 371.863 566.857 371.978 566.797 372.073C566.742 372.168 566.662 372.271 566.557 372.381C566.472 372.471 566.337 372.531 566.152 372.561C565.971 372.591 565.791 372.606 565.611 372.606C565.496 372.606 565.356 372.596 565.191 372.576C565.025 372.551 564.865 372.521 564.71 372.486C564.72 372.586 564.745 372.683 564.785 372.779C564.825 372.874 564.873 372.946 564.928 372.996C565.028 373.091 565.13 373.151 565.236 373.176C565.346 373.201 565.486 373.214 565.656 373.214C565.836 373.214 566.004 373.184 566.159 373.124C566.284 373.079 566.387 373.056 566.467 373.056C566.562 373.056 566.635 373.086 566.685 373.146C566.735 373.201 566.76 373.274 566.76 373.364C566.76 373.489 566.687 373.592 566.542 373.672C566.397 373.752 566.229 373.812 566.039 373.852C565.854 373.887 565.704 373.905 565.588 373.905C565.353 373.905 565.125 373.862 564.905 373.777C564.685 373.692 564.502 373.572 564.357 373.417C564.237 373.277 564.142 373.109 564.072 372.914C564.002 372.713 563.967 372.501 563.967 372.276ZM565.603 371.262C565.493 371.262 565.383 371.284 565.273 371.33C565.163 371.37 565.073 371.427 565.003 371.502C564.913 371.597 564.85 371.675 564.815 371.735C564.785 371.79 564.765 371.868 564.755 371.968C564.88 372.008 565.141 372.028 565.536 372.028C565.751 372.028 565.916 371.995 566.031 371.93C566.152 371.865 566.212 371.78 566.212 371.675C566.212 371.57 566.147 371.475 566.016 371.39C565.886 371.305 565.749 371.262 565.603 371.262ZM567.605 371.269C567.535 371.259 567.477 371.229 567.432 371.179C567.392 371.129 567.372 371.069 567.372 370.999C567.372 370.964 567.38 370.927 567.395 370.887C567.415 370.847 567.442 370.812 567.477 370.781C567.542 370.716 567.717 370.684 568.003 370.684C568.043 370.489 568.063 370.291 568.063 370.091C568.063 370.016 568.06 369.951 568.055 369.896C568.05 369.84 568.048 369.798 568.048 369.768C568.048 369.658 568.088 369.575 568.168 369.52C568.253 369.465 568.348 369.438 568.453 369.438C568.583 369.438 568.671 369.47 568.716 369.535C568.766 369.6 568.791 369.72 568.791 369.896C568.791 370.156 568.769 370.411 568.723 370.661C568.804 370.661 568.914 370.656 569.054 370.646C569.244 370.636 569.382 370.631 569.467 370.631C569.552 370.631 569.624 370.654 569.684 370.699C569.75 370.739 569.782 370.796 569.782 370.872C569.782 371.067 569.694 371.182 569.519 371.217C569.334 371.262 569.046 371.29 568.656 371.3C568.641 371.495 568.633 371.707 568.633 371.938C568.633 372.298 568.656 372.593 568.701 372.824C568.731 372.984 568.781 373.101 568.851 373.176C568.926 373.247 569.036 373.282 569.181 373.282C569.267 373.282 569.354 373.259 569.444 373.214C569.504 373.179 569.559 373.161 569.609 373.161C569.679 373.161 569.73 373.184 569.76 373.229C569.795 373.274 569.812 373.334 569.812 373.409C569.812 373.549 569.737 373.667 569.587 373.762C569.437 373.852 569.244 373.897 569.009 373.897C568.864 373.897 568.716 373.862 568.566 373.792C568.421 373.722 568.298 373.634 568.198 373.529C568.183 373.514 568.155 373.457 568.115 373.357C568.075 373.257 568.04 373.149 568.01 373.034C567.96 372.799 567.935 372.468 567.935 372.043C567.935 371.858 567.945 371.61 567.965 371.3L567.605 371.269ZM576.048 373.161C576.123 373.161 576.183 373.194 576.228 373.259C576.278 373.324 576.303 373.394 576.303 373.469C576.303 373.599 576.253 373.7 576.153 373.77C576.058 373.835 575.933 373.867 575.778 373.867C575.547 373.867 575.362 373.827 575.222 373.747C575.082 373.667 574.957 373.517 574.847 373.297C574.812 373.217 574.769 373.086 574.719 372.906C574.674 372.726 574.627 372.583 574.576 372.478C574.531 372.368 574.454 372.276 574.344 372.2C574.239 372.125 574.093 372.085 573.908 372.08L573.743 372.088C573.573 372.098 573.445 372.103 573.36 372.103C573.26 372.103 573.165 372.095 573.075 372.08C573.085 372.741 573.09 373.247 573.09 373.597C573.09 373.687 573.045 373.762 572.955 373.822C572.87 373.882 572.772 373.912 572.662 373.912C572.532 373.912 572.429 373.862 572.354 373.762C572.294 373.642 572.264 373.464 572.264 373.229C572.264 373.149 572.269 373.034 572.279 372.884L572.287 372.553C572.287 372.248 572.299 371.92 572.324 371.57C572.344 371.169 572.354 370.877 572.354 370.691C572.354 370.536 572.339 370.329 572.309 370.068C572.304 370.018 572.297 369.938 572.287 369.828C572.277 369.713 572.272 369.61 572.272 369.52C572.272 369.455 572.299 369.395 572.354 369.34C572.409 369.285 572.464 369.25 572.519 369.235C572.93 369.17 573.335 369.137 573.736 369.137C574.386 369.137 574.919 369.26 575.335 369.505C575.75 369.75 575.958 370.126 575.958 370.631C575.958 370.781 575.918 370.939 575.838 371.104C575.763 371.264 575.668 371.39 575.552 371.48C575.357 371.65 575.147 371.76 574.922 371.81C574.932 371.82 574.987 371.87 575.087 371.96C575.187 372.05 575.255 372.145 575.29 372.245L575.387 372.546C575.472 372.791 575.54 372.961 575.59 373.056C575.64 373.146 575.705 373.191 575.785 373.191C575.86 373.191 575.905 373.186 575.92 373.176C575.94 373.166 575.983 373.161 576.048 373.161ZM573.067 371.442C573.218 371.452 573.323 371.457 573.383 371.457C573.473 371.457 573.598 371.452 573.758 371.442L574.111 371.435C574.266 371.435 574.426 371.4 574.591 371.33C574.757 371.259 574.894 371.162 575.004 371.037C575.115 370.907 575.17 370.761 575.17 370.601C575.17 370.316 575.054 370.108 574.824 369.978C574.594 369.848 574.236 369.783 573.751 369.783C573.565 369.783 573.348 369.808 573.097 369.858C573.107 370.038 573.112 370.168 573.112 370.248C573.112 370.344 573.107 370.486 573.097 370.676L573.09 370.894C573.075 371.104 573.067 371.287 573.067 371.442ZM579.623 373.897C579.452 373.897 579.322 373.872 579.232 373.822C579.142 373.767 579.044 373.667 578.939 373.522C578.809 373.637 578.614 373.73 578.354 373.8C578.098 373.87 577.878 373.905 577.693 373.905C577.388 373.905 577.14 373.822 576.95 373.657C576.765 373.487 576.672 373.239 576.672 372.914C576.672 372.774 576.71 372.646 576.785 372.531C576.865 372.411 576.967 372.306 577.092 372.215C577.233 372.12 577.398 372.045 577.588 371.99C577.783 371.935 577.961 371.908 578.121 371.908C578.391 371.908 578.632 371.933 578.842 371.983V371.975C578.842 371.705 578.774 371.52 578.639 371.42C578.509 371.315 578.299 371.262 578.008 371.262C577.823 371.262 577.663 371.345 577.528 371.51C577.478 371.575 577.373 371.607 577.213 371.607C577.132 371.607 577.072 371.575 577.032 371.51C576.997 371.44 576.98 371.37 576.98 371.3C576.98 371.154 577.04 371.029 577.16 370.924C577.285 370.819 577.435 370.741 577.61 370.691C577.786 370.636 577.948 370.609 578.098 370.609C578.244 370.609 578.416 370.639 578.617 370.699C578.817 370.759 578.979 370.839 579.105 370.939C579.255 371.069 579.37 371.222 579.45 371.397C579.535 371.567 579.578 371.755 579.578 371.96C579.578 372.025 579.573 372.123 579.563 372.253C579.553 372.403 579.548 372.526 579.548 372.621C579.548 372.666 579.543 372.723 579.532 372.794C579.522 372.884 579.517 372.959 579.517 373.019C579.517 373.084 579.537 373.146 579.578 373.206C579.618 373.267 579.673 373.317 579.743 373.357C579.808 373.392 579.85 373.429 579.87 373.469C579.89 373.509 579.9 373.554 579.9 373.604C579.9 373.654 579.868 373.717 579.803 373.792C579.743 373.862 579.683 373.897 579.623 373.897ZM578.121 372.463C577.926 372.463 577.753 372.501 577.603 372.576C577.453 372.651 577.378 372.784 577.378 372.974C577.378 373.069 577.41 373.149 577.475 373.214C577.545 373.279 577.621 373.312 577.701 373.312C577.916 373.312 578.096 373.289 578.241 373.244C578.386 373.199 578.561 373.116 578.767 372.996C578.792 372.916 578.807 372.804 578.812 372.658C578.812 372.603 578.814 372.561 578.819 372.531C578.549 372.486 578.316 372.463 578.121 372.463ZM580.405 371.224C580.365 371.194 580.332 371.164 580.307 371.134C580.282 371.099 580.27 371.039 580.27 370.954C580.27 370.859 580.302 370.786 580.367 370.736C580.437 370.681 580.517 370.654 580.608 370.654C580.783 370.654 580.933 370.699 581.058 370.789C581.188 370.879 581.283 371.004 581.343 371.164C581.453 370.959 581.594 370.819 581.764 370.744C581.934 370.664 582.169 370.624 582.469 370.624C582.59 370.624 582.712 370.661 582.837 370.736C582.967 370.806 583.085 370.894 583.19 370.999C583.275 371.109 583.348 371.247 583.408 371.412C583.468 371.572 583.498 371.717 583.498 371.848C583.498 371.923 583.493 372.045 583.483 372.215C583.473 372.396 583.468 372.538 583.468 372.643C583.468 372.994 583.536 373.209 583.671 373.289C583.691 373.299 583.728 373.312 583.783 373.327C583.838 373.342 583.878 373.357 583.903 373.372C583.933 373.387 583.948 373.409 583.948 373.439C583.954 373.559 583.908 373.659 583.813 373.74C583.723 373.815 583.613 373.852 583.483 373.852C583.288 373.852 583.135 373.8 583.025 373.695C582.915 373.589 582.837 373.429 582.792 373.214C582.767 373.134 582.755 373.016 582.755 372.861C582.755 372.776 582.76 372.638 582.77 372.448C582.785 372.298 582.792 372.138 582.792 371.968C582.792 371.793 582.742 371.64 582.642 371.51C582.542 371.375 582.404 371.307 582.229 371.307C582.124 371.307 582.014 371.34 581.899 371.405C581.784 371.465 581.704 371.54 581.659 371.63C581.584 371.785 581.533 371.943 581.508 372.103C581.448 372.413 581.418 372.711 581.418 372.996C581.418 373.066 581.423 373.201 581.433 373.402C581.433 373.417 581.433 373.454 581.433 373.514C581.433 373.569 581.426 373.622 581.411 373.672C581.401 373.722 581.381 373.767 581.351 373.807C581.331 373.827 581.293 373.847 581.238 373.867C581.183 373.887 581.136 373.897 581.096 373.897C581.025 373.897 580.938 373.867 580.833 373.807C580.728 373.747 580.665 373.679 580.645 373.604L580.638 373.499C580.638 373.459 580.643 373.399 580.653 373.319C580.713 372.969 580.743 372.663 580.743 372.403C580.743 372.288 580.74 372.2 580.735 372.14L580.728 371.795C580.728 371.69 580.698 371.59 580.638 371.495C580.577 371.395 580.5 371.305 580.405 371.224ZM587.464 369.167C587.464 369.217 587.456 369.28 587.441 369.355C587.436 369.385 587.431 369.418 587.426 369.453C587.421 369.488 587.416 369.53 587.411 369.58C587.366 370.031 587.344 370.589 587.344 371.254C587.344 371.885 587.371 372.353 587.426 372.658C587.481 372.964 587.566 373.146 587.681 373.206L587.824 373.267C587.899 373.292 587.954 373.319 587.989 373.349C588.029 373.379 588.049 373.429 588.049 373.499C588.049 373.599 587.997 373.687 587.892 373.762C587.787 373.832 587.671 373.867 587.546 373.867C587.416 373.867 587.289 373.815 587.163 373.71C587.038 373.599 586.936 373.462 586.856 373.297C586.77 373.477 586.62 373.622 586.405 373.732C586.19 373.837 585.985 373.89 585.789 373.89C585.614 373.89 585.462 373.867 585.331 373.822C585.201 373.772 585.066 373.697 584.926 373.597C584.756 373.477 584.626 373.324 584.536 373.139C584.451 372.954 584.408 372.751 584.408 372.531C584.408 372.311 584.451 372.078 584.536 371.833C584.621 371.582 584.718 371.377 584.828 371.217C584.959 371.032 585.131 370.894 585.346 370.804C585.562 370.709 585.784 370.661 586.015 370.661C586.145 370.661 586.257 370.686 586.353 370.736C586.448 370.781 586.545 370.847 586.645 370.932C586.645 370.681 586.64 370.471 586.63 370.301C586.625 370.256 586.623 370.203 586.623 370.143C586.623 369.713 586.658 369.373 586.728 369.122C586.783 368.912 586.916 368.807 587.126 368.807C587.241 368.807 587.326 368.832 587.381 368.882C587.436 368.932 587.464 369.027 587.464 369.167ZM585.136 372.516C585.136 372.771 585.219 372.966 585.384 373.101C585.459 373.171 585.522 373.219 585.572 373.244C585.622 373.269 585.684 373.282 585.759 373.282C585.905 373.282 586.042 373.242 586.172 373.161C586.307 373.076 586.413 372.966 586.488 372.831C586.568 372.696 586.608 372.551 586.608 372.396L586.6 371.652C586.495 371.532 586.398 371.45 586.307 371.405C586.222 371.355 586.132 371.33 586.037 371.33C585.717 371.33 585.497 371.452 585.377 371.697C585.311 371.813 585.254 371.943 585.204 372.088C585.159 372.233 585.136 372.376 585.136 372.516ZM591.51 371.457C591.55 371.527 591.583 371.63 591.608 371.765C591.633 371.895 591.645 372.013 591.645 372.118C591.645 372.258 591.623 372.433 591.578 372.643C591.533 372.849 591.495 372.986 591.465 373.056C591.195 373.617 590.674 373.897 589.903 373.897C589.658 373.897 589.418 373.817 589.183 373.657C588.947 373.492 588.78 373.299 588.68 373.079L588.627 372.929C588.622 372.909 588.594 372.834 588.544 372.703C588.499 372.568 588.477 372.466 588.477 372.396C588.477 372.19 588.527 371.953 588.627 371.682C588.727 371.412 588.842 371.197 588.972 371.037C589.057 370.922 589.22 370.824 589.46 370.744C589.701 370.659 589.913 370.616 590.099 370.616C590.444 370.616 590.722 370.681 590.932 370.812C591.147 370.942 591.34 371.157 591.51 371.457ZM590.819 372.666C590.839 372.631 590.857 372.568 590.872 372.478C590.887 372.388 590.894 372.283 590.894 372.163C590.894 372.018 590.867 371.875 590.812 371.735C590.762 371.595 590.687 371.475 590.587 371.375C590.582 371.365 590.564 371.35 590.534 371.33C590.504 371.305 590.456 371.282 590.391 371.262C590.326 371.237 590.244 371.224 590.144 371.224C589.948 371.224 589.783 371.282 589.648 371.397C589.513 371.512 589.41 371.655 589.34 371.825C589.275 371.995 589.243 372.163 589.243 372.328C589.243 372.373 589.258 372.466 589.288 372.606C589.318 372.746 589.34 372.836 589.355 372.876C589.395 372.946 589.473 373.029 589.588 373.124C589.703 373.214 589.833 373.259 589.978 373.259C590.204 373.259 590.379 373.206 590.504 373.101C590.634 372.996 590.739 372.851 590.819 372.666ZM597.102 373.604C597.027 373.464 596.979 373.309 596.959 373.139C596.939 372.964 596.929 372.723 596.929 372.418C596.929 372.128 596.889 371.875 596.809 371.66C596.729 371.445 596.564 371.337 596.314 371.337C596.218 371.337 596.123 371.367 596.028 371.427C595.938 371.482 595.871 371.552 595.826 371.637C595.756 371.773 595.708 371.92 595.683 372.08C595.658 372.235 595.645 372.416 595.645 372.621C595.645 372.751 595.653 372.884 595.668 373.019C595.668 373.059 595.67 373.124 595.675 373.214C595.685 373.299 595.69 373.377 595.69 373.447C595.69 373.747 595.585 373.897 595.375 373.897C595.1 373.897 594.955 373.752 594.94 373.462C594.94 373.257 594.942 373.146 594.947 373.131V372.809C594.947 372.628 594.94 372.453 594.925 372.283C594.91 372.113 594.892 371.985 594.872 371.9C594.827 371.735 594.767 371.607 594.692 371.517C594.622 371.427 594.509 371.382 594.354 371.382C594.134 371.382 593.956 371.477 593.821 371.667C593.726 371.818 593.663 372 593.633 372.215C593.603 372.491 593.581 372.708 593.566 372.869C593.556 373.024 593.551 373.204 593.551 373.409C593.551 373.554 593.526 373.672 593.476 373.762C593.431 373.852 593.343 373.897 593.213 373.897C593.118 373.897 593.018 373.872 592.913 373.822C592.812 373.767 592.762 373.695 592.762 373.604C592.762 373.509 592.772 373.414 592.792 373.319C592.837 373.034 592.86 372.523 592.86 371.788C592.86 371.667 592.83 371.552 592.77 371.442C592.715 371.327 592.647 371.269 592.567 371.269C592.547 371.269 592.51 371.279 592.455 371.3C592.405 371.32 592.367 371.33 592.342 371.33C592.277 371.33 592.217 371.3 592.162 371.239C592.112 371.179 592.087 371.129 592.087 371.089C592.087 370.964 592.147 370.859 592.267 370.774C592.392 370.684 592.522 370.639 592.657 370.639C592.842 370.639 593 370.696 593.13 370.812C593.26 370.927 593.361 371.087 593.431 371.292C593.546 371.092 593.701 370.932 593.896 370.812C594.091 370.686 594.309 370.624 594.549 370.624C594.699 370.624 594.82 370.644 594.91 370.684C595.005 370.719 595.082 370.771 595.142 370.842C595.202 370.907 595.28 371.007 595.375 371.142C595.5 370.982 595.66 370.857 595.856 370.766C596.056 370.676 596.261 370.631 596.471 370.631C596.722 370.631 596.947 370.734 597.147 370.939C597.347 371.139 597.482 371.372 597.552 371.637C597.587 371.773 597.605 372.033 597.605 372.418L597.635 372.854C597.66 373.114 597.745 373.272 597.89 373.327C598.06 373.377 598.145 373.429 598.145 373.484C598.145 373.604 598.115 373.692 598.055 373.747C598.01 373.777 597.948 373.81 597.868 373.845C597.788 373.88 597.725 373.897 597.68 373.897C597.41 373.897 597.217 373.8 597.102 373.604ZM601.91 369.445C601.76 369.445 601.667 369.57 601.632 369.82C601.597 370.161 601.58 370.419 601.58 370.594C601.68 370.604 601.785 370.609 601.895 370.609C601.965 370.609 602.055 370.604 602.165 370.594L602.361 370.586C602.461 370.586 602.536 370.604 602.586 370.639C602.636 370.674 602.661 370.731 602.661 370.812C602.661 370.922 602.623 371.017 602.548 371.097C602.478 371.172 602.396 371.209 602.301 371.209C601.94 371.209 601.697 371.227 601.572 371.262C601.572 371.567 601.587 372 601.617 372.561L601.632 372.929L601.662 373.514C601.672 373.659 601.657 373.762 601.617 373.822C601.582 373.877 601.505 373.905 601.385 373.905C601.164 373.905 601.022 373.772 600.957 373.507C600.917 373.312 600.884 373.039 600.859 372.688C600.834 372.338 600.822 372.025 600.822 371.75C600.822 371.605 600.829 371.44 600.844 371.254C600.834 371.249 600.806 371.247 600.761 371.247C600.716 371.247 600.684 371.249 600.664 371.254C600.514 371.264 600.404 371.269 600.333 371.269C600.288 371.269 600.243 371.239 600.198 371.179C600.153 371.114 600.131 371.037 600.131 370.947C600.131 370.897 600.148 370.852 600.183 370.812C600.218 370.766 600.261 370.734 600.311 370.714C600.386 370.674 600.494 370.654 600.634 370.654L600.859 370.661C600.859 369.951 600.939 369.458 601.099 369.182C601.249 368.922 601.497 368.792 601.843 368.792C602.043 368.792 602.225 368.842 602.391 368.942C602.461 368.987 602.513 369.042 602.548 369.107C602.588 369.172 602.608 369.235 602.608 369.295C602.608 369.37 602.578 369.448 602.518 369.528C602.463 369.608 602.378 369.648 602.263 369.648C602.218 369.648 602.16 369.613 602.09 369.543C602.065 369.518 602.038 369.495 602.008 369.475C601.978 369.455 601.945 369.445 601.91 369.445ZM606.61 373.507C606.61 373.617 606.55 373.71 606.429 373.785C606.314 373.86 606.207 373.897 606.107 373.897C605.916 373.897 605.764 373.875 605.649 373.83C605.539 373.78 605.436 373.69 605.341 373.559C605.211 373.674 605.033 373.762 604.808 373.822C604.583 373.877 604.375 373.905 604.185 373.905C603.874 373.905 603.619 373.822 603.419 373.657C603.219 373.487 603.119 373.239 603.119 372.914C603.119 372.774 603.156 372.646 603.231 372.531C603.306 372.411 603.409 372.306 603.539 372.215C603.684 372.12 603.849 372.048 604.035 371.998C604.22 371.943 604.412 371.915 604.613 371.915C604.718 371.915 604.843 371.935 604.988 371.975C605.133 372.015 605.246 372.058 605.326 372.103V371.983C605.326 371.712 605.261 371.527 605.131 371.427C605.001 371.322 604.79 371.269 604.5 371.269C604.415 371.269 604.33 371.287 604.245 371.322C604.165 371.357 604.072 371.405 603.967 371.465C603.827 371.54 603.694 371.577 603.569 371.577C603.524 371.577 603.481 371.547 603.441 371.487C603.401 371.422 603.381 371.365 603.381 371.315C603.381 371.169 603.449 371.044 603.584 370.939C603.724 370.834 603.889 370.756 604.08 370.706C604.27 370.651 604.44 370.624 604.59 370.624C604.74 370.624 604.913 370.654 605.108 370.714C605.303 370.769 605.463 370.847 605.589 370.947C605.739 371.077 605.854 371.229 605.934 371.405C606.019 371.575 606.062 371.762 606.062 371.968C606.062 372.033 606.057 372.13 606.047 372.261C606.037 372.401 606.032 372.521 606.032 372.621C606.032 372.666 606.027 372.734 606.017 372.824C606.007 372.934 606.002 373.021 606.002 373.086C606.002 373.146 606.024 373.199 606.069 373.244C606.114 373.284 606.167 373.304 606.227 373.304L606.437 373.297C606.492 373.297 606.535 373.317 606.565 373.357C606.595 373.397 606.61 373.447 606.61 373.507ZM604.192 373.312C604.407 373.312 604.588 373.289 604.733 373.244C604.878 373.199 605.053 373.116 605.258 372.996C605.278 372.911 605.291 372.799 605.296 372.658C605.021 372.528 604.793 372.463 604.613 372.463C604.407 372.463 604.225 372.501 604.065 372.576C603.904 372.651 603.824 372.784 603.824 372.974C603.824 373.069 603.864 373.149 603.944 373.214C604.024 373.279 604.107 373.312 604.192 373.312ZM609.804 371.36C609.804 371.465 609.782 371.545 609.737 371.6C609.697 371.655 609.629 371.682 609.534 371.682C609.464 371.682 609.404 371.665 609.354 371.63C609.309 371.595 609.249 371.535 609.173 371.45C609.113 371.385 609.043 371.332 608.963 371.292C608.888 371.252 608.821 371.232 608.761 371.232C608.455 371.232 608.235 371.297 608.1 371.427C608.015 371.517 607.945 371.637 607.89 371.788C607.835 371.933 607.807 372.083 607.807 372.238C607.807 372.463 607.84 372.643 607.905 372.779C607.97 372.914 608.085 373.029 608.25 373.124C608.31 373.159 608.395 373.189 608.505 373.214C608.615 373.234 608.705 373.244 608.776 373.244C608.871 373.244 608.971 373.219 609.076 373.169C609.181 373.114 609.271 373.044 609.346 372.959C609.441 372.849 609.556 372.794 609.692 372.794C609.747 372.794 609.809 372.821 609.879 372.876C609.954 372.931 609.992 372.996 609.992 373.071C609.992 373.222 609.919 373.362 609.774 373.492C609.634 373.617 609.461 373.717 609.256 373.792C609.051 373.862 608.861 373.897 608.685 373.897C608.39 373.897 608.115 373.83 607.86 373.695C607.609 373.559 607.409 373.374 607.259 373.139C607.109 372.899 607.034 372.628 607.034 372.328C607.034 372.068 607.081 371.815 607.176 371.57C607.277 371.325 607.409 371.124 607.574 370.969C607.709 370.844 607.877 370.751 608.077 370.691C608.278 370.631 608.488 370.601 608.708 370.601C608.863 370.601 609.023 370.631 609.189 370.691C609.354 370.751 609.486 370.832 609.586 370.932C609.732 371.077 609.804 371.219 609.804 371.36ZM610.553 372.148C610.553 371.843 610.621 371.59 610.756 371.39C610.891 371.184 611.079 370.992 611.319 370.812C611.389 370.761 611.507 370.719 611.672 370.684C611.837 370.644 611.982 370.624 612.107 370.624C612.257 370.624 612.415 370.656 612.58 370.721C612.75 370.781 612.888 370.852 612.993 370.932C613.178 371.067 613.306 371.224 613.376 371.405C613.446 371.58 613.481 371.79 613.481 372.035C613.481 372.14 613.421 372.243 613.301 372.343C613.186 372.438 613.061 372.486 612.926 372.486L612.64 372.478C612.495 372.478 612.287 372.483 612.017 372.493L611.859 372.501C611.749 372.511 611.667 372.516 611.612 372.516C611.532 372.516 611.421 372.506 611.281 372.486C611.301 372.721 611.389 372.906 611.544 373.041C611.699 373.171 611.867 373.237 612.047 373.237C612.362 373.237 612.583 373.174 612.708 373.049C612.813 372.974 612.883 372.926 612.918 372.906C612.953 372.886 613.008 372.876 613.083 372.876C613.163 372.876 613.233 372.914 613.293 372.989C613.353 373.064 613.383 373.139 613.383 373.214C613.383 373.299 613.331 373.387 613.226 373.477C613.126 373.562 612.988 373.652 612.813 373.747C612.718 373.787 612.588 373.822 612.422 373.852C612.257 373.882 612.12 373.897 612.01 373.897C611.834 373.897 611.639 373.847 611.424 373.747C611.209 373.642 611.049 373.527 610.943 373.402C610.838 373.277 610.746 373.099 610.666 372.869C610.591 372.638 610.553 372.398 610.553 372.148ZM612.047 371.945C612.402 371.945 612.663 371.933 612.828 371.908C612.818 371.762 612.773 371.645 612.693 371.555C612.613 371.46 612.503 371.38 612.362 371.315C612.317 371.295 612.277 371.279 612.242 371.269C612.207 371.259 612.167 371.254 612.122 371.254C611.892 371.254 611.697 371.317 611.537 371.442C611.381 371.567 611.289 371.727 611.259 371.923C611.509 371.938 611.772 371.945 612.047 371.945Z" fill="#2F4F4F"/>
<rect x="386.234" y="393.055" width="196.872" height="30.0313" rx="3.33681" fill="#F17388"/>
<path d="M470.477 406.386C470.463 406.671 470.457 406.945 470.457 407.207C470.457 407.479 470.475 407.877 470.51 408.402C470.515 408.482 470.524 408.644 470.537 408.889C470.55 409.129 470.557 409.35 470.557 409.55C470.601 409.545 470.648 409.539 470.697 409.53C470.75 409.521 470.79 409.516 470.817 409.516C470.915 409.516 470.993 409.541 471.051 409.59C471.109 409.639 471.138 409.714 471.138 409.817C471.138 409.883 471.111 409.935 471.057 409.97C471.004 410.006 470.911 410.032 470.777 410.05C470.648 410.064 470.459 410.07 470.21 410.07C469.934 410.07 469.727 410.061 469.589 410.044C469.451 410.026 469.356 409.992 469.302 409.944C469.249 409.89 469.222 409.812 469.222 409.71C469.222 409.634 469.247 409.583 469.296 409.556C469.345 409.53 469.413 409.516 469.502 409.516L469.643 409.523L469.863 409.536L469.829 408.749C469.803 408.322 469.789 407.93 469.789 407.574C469.789 407.383 469.796 407.121 469.809 406.787L469.823 406.42C469.672 406.429 469.554 406.433 469.469 406.433C469.371 406.433 469.304 406.415 469.269 406.38C469.238 406.344 469.222 406.271 469.222 406.16C469.222 406.035 469.307 405.955 469.476 405.919C469.649 405.884 469.912 405.866 470.263 405.866C470.535 405.866 470.737 405.875 470.871 405.893C471.008 405.91 471.077 405.95 471.077 406.013C471.077 406.164 471.044 406.264 470.977 406.313C470.915 406.358 470.793 406.38 470.61 406.38L470.477 406.386ZM474.808 409.556C474.831 409.565 474.866 409.576 474.915 409.59C474.964 409.603 475 409.617 475.022 409.63C475.044 409.643 475.055 409.663 475.055 409.69C475.06 409.797 475.02 409.886 474.935 409.957C474.855 410.024 474.759 410.057 474.648 410.057C474.475 410.057 474.339 410.01 474.241 409.917C474.143 409.823 474.072 409.681 474.028 409.49C474.01 409.414 474.001 409.31 474.001 409.176C474.001 409.1 474.005 408.978 474.014 408.809C474.023 408.631 474.028 408.489 474.028 408.382C474.028 408.226 473.983 408.09 473.894 407.975C473.81 407.855 473.689 407.795 473.534 407.795C473.44 407.795 473.342 407.824 473.24 407.881C473.138 407.935 473.067 408.001 473.026 408.082C472.96 408.211 472.913 408.351 472.886 408.502C472.837 408.769 472.813 409.047 472.813 409.336C472.813 409.474 472.815 409.581 472.82 409.657C472.82 409.674 472.82 409.71 472.82 409.763C472.824 409.812 472.82 409.859 472.806 409.903C472.797 409.944 472.78 409.981 472.753 410.017C472.731 410.039 472.695 410.057 472.646 410.07C472.602 410.088 472.559 410.097 472.519 410.097C472.457 410.097 472.379 410.07 472.286 410.017C472.192 409.964 472.139 409.903 472.126 409.837L472.119 409.723C472.119 409.683 472.123 409.637 472.132 409.583C472.186 409.272 472.212 409 472.212 408.769C472.212 408.667 472.21 408.587 472.206 408.529L472.199 408.215C472.199 408.108 472.172 408.006 472.119 407.908C472.065 407.806 472.003 407.755 471.932 407.755C471.91 407.755 471.879 407.763 471.839 407.781C471.799 407.795 471.765 407.801 471.738 407.801C471.694 407.801 471.645 407.779 471.592 407.735C471.543 407.69 471.518 407.643 471.518 407.594C471.518 407.501 471.549 407.425 471.612 407.367C471.678 407.314 471.743 407.272 471.805 407.241C471.872 407.21 471.948 407.194 472.032 407.194C472.103 407.194 472.161 407.201 472.206 407.214C472.25 407.227 472.31 407.256 472.386 407.301C472.426 407.323 472.473 407.372 472.526 407.448C472.579 407.523 472.624 407.63 472.659 407.768C472.775 407.554 472.917 407.405 473.087 407.321C473.26 407.232 473.48 407.187 473.747 407.187C473.85 407.187 473.959 407.221 474.074 407.287C474.194 407.354 474.297 407.432 474.381 407.521C474.461 407.619 474.528 407.741 474.581 407.888C474.635 408.03 474.661 408.159 474.661 408.275C474.661 408.342 474.657 408.451 474.648 408.602C474.635 408.722 474.628 408.849 474.628 408.983C474.628 409.294 474.688 409.485 474.808 409.556ZM477.505 405.833C477.589 405.833 477.665 405.855 477.732 405.899C477.803 405.944 477.845 406.022 477.858 406.133C477.912 406.484 477.945 406.836 477.959 407.187C477.976 407.534 477.985 407.928 477.985 408.369C477.985 408.555 477.97 408.896 477.939 409.39C478.134 409.407 478.286 409.416 478.392 409.416C478.468 409.416 478.639 409.405 478.906 409.383C479.062 409.361 479.198 409.35 479.313 409.35C479.42 409.35 479.518 409.361 479.607 409.383C479.696 409.401 479.787 409.432 479.881 409.476C479.974 409.53 480.021 409.612 480.021 409.723C480.021 409.812 479.992 409.892 479.934 409.964C479.881 410.035 479.816 410.07 479.74 410.07C479.687 410.07 479.602 410.061 479.487 410.044C479.278 410.012 479.077 409.997 478.886 409.997C478.824 409.997 478.753 410.001 478.673 410.01C478.597 410.015 478.541 410.017 478.506 410.017C478.399 410.03 478.292 410.037 478.185 410.037C477.967 410.037 477.772 410.026 477.598 410.004C477.509 409.995 477.42 409.961 477.331 409.903C477.242 409.841 477.198 409.752 477.198 409.637C477.198 409.57 477.207 409.399 477.224 409.123C477.256 408.664 477.271 408.315 477.271 408.075C477.271 407.888 477.262 407.692 477.244 407.488C477.227 407.283 477.216 407.154 477.211 407.101C477.171 406.722 477.151 406.411 477.151 406.166C477.151 406.051 477.178 405.966 477.231 405.913C477.289 405.859 477.38 405.833 477.505 405.833ZM483.05 407.928C483.085 407.99 483.114 408.082 483.136 408.202C483.159 408.317 483.17 408.422 483.17 408.515C483.17 408.689 483.132 408.936 483.056 409.256C482.749 409.817 482.296 410.097 481.695 410.097C481.473 410.097 481.246 410.024 481.014 409.877C480.783 409.73 480.623 409.561 480.534 409.37C480.414 408.987 480.354 408.744 480.354 408.642C480.354 408.464 480.391 408.275 480.467 408.075C480.547 407.875 480.647 407.701 480.767 407.554C480.843 407.452 480.979 407.365 481.174 407.294C481.37 407.218 481.548 407.181 481.708 407.181C482.02 407.181 482.284 407.241 482.502 407.361C482.72 407.476 482.903 407.666 483.05 407.928ZM482.469 409.003C482.491 408.945 482.502 408.796 482.502 408.555C482.502 408.426 482.478 408.3 482.429 408.175C482.385 408.05 482.318 407.944 482.229 407.855C482.22 407.846 482.195 407.832 482.155 407.815C482.115 407.792 482.06 407.772 481.989 407.755C481.922 407.732 481.844 407.721 481.755 407.721C481.506 407.721 481.323 407.821 481.208 408.022C481.092 408.222 481.034 408.449 481.034 408.702C481.034 408.747 481.045 408.831 481.068 408.956C481.094 409.08 481.117 409.158 481.134 409.189C481.148 409.221 481.181 409.265 481.234 409.323C481.292 409.376 481.361 409.425 481.441 409.47C481.526 409.51 481.613 409.53 481.702 409.53C481.902 409.53 482.062 409.483 482.182 409.39C482.302 409.292 482.398 409.163 482.469 409.003ZM485.37 408.355C485.384 408.32 485.43 408.191 485.51 407.968C485.595 407.746 485.673 407.577 485.744 407.461C485.86 407.279 485.962 407.187 486.051 407.187C486.176 407.187 486.271 407.212 486.338 407.261C486.405 407.305 486.438 407.37 486.438 407.454C486.438 407.494 486.42 407.55 486.385 407.621C486.354 407.692 486.336 407.735 486.331 407.748C486.153 408.139 485.993 408.56 485.851 409.009L485.711 409.53C485.657 409.699 485.566 409.837 485.437 409.944C485.308 410.046 485.157 410.097 484.983 410.097C484.827 410.097 484.683 410.026 484.549 409.883C484.469 409.759 484.385 409.601 484.296 409.41C484.211 409.218 484.138 409.031 484.076 408.849L483.842 408.148C483.793 408.01 483.753 407.892 483.722 407.795C483.695 407.697 483.682 407.608 483.682 407.528C483.677 407.434 483.704 407.359 483.762 407.301C483.82 407.243 483.9 407.214 484.002 407.214C484.118 407.214 484.2 407.238 484.249 407.287C484.298 407.332 484.343 407.403 484.383 407.501C484.4 407.603 484.449 407.812 484.529 408.128L484.576 408.315C484.616 408.466 484.667 408.62 484.73 408.776C484.792 408.931 484.854 409.08 484.916 409.223C484.908 409.201 484.939 409.274 485.01 409.443C485.054 409.314 485.106 409.156 485.163 408.969L485.37 408.355ZM486.844 408.542C486.844 408.271 486.904 408.046 487.025 407.868C487.145 407.686 487.312 407.514 487.525 407.354C487.587 407.31 487.692 407.272 487.839 407.241C487.986 407.205 488.115 407.187 488.226 407.187C488.359 407.187 488.499 407.216 488.646 407.274C488.798 407.327 488.92 407.39 489.013 407.461C489.178 407.581 489.291 407.721 489.354 407.881C489.416 408.037 489.447 408.224 489.447 408.442C489.447 408.535 489.394 408.627 489.287 408.716C489.185 408.8 489.073 408.842 488.953 408.842L488.7 408.836C488.571 408.836 488.386 408.84 488.146 408.849L488.006 408.856C487.908 408.865 487.834 408.869 487.785 408.869C487.714 408.869 487.616 408.86 487.492 408.842C487.51 409.051 487.587 409.216 487.725 409.336C487.863 409.452 488.012 409.51 488.172 409.51C488.453 409.51 488.648 409.454 488.76 409.343C488.853 409.276 488.915 409.234 488.947 409.216C488.978 409.198 489.027 409.189 489.093 409.189C489.165 409.189 489.227 409.223 489.28 409.289C489.334 409.356 489.36 409.423 489.36 409.49C489.36 409.565 489.314 409.643 489.22 409.723C489.131 409.799 489.009 409.879 488.853 409.964C488.769 409.999 488.653 410.03 488.506 410.057C488.359 410.084 488.237 410.097 488.139 410.097C487.983 410.097 487.81 410.053 487.619 409.964C487.427 409.87 487.285 409.768 487.191 409.657C487.098 409.545 487.016 409.387 486.945 409.183C486.878 408.978 486.844 408.765 486.844 408.542ZM488.172 408.362C488.488 408.362 488.72 408.351 488.867 408.328C488.858 408.199 488.818 408.095 488.746 408.015C488.675 407.93 488.577 407.859 488.453 407.801C488.413 407.783 488.377 407.77 488.346 407.761C488.315 407.752 488.279 407.748 488.239 407.748C488.035 407.748 487.861 407.804 487.719 407.915C487.581 408.026 487.498 408.168 487.472 408.342C487.694 408.355 487.928 408.362 488.172 408.362Z" fill="#FFF8DC"/>
<path d="M577.443 409.435C577.387 409.435 577.333 409.425 577.281 409.404C577.229 409.383 577.185 409.355 577.151 409.32L575.232 407.402C575.155 407.325 575.117 407.228 575.117 407.11C575.117 406.992 575.155 406.894 575.232 406.818C575.308 406.741 575.406 406.703 575.524 406.703C575.642 406.703 575.739 406.741 575.816 406.818L577.443 408.445L579.069 406.818C579.146 406.741 579.243 406.703 579.361 406.703C579.479 406.703 579.577 406.741 579.653 406.818C579.73 406.894 579.768 406.992 579.768 407.11C579.768 407.228 579.73 407.325 579.653 407.402L577.734 409.32C577.693 409.362 577.648 409.392 577.599 409.409C577.55 409.426 577.498 409.435 577.443 409.435Z" fill="#FFF8DC"/>
<rect x="589.781" y="393.055" width="196.872" height="30.0313" rx="3.33681" fill="#EE7B1D"/>
<path d="M677.548 406.216C677.548 406.361 677.543 406.554 677.533 406.794L677.525 407.282C677.525 407.757 677.56 408.155 677.63 408.476C677.73 408.926 677.88 409.274 678.081 409.519C678.266 409.734 678.494 409.842 678.764 409.842C678.974 409.842 679.162 409.779 679.327 409.654C679.492 409.524 679.62 409.364 679.71 409.174C679.86 408.864 679.935 408.481 679.935 408.025C679.935 407.75 679.918 407.425 679.883 407.049C679.853 406.629 679.838 406.313 679.838 406.103C679.838 405.993 679.903 405.923 680.033 405.893C680.163 405.858 680.298 405.84 680.438 405.84C680.488 405.84 680.546 405.873 680.611 405.938C680.676 406.003 680.708 406.073 680.708 406.148C680.708 406.298 680.701 406.441 680.686 406.576C680.676 406.726 680.671 406.831 680.671 406.891C680.671 407.082 680.681 407.347 680.701 407.687C680.706 407.772 680.711 407.875 680.716 407.995C680.721 408.115 680.723 408.253 680.723 408.408C680.723 408.748 680.641 409.089 680.476 409.429C680.316 409.764 680.09 410.042 679.8 410.262C679.51 410.478 679.182 410.585 678.816 410.585C678.256 410.585 677.818 410.405 677.503 410.045C677.187 409.679 676.972 409.209 676.857 408.633C676.792 408.303 676.749 407.958 676.729 407.597C676.714 407.237 676.707 406.754 676.707 406.148C676.707 406.068 676.744 405.993 676.819 405.923C676.899 405.853 676.985 405.818 677.075 405.818C677.39 405.818 677.548 405.951 677.548 406.216ZM681.768 407.958C681.723 407.958 681.68 407.963 681.64 407.973C681.6 407.978 681.56 407.98 681.52 407.98C681.465 407.98 681.412 407.955 681.362 407.905C681.317 407.855 681.295 407.81 681.295 407.77C681.295 407.64 681.36 407.54 681.49 407.47C681.62 407.395 681.753 407.357 681.888 407.357C682.003 407.357 682.121 407.397 682.241 407.477C682.366 407.552 682.458 407.65 682.518 407.77C682.649 407.615 682.809 407.502 682.999 407.432C683.189 407.362 683.387 407.327 683.592 407.327C683.822 407.327 684.035 407.4 684.23 407.545C684.43 407.69 684.588 407.875 684.703 408.1C684.818 408.32 684.876 408.541 684.876 408.761C684.876 408.976 684.853 409.169 684.808 409.339C684.763 409.504 684.683 409.672 684.568 409.842C684.438 410.022 684.263 410.17 684.043 410.285C683.827 410.4 683.57 410.458 683.269 410.458C683.189 410.458 683.092 410.438 682.976 410.398C682.861 410.353 682.766 410.305 682.691 410.255C682.656 410.595 682.639 410.891 682.639 411.141C682.639 411.291 682.646 411.434 682.661 411.569C682.671 411.729 682.676 411.844 682.676 411.914C682.676 412.024 682.639 412.104 682.564 412.154C682.488 412.21 682.406 412.237 682.316 412.237C682.136 412.237 682.015 412.187 681.955 412.087C681.9 411.992 681.873 411.854 681.873 411.674C681.893 411.244 681.918 410.846 681.948 410.48C681.978 410.03 681.993 409.334 681.993 408.393C681.993 408.303 681.975 408.208 681.94 408.108C681.905 408.008 681.848 407.958 681.768 407.958ZM682.721 409.512C682.746 409.607 682.816 409.687 682.931 409.752C683.052 409.812 683.159 409.842 683.254 409.842C683.54 409.842 683.752 409.764 683.892 409.609C683.997 409.499 684.065 409.392 684.095 409.286C684.13 409.181 684.148 409.014 684.148 408.783C684.148 408.603 684.113 408.453 684.043 408.333C683.972 408.208 683.887 408.118 683.787 408.063C683.687 408.003 683.592 407.973 683.502 407.973C683.297 407.973 683.129 408.035 682.999 408.16C682.874 408.28 682.794 408.446 682.759 408.656C682.734 408.821 682.721 409.106 682.721 409.512ZM688.677 410.533C688.572 410.533 688.472 410.503 688.377 410.443C688.287 410.378 688.207 410.31 688.137 410.24C688.066 410.165 688.019 410.115 687.994 410.09C687.889 410.24 687.736 410.363 687.536 410.458C687.336 410.553 687.143 410.6 686.958 410.6C686.673 410.6 686.42 410.54 686.2 410.42C685.979 410.3 685.809 410.137 685.689 409.932C685.569 409.722 685.509 409.489 685.509 409.234C685.509 408.994 685.536 408.763 685.591 408.543C685.651 408.318 685.732 408.13 685.832 407.98C685.967 407.79 686.147 407.64 686.372 407.53C686.602 407.42 686.83 407.364 687.055 407.364C687.191 407.364 687.318 407.389 687.438 407.44C687.558 407.49 687.664 407.552 687.754 407.627C687.754 407.297 687.751 407.089 687.746 407.004V406.839C687.746 406.368 687.776 406.026 687.836 405.81C687.891 405.6 688.026 405.495 688.242 405.495C688.357 405.495 688.442 405.52 688.497 405.57C688.552 405.62 688.579 405.715 688.579 405.855C688.579 405.905 688.567 406.043 688.542 406.268C688.487 406.829 688.459 407.389 688.459 407.95C688.459 408.421 688.467 408.771 688.482 409.001C688.502 409.226 688.539 409.407 688.595 409.542C688.655 409.677 688.747 409.797 688.872 409.902C688.947 409.962 689 410.012 689.03 410.052C689.065 410.092 689.083 410.145 689.083 410.21C689.083 410.29 689.042 410.365 688.962 410.435C688.882 410.5 688.787 410.533 688.677 410.533ZM686.935 409.992C687.201 409.992 687.396 409.91 687.521 409.744C687.651 409.574 687.716 409.359 687.716 409.099L687.709 408.678C687.704 408.598 687.701 408.491 687.701 408.356C687.516 408.135 687.316 408.025 687.1 408.025C686.955 408.025 686.818 408.063 686.688 408.138C686.562 408.213 686.46 408.323 686.38 408.468C686.295 408.633 686.252 408.884 686.252 409.219C686.252 409.449 686.32 409.637 686.455 409.782C686.59 409.922 686.75 409.992 686.935 409.992ZM693.003 410.21C693.003 410.32 692.943 410.413 692.823 410.488C692.707 410.563 692.6 410.6 692.5 410.6C692.31 410.6 692.157 410.578 692.042 410.533C691.932 410.483 691.829 410.393 691.734 410.262C691.604 410.378 691.426 410.465 691.201 410.525C690.976 410.58 690.768 410.608 690.578 410.608C690.267 410.608 690.012 410.525 689.812 410.36C689.612 410.19 689.512 409.942 689.512 409.617C689.512 409.477 689.549 409.349 689.624 409.234C689.699 409.114 689.802 409.009 689.932 408.919C690.077 408.823 690.242 408.751 690.428 408.701C690.613 408.646 690.805 408.618 691.006 408.618C691.111 408.618 691.236 408.638 691.381 408.678C691.526 408.718 691.639 408.761 691.719 408.806V408.686C691.719 408.416 691.654 408.23 691.524 408.13C691.394 408.025 691.183 407.973 690.893 407.973C690.808 407.973 690.723 407.99 690.638 408.025C690.558 408.06 690.465 408.108 690.36 408.168C690.22 408.243 690.087 408.28 689.962 408.28C689.917 408.28 689.875 408.25 689.834 408.19C689.794 408.125 689.774 408.068 689.774 408.018C689.774 407.873 689.842 407.747 689.977 407.642C690.117 407.537 690.282 407.46 690.473 407.41C690.663 407.354 690.833 407.327 690.983 407.327C691.133 407.327 691.306 407.357 691.501 407.417C691.696 407.472 691.857 407.55 691.982 407.65C692.132 407.78 692.247 407.933 692.327 408.108C692.412 408.278 692.455 408.466 692.455 408.671C692.455 408.736 692.45 408.834 692.44 408.964C692.43 409.104 692.425 409.224 692.425 409.324C692.425 409.369 692.42 409.437 692.41 409.527C692.4 409.637 692.395 409.724 692.395 409.789C692.395 409.85 692.417 409.902 692.462 409.947C692.507 409.987 692.56 410.007 692.62 410.007L692.83 410C692.885 410 692.928 410.02 692.958 410.06C692.988 410.1 693.003 410.15 693.003 410.21ZM690.585 410.015C690.8 410.015 690.981 409.992 691.126 409.947C691.271 409.902 691.446 409.82 691.651 409.699C691.671 409.614 691.684 409.502 691.689 409.362C691.414 409.231 691.186 409.166 691.006 409.166C690.8 409.166 690.618 409.204 690.458 409.279C690.297 409.354 690.217 409.487 690.217 409.677C690.217 409.772 690.257 409.852 690.337 409.917C690.418 409.982 690.5 410.015 690.585 410.015ZM693.517 407.973C693.447 407.963 693.389 407.933 693.344 407.883C693.304 407.832 693.284 407.772 693.284 407.702C693.284 407.667 693.292 407.63 693.307 407.59C693.327 407.55 693.354 407.515 693.389 407.485C693.454 407.43 693.542 407.377 693.652 407.327C693.767 407.282 693.85 407.227 693.9 407.162C693.95 407.097 693.975 406.974 693.975 406.794C693.975 406.719 693.97 406.654 693.96 406.599C693.955 406.544 693.952 406.501 693.952 406.471C693.952 406.361 693.992 406.278 694.073 406.223C694.153 406.168 694.245 406.141 694.35 406.141C694.48 406.141 694.568 406.173 694.613 406.238C694.663 406.303 694.688 406.423 694.688 406.599C694.688 406.769 694.681 406.917 694.666 407.042C694.651 407.162 694.618 407.269 694.568 407.364C694.638 407.364 694.753 407.359 694.913 407.349C695.134 407.339 695.286 407.334 695.371 407.334C695.456 407.334 695.532 407.357 695.597 407.402C695.662 407.442 695.694 407.5 695.694 407.575C695.694 407.68 695.672 407.757 695.627 407.807C695.582 407.857 695.517 407.89 695.431 407.905C695.226 407.96 694.936 407.993 694.561 408.003C694.551 408.198 694.546 408.411 694.546 408.641C694.546 409.026 694.568 409.322 694.613 409.527C694.643 409.687 694.693 409.805 694.763 409.88C694.838 409.95 694.948 409.985 695.094 409.985C695.169 409.985 695.229 409.975 695.274 409.955C695.324 409.935 695.351 409.922 695.356 409.917C695.416 409.882 695.471 409.865 695.522 409.865C695.592 409.865 695.642 409.887 695.672 409.932C695.707 409.977 695.724 410.037 695.724 410.112C695.724 410.252 695.649 410.37 695.499 410.465C695.349 410.555 695.156 410.6 694.921 410.6C694.656 410.6 694.43 410.523 694.245 410.368C694.065 410.207 693.957 409.997 693.922 409.737C693.872 409.502 693.847 409.171 693.847 408.746C693.847 408.561 693.857 408.313 693.877 408.003L693.517 407.973ZM696.25 408.851C696.25 408.546 696.317 408.293 696.452 408.093C696.587 407.888 696.775 407.695 697.015 407.515C697.085 407.465 697.203 407.422 697.368 407.387C697.533 407.347 697.679 407.327 697.804 407.327C697.954 407.327 698.112 407.359 698.277 407.425C698.447 407.485 698.585 407.555 698.69 407.635C698.875 407.77 699.002 407.928 699.073 408.108C699.143 408.283 699.178 408.493 699.178 408.738C699.178 408.844 699.118 408.946 698.997 409.046C698.882 409.141 698.757 409.189 698.622 409.189L698.337 409.181C698.192 409.181 697.984 409.186 697.714 409.196L697.556 409.204C697.446 409.214 697.363 409.219 697.308 409.219C697.228 409.219 697.118 409.209 696.978 409.189C696.998 409.424 697.085 409.609 697.241 409.744C697.396 409.875 697.563 409.94 697.744 409.94C698.059 409.94 698.279 409.877 698.404 409.752C698.509 409.677 698.58 409.629 698.615 409.609C698.65 409.589 698.705 409.579 698.78 409.579C698.86 409.579 698.93 409.617 698.99 409.692C699.05 409.767 699.08 409.842 699.08 409.917C699.08 410.002 699.028 410.09 698.922 410.18C698.822 410.265 698.685 410.355 698.509 410.45C698.414 410.49 698.284 410.525 698.119 410.555C697.954 410.585 697.816 410.6 697.706 410.6C697.531 410.6 697.336 410.55 697.121 410.45C696.905 410.345 696.745 410.23 696.64 410.105C696.535 409.98 696.442 409.802 696.362 409.572C696.287 409.342 696.25 409.101 696.25 408.851ZM697.744 408.648C698.099 408.648 698.359 408.636 698.524 408.611C698.514 408.466 698.469 408.348 698.389 408.258C698.309 408.163 698.199 408.083 698.059 408.018C698.014 407.998 697.974 407.983 697.939 407.973C697.904 407.963 697.864 407.958 697.819 407.958C697.589 407.958 697.393 408.02 697.233 408.145C697.078 408.27 696.985 408.431 696.955 408.626C697.206 408.641 697.468 408.648 697.744 408.648Z" fill="#FFF8DC"/>
<circle cx="586.445" cy="228.297" r="114.703" fill="#C4C4C4"/>
</g>
<rect x="373.308" y="107.339" width="426.277" height="319.499" stroke="black" stroke-width="0.834202"/>
<path d="M13.0956 169.469C13.0872 170.547 13.9541 171.427 15.0317 171.436C16.1094 171.444 16.9898 170.577 16.9982 169.5C17.0065 168.422 16.1397 167.541 15.062 167.533C13.9843 167.525 13.1039 168.392 13.0956 169.469ZM67.9894 169.895L64.3472 167.754L64.3144 171.979L67.9894 169.895ZM15.044 169.85L64.6938 170.235L64.6995 169.504L15.0497 169.119L15.044 169.85Z" fill="#F09D20"/>
<path d="M13.0643 355.93C13.0643 357.007 13.9379 357.881 15.0156 357.881C16.0933 357.881 16.967 357.007 16.967 355.93C16.967 354.852 16.0933 353.978 15.0156 353.978C13.9379 353.978 13.0643 354.852 13.0643 355.93ZM38.3714 355.93L34.7126 353.818L34.7126 358.042L38.3714 355.93ZM15.0156 356.296L35.0785 356.296L35.0785 355.564L15.0156 355.564L15.0156 356.296Z" fill="#F09D20"/>
<path d="M13.0643 390.547C13.0643 391.625 13.9379 392.498 15.0156 392.498C16.0933 392.498 16.967 391.625 16.967 390.547C16.967 389.469 16.0933 388.596 15.0156 388.596C13.9379 388.596 13.0643 389.469 13.0643 390.547ZM38.3733 390.547L34.7145 388.434V392.659L38.3733 390.547ZM15.0156 390.913H35.0804V390.181H15.0156V390.913Z" fill="#F09D20"/>
<rect y="164.062" width="11.7081" height="11.7081" rx="5.85405" fill="#17D4D4"/>
<path d="M7.4955 173.317V173.914H4.19771V173.317H5.52116V167.221C5.33313 167.38 5.11617 167.521 4.87028 167.644C4.63163 167.76 4.4219 167.817 4.2411 167.817C4.11092 167.817 4.00967 167.785 3.93735 167.72C3.87227 167.648 3.83972 167.564 3.83972 167.47C3.83972 167.398 3.8578 167.333 3.89396 167.275C4.18324 167.246 4.4906 167.152 4.81604 166.993C5.14148 166.827 5.44884 166.603 5.73812 166.32H6.22628V173.317H7.4955Z" fill="#2E2776"/>
<rect y="350.508" width="11.7081" height="11.7081" rx="5.85405" fill="#17D4D4"/>
<path d="M8.01521 354.935C8.0369 355.666 7.76209 356.411 7.19076 357.17C6.61943 357.922 5.77329 358.772 4.65233 359.719H7.96097V360.359H3.41566V359.969C4.34859 359.209 5.09348 358.548 5.65035 357.984C6.21444 357.412 6.63028 356.884 6.89787 356.4C7.17268 355.908 7.31009 355.424 7.31009 354.946C7.31009 354.44 7.1763 354.057 6.90871 353.796C6.64836 353.529 6.27591 353.395 5.79137 353.395C5.2779 353.395 4.88014 353.532 4.59809 353.807C4.31604 354.075 4.14609 354.512 4.08823 355.12C3.87851 355.12 3.73387 355.091 3.65431 355.033C3.57476 354.975 3.53499 354.874 3.53499 354.729C3.53499 354.368 3.62177 354.039 3.79534 353.742C3.97614 353.438 4.23649 353.2 4.57639 353.026C4.92353 352.853 5.32852 352.766 5.79137 352.766C6.46395 352.766 6.9955 352.947 7.38602 353.308C7.77655 353.663 7.98628 354.205 8.01521 354.935Z" fill="#2E2776"/>
<rect y="385.125" width="11.7081" height="11.7081" rx="5.85405" fill="#17D4D4"/>
<path d="M6.85447 391.05C7.20884 391.151 7.50535 391.346 7.74401 391.635C7.9899 391.917 8.11284 392.308 8.11284 392.807C8.11284 393.516 7.88142 394.073 7.41857 394.478C6.95572 394.875 6.33739 395.074 5.56356 395.074C5.07902 395.074 4.65595 395.013 4.29435 394.89C3.93275 394.767 3.65431 394.611 3.45905 394.423C3.27102 394.235 3.177 394.044 3.177 393.848C3.177 393.711 3.21678 393.602 3.29633 393.523C3.38311 393.436 3.48798 393.393 3.61092 393.393C3.82788 393.725 4.07739 393.986 4.35943 394.174C4.64871 394.355 5.06094 394.445 5.59611 394.445C6.17467 394.445 6.61943 394.3 6.93041 394.011C7.24862 393.722 7.40772 393.324 7.40772 392.818C7.40772 392.333 7.26308 391.972 6.9738 391.733C6.68452 391.494 6.30123 391.375 5.82391 391.375L5.47678 391.386C5.31767 391.4 5.19111 391.408 5.0971 391.408C4.99585 391.408 4.90183 391.346 4.81505 391.223C4.72827 391.1 4.68487 390.988 4.68487 390.887C4.68487 390.822 4.71019 390.789 4.76081 390.789H5.72628C6.20359 390.789 6.57243 390.663 6.83278 390.41C7.09313 390.156 7.22331 389.78 7.22331 389.281C7.22331 388.869 7.08228 388.555 6.80023 388.338C6.52542 388.121 6.12404 388.012 5.59611 388.012C5.16219 388.012 4.8042 388.11 4.52215 388.305C4.24734 388.493 4.00145 388.786 3.78449 389.184C3.66155 389.184 3.55668 389.148 3.4699 389.075C3.39035 389.003 3.35057 388.898 3.35057 388.761C3.35057 388.565 3.4482 388.359 3.64347 388.142C3.84596 387.925 4.12078 387.745 4.46791 387.6C4.81505 387.455 5.19835 387.383 5.6178 387.383C6.30484 387.383 6.86171 387.553 7.28839 387.893C7.71508 388.225 7.92842 388.696 7.92842 389.303C7.92842 389.759 7.82718 390.135 7.62468 390.431C7.42219 390.721 7.16545 390.927 6.85447 391.05Z" fill="#2E2776"/>
<defs>
<clipPath id="clip0_571_21053">
<rect x="25.8594" y="0.140625" width="320.334" height="427.112" fill="white"/>
</clipPath>
<clipPath id="clip1_571_21053">
<rect x="372.891" y="106.922" width="427.112" height="320.334" fill="white"/>
</clipPath>
</defs>
</svg>
