<svg width="118" height="54" viewBox="0 0 118 54" fill="none" xmlns="http://www.w3.org/2000/svg">
<rect x="0.5" width="117" height="54" rx="8" fill="#EE7B1D"/>
<path d="M16.698 22.506C16.698 21.99 17.076 21.732 17.832 21.732C18.156 21.732 18.774 21.744 19.686 21.768C20.694 21.816 21.456 21.84 21.972 21.84C22.392 21.84 22.902 21.816 23.502 21.768C23.91 21.744 24.168 21.732 24.276 21.732C24.936 21.756 25.494 21.876 25.95 22.092C26.082 22.152 26.19 22.224 26.274 22.308C26.358 22.392 26.4 22.53 26.4 22.722C26.4 22.986 26.316 23.214 26.148 23.406C25.98 23.586 25.776 23.676 25.536 23.676C25.272 23.676 24.888 23.64 24.384 23.568C23.94 23.484 23.55 23.442 23.214 23.442C22.89 23.442 22.644 23.448 22.476 23.46C22.44 23.856 22.422 24.804 22.422 26.304C22.422 28.092 22.476 29.904 22.584 31.74L22.62 32.262C22.62 32.754 22.338 33 21.774 33C21.33 33 21.03 32.898 20.874 32.694C20.718 32.478 20.64 32.154 20.64 31.722C20.64 30.87 20.616 29.808 20.568 28.536C20.52 27.48 20.496 26.73 20.496 26.286C20.496 25.986 20.532 25.068 20.604 23.532L18.498 23.55C17.826 23.55 17.358 23.49 17.094 23.37C16.83 23.238 16.698 22.95 16.698 22.506ZM28.9071 32.28C28.9071 32.484 28.8291 32.664 28.6731 32.82C28.5171 32.976 28.3251 33.054 28.0971 33.054C27.7371 33.054 27.4731 32.988 27.3051 32.856C27.1371 32.712 27.0531 32.454 27.0531 32.082C27.0531 31.638 27.0411 31.056 27.0171 30.336C26.9931 29.736 26.9811 29.232 26.9811 28.824C26.9811 28.632 26.9931 28.38 27.0171 28.068C27.0411 27.78 27.0531 27.564 27.0531 27.42C27.0171 27.192 26.9271 27.006 26.7831 26.862C26.6391 26.706 26.4531 26.628 26.2251 26.628C26.1171 26.628 26.0271 26.58 25.9551 26.484C25.8831 26.376 25.8471 26.268 25.8471 26.16C25.8471 25.884 25.9551 25.674 26.1711 25.53C26.3991 25.386 26.6691 25.314 26.9811 25.314C27.6291 25.314 28.0791 25.698 28.3311 26.466C28.6431 26.106 28.9971 25.818 29.3931 25.602C29.8011 25.374 30.1911 25.26 30.5631 25.26C31.0071 25.26 31.4091 25.38 31.7691 25.62C32.1411 25.86 32.3271 26.184 32.3271 26.592C32.3271 26.82 32.2251 27.054 32.0211 27.294C31.8291 27.534 31.6311 27.654 31.4271 27.654C31.3191 27.654 31.2231 27.63 31.1391 27.582C31.0671 27.522 30.9771 27.438 30.8691 27.33C30.7491 27.21 30.6471 27.126 30.5631 27.078C30.4791 27.018 30.3831 26.988 30.2751 26.988C30.0831 26.988 29.9031 27.018 29.7351 27.078C29.5671 27.138 29.4531 27.21 29.3931 27.294C29.2011 27.594 29.0571 27.864 28.9611 28.104C28.8771 28.344 28.8351 28.602 28.8351 28.878C28.8351 29.082 28.8291 29.244 28.8171 29.364L28.7991 30.39C28.7991 30.546 28.8051 30.72 28.8171 30.912C28.8291 31.104 28.8411 31.248 28.8531 31.344C28.8891 31.668 28.9071 31.98 28.9071 32.28ZM35.3594 36.672C34.6994 36.672 34.2194 36.552 33.9194 36.312C33.6314 36.084 33.4874 35.832 33.4874 35.556C33.4874 35.136 33.6854 34.926 34.0814 34.926C34.2014 34.926 34.3574 34.962 34.5494 35.034C34.7414 35.118 34.9214 35.16 35.0894 35.16C35.3534 35.16 35.5694 34.986 35.7374 34.638C35.9054 34.29 36.0734 33.726 36.2414 32.946C35.8694 32.514 35.4134 31.83 34.8734 30.894C34.3454 29.958 33.8894 29.04 33.5054 28.14C33.1214 27.228 32.9294 26.58 32.9294 26.196C32.9294 25.896 33.0314 25.674 33.2354 25.53C33.4514 25.386 33.6974 25.314 33.9734 25.314C34.1894 25.314 34.3574 25.356 34.4774 25.44C34.5974 25.512 34.6814 25.65 34.7294 25.854C35.0174 26.874 35.3234 27.768 35.6474 28.536C35.9834 29.304 36.4094 30.138 36.9254 31.038C37.1294 30.57 37.3994 29.772 37.7354 28.644C38.1074 27.384 38.4194 26.49 38.6714 25.962C38.7794 25.746 38.9114 25.572 39.0674 25.44C39.2354 25.308 39.4214 25.242 39.6254 25.242C39.8294 25.242 40.0454 25.32 40.2734 25.476C40.5134 25.62 40.6334 25.794 40.6334 25.998C40.6334 26.118 40.5914 26.262 40.5074 26.43C40.0394 27.51 39.6254 28.53 39.2654 29.49C38.9174 30.438 38.5814 31.482 38.2574 32.622C38.0654 33.258 37.8614 33.864 37.6454 34.44C37.4414 35.016 37.2974 35.37 37.2134 35.502C36.9734 35.838 36.7034 36.114 36.4034 36.33C36.1034 36.558 35.7554 36.672 35.3594 36.672ZM45.9138 26.772C45.7458 26.748 45.6078 26.676 45.4998 26.556C45.4038 26.436 45.3558 26.292 45.3558 26.124C45.3558 26.04 45.3738 25.95 45.4098 25.854C45.4578 25.758 45.5238 25.674 45.6078 25.602C45.7638 25.47 45.9738 25.344 46.2378 25.224C46.5138 25.116 46.7118 24.984 46.8318 24.828C46.9518 24.672 47.0118 24.378 47.0118 23.946C47.0118 23.766 46.9998 23.61 46.9758 23.478C46.9638 23.346 46.9578 23.244 46.9578 23.172C46.9578 22.908 47.0538 22.71 47.2458 22.578C47.4378 22.446 47.6598 22.38 47.9118 22.38C48.2238 22.38 48.4338 22.458 48.5418 22.614C48.6618 22.77 48.7218 23.058 48.7218 23.478C48.7218 23.886 48.7038 24.24 48.6678 24.54C48.6318 24.828 48.5538 25.086 48.4338 25.314C48.6018 25.314 48.8778 25.302 49.2618 25.278C49.7898 25.254 50.1558 25.242 50.3598 25.242C50.5638 25.242 50.7438 25.296 50.8998 25.404C51.0558 25.5 51.1338 25.638 51.1338 25.818C51.1338 26.07 51.0798 26.256 50.9718 26.376C50.8638 26.496 50.7078 26.574 50.5038 26.61C50.0118 26.742 49.3158 26.82 48.4158 26.844C48.3918 27.312 48.3798 27.822 48.3798 28.374C48.3798 29.298 48.4338 30.006 48.5418 30.498C48.6138 30.882 48.7338 31.164 48.9018 31.344C49.0818 31.512 49.3458 31.596 49.6938 31.596C49.8738 31.596 50.0178 31.572 50.1258 31.524C50.2458 31.476 50.3118 31.446 50.3238 31.434C50.4678 31.35 50.5998 31.308 50.7198 31.308C50.8878 31.308 51.0078 31.362 51.0798 31.47C51.1638 31.578 51.2058 31.722 51.2058 31.902C51.2058 32.238 51.0258 32.52 50.6658 32.748C50.3058 32.964 49.8438 33.072 49.2798 33.072C48.6438 33.072 48.1038 32.886 47.6598 32.514C47.2278 32.13 46.9698 31.626 46.8858 31.002C46.7658 30.438 46.7058 29.646 46.7058 28.626C46.7058 28.182 46.7298 27.588 46.7778 26.844L45.9138 26.772ZM54.8234 21.588C54.8234 21.9 54.8174 22.266 54.8054 22.686C54.7934 23.094 54.7814 23.406 54.7694 23.622C54.7334 24.234 54.7154 24.846 54.7154 25.458C54.7154 25.914 54.7334 26.388 54.7694 26.88C55.1414 26.34 55.5434 25.944 55.9754 25.692C56.4074 25.44 56.9294 25.314 57.5414 25.314C57.9854 25.314 58.3994 25.512 58.7834 25.908C59.1674 26.304 59.4134 26.766 59.5214 27.294C59.5574 27.762 59.5754 28.332 59.5754 29.004C59.5754 29.436 59.5994 30 59.6474 30.696C59.6714 30.96 59.7374 31.206 59.8454 31.434C59.9654 31.662 60.1334 31.776 60.3494 31.776C60.4574 31.776 60.5414 31.77 60.6014 31.758C60.6734 31.746 60.7394 31.74 60.7994 31.74C60.9674 31.74 61.0814 31.782 61.1414 31.866C61.2134 31.95 61.2494 32.07 61.2494 32.226C61.2494 32.514 61.1054 32.73 60.8174 32.874C60.5294 33.018 60.2654 33.09 60.0254 33.09C59.1614 33.09 58.5674 32.73 58.2434 32.01C58.0634 31.602 57.9494 31.074 57.9014 30.426C57.8534 29.766 57.8294 28.998 57.8294 28.122C57.8294 27.258 57.5354 26.826 56.9474 26.826C56.6234 26.826 56.2934 27 55.9574 27.348C55.6334 27.684 55.3634 28.134 55.1474 28.698C54.9314 29.25 54.8234 29.826 54.8234 30.426L54.8414 32.298C54.8414 32.562 54.7394 32.76 54.5354 32.892C54.3314 33.012 54.1394 33.072 53.9594 33.072C53.6954 33.072 53.4554 32.994 53.2394 32.838C53.0234 32.67 52.9154 32.484 52.9154 32.28C52.9994 31.38 53.0414 29.874 53.0414 27.762C53.0414 27.378 53.0114 25.956 52.9514 23.496L52.8974 21.84C52.8974 21.576 53.0174 21.348 53.2574 21.156C53.4974 20.952 53.7674 20.85 54.0674 20.85C54.3314 20.85 54.5234 20.91 54.6434 21.03C54.7634 21.15 54.8234 21.336 54.8234 21.588ZM62.187 29.184C62.187 28.728 62.271 28.272 62.439 27.816C62.607 27.348 62.829 26.922 63.105 26.538C63.381 26.154 63.819 25.842 64.419 25.602C65.019 25.35 65.553 25.224 66.021 25.224C66.501 25.224 66.987 25.29 67.479 25.422C67.983 25.554 68.331 25.758 68.523 26.034C68.967 26.658 69.189 27.27 69.189 27.87C69.189 28.194 69.117 28.47 68.973 28.698C68.841 28.926 68.649 29.172 68.397 29.436C68.193 29.652 67.869 29.796 67.425 29.868C66.993 29.94 66.561 29.976 66.129 29.976C65.853 29.976 65.517 29.952 65.121 29.904C64.725 29.844 64.341 29.772 63.969 29.688C63.993 29.928 64.053 30.162 64.149 30.39C64.245 30.618 64.359 30.792 64.491 30.912C64.731 31.14 64.977 31.284 65.229 31.344C65.493 31.404 65.829 31.434 66.237 31.434C66.669 31.434 67.071 31.362 67.443 31.218C67.743 31.11 67.989 31.056 68.181 31.056C68.409 31.056 68.583 31.128 68.703 31.272C68.823 31.404 68.883 31.578 68.883 31.794C68.883 32.094 68.709 32.34 68.361 32.532C68.013 32.724 67.611 32.868 67.155 32.964C66.711 33.048 66.351 33.09 66.075 33.09C65.511 33.09 64.965 32.988 64.437 32.784C63.909 32.58 63.471 32.292 63.123 31.92C62.835 31.584 62.607 31.182 62.439 30.714C62.271 30.234 62.187 29.724 62.187 29.184ZM66.111 26.754C65.847 26.754 65.583 26.808 65.319 26.916C65.055 27.012 64.839 27.15 64.671 27.33C64.455 27.558 64.305 27.744 64.221 27.888C64.149 28.02 64.101 28.206 64.077 28.446C64.377 28.542 65.001 28.59 65.949 28.59C66.465 28.59 66.861 28.512 67.137 28.356C67.425 28.2 67.569 27.996 67.569 27.744C67.569 27.492 67.413 27.264 67.101 27.06C66.789 26.856 66.459 26.754 66.111 26.754ZM81.792 33.072C81.384 33.072 81.072 33.012 80.856 32.892C80.64 32.76 80.406 32.52 80.154 32.172C79.842 32.448 79.374 32.67 78.75 32.838C78.138 33.006 77.61 33.09 77.166 33.09C76.434 33.09 75.84 32.892 75.384 32.496C74.94 32.088 74.718 31.494 74.718 30.714C74.718 30.378 74.808 30.072 74.988 29.796C75.18 29.508 75.426 29.256 75.726 29.04C76.062 28.812 76.458 28.632 76.914 28.5C77.382 28.368 77.808 28.302 78.192 28.302C78.84 28.302 79.416 28.362 79.92 28.482V28.464C79.92 27.816 79.758 27.372 79.434 27.132C79.122 26.88 78.618 26.754 77.922 26.754C77.478 26.754 77.094 26.952 76.77 27.348C76.65 27.504 76.398 27.582 76.014 27.582C75.822 27.582 75.678 27.504 75.582 27.348C75.498 27.18 75.456 27.012 75.456 26.844C75.456 26.496 75.6 26.196 75.888 25.944C76.188 25.692 76.548 25.506 76.968 25.386C77.388 25.254 77.778 25.188 78.138 25.188C78.486 25.188 78.9 25.26 79.38 25.404C79.86 25.548 80.25 25.74 80.55 25.98C80.91 26.292 81.186 26.658 81.378 27.078C81.582 27.486 81.684 27.936 81.684 28.428C81.684 28.584 81.672 28.818 81.648 29.13C81.624 29.49 81.612 29.784 81.612 30.012C81.612 30.12 81.6 30.258 81.576 30.426C81.552 30.642 81.54 30.822 81.54 30.966C81.54 31.122 81.588 31.272 81.684 31.416C81.78 31.56 81.912 31.68 82.08 31.776C82.236 31.86 82.338 31.95 82.386 32.046C82.434 32.142 82.458 32.25 82.458 32.37C82.458 32.49 82.38 32.64 82.224 32.82C82.08 32.988 81.936 33.072 81.792 33.072ZM78.192 29.634C77.724 29.634 77.31 29.724 76.95 29.904C76.59 30.084 76.41 30.402 76.41 30.858C76.41 31.086 76.488 31.278 76.644 31.434C76.812 31.59 76.992 31.668 77.184 31.668C77.7 31.668 78.132 31.614 78.48 31.506C78.828 31.398 79.248 31.2 79.74 30.912C79.8 30.72 79.836 30.45 79.848 30.102C79.848 29.97 79.854 29.868 79.866 29.796C79.218 29.688 78.66 29.634 78.192 29.634ZM83.6134 26.862C83.4934 26.694 83.4094 26.55 83.3614 26.43C83.3134 26.31 83.2894 26.16 83.2894 25.98C83.2894 25.788 83.3674 25.626 83.5234 25.494C83.6914 25.362 83.9014 25.296 84.1534 25.296C84.4054 25.296 84.6574 25.392 84.9094 25.584C85.1614 25.764 85.3654 25.998 85.5214 26.286C85.7734 25.926 86.1154 25.668 86.5474 25.512C86.9794 25.356 87.4474 25.278 87.9514 25.278C88.5034 25.278 89.0134 25.446 89.4814 25.782C89.9614 26.118 90.3394 26.55 90.6154 27.078C90.8914 27.606 91.0294 28.134 91.0294 28.662C91.0294 29.178 90.9754 29.64 90.8674 30.048C90.7594 30.444 90.5674 30.846 90.2914 31.254C89.9794 31.686 89.5594 32.04 89.0314 32.316C88.5154 32.592 87.8974 32.73 87.1774 32.73C86.9854 32.73 86.7514 32.682 86.4754 32.586C86.1994 32.478 85.9714 32.364 85.7914 32.244C85.7074 33.06 85.6654 33.768 85.6654 34.368C85.6654 34.728 85.6834 35.07 85.7194 35.394C85.7434 35.778 85.7554 36.054 85.7554 36.222C85.7554 36.486 85.6654 36.678 85.4854 36.798C85.3054 36.93 85.1074 36.996 84.8914 36.996C84.4594 36.996 84.1714 36.876 84.0274 36.636C83.8954 36.408 83.8294 36.078 83.8294 35.646C83.8774 34.614 83.9374 33.66 84.0094 32.784C84.0934 31.524 84.1354 29.976 84.1354 28.14C84.1354 27.996 84.0754 27.786 83.9554 27.51C83.8474 27.234 83.7334 27.018 83.6134 26.862ZM85.8634 30.462C85.9234 30.69 86.0914 30.882 86.3674 31.038C86.6554 31.182 86.9134 31.254 87.1414 31.254C87.8254 31.254 88.3354 31.068 88.6714 30.696C88.9234 30.432 89.0854 30.174 89.1574 29.922C89.2414 29.67 89.2834 29.268 89.2834 28.716C89.2834 28.284 89.1994 27.924 89.0314 27.636C88.8634 27.336 88.6594 27.12 88.4194 26.988C88.1794 26.844 87.9514 26.772 87.7354 26.772C87.2434 26.772 86.8414 26.922 86.5294 27.222C86.2294 27.51 86.0374 27.906 85.9534 28.41C85.8934 28.806 85.8634 29.49 85.8634 30.462ZM93.1024 26.736C92.9944 26.736 92.8924 26.748 92.7964 26.772C92.7004 26.784 92.6044 26.79 92.5084 26.79C92.3764 26.79 92.2504 26.73 92.1304 26.61C92.0224 26.49 91.9684 26.382 91.9684 26.286C91.9684 25.974 92.1244 25.734 92.4364 25.566C92.7484 25.386 93.0664 25.296 93.3904 25.296C93.6664 25.296 93.9484 25.392 94.2364 25.584C94.5364 25.764 94.7584 25.998 94.9024 26.286C95.2144 25.914 95.5984 25.644 96.0544 25.476C96.5104 25.308 96.9844 25.224 97.4764 25.224C98.0284 25.224 98.5384 25.398 99.0064 25.746C99.4864 26.094 99.8644 26.538 100.14 27.078C100.416 27.606 100.554 28.134 100.554 28.662C100.554 29.178 100.5 29.64 100.392 30.048C100.284 30.444 100.092 30.846 99.8164 31.254C99.5044 31.686 99.0844 32.04 98.5564 32.316C98.0404 32.592 97.4224 32.73 96.7024 32.73C96.5104 32.73 96.2764 32.682 96.0004 32.586C95.7244 32.478 95.4964 32.364 95.3164 32.244C95.2324 33.06 95.1904 33.768 95.1904 34.368C95.1904 34.728 95.2084 35.07 95.2444 35.394C95.2684 35.778 95.2804 36.054 95.2804 36.222C95.2804 36.486 95.1904 36.678 95.0104 36.798C94.8304 36.93 94.6324 36.996 94.4164 36.996C93.9844 36.996 93.6964 36.876 93.5524 36.636C93.4204 36.408 93.3544 36.078 93.3544 35.646C93.4024 34.614 93.4624 33.66 93.5344 32.784C93.6064 31.704 93.6424 30.036 93.6424 27.78C93.6424 27.564 93.6004 27.336 93.5164 27.096C93.4324 26.856 93.2944 26.736 93.1024 26.736ZM95.3884 30.462C95.4484 30.69 95.6164 30.882 95.8924 31.038C96.1804 31.182 96.4384 31.254 96.6664 31.254C97.3504 31.254 97.8604 31.068 98.1964 30.696C98.4484 30.432 98.6104 30.174 98.6824 29.922C98.7664 29.67 98.8084 29.268 98.8084 28.716C98.8084 28.284 98.7244 27.924 98.5564 27.636C98.3884 27.336 98.1844 27.12 97.9444 26.988C97.7044 26.844 97.4764 26.772 97.2604 26.772C96.7684 26.772 96.3664 26.922 96.0544 27.222C95.7544 27.51 95.5624 27.906 95.4784 28.41C95.4184 28.806 95.3884 29.49 95.3884 30.462Z" fill="#FFF8DC"/>
</svg>
