<svg width="420" height="86" viewBox="0 0 420 86" fill="none" xmlns="http://www.w3.org/2000/svg">
<rect x="0.140625" y="0.164062" width="419.716" height="85.0029" rx="11.9814" fill="#F5F5F5"/>
<path d="M15.8372 44.2761C15.9865 44.1587 16.1305 44.1001 16.2692 44.1001C16.3972 44.1001 16.5199 44.1374 16.6372 44.2121C16.7652 44.2867 16.8932 44.3827 17.0212 44.5001C17.1492 44.6067 17.2505 44.6867 17.3252 44.7401C17.5705 44.9321 17.9065 45.0814 18.3332 45.1881C18.7599 45.2947 19.2132 45.3481 19.6932 45.3481C20.2372 45.3481 20.7225 45.2467 21.1492 45.0441C21.5865 44.8307 21.8052 44.5481 21.8052 44.1961C21.8052 43.8761 21.6879 43.6254 21.4532 43.4441C21.2185 43.2521 20.9359 43.1134 20.6052 43.0281C20.2745 42.9427 19.8372 42.8627 19.2932 42.7881C18.5572 42.7027 17.9705 42.5961 17.5332 42.4681C17.1065 42.3401 16.7652 42.1321 16.5092 41.8441C16.2532 41.5454 16.1252 41.1294 16.1252 40.5961C16.1252 40.0201 16.3972 39.5934 16.9412 39.3161C17.4852 39.0281 18.1092 38.8841 18.8132 38.8841C19.4532 38.8841 19.9972 39.0227 20.4452 39.3001C20.9039 39.5667 21.1385 39.9507 21.1492 40.4521C21.1705 40.7401 21.1279 40.9694 21.0212 41.1401C20.9145 41.3001 20.7865 41.3801 20.6372 41.3801C20.5519 41.3801 20.4772 41.3481 20.4132 41.2841C20.3599 41.2201 20.3332 41.1347 20.3332 41.0281C20.3332 40.8574 20.3919 40.6707 20.5092 40.4681C20.4559 40.2121 20.2799 40.0201 19.9812 39.8921C19.6932 39.7641 19.3465 39.7001 18.9412 39.7001C18.3439 39.7001 17.8692 39.8121 17.5172 40.0361C17.1652 40.2494 16.9892 40.5054 16.9892 40.8041C16.9892 41.1241 17.1172 41.3694 17.3732 41.5401C17.6292 41.7107 17.9385 41.8334 18.3012 41.9081C18.6745 41.9721 19.2025 42.0361 19.8852 42.1001C20.4505 42.1747 20.9092 42.2654 21.2612 42.3721C21.6239 42.4787 21.9279 42.6867 22.1732 42.9961C22.4185 43.2947 22.5412 43.7267 22.5412 44.2921C22.5412 44.8787 22.2692 45.3427 21.7252 45.6841C21.1812 46.0147 20.5305 46.1801 19.7732 46.1801C18.8025 46.1801 17.9332 46.0147 17.1652 45.6841C16.4079 45.3534 15.9652 44.8841 15.8372 44.2761ZM34.2018 46.1801C34.0418 46.1801 33.9458 46.1374 33.9138 46.0521C33.8818 45.9561 33.8658 45.8121 33.8658 45.6201C33.8765 45.5454 33.8818 45.4601 33.8818 45.3641C33.8818 45.2574 33.8871 45.1774 33.8978 45.1241C33.9618 44.6121 33.9938 44.1267 33.9938 43.6681C33.9938 42.6547 33.8231 41.8654 33.4818 41.3001C33.1405 40.7241 32.6018 40.4361 31.8658 40.4361C31.4605 40.4361 31.0551 40.5374 30.6498 40.7401C30.2551 40.9427 29.9298 41.1934 29.6738 41.4921C29.4285 41.7907 29.3058 42.0627 29.3058 42.3081C29.3591 42.6174 29.4551 42.9961 29.5938 43.4441C29.6045 43.4974 29.6471 43.6627 29.7218 43.9401C29.8071 44.2174 29.8498 44.4681 29.8498 44.6921L29.8658 44.9961C29.8658 45.1667 29.7805 45.2521 29.6098 45.2521C29.3965 45.2521 29.2205 45.1134 29.0818 44.8361C28.9538 44.5587 28.8098 44.1267 28.6498 43.5401C28.4898 42.9641 28.3351 42.4894 28.1858 42.1161C28.0365 41.7427 27.8338 41.4227 27.5778 41.1561C27.3218 40.8894 26.9965 40.7561 26.6018 40.7561C26.0578 40.7561 25.6311 40.9427 25.3218 41.3161C25.0231 41.6894 24.8738 42.1481 24.8738 42.6921C24.8738 43.0547 24.9058 43.5347 24.9698 44.1321C25.0231 44.5801 25.0498 44.9641 25.0498 45.2841C25.0498 45.4761 25.0285 45.6201 24.9858 45.7161C24.9431 45.8121 24.8418 45.8601 24.6818 45.8601C24.4685 45.8601 24.3191 45.7907 24.2338 45.6521C24.1485 45.5027 24.1058 45.2787 24.1058 44.9801C24.1058 44.3934 24.0738 43.6841 24.0098 42.8521C23.9991 42.7454 23.9778 42.4734 23.9458 42.0361C23.9138 41.5881 23.9085 41.1401 23.9298 40.6921L23.9458 40.1641C24.0098 40.1001 24.0845 40.0681 24.1698 40.0681C24.2871 40.0681 24.3831 40.1427 24.4578 40.2921C24.5431 40.4307 24.5858 40.6441 24.5858 40.9321C24.7458 40.6547 24.9805 40.4041 25.2898 40.1801C25.5991 39.9561 25.9245 39.8441 26.2658 39.8441C26.8525 39.8441 27.3378 39.9667 27.7218 40.2121C28.1165 40.4467 28.4738 40.8307 28.7938 41.3641C29.0925 40.8201 29.5405 40.3561 30.1378 39.9721C30.7458 39.5881 31.3698 39.3961 32.0098 39.3961C32.6711 39.3961 33.2205 39.6467 33.6578 40.1481C34.1058 40.6494 34.4311 41.2521 34.6338 41.9561C34.8471 42.6601 34.9538 43.3107 34.9538 43.9081C34.9538 44.4414 34.9058 44.9534 34.8098 45.4441C34.7245 45.9347 34.5218 46.1801 34.2018 46.1801ZM40.2717 46.1641C39.1624 46.1641 38.197 45.9721 37.3757 45.5881C36.565 45.1934 36.1597 44.5054 36.1597 43.5241C36.1597 43.1721 36.2664 42.8307 36.4797 42.5001C36.693 42.1694 37.0077 41.9027 37.4237 41.7001C37.8397 41.4867 38.3464 41.3801 38.9437 41.3801C39.4024 41.3801 39.7917 41.4014 40.1117 41.4441C40.4317 41.4867 40.7997 41.6041 41.2157 41.7961C41.6317 41.9881 42.0637 42.2921 42.5117 42.7081C42.341 41.9721 42.085 41.3267 41.7437 40.7721C41.4024 40.2174 41.0184 39.7907 40.5917 39.4921C40.1757 39.1827 39.765 39.0281 39.3597 39.0281C39.1677 39.0281 38.9864 39.0654 38.8157 39.1401C38.6557 39.2041 38.4584 39.3001 38.2237 39.4281C37.957 39.5987 37.7597 39.6841 37.6317 39.6841C37.5784 39.6841 37.5304 39.6681 37.4877 39.6361C37.4557 39.5934 37.4397 39.5454 37.4397 39.4921C37.4397 39.0654 37.6264 38.7347 37.9997 38.5001C38.3837 38.2654 38.8477 38.1587 39.3917 38.1801C40.1384 38.2227 40.821 38.5427 41.4397 39.1401C42.0584 39.7267 42.5437 40.4574 42.8957 41.3321C43.2584 42.2067 43.4397 43.0654 43.4397 43.9081C43.4397 44.0467 43.429 44.2441 43.4077 44.5001L42.8957 44.4681C42.4904 43.6467 41.9677 43.0654 41.3277 42.7241C40.6984 42.3721 40.0637 42.1961 39.4237 42.1961C38.6024 42.1961 38.0157 42.3187 37.6637 42.5641C37.3117 42.8094 37.1357 43.1667 37.1357 43.6361C37.1357 44.1267 37.381 44.5214 37.8717 44.8201C38.3624 45.1187 38.9917 45.2681 39.7597 45.2681C40.1864 45.2681 40.5277 45.2467 40.7837 45.2041C41.0397 45.1507 41.3064 45.0814 41.5837 44.9961C41.8077 44.9214 42.005 44.8681 42.1757 44.8361C42.3464 44.8041 42.565 44.7881 42.8317 44.7881C43.1304 44.7881 43.317 44.8094 43.3917 44.8521C43.477 44.8947 43.5197 44.9907 43.5197 45.1401C43.5197 45.2467 43.301 45.3801 42.8637 45.5401C42.4264 45.7001 41.9357 45.8441 41.3917 45.9721C40.8477 46.1001 40.4744 46.1641 40.2717 46.1641ZM45.6003 46.0521C45.3656 44.8894 45.1843 43.5134 45.0563 41.9241C44.939 40.3241 44.8803 38.7774 44.8803 37.2841C44.8803 36.5374 44.8963 35.8761 44.9283 35.3001C44.9283 35.1614 45.035 35.0921 45.2483 35.0921C45.419 35.0921 45.5256 35.1347 45.5683 35.2201C45.6216 35.3054 45.6483 35.4387 45.6483 35.6201C45.6483 37.3481 45.6803 38.8254 45.7443 40.0521C45.8083 41.2681 45.8936 42.5801 46.0003 43.9881C46.0643 44.8947 46.107 45.5081 46.1283 45.8281C46.139 45.9987 46.0483 46.0841 45.8563 46.0841C45.7923 46.0841 45.707 46.0734 45.6003 46.0521ZM48.2078 46.0521C47.9731 44.8894 47.7918 43.5134 47.6638 41.9241C47.5465 40.3241 47.4878 38.7774 47.4878 37.2841C47.4878 36.5374 47.5038 35.8761 47.5358 35.3001C47.5358 35.1614 47.6425 35.0921 47.8558 35.0921C48.0265 35.0921 48.1331 35.1347 48.1758 35.2201C48.2291 35.3054 48.2558 35.4387 48.2558 35.6201C48.2558 37.3481 48.2878 38.8254 48.3518 40.0521C48.4158 41.2681 48.5011 42.5801 48.6078 43.9881C48.6718 44.8947 48.7145 45.5081 48.7358 45.8281C48.7465 45.9987 48.6558 46.0841 48.4638 46.0841C48.3998 46.0841 48.3145 46.0734 48.2078 46.0521ZM53.9353 44.2761C54.0846 44.1587 54.2286 44.1001 54.3673 44.1001C54.4953 44.1001 54.618 44.1374 54.7353 44.2121C54.8633 44.2867 54.9913 44.3827 55.1193 44.5001C55.2473 44.6067 55.3486 44.6867 55.4233 44.7401C55.6686 44.9321 56.0046 45.0814 56.4313 45.1881C56.858 45.2947 57.3113 45.3481 57.7913 45.3481C58.3353 45.3481 58.8206 45.2467 59.2473 45.0441C59.6846 44.8307 59.9033 44.5481 59.9033 44.1961C59.9033 43.8761 59.786 43.6254 59.5513 43.4441C59.3166 43.2521 59.034 43.1134 58.7033 43.0281C58.3726 42.9427 57.9353 42.8627 57.3913 42.7881C56.6553 42.7027 56.0686 42.5961 55.6313 42.4681C55.2046 42.3401 54.8633 42.1321 54.6073 41.8441C54.3513 41.5454 54.2233 41.1294 54.2233 40.5961C54.2233 40.0201 54.4953 39.5934 55.0393 39.3161C55.5833 39.0281 56.2073 38.8841 56.9113 38.8841C57.5513 38.8841 58.0953 39.0227 58.5433 39.3001C59.002 39.5667 59.2366 39.9507 59.2473 40.4521C59.2686 40.7401 59.226 40.9694 59.1193 41.1401C59.0126 41.3001 58.8846 41.3801 58.7353 41.3801C58.65 41.3801 58.5753 41.3481 58.5113 41.2841C58.458 41.2201 58.4313 41.1347 58.4313 41.0281C58.4313 40.8574 58.49 40.6707 58.6073 40.4681C58.554 40.2121 58.378 40.0201 58.0793 39.8921C57.7913 39.7641 57.4446 39.7001 57.0393 39.7001C56.442 39.7001 55.9673 39.8121 55.6153 40.0361C55.2633 40.2494 55.0873 40.5054 55.0873 40.8041C55.0873 41.1241 55.2153 41.3694 55.4713 41.5401C55.7273 41.7107 56.0366 41.8334 56.3993 41.9081C56.7726 41.9721 57.3006 42.0361 57.9833 42.1001C58.5486 42.1747 59.0073 42.2654 59.3593 42.3721C59.722 42.4787 60.026 42.6867 60.2713 42.9961C60.5166 43.2947 60.6393 43.7267 60.6393 44.2921C60.6393 44.8787 60.3673 45.3427 59.8233 45.6841C59.2793 46.0147 58.6286 46.1801 57.8713 46.1801C56.9006 46.1801 56.0313 46.0147 55.2633 45.6841C54.506 45.3534 54.0633 44.8841 53.9353 44.2761ZM65.8519 46.1801C64.6039 46.1801 63.6333 45.8974 62.9399 45.3321C62.2573 44.7561 61.9159 43.8707 61.9159 42.6761C61.9159 42.0681 62.0653 41.4921 62.3639 40.9481C62.6733 40.3934 63.0839 39.9507 63.5959 39.6201C64.1186 39.2787 64.6786 39.1081 65.2759 39.1081C65.8839 39.1081 66.4013 39.2414 66.8279 39.5081C67.2546 39.7641 67.4679 40.1374 67.4679 40.6281C67.4679 40.9694 67.4039 41.2147 67.2759 41.3641C67.1586 41.5027 67.0253 41.5721 66.8759 41.5721C66.8759 41.0601 66.7373 40.6441 66.4599 40.3241C66.1826 40.0041 65.7879 39.8441 65.2759 39.8441C64.7639 39.8441 64.3213 39.9827 63.9479 40.2601C63.5746 40.5267 63.2866 40.8841 63.0839 41.3321C62.8919 41.7694 62.7959 42.2281 62.7959 42.7081C62.7959 43.7214 63.1373 44.4094 63.8199 44.7721C64.5133 45.1347 65.4253 45.3161 66.5559 45.3161C66.9399 45.3161 67.4413 45.2947 68.0599 45.2521C68.0813 45.2521 68.1293 45.2734 68.2039 45.3161C68.2786 45.3587 68.3373 45.3854 68.3799 45.3961V45.4921C68.3799 45.8014 68.1079 45.9934 67.5639 46.0681C67.0199 46.1427 66.4493 46.1801 65.8519 46.1801ZM70.3533 46.1641C69.916 45.3107 69.5693 44.3081 69.3133 43.1561C69.068 42.0041 68.9453 41.0067 68.9453 40.1641C68.9453 39.8334 69.02 39.6201 69.1693 39.5241C69.2546 39.4707 69.3186 39.4441 69.3613 39.4441C69.436 39.4441 69.4893 39.5027 69.5213 39.6201C69.564 39.7374 69.6066 39.9507 69.6493 40.2601L69.7293 40.8361C69.8466 40.2601 70.0706 39.8067 70.4013 39.4761C70.7426 39.1347 71.1586 38.9641 71.6493 38.9641C72.1933 38.9641 72.5986 39.0707 72.8653 39.2841C73.132 39.4867 73.2653 39.8281 73.2653 40.3081C72.732 40.0521 72.2466 39.9241 71.8093 39.9241C71.3933 39.9241 71.036 40.0361 70.7373 40.2601C70.4386 40.4841 70.2306 40.8147 70.1133 41.2521C70.0173 41.5507 69.9693 41.8334 69.9693 42.1001C69.9693 42.3881 70.0066 42.6601 70.0813 42.9161C70.1666 43.1614 70.2946 43.4654 70.4653 43.8281C70.6253 44.2014 70.748 44.5214 70.8333 44.7881C70.9293 45.0547 70.9826 45.3427 70.9933 45.6521C70.9933 45.8334 70.9293 45.9667 70.8013 46.0521C70.6733 46.1267 70.524 46.1641 70.3533 46.1641ZM77.5944 46.1641C76.9118 46.1641 76.2824 46.0307 75.7064 45.7641C75.1304 45.4974 74.6718 45.1187 74.3304 44.6281C73.9891 44.1374 73.8184 43.5721 73.8184 42.9321C73.8184 42.2174 73.9518 41.5507 74.2184 40.9321C74.4851 40.3027 74.8744 39.8014 75.3864 39.4281C75.9091 39.0441 76.5171 38.8521 77.2104 38.8521C77.9358 38.8521 78.4851 39.0867 78.8584 39.5561C79.2318 40.0147 79.4078 40.5961 79.3864 41.3001C79.3864 41.9294 79.1358 42.4094 78.6344 42.7401C78.1438 43.0707 77.5144 43.2361 76.7464 43.2361C76.6291 43.2361 76.4531 43.2254 76.2184 43.2041C75.8344 43.1614 75.5624 43.1027 75.4024 43.0281C75.2424 42.9534 75.1624 42.8041 75.1624 42.5801C75.1624 42.5054 75.1838 42.4521 75.2264 42.4201C75.2691 42.3774 75.3544 42.3561 75.4824 42.3561C75.6211 42.3561 75.8664 42.3881 76.2184 42.4521C76.5598 42.5161 76.8638 42.5481 77.1304 42.5481C78.1118 42.5481 78.6024 42.1214 78.6024 41.2681C78.6024 40.7561 78.5064 40.3507 78.3144 40.0521C78.1331 39.7534 77.8078 39.6041 77.3384 39.6041C76.8264 39.6041 76.3678 39.7427 75.9624 40.0201C75.5571 40.2867 75.2424 40.6387 75.0184 41.0761C74.8051 41.5134 74.6984 41.9774 74.6984 42.4681C74.6984 43.3107 74.9331 44.0041 75.4024 44.5481C75.8718 45.0814 76.5971 45.3481 77.5784 45.3481C77.6958 45.3481 77.8931 45.3374 78.1704 45.3161C78.2878 45.3054 78.4318 45.2734 78.6024 45.2201C78.7731 45.1667 78.8958 45.1294 78.9704 45.1081C79.4291 44.9481 79.7651 44.8681 79.9784 44.8681C80.1384 44.8681 80.2611 44.9107 80.3464 44.9961C80.0798 45.4014 79.6798 45.7001 79.1464 45.8921C78.6238 46.0734 78.1064 46.1641 77.5944 46.1641ZM84.6863 46.1641C84.0036 46.1641 83.3743 46.0307 82.7983 45.7641C82.2223 45.4974 81.7636 45.1187 81.4223 44.6281C81.081 44.1374 80.9103 43.5721 80.9103 42.9321C80.9103 42.2174 81.0436 41.5507 81.3103 40.9321C81.577 40.3027 81.9663 39.8014 82.4783 39.4281C83.001 39.0441 83.609 38.8521 84.3023 38.8521C85.0276 38.8521 85.577 39.0867 85.9503 39.5561C86.3236 40.0147 86.4996 40.5961 86.4783 41.3001C86.4783 41.9294 86.2276 42.4094 85.7263 42.7401C85.2356 43.0707 84.6063 43.2361 83.8383 43.2361C83.721 43.2361 83.545 43.2254 83.3103 43.2041C82.9263 43.1614 82.6543 43.1027 82.4943 43.0281C82.3343 42.9534 82.2543 42.8041 82.2543 42.5801C82.2543 42.5054 82.2756 42.4521 82.3183 42.4201C82.361 42.3774 82.4463 42.3561 82.5743 42.3561C82.713 42.3561 82.9583 42.3881 83.3103 42.4521C83.6516 42.5161 83.9556 42.5481 84.2223 42.5481C85.2036 42.5481 85.6943 42.1214 85.6943 41.2681C85.6943 40.7561 85.5983 40.3507 85.4063 40.0521C85.225 39.7534 84.8996 39.6041 84.4303 39.6041C83.9183 39.6041 83.4596 39.7427 83.0543 40.0201C82.649 40.2867 82.3343 40.6387 82.1103 41.0761C81.897 41.5134 81.7903 41.9774 81.7903 42.4681C81.7903 43.3107 82.025 44.0041 82.4943 44.5481C82.9636 45.0814 83.689 45.3481 84.6703 45.3481C84.7876 45.3481 84.985 45.3374 85.2623 45.3161C85.3796 45.3054 85.5236 45.2734 85.6943 45.2201C85.865 45.1667 85.9876 45.1294 86.0623 45.1081C86.521 44.9481 86.857 44.8681 87.0703 44.8681C87.2303 44.8681 87.353 44.9107 87.4383 44.9961C87.1716 45.4014 86.7716 45.7001 86.2383 45.8921C85.7156 46.0734 85.1983 46.1641 84.6863 46.1641ZM89.5222 46.2281C89.3729 46.2707 89.2875 46.2921 89.2662 46.2921C89.1809 46.2921 89.0902 46.2494 88.9942 46.1641C88.6422 45.6414 88.3862 44.7294 88.2262 43.4281C88.0769 42.1267 88.0022 41.0067 88.0022 40.0681C88.0022 39.9187 88.1089 39.8441 88.3222 39.8441C88.6422 39.8441 88.8022 40.0201 88.8022 40.3721C88.8022 40.4681 88.7969 40.5481 88.7862 40.6121C88.8822 40.3881 89.0635 40.1587 89.3302 39.9241C89.5969 39.6894 89.9062 39.4921 90.2582 39.3321C90.6102 39.1721 90.9675 39.0921 91.3302 39.0921C92.4715 39.0921 93.3035 39.5987 93.8262 40.6121C94.3489 41.6147 94.6102 42.8627 94.6102 44.3561C94.6102 44.8681 94.5569 45.2787 94.4502 45.5881C94.3435 45.8867 94.1995 46.0361 94.0182 46.0361C93.8262 46.0361 93.7302 45.9774 93.7302 45.8601C93.8049 45.2947 93.8422 44.7401 93.8422 44.1961C93.8422 42.8201 93.6022 41.7801 93.1222 41.0761C92.6422 40.3614 92.0075 40.0041 91.2182 40.0041C90.8342 40.0041 90.4609 40.1001 90.0982 40.2921C89.7462 40.4841 89.4582 40.7507 89.2342 41.0921C89.0209 41.4334 88.9142 41.8227 88.9142 42.2601C88.9142 42.7507 88.9409 43.1774 88.9942 43.5401C89.0475 43.9027 89.1329 44.3401 89.2502 44.8521C89.3782 45.3534 89.4689 45.8121 89.5222 46.2281Z" fill="black"/>
<path d="M111.094 61.2031L119.654 24.1258" stroke="black" stroke-width="2" stroke-linecap="round"/>
<path d="M147.035 46.6821C146.855 46.6821 146.747 46.6341 146.711 46.5381C146.675 46.4301 146.657 46.2681 146.657 46.0521C146.669 45.9681 146.675 45.8721 146.675 45.7641C146.675 45.6441 146.681 45.5541 146.693 45.4941C146.765 44.9181 146.801 44.3721 146.801 43.8561C146.801 42.7161 146.609 41.8281 146.225 41.1921C145.841 40.5441 145.235 40.2201 144.407 40.2201C143.951 40.2201 143.495 40.3341 143.039 40.5621C142.595 40.7901 142.229 41.0721 141.941 41.4081C141.665 41.7441 141.527 42.0501 141.527 42.3261C141.587 42.6741 141.695 43.1001 141.851 43.6041C141.863 43.6641 141.911 43.8501 141.995 44.1621C142.091 44.4741 142.139 44.7561 142.139 45.0081L142.157 45.3501C142.157 45.5421 142.061 45.6381 141.869 45.6381C141.629 45.6381 141.431 45.4821 141.275 45.1701C141.131 44.8581 140.969 44.3721 140.789 43.7121C140.609 43.0641 140.435 42.5301 140.267 42.1101C140.099 41.6901 139.871 41.3301 139.583 41.0301C139.295 40.7301 138.929 40.5801 138.485 40.5801C137.873 40.5801 137.393 40.7901 137.045 41.2101C136.709 41.6301 136.541 42.1461 136.541 42.7581C136.541 43.1661 136.577 43.7061 136.649 44.3781C136.709 44.8821 136.739 45.3141 136.739 45.6741C136.739 45.8901 136.715 46.0521 136.667 46.1601C136.619 46.2681 136.505 46.3221 136.325 46.3221C136.085 46.3221 135.917 46.2441 135.821 46.0881C135.725 45.9201 135.677 45.6681 135.677 45.3321C135.677 44.6721 135.641 43.8741 135.569 42.9381C135.557 42.8181 135.533 42.5121 135.497 42.0201C135.461 41.5161 135.455 41.0121 135.479 40.5081L135.497 39.9141C135.569 39.8421 135.653 39.8061 135.749 39.8061C135.881 39.8061 135.989 39.8901 136.073 40.0581C136.169 40.2141 136.217 40.4541 136.217 40.7781C136.397 40.4661 136.661 40.1841 137.009 39.9321C137.357 39.6801 137.723 39.5541 138.107 39.5541C138.767 39.5541 139.313 39.6921 139.745 39.9681C140.189 40.2321 140.591 40.6641 140.951 41.2641C141.287 40.6521 141.791 40.1301 142.463 39.6981C143.147 39.2661 143.849 39.0501 144.569 39.0501C145.313 39.0501 145.931 39.3321 146.423 39.8961C146.927 40.4601 147.293 41.1381 147.521 41.9301C147.761 42.7221 147.881 43.4541 147.881 44.1261C147.881 44.7261 147.827 45.3021 147.719 45.8541C147.623 46.4061 147.395 46.6821 147.035 46.6821ZM153.485 46.6641C152.717 46.6641 152.009 46.5141 151.361 46.2141C150.713 45.9141 150.197 45.4881 149.813 44.9361C149.429 44.3841 149.237 43.7481 149.237 43.0281C149.237 42.2241 149.387 41.4741 149.687 40.7781C149.987 40.0701 150.425 39.5061 151.001 39.0861C151.589 38.6541 152.273 38.4381 153.053 38.4381C153.869 38.4381 154.487 38.7021 154.907 39.2301C155.327 39.7461 155.525 40.4001 155.501 41.1921C155.501 41.9001 155.219 42.4401 154.655 42.8121C154.103 43.1841 153.395 43.3701 152.531 43.3701C152.399 43.3701 152.201 43.3581 151.937 43.3341C151.505 43.2861 151.199 43.2201 151.019 43.1361C150.839 43.0521 150.749 42.8841 150.749 42.6321C150.749 42.5481 150.773 42.4881 150.821 42.4521C150.869 42.4041 150.965 42.3801 151.109 42.3801C151.265 42.3801 151.541 42.4161 151.937 42.4881C152.321 42.5601 152.663 42.5961 152.963 42.5961C154.067 42.5961 154.619 42.1161 154.619 41.1561C154.619 40.5801 154.511 40.1241 154.295 39.7881C154.091 39.4521 153.725 39.2841 153.197 39.2841C152.621 39.2841 152.105 39.4401 151.649 39.7521C151.193 40.0521 150.839 40.4481 150.587 40.9401C150.347 41.4321 150.227 41.9541 150.227 42.5061C150.227 43.4541 150.491 44.2341 151.019 44.8461C151.547 45.4461 152.363 45.7461 153.467 45.7461C153.599 45.7461 153.821 45.7341 154.133 45.7101C154.265 45.6981 154.427 45.6621 154.619 45.6021C154.811 45.5421 154.949 45.5001 155.033 45.4761C155.549 45.2961 155.927 45.2061 156.167 45.2061C156.347 45.2061 156.485 45.2541 156.581 45.3501C156.281 45.8061 155.831 46.1421 155.231 46.3581C154.643 46.5621 154.061 46.6641 153.485 46.6641ZM160.294 46.6461C159.73 46.6461 159.238 46.4541 158.818 46.0701C158.41 45.6861 158.098 45.1881 157.882 44.5761C157.678 43.9641 157.576 43.3281 157.576 42.6681C157.576 41.5161 157.816 40.5441 158.296 39.7521C158.788 38.9601 159.532 38.5641 160.528 38.5641C161.128 38.5641 161.65 38.6721 162.094 38.8881C162.55 39.0921 163.144 39.4401 163.876 39.9321L164.344 40.2561C164.284 39.8601 164.194 39.4041 164.074 38.8881C163.954 38.3721 163.876 38.0181 163.84 37.8261C163.636 36.8901 163.486 36.1941 163.39 35.7381C163.306 35.2701 163.264 34.8561 163.264 34.4961C163.264 33.8601 163.444 33.5421 163.804 33.5421C163.936 33.8301 164.092 34.4481 164.272 35.3961C164.452 36.3321 164.68 37.6161 164.956 39.2481C165.244 40.9761 165.496 42.3861 165.712 43.4781C165.928 44.5701 166.108 45.2541 166.252 45.5301C166.252 45.8061 166.048 45.9441 165.64 45.9441C165.328 45.9441 165.112 45.7641 164.992 45.4041C164.884 45.0441 164.818 44.4141 164.794 43.5141H164.65C164.146 44.4261 163.492 45.1761 162.688 45.7641C161.884 46.3521 161.086 46.6461 160.294 46.6461ZM160.528 45.7641C161.02 45.7641 161.548 45.5601 162.112 45.1521C162.688 44.7321 163.174 44.2281 163.57 43.6401C163.966 43.0401 164.164 42.5001 164.164 42.0201V41.4801C162.928 40.1841 161.788 39.5361 160.744 39.5361C160.012 39.5361 159.448 39.8061 159.052 40.3461C158.656 40.8741 158.458 41.5701 158.458 42.4341L158.476 42.8121C158.548 43.7241 158.752 44.4441 159.088 44.9721C159.424 45.5001 159.904 45.7641 160.528 45.7641ZM168.439 46.6821C168.163 46.6821 167.941 46.2801 167.773 45.4761C167.605 44.6601 167.497 43.9581 167.449 43.3701C167.401 42.7821 167.335 41.8521 167.251 40.5801C167.239 40.3761 167.233 40.1121 167.233 39.7881C167.233 39.3801 167.263 39.0981 167.323 38.9421C167.395 38.7861 167.509 38.7081 167.665 38.7081C167.797 38.7081 167.899 38.7381 167.971 38.7981C168.055 38.8461 168.127 38.9301 168.187 39.0501L168.169 39.7701C168.169 40.5381 168.205 41.2641 168.277 41.9481C168.361 42.6321 168.487 43.5501 168.655 44.7021C168.751 45.2061 168.817 45.6201 168.853 45.9441C168.877 46.1121 168.847 46.2801 168.763 46.4481C168.679 46.6041 168.571 46.6821 168.439 46.6821ZM167.989 36.7821C167.725 36.7821 167.527 36.6801 167.395 36.4761C167.275 36.2721 167.215 36.0201 167.215 35.7201C167.215 35.5881 167.221 35.4921 167.233 35.4321C167.221 35.2401 167.329 35.1441 167.557 35.1441C167.725 35.1441 167.893 35.1861 168.061 35.2701C168.241 35.3421 168.295 35.3961 168.223 35.4321C168.343 35.7441 168.403 35.9901 168.403 36.1701C168.403 36.3261 168.367 36.4521 168.295 36.5481C168.223 36.6321 168.121 36.7101 167.989 36.7821ZM178.658 46.5741C178.442 46.5741 178.268 46.4841 178.136 46.3041C178.016 46.1121 177.908 45.8241 177.812 45.4401C177.716 45.0441 177.566 44.3601 177.362 43.3881C177.158 44.1921 176.774 44.8341 176.21 45.3141C175.646 45.7821 174.956 46.0161 174.14 46.0161C173.396 46.0161 172.766 45.7581 172.25 45.2421C171.746 44.7141 171.368 44.0241 171.116 43.1721C170.864 42.3081 170.738 41.3781 170.738 40.3821C170.738 39.9261 170.78 39.5361 170.864 39.2121C170.96 38.8761 171.074 38.6241 171.206 38.4561C171.35 38.2881 171.488 38.2101 171.62 38.2221C171.764 38.2221 171.836 38.3181 171.836 38.5101C171.836 38.6661 171.794 38.9121 171.71 39.2481C171.626 39.6201 171.584 40.0461 171.584 40.5261C171.584 41.2461 171.686 41.9481 171.89 42.6321C172.106 43.3161 172.418 43.8801 172.826 44.3241C173.246 44.7561 173.738 44.9721 174.302 44.9721C174.77 44.9721 175.196 44.8341 175.58 44.5581C175.964 44.2821 176.264 43.9341 176.48 43.5141C176.708 43.0941 176.822 42.6801 176.822 42.2721V39.4101C176.954 39.1581 177.134 39.0321 177.362 39.0321C177.566 39.0321 177.704 39.2061 177.776 39.5541C177.848 39.9021 177.884 40.3941 177.884 41.0301C177.884 41.5701 177.878 41.9841 177.866 42.2721C177.938 42.6681 178.046 43.0701 178.19 43.4781C178.346 43.8861 178.538 44.3481 178.766 44.8641C179.042 45.5001 179.18 45.8901 179.18 46.0341C179.18 46.3941 179.006 46.5741 178.658 46.5741ZM192.218 46.6821C192.038 46.6821 191.93 46.6341 191.894 46.5381C191.858 46.4301 191.84 46.2681 191.84 46.0521C191.852 45.9681 191.858 45.8721 191.858 45.7641C191.858 45.6441 191.864 45.5541 191.876 45.4941C191.948 44.9181 191.984 44.3721 191.984 43.8561C191.984 42.7161 191.792 41.8281 191.408 41.1921C191.024 40.5441 190.418 40.2201 189.59 40.2201C189.134 40.2201 188.678 40.3341 188.222 40.5621C187.778 40.7901 187.412 41.0721 187.124 41.4081C186.848 41.7441 186.71 42.0501 186.71 42.3261C186.77 42.6741 186.878 43.1001 187.034 43.6041C187.046 43.6641 187.094 43.8501 187.178 44.1621C187.274 44.4741 187.322 44.7561 187.322 45.0081L187.34 45.3501C187.34 45.5421 187.244 45.6381 187.052 45.6381C186.812 45.6381 186.614 45.4821 186.458 45.1701C186.314 44.8581 186.152 44.3721 185.972 43.7121C185.792 43.0641 185.618 42.5301 185.45 42.1101C185.282 41.6901 185.054 41.3301 184.766 41.0301C184.478 40.7301 184.112 40.5801 183.668 40.5801C183.056 40.5801 182.576 40.7901 182.228 41.2101C181.892 41.6301 181.724 42.1461 181.724 42.7581C181.724 43.1661 181.76 43.7061 181.832 44.3781C181.892 44.8821 181.922 45.3141 181.922 45.6741C181.922 45.8901 181.898 46.0521 181.85 46.1601C181.802 46.2681 181.688 46.3221 181.508 46.3221C181.268 46.3221 181.1 46.2441 181.004 46.0881C180.908 45.9201 180.86 45.6681 180.86 45.3321C180.86 44.6721 180.824 43.8741 180.752 42.9381C180.74 42.8181 180.716 42.5121 180.68 42.0201C180.644 41.5161 180.638 41.0121 180.662 40.5081L180.68 39.9141C180.752 39.8421 180.836 39.8061 180.932 39.8061C181.064 39.8061 181.172 39.8901 181.256 40.0581C181.352 40.2141 181.4 40.4541 181.4 40.7781C181.58 40.4661 181.844 40.1841 182.192 39.9321C182.54 39.6801 182.906 39.5541 183.29 39.5541C183.95 39.5541 184.496 39.6921 184.928 39.9681C185.372 40.2321 185.774 40.6641 186.134 41.2641C186.47 40.6521 186.974 40.1301 187.646 39.6981C188.33 39.2661 189.032 39.0501 189.752 39.0501C190.496 39.0501 191.114 39.3321 191.606 39.8961C192.11 40.4601 192.476 41.1381 192.704 41.9301C192.944 42.7221 193.064 43.4541 193.064 44.1261C193.064 44.7261 193.01 45.3021 192.902 45.8541C192.806 46.4061 192.578 46.6821 192.218 46.6821ZM198.92 44.5401C199.088 44.4081 199.25 44.3421 199.406 44.3421C199.55 44.3421 199.688 44.3841 199.82 44.4681C199.964 44.5521 200.108 44.6601 200.252 44.7921C200.396 44.9121 200.51 45.0021 200.594 45.0621C200.87 45.2781 201.248 45.4461 201.728 45.5661C202.208 45.6861 202.718 45.7461 203.258 45.7461C203.87 45.7461 204.416 45.6321 204.896 45.4041C205.388 45.1641 205.634 44.8461 205.634 44.4501C205.634 44.0901 205.502 43.8081 205.238 43.6041C204.974 43.3881 204.656 43.2321 204.284 43.1361C203.912 43.0401 203.42 42.9501 202.808 42.8661C201.98 42.7701 201.32 42.6501 200.828 42.5061C200.348 42.3621 199.964 42.1281 199.676 41.8041C199.388 41.4681 199.244 41.0001 199.244 40.4001C199.244 39.7521 199.55 39.2721 200.162 38.9601C200.774 38.6361 201.476 38.4741 202.268 38.4741C202.988 38.4741 203.6 38.6301 204.104 38.9421C204.62 39.2421 204.884 39.6741 204.896 40.2381C204.92 40.5621 204.872 40.8201 204.752 41.0121C204.632 41.1921 204.488 41.2821 204.32 41.2821C204.224 41.2821 204.14 41.2461 204.068 41.1741C204.008 41.1021 203.978 41.0061 203.978 40.8861C203.978 40.6941 204.044 40.4841 204.176 40.2561C204.116 39.9681 203.918 39.7521 203.582 39.6081C203.258 39.4641 202.868 39.3921 202.412 39.3921C201.74 39.3921 201.206 39.5181 200.81 39.7701C200.414 40.0101 200.216 40.2981 200.216 40.6341C200.216 40.9941 200.36 41.2701 200.648 41.4621C200.936 41.6541 201.284 41.7921 201.692 41.8761C202.112 41.9481 202.706 42.0201 203.474 42.0921C204.11 42.1761 204.626 42.2781 205.022 42.3981C205.43 42.5181 205.772 42.7521 206.048 43.1001C206.324 43.4361 206.462 43.9221 206.462 44.5581C206.462 45.2181 206.156 45.7401 205.544 46.1241C204.932 46.4961 204.2 46.6821 203.348 46.6821C202.256 46.6821 201.278 46.4961 200.414 46.1241C199.562 45.7521 199.064 45.2241 198.92 44.5401ZM212.326 46.6821C210.922 46.6821 209.83 46.3641 209.05 45.7281C208.282 45.0801 207.898 44.0841 207.898 42.7401C207.898 42.0561 208.066 41.4081 208.402 40.7961C208.75 40.1721 209.212 39.6741 209.788 39.3021C210.376 38.9181 211.006 38.7261 211.678 38.7261C212.362 38.7261 212.944 38.8761 213.424 39.1761C213.904 39.4641 214.144 39.8841 214.144 40.4361C214.144 40.8201 214.072 41.0961 213.928 41.2641C213.796 41.4201 213.646 41.4981 213.478 41.4981C213.478 40.9221 213.322 40.4541 213.01 40.0941C212.698 39.7341 212.254 39.5541 211.678 39.5541C211.102 39.5541 210.604 39.7101 210.184 40.0221C209.764 40.3221 209.44 40.7241 209.212 41.2281C208.996 41.7201 208.888 42.2361 208.888 42.7761C208.888 43.9161 209.272 44.6901 210.04 45.0981C210.82 45.5061 211.846 45.7101 213.118 45.7101C213.55 45.7101 214.114 45.6861 214.81 45.6381C214.834 45.6381 214.888 45.6621 214.972 45.7101C215.056 45.7581 215.122 45.7881 215.17 45.8001V45.9081C215.17 46.2561 214.864 46.4721 214.252 46.5561C213.64 46.6401 212.998 46.6821 212.326 46.6821ZM217.39 46.6641C216.898 45.7041 216.508 44.5761 216.22 43.2801C215.944 41.9841 215.806 40.8621 215.806 39.9141C215.806 39.5421 215.89 39.3021 216.058 39.1941C216.154 39.1341 216.226 39.1041 216.274 39.1041C216.358 39.1041 216.418 39.1701 216.454 39.3021C216.502 39.4341 216.55 39.6741 216.598 40.0221L216.688 40.6701C216.82 40.0221 217.072 39.5121 217.444 39.1401C217.828 38.7561 218.296 38.5641 218.848 38.5641C219.46 38.5641 219.916 38.6841 220.216 38.9241C220.516 39.1521 220.666 39.5361 220.666 40.0761C220.066 39.7881 219.52 39.6441 219.028 39.6441C218.56 39.6441 218.158 39.7701 217.822 40.0221C217.486 40.2741 217.252 40.6461 217.12 41.1381C217.012 41.4741 216.958 41.7921 216.958 42.0921C216.958 42.4161 217 42.7221 217.084 43.0101C217.18 43.2861 217.324 43.6281 217.516 44.0361C217.696 44.4561 217.834 44.8161 217.93 45.1161C218.038 45.4161 218.098 45.7401 218.11 46.0881C218.11 46.2921 218.038 46.4421 217.894 46.5381C217.75 46.6221 217.582 46.6641 217.39 46.6641ZM225.537 46.6641C224.769 46.6641 224.061 46.5141 223.413 46.2141C222.765 45.9141 222.249 45.4881 221.865 44.9361C221.481 44.3841 221.289 43.7481 221.289 43.0281C221.289 42.2241 221.439 41.4741 221.739 40.7781C222.039 40.0701 222.477 39.5061 223.053 39.0861C223.641 38.6541 224.325 38.4381 225.105 38.4381C225.921 38.4381 226.539 38.7021 226.959 39.2301C227.379 39.7461 227.577 40.4001 227.553 41.1921C227.553 41.9001 227.271 42.4401 226.707 42.8121C226.155 43.1841 225.447 43.3701 224.583 43.3701C224.451 43.3701 224.253 43.3581 223.989 43.3341C223.557 43.2861 223.251 43.2201 223.071 43.1361C222.891 43.0521 222.801 42.8841 222.801 42.6321C222.801 42.5481 222.825 42.4881 222.873 42.4521C222.921 42.4041 223.017 42.3801 223.161 42.3801C223.317 42.3801 223.593 42.4161 223.989 42.4881C224.373 42.5601 224.715 42.5961 225.015 42.5961C226.119 42.5961 226.671 42.1161 226.671 41.1561C226.671 40.5801 226.563 40.1241 226.347 39.7881C226.143 39.4521 225.777 39.2841 225.249 39.2841C224.673 39.2841 224.157 39.4401 223.701 39.7521C223.245 40.0521 222.891 40.4481 222.639 40.9401C222.399 41.4321 222.279 41.9541 222.279 42.5061C222.279 43.4541 222.543 44.2341 223.071 44.8461C223.599 45.4461 224.415 45.7461 225.519 45.7461C225.651 45.7461 225.873 45.7341 226.185 45.7101C226.317 45.6981 226.479 45.6621 226.671 45.6021C226.863 45.5421 227.001 45.5001 227.085 45.4761C227.601 45.2961 227.979 45.2061 228.219 45.2061C228.399 45.2061 228.537 45.2541 228.633 45.3501C228.333 45.8061 227.883 46.1421 227.283 46.3581C226.695 46.5621 226.113 46.6641 225.537 46.6641ZM233.515 46.6641C232.747 46.6641 232.039 46.5141 231.391 46.2141C230.743 45.9141 230.227 45.4881 229.843 44.9361C229.459 44.3841 229.267 43.7481 229.267 43.0281C229.267 42.2241 229.417 41.4741 229.717 40.7781C230.017 40.0701 230.455 39.5061 231.031 39.0861C231.619 38.6541 232.303 38.4381 233.083 38.4381C233.899 38.4381 234.517 38.7021 234.937 39.2301C235.357 39.7461 235.555 40.4001 235.531 41.1921C235.531 41.9001 235.249 42.4401 234.685 42.8121C234.133 43.1841 233.425 43.3701 232.561 43.3701C232.429 43.3701 232.231 43.3581 231.967 43.3341C231.535 43.2861 231.229 43.2201 231.049 43.1361C230.869 43.0521 230.779 42.8841 230.779 42.6321C230.779 42.5481 230.803 42.4881 230.851 42.4521C230.899 42.4041 230.995 42.3801 231.139 42.3801C231.295 42.3801 231.571 42.4161 231.967 42.4881C232.351 42.5601 232.693 42.5961 232.993 42.5961C234.097 42.5961 234.649 42.1161 234.649 41.1561C234.649 40.5801 234.541 40.1241 234.325 39.7881C234.121 39.4521 233.755 39.2841 233.227 39.2841C232.651 39.2841 232.135 39.4401 231.679 39.7521C231.223 40.0521 230.869 40.4481 230.617 40.9401C230.377 41.4321 230.257 41.9541 230.257 42.5061C230.257 43.4541 230.521 44.2341 231.049 44.8461C231.577 45.4461 232.393 45.7461 233.497 45.7461C233.629 45.7461 233.851 45.7341 234.163 45.7101C234.295 45.6981 234.457 45.6621 234.649 45.6021C234.841 45.5421 234.979 45.5001 235.063 45.4761C235.579 45.2961 235.957 45.2061 236.197 45.2061C236.377 45.2061 236.515 45.2541 236.611 45.3501C236.311 45.8061 235.861 46.1421 235.261 46.3581C234.673 46.5621 234.091 46.6641 233.515 46.6641ZM238.955 46.7361C238.787 46.7841 238.691 46.8081 238.667 46.8081C238.571 46.8081 238.469 46.7601 238.361 46.6641C237.965 46.0761 237.677 45.0501 237.497 43.5861C237.329 42.1221 237.245 40.8621 237.245 39.8061C237.245 39.6381 237.365 39.5541 237.605 39.5541C237.965 39.5541 238.145 39.7521 238.145 40.1481C238.145 40.2561 238.139 40.3461 238.127 40.4181C238.235 40.1661 238.439 39.9081 238.739 39.6441C239.039 39.3801 239.387 39.1581 239.783 38.9781C240.179 38.7981 240.581 38.7081 240.989 38.7081C242.273 38.7081 243.209 39.2781 243.797 40.4181C244.385 41.5461 244.679 42.9501 244.679 44.6301C244.679 45.2061 244.619 45.6681 244.499 46.0161C244.379 46.3521 244.217 46.5201 244.013 46.5201C243.797 46.5201 243.689 46.4541 243.689 46.3221C243.773 45.6861 243.815 45.0621 243.815 44.4501C243.815 42.9021 243.545 41.7321 243.005 40.9401C242.465 40.1361 241.751 39.7341 240.863 39.7341C240.431 39.7341 240.011 39.8421 239.603 40.0581C239.207 40.2741 238.883 40.5741 238.631 40.9581C238.391 41.3421 238.271 41.7801 238.271 42.2721C238.271 42.8241 238.301 43.3041 238.361 43.7121C238.421 44.1201 238.517 44.6121 238.649 45.1881C238.793 45.7521 238.895 46.2681 238.955 46.7361Z" fill="black"/>
<path d="M260.609 60.6328L268.905 24.7013" stroke="black" stroke-width="2" stroke-linecap="round"/>
<path d="M286.163 47.9961C285.811 46.2521 285.539 44.1881 285.347 41.8041C285.171 39.4041 285.083 37.0841 285.083 34.8441C285.083 33.7241 285.107 32.7321 285.155 31.8681C285.155 31.6601 285.315 31.5561 285.635 31.5561C285.891 31.5561 286.051 31.6201 286.115 31.7481C286.195 31.8761 286.235 32.0761 286.235 32.3481C286.235 34.9401 286.283 37.1561 286.379 38.9961C286.475 40.8201 286.603 42.7881 286.763 44.9001C286.859 46.2601 286.923 47.1801 286.955 47.6601C286.971 47.9161 286.835 48.0441 286.547 48.0441C286.451 48.0441 286.323 48.0281 286.163 47.9961ZM294.922 48.1641C293.258 48.1641 291.81 47.8761 290.578 47.3001C289.362 46.7081 288.754 45.6761 288.754 44.2041C288.754 43.6761 288.914 43.1641 289.234 42.6681C289.554 42.1721 290.026 41.7721 290.65 41.4681C291.274 41.1481 292.034 40.9881 292.93 40.9881C293.618 40.9881 294.202 41.0201 294.682 41.0841C295.162 41.1481 295.714 41.3241 296.338 41.6121C296.962 41.9001 297.61 42.3561 298.282 42.9801C298.026 41.8761 297.642 40.9081 297.13 40.0761C296.618 39.2441 296.042 38.6041 295.402 38.1561C294.778 37.6921 294.162 37.4601 293.554 37.4601C293.266 37.4601 292.994 37.5161 292.738 37.6281C292.498 37.7241 292.202 37.8681 291.85 38.0601C291.45 38.3161 291.154 38.4441 290.962 38.4441C290.882 38.4441 290.81 38.4201 290.746 38.3721C290.698 38.3081 290.674 38.2361 290.674 38.1561C290.674 37.5161 290.954 37.0201 291.514 36.6681C292.09 36.3161 292.786 36.1561 293.602 36.1881C294.722 36.2521 295.746 36.7321 296.674 37.6281C297.602 38.5081 298.33 39.6041 298.858 40.9161C299.402 42.2281 299.674 43.5161 299.674 44.7801C299.674 44.9881 299.658 45.2841 299.626 45.6681L298.858 45.6201C298.25 44.3881 297.466 43.5161 296.506 43.0041C295.562 42.4761 294.61 42.2121 293.65 42.2121C292.418 42.2121 291.538 42.3961 291.01 42.7641C290.482 43.1321 290.218 43.6681 290.218 44.3721C290.218 45.1081 290.586 45.7001 291.322 46.1481C292.058 46.5961 293.002 46.8201 294.154 46.8201C294.794 46.8201 295.306 46.7881 295.69 46.7241C296.074 46.6441 296.474 46.5401 296.89 46.4121C297.226 46.3001 297.522 46.2201 297.778 46.1721C298.034 46.1241 298.362 46.1001 298.762 46.1001C299.21 46.1001 299.49 46.1321 299.602 46.1961C299.73 46.2601 299.794 46.4041 299.794 46.6281C299.794 46.7881 299.466 46.9881 298.81 47.2281C298.154 47.4681 297.418 47.6841 296.602 47.8761C295.786 48.0681 295.226 48.1641 294.922 48.1641ZM303.707 48.1641C303.051 46.8841 302.531 45.3801 302.147 43.6521C301.779 41.9241 301.595 40.4281 301.595 39.1641C301.595 38.6681 301.707 38.3481 301.931 38.2041C302.059 38.1241 302.155 38.0841 302.219 38.0841C302.331 38.0841 302.411 38.1721 302.459 38.3481C302.523 38.5241 302.587 38.8441 302.651 39.3081L302.771 40.1721C302.947 39.3081 303.283 38.6281 303.779 38.1321C304.291 37.6201 304.915 37.3641 305.651 37.3641C306.467 37.3641 307.075 37.5241 307.475 37.8441C307.875 38.1481 308.075 38.6601 308.075 39.3801C307.275 38.9961 306.547 38.8041 305.891 38.8041C305.267 38.8041 304.731 38.9721 304.283 39.3081C303.835 39.6441 303.523 40.1401 303.347 40.7961C303.203 41.2441 303.131 41.6681 303.131 42.0681C303.131 42.5001 303.187 42.9081 303.299 43.2921C303.427 43.6601 303.619 44.1161 303.875 44.6601C304.115 45.2201 304.299 45.7001 304.427 46.1001C304.571 46.5001 304.651 46.9321 304.667 47.3961C304.667 47.6681 304.571 47.8681 304.379 47.9961C304.187 48.1081 303.963 48.1641 303.707 48.1641ZM312.937 59.8761C311.593 59.8761 310.465 59.4921 309.553 58.7241C308.657 57.9721 308.121 56.7001 307.945 54.9081C307.929 54.6361 307.969 54.4281 308.065 54.2841C308.177 54.1401 308.321 54.0681 308.497 54.0681C308.689 54.0681 308.857 54.1401 309.001 54.2841C309.145 54.4441 309.209 54.6521 309.193 54.9081C309.193 55.9641 309.553 56.7961 310.273 57.4041C311.009 58.0281 311.945 58.3401 313.081 58.3401C313.737 58.3401 314.313 58.1001 314.809 57.6201C315.321 57.1401 315.713 56.4681 315.985 55.6041C316.257 54.7561 316.393 53.7801 316.393 52.6761C316.393 50.7401 316.417 48.8601 316.465 47.0361L316.489 45.8121C315.865 46.4681 315.297 46.9481 314.785 47.2521C314.289 47.5561 313.689 47.7081 312.985 47.7081C311.753 47.7081 310.841 47.3801 310.249 46.7241C309.673 46.0521 309.385 45.0281 309.385 43.6521C309.385 42.8681 309.593 42.0521 310.009 41.2041C310.441 40.3401 311.025 39.6201 311.761 39.0441C312.513 38.4681 313.361 38.1801 314.305 38.1801C314.625 38.1801 314.921 38.2121 315.193 38.2761C316.217 38.5001 316.905 39.4521 317.257 41.1321C317.609 42.8121 317.785 44.9881 317.785 47.6601C317.785 48.3961 317.769 49.3721 317.737 50.5881L317.713 52.8681C317.713 53.7801 317.569 54.7721 317.281 55.8441C316.993 56.9321 316.489 57.8761 315.769 58.6761C315.049 59.4761 314.105 59.8761 312.937 59.8761ZM312.625 46.1241C313.809 46.1241 314.705 45.8441 315.313 45.2841C315.921 44.7081 316.225 43.8681 316.225 42.7641C316.225 42.6201 316.209 42.3721 316.177 42.0201C316.097 41.2841 315.905 40.7081 315.601 40.2921C315.313 39.8601 314.857 39.6441 314.233 39.6441C313.577 39.6441 312.977 39.8761 312.433 40.3401C311.889 40.8041 311.465 41.3801 311.161 42.0681C310.857 42.7401 310.705 43.3721 310.705 43.9641C310.705 44.5561 310.881 45.0681 311.233 45.5001C311.585 45.9161 312.049 46.1241 312.625 46.1241ZM325.253 48.1641C324.229 48.1641 323.285 47.9641 322.421 47.5641C321.557 47.1641 320.869 46.5961 320.357 45.8601C319.845 45.1241 319.589 44.2761 319.589 43.3161C319.589 42.2441 319.789 41.2441 320.189 40.3161C320.589 39.3721 321.173 38.6201 321.941 38.0601C322.725 37.4841 323.637 37.1961 324.677 37.1961C325.765 37.1961 326.589 37.5481 327.149 38.2521C327.709 38.9401 327.973 39.8121 327.941 40.8681C327.941 41.8121 327.565 42.5321 326.813 43.0281C326.077 43.5241 325.133 43.7721 323.981 43.7721C323.805 43.7721 323.541 43.7561 323.189 43.7241C322.613 43.6601 322.205 43.5721 321.965 43.4601C321.725 43.3481 321.605 43.1241 321.605 42.7881C321.605 42.6761 321.637 42.5961 321.701 42.5481C321.765 42.4841 321.893 42.4521 322.085 42.4521C322.293 42.4521 322.661 42.5001 323.189 42.5961C323.701 42.6921 324.157 42.7401 324.557 42.7401C326.029 42.7401 326.765 42.1001 326.765 40.8201C326.765 40.0521 326.621 39.4441 326.333 38.9961C326.061 38.5481 325.573 38.3241 324.869 38.3241C324.101 38.3241 323.413 38.5321 322.805 38.9481C322.197 39.3481 321.725 39.8761 321.389 40.5321C321.069 41.1881 320.909 41.8841 320.909 42.6201C320.909 43.8841 321.261 44.9241 321.965 45.7401C322.669 46.5401 323.757 46.9401 325.229 46.9401C325.405 46.9401 325.701 46.9241 326.117 46.8921C326.293 46.8761 326.509 46.8281 326.765 46.7481C327.021 46.6681 327.205 46.6121 327.317 46.5801C328.005 46.3401 328.509 46.2201 328.829 46.2201C329.069 46.2201 329.253 46.2841 329.381 46.4121C328.981 47.0201 328.381 47.4681 327.581 47.7561C326.797 48.0281 326.021 48.1641 325.253 48.1641ZM342.107 45.3321C342.331 45.1561 342.547 45.0681 342.755 45.0681C342.947 45.0681 343.131 45.1241 343.307 45.2361C343.499 45.3481 343.691 45.4921 343.883 45.6681C344.075 45.8281 344.227 45.9481 344.339 46.0281C344.707 46.3161 345.211 46.5401 345.851 46.7001C346.491 46.8601 347.171 46.9401 347.891 46.9401C348.707 46.9401 349.435 46.7881 350.075 46.4841C350.731 46.1641 351.059 45.7401 351.059 45.2121C351.059 44.7321 350.883 44.3561 350.531 44.0841C350.179 43.7961 349.755 43.5881 349.259 43.4601C348.763 43.3321 348.107 43.2121 347.291 43.1001C346.187 42.9721 345.307 42.8121 344.651 42.6201C344.011 42.4281 343.499 42.1161 343.115 41.6841C342.731 41.2361 342.539 40.6121 342.539 39.8121C342.539 38.9481 342.947 38.3081 343.763 37.8921C344.579 37.4601 345.515 37.2441 346.571 37.2441C347.531 37.2441 348.347 37.4521 349.019 37.8681C349.707 38.2681 350.059 38.8441 350.075 39.5961C350.107 40.0281 350.043 40.3721 349.883 40.6281C349.723 40.8681 349.531 40.9881 349.307 40.9881C349.179 40.9881 349.067 40.9401 348.971 40.8441C348.891 40.7481 348.851 40.6201 348.851 40.4601C348.851 40.2041 348.939 39.9241 349.115 39.6201C349.035 39.2361 348.771 38.9481 348.323 38.7561C347.891 38.5641 347.371 38.4681 346.763 38.4681C345.867 38.4681 345.155 38.6361 344.627 38.9721C344.099 39.2921 343.835 39.6761 343.835 40.1241C343.835 40.6041 344.027 40.9721 344.411 41.2281C344.795 41.4841 345.259 41.6681 345.803 41.7801C346.363 41.8761 347.155 41.9721 348.179 42.0681C349.027 42.1801 349.715 42.3161 350.243 42.4761C350.787 42.6361 351.243 42.9481 351.611 43.4121C351.979 43.8601 352.163 44.5081 352.163 45.3561C352.163 46.2361 351.755 46.9321 350.939 47.4441C350.123 47.9401 349.147 48.1881 348.011 48.1881C346.555 48.1881 345.251 47.9401 344.099 47.4441C342.963 46.9481 342.299 46.2441 342.107 45.3321ZM359.982 48.1881C358.11 48.1881 356.654 47.7641 355.614 46.9161C354.59 46.0521 354.078 44.7241 354.078 42.9321C354.078 42.0201 354.302 41.1561 354.75 40.3401C355.214 39.5081 355.83 38.8441 356.598 38.3481C357.382 37.8361 358.222 37.5801 359.118 37.5801C360.03 37.5801 360.806 37.7801 361.446 38.1801C362.086 38.5641 362.406 39.1241 362.406 39.8601C362.406 40.3721 362.31 40.7401 362.118 40.9641C361.942 41.1721 361.742 41.2761 361.518 41.2761C361.518 40.5081 361.31 39.8841 360.894 39.4041C360.478 38.9241 359.886 38.6841 359.118 38.6841C358.35 38.6841 357.686 38.8921 357.126 39.3081C356.566 39.7081 356.134 40.2441 355.83 40.9161C355.542 41.5721 355.398 42.2601 355.398 42.9801C355.398 44.5001 355.91 45.5321 356.934 46.0761C357.974 46.6201 359.342 46.8921 361.038 46.8921C361.614 46.8921 362.366 46.8601 363.294 46.7961C363.326 46.7961 363.398 46.8281 363.51 46.8921C363.622 46.9561 363.71 46.9961 363.774 47.0121V47.1561C363.774 47.6201 363.366 47.9081 362.55 48.0201C361.734 48.1321 360.878 48.1881 359.982 48.1881ZM366.734 48.1641C366.078 46.8841 365.558 45.3801 365.174 43.6521C364.806 41.9241 364.622 40.4281 364.622 39.1641C364.622 38.6681 364.734 38.3481 364.958 38.2041C365.086 38.1241 365.182 38.0841 365.246 38.0841C365.358 38.0841 365.438 38.1721 365.486 38.3481C365.55 38.5241 365.614 38.8441 365.678 39.3081L365.798 40.1721C365.974 39.3081 366.31 38.6281 366.806 38.1321C367.318 37.6201 367.942 37.3641 368.678 37.3641C369.494 37.3641 370.102 37.5241 370.502 37.8441C370.902 38.1481 371.102 38.6601 371.102 39.3801C370.302 38.9961 369.574 38.8041 368.918 38.8041C368.294 38.8041 367.758 38.9721 367.31 39.3081C366.862 39.6441 366.55 40.1401 366.374 40.7961C366.23 41.2441 366.158 41.6681 366.158 42.0681C366.158 42.5001 366.214 42.9081 366.326 43.2921C366.454 43.6601 366.646 44.1161 366.902 44.6601C367.142 45.2201 367.326 45.7001 367.454 46.1001C367.598 46.5001 367.678 46.9321 367.694 47.3961C367.694 47.6681 367.598 47.8681 367.406 47.9961C367.214 48.1081 366.99 48.1641 366.734 48.1641ZM377.596 48.1641C376.572 48.1641 375.628 47.9641 374.764 47.5641C373.9 47.1641 373.212 46.5961 372.7 45.8601C372.188 45.1241 371.932 44.2761 371.932 43.3161C371.932 42.2441 372.132 41.2441 372.532 40.3161C372.932 39.3721 373.516 38.6201 374.284 38.0601C375.068 37.4841 375.98 37.1961 377.02 37.1961C378.108 37.1961 378.932 37.5481 379.492 38.2521C380.052 38.9401 380.316 39.8121 380.284 40.8681C380.284 41.8121 379.908 42.5321 379.156 43.0281C378.42 43.5241 377.476 43.7721 376.324 43.7721C376.148 43.7721 375.884 43.7561 375.532 43.7241C374.956 43.6601 374.548 43.5721 374.308 43.4601C374.068 43.3481 373.948 43.1241 373.948 42.7881C373.948 42.6761 373.98 42.5961 374.044 42.5481C374.108 42.4841 374.236 42.4521 374.428 42.4521C374.636 42.4521 375.004 42.5001 375.532 42.5961C376.044 42.6921 376.5 42.7401 376.9 42.7401C378.372 42.7401 379.108 42.1001 379.108 40.8201C379.108 40.0521 378.964 39.4441 378.676 38.9961C378.404 38.5481 377.916 38.3241 377.212 38.3241C376.444 38.3241 375.756 38.5321 375.148 38.9481C374.54 39.3481 374.068 39.8761 373.732 40.5321C373.412 41.1881 373.252 41.8841 373.252 42.6201C373.252 43.8841 373.604 44.9241 374.308 45.7401C375.012 46.5401 376.1 46.9401 377.572 46.9401C377.748 46.9401 378.044 46.9241 378.46 46.8921C378.636 46.8761 378.852 46.8281 379.108 46.7481C379.364 46.6681 379.548 46.6121 379.66 46.5801C380.348 46.3401 380.852 46.2201 381.172 46.2201C381.412 46.2201 381.596 46.2841 381.724 46.4121C381.324 47.0201 380.724 47.4681 379.924 47.7561C379.14 48.0281 378.364 48.1641 377.596 48.1641ZM388.234 48.1641C387.21 48.1641 386.266 47.9641 385.402 47.5641C384.538 47.1641 383.85 46.5961 383.338 45.8601C382.826 45.1241 382.57 44.2761 382.57 43.3161C382.57 42.2441 382.77 41.2441 383.17 40.3161C383.57 39.3721 384.154 38.6201 384.922 38.0601C385.706 37.4841 386.618 37.1961 387.658 37.1961C388.746 37.1961 389.57 37.5481 390.13 38.2521C390.69 38.9401 390.954 39.8121 390.922 40.8681C390.922 41.8121 390.546 42.5321 389.794 43.0281C389.058 43.5241 388.114 43.7721 386.962 43.7721C386.786 43.7721 386.522 43.7561 386.17 43.7241C385.594 43.6601 385.186 43.5721 384.946 43.4601C384.706 43.3481 384.586 43.1241 384.586 42.7881C384.586 42.6761 384.618 42.5961 384.682 42.5481C384.746 42.4841 384.874 42.4521 385.066 42.4521C385.274 42.4521 385.642 42.5001 386.17 42.5961C386.682 42.6921 387.138 42.7401 387.538 42.7401C389.01 42.7401 389.746 42.1001 389.746 40.8201C389.746 40.0521 389.602 39.4441 389.314 38.9961C389.042 38.5481 388.554 38.3241 387.85 38.3241C387.082 38.3241 386.394 38.5321 385.786 38.9481C385.178 39.3481 384.706 39.8761 384.37 40.5321C384.05 41.1881 383.89 41.8841 383.89 42.6201C383.89 43.8841 384.242 44.9241 384.946 45.7401C385.65 46.5401 386.738 46.9401 388.21 46.9401C388.386 46.9401 388.682 46.9241 389.098 46.8921C389.274 46.8761 389.49 46.8281 389.746 46.7481C390.002 46.6681 390.186 46.6121 390.298 46.5801C390.986 46.3401 391.49 46.2201 391.81 46.2201C392.05 46.2201 392.234 46.2841 392.362 46.4121C391.962 47.0201 391.362 47.4681 390.562 47.7561C389.778 48.0281 389.002 48.1641 388.234 48.1641ZM395.487 48.2601C395.263 48.3241 395.135 48.3561 395.103 48.3561C394.975 48.3561 394.839 48.2921 394.695 48.1641C394.167 47.3801 393.783 46.0121 393.543 44.0601C393.319 42.1081 393.207 40.4281 393.207 39.0201C393.207 38.7961 393.367 38.6841 393.687 38.6841C394.167 38.6841 394.407 38.9481 394.407 39.4761C394.407 39.6201 394.399 39.7401 394.383 39.8361C394.527 39.5001 394.799 39.1561 395.199 38.8041C395.599 38.4521 396.063 38.1561 396.591 37.9161C397.119 37.6761 397.655 37.5561 398.199 37.5561C399.911 37.5561 401.159 38.3161 401.943 39.8361C402.727 41.3401 403.119 43.2121 403.119 45.4521C403.119 46.2201 403.039 46.8361 402.879 47.3001C402.719 47.7481 402.503 47.9721 402.231 47.9721C401.943 47.9721 401.799 47.8841 401.799 47.7081C401.911 46.8601 401.967 46.0281 401.967 45.2121C401.967 43.1481 401.607 41.5881 400.887 40.5321C400.167 39.4601 399.215 38.9241 398.031 38.9241C397.455 38.9241 396.895 39.0681 396.351 39.3561C395.823 39.6441 395.391 40.0441 395.055 40.5561C394.735 41.0681 394.575 41.6521 394.575 42.3081C394.575 43.0441 394.615 43.6841 394.695 44.2281C394.775 44.7721 394.903 45.4281 395.079 46.1961C395.271 46.9481 395.407 47.6361 395.487 48.2601Z" fill="black"/>
</svg>
